G04 Layer: BottomSilkLayer*
G04 EasyEDA v5.9.42, Mon, 25 Feb 2019 13:08:34 GMT*
G04 04bc916e9f0e400680881ea13b59f611*
G04 Gerber Generator version 0.2*
G04 Scale: 100 percent, Rotated: No, Reflected: No *
G04 Dimensions in millimeters *
G04 leading zeros omitted , absolute positions ,3 integer and 3 decimal *
%FSLAX33Y33*%
%MOMM*%
G90*
G71D02*

%ADD10C,0.254000*%
%ADD21C,0.200000*%
%ADD35C,0.199898*%
%ADD38C,0.177800*%
%ADD40C,0.228600*%
%ADD41C,0.127000*%
%ADD42C,0.399999*%
%ADD43C,0.299999*%
%ADD44C,0.299720*%
%ADD45C,0.599440*%

%LPD*%

%LPD*%
G36*
G01X5228Y74900D02*
G01X5211Y74921D01*
G01X5206Y74916D01*
G01X5194Y74899D01*
G01X5155Y74835D01*
G01X5127Y74789D01*
G01X5096Y74736D01*
G01X5021Y74608D01*
G01X4979Y74535D01*
G01X4839Y74289D01*
G01X4755Y74141D01*
G01X4678Y74005D01*
G01X4609Y73884D01*
G01X4546Y73773D01*
G01X4489Y73675D01*
G01X4439Y73587D01*
G01X4393Y73510D01*
G01X4353Y73442D01*
G01X4318Y73383D01*
G01X4287Y73332D01*
G01X4235Y73254D01*
G01X4213Y73224D01*
G01X4195Y73200D01*
G01X4179Y73180D01*
G01X4164Y73166D01*
G01X4151Y73155D01*
G01X4138Y73147D01*
G01X4127Y73141D01*
G01X4115Y73137D01*
G01X4061Y73116D01*
G01X4013Y73085D01*
G01X3974Y73047D01*
G01X3944Y73003D01*
G01X3925Y72955D01*
G01X3916Y72906D01*
G01X3920Y72855D01*
G01X3937Y72806D01*
G01X3969Y72751D01*
G01X4006Y72708D01*
G01X4047Y72678D01*
G01X4092Y72660D01*
G01X4141Y72655D01*
G01X4193Y72662D01*
G01X4249Y72682D01*
G01X4308Y72715D01*
G01X4407Y72779D01*
G01X5532Y72779D01*
G01X5655Y72778D01*
G01X5756Y72777D01*
G01X5837Y72775D01*
G01X5902Y72772D01*
G01X5951Y72768D01*
G01X5988Y72763D01*
G01X6015Y72757D01*
G01X6035Y72750D01*
G01X6050Y72741D01*
G01X6063Y72730D01*
G01X6098Y72702D01*
G01X6138Y72683D01*
G01X6181Y72672D01*
G01X6226Y72669D01*
G01X6270Y72674D01*
G01X6313Y72688D01*
G01X6352Y72710D01*
G01X6387Y72739D01*
G01X6421Y72785D01*
G01X6442Y72836D01*
G01X6449Y72890D01*
G01X6443Y72945D01*
G01X6425Y72998D01*
G01X6395Y73047D01*
G01X6354Y73091D01*
G01X6302Y73126D01*
G01X6283Y73140D01*
G01X6261Y73162D01*
G01X6234Y73194D01*
G01X6205Y73234D01*
G01X6172Y73283D01*
G01X6136Y73340D01*
G01X6096Y73406D01*
G01X6052Y73481D01*
G01X6027Y73526D01*
G01X5999Y73575D01*
G01X5969Y73626D01*
G01X5939Y73680D01*
G01X5908Y73734D01*
G01X5876Y73789D01*
G01X5845Y73843D01*
G01X5814Y73896D01*
G01X5785Y73947D01*
G01X5756Y73996D01*
G01X5730Y74041D01*
G01X5706Y74083D01*
G01X5682Y74123D01*
G01X5657Y74168D01*
G01X5629Y74215D01*
G01X5601Y74264D01*
G01X5572Y74314D01*
G01X5543Y74365D01*
G01X5513Y74415D01*
G01X5485Y74465D01*
G01X5457Y74514D01*
G01X5430Y74560D01*
G01X5405Y74604D01*
G01X5382Y74644D01*
G01X5320Y74752D01*
G01X5267Y74840D01*
G01X5228Y74900D01*
G37*

%LPC*%
G36*
G01X4178Y72950D02*
G01X4138Y72955D01*
G01X4101Y72936D01*
G01X4085Y72895D01*
G01X4098Y72859D01*
G01X4129Y72837D01*
G01X4166Y72832D01*
G01X4200Y72850D01*
G01X4208Y72862D01*
G01X4212Y72880D01*
G01X4211Y72899D01*
G01X4207Y72918D01*
G01X4178Y72950D01*
G37*
G36*
G01X6264Y72949D02*
G01X6247Y72956D01*
G01X6219Y72955D01*
G01X6195Y72948D01*
G01X6177Y72936D01*
G01X6167Y72918D01*
G01X6163Y72895D01*
G01X6167Y72872D01*
G01X6177Y72854D01*
G01X6195Y72842D01*
G01X6219Y72836D01*
G01X6247Y72834D01*
G01X6264Y72842D01*
G01X6272Y72861D01*
G01X6274Y72895D01*
G01X6272Y72929D01*
G01X6264Y72949D01*
G37*
G36*
G01X4832Y73447D02*
G01X4824Y73453D01*
G01X4810Y73442D01*
G01X4790Y73411D01*
G01X4763Y73360D01*
G01X4728Y73290D01*
G01X4704Y73241D01*
G01X4685Y73200D01*
G01X4672Y73169D01*
G01X4667Y73154D01*
G01X4674Y73149D01*
G01X4692Y73144D01*
G01X4720Y73141D01*
G01X4753Y73140D01*
G01X4840Y73140D01*
G01X4840Y73315D01*
G01X4839Y73377D01*
G01X4837Y73421D01*
G01X4832Y73447D01*
G37*
G36*
G01X5575Y73512D02*
G01X5563Y73527D01*
G01X5561Y73512D01*
G01X5559Y73471D01*
G01X5558Y73409D01*
G01X5557Y73334D01*
G01X5557Y73140D01*
G01X5668Y73140D01*
G01X5712Y73142D01*
G01X5747Y73145D01*
G01X5771Y73150D01*
G01X5780Y73156D01*
G01X5771Y73177D01*
G01X5748Y73221D01*
G01X5714Y73281D01*
G01X5675Y73348D01*
G01X5636Y73414D01*
G01X5601Y73472D01*
G01X5575Y73512D01*
G37*
G36*
G01X5111Y73560D02*
G01X5110Y73980D01*
G01X5063Y73889D01*
G01X5049Y73861D01*
G01X5038Y73830D01*
G01X5030Y73796D01*
G01X5024Y73754D01*
G01X5020Y73703D01*
G01X5017Y73640D01*
G01X5015Y73563D01*
G01X5014Y73470D01*
G01X5015Y73286D01*
G01X5020Y73188D01*
G01X5035Y73148D01*
G01X5063Y73140D01*
G01X5079Y73142D01*
G01X5090Y73149D01*
G01X5099Y73167D01*
G01X5105Y73199D01*
G01X5109Y73250D01*
G01X5111Y73324D01*
G01X5111Y73560D01*
G37*
G36*
G01X5302Y73987D02*
G01X5294Y73992D01*
G01X5293Y73984D01*
G01X5291Y73959D01*
G01X5289Y73919D01*
G01X5288Y73867D01*
G01X5287Y73804D01*
G01X5286Y73732D01*
G01X5285Y73652D01*
G01X5285Y73432D01*
G01X5286Y73330D01*
G01X5288Y73255D01*
G01X5292Y73203D01*
G01X5298Y73169D01*
G01X5306Y73150D01*
G01X5317Y73142D01*
G01X5332Y73140D01*
G01X5358Y73148D01*
G01X5375Y73181D01*
G01X5386Y73256D01*
G01X5397Y73387D01*
G01X5404Y73492D01*
G01X5407Y73584D01*
G01X5406Y73664D01*
G01X5402Y73733D01*
G01X5395Y73792D01*
G01X5383Y73842D01*
G01X5367Y73886D01*
G01X5348Y73923D01*
G01X5330Y73950D01*
G01X5314Y73972D01*
G01X5302Y73987D01*
G37*
G36*
G01X5222Y74466D02*
G01X5193Y74482D01*
G01X5164Y74481D01*
G01X5140Y74462D01*
G01X5123Y74421D01*
G01X5118Y74392D01*
G01X5115Y74359D01*
G01X5114Y74327D01*
G01X5116Y74298D01*
G01X5145Y74250D01*
G01X5198Y74233D01*
G01X5251Y74246D01*
G01X5280Y74291D01*
G01X5281Y74346D01*
G01X5269Y74395D01*
G01X5248Y74436D01*
G01X5222Y74466D01*
G37*

%LPD*%
G36*
G01X5289Y77651D02*
G01X5257Y77654D01*
G01X5215Y77653D01*
G01X5158Y77648D01*
G01X5083Y77639D01*
G01X4985Y77625D01*
G01X4862Y77606D01*
G01X4764Y77590D01*
G01X4677Y77576D01*
G01X4601Y77562D01*
G01X4533Y77549D01*
G01X4474Y77536D01*
G01X4420Y77522D01*
G01X4371Y77508D01*
G01X4324Y77491D01*
G01X4279Y77474D01*
G01X4233Y77454D01*
G01X4186Y77431D01*
G01X4135Y77405D01*
G01X4082Y77377D01*
G01X4032Y77346D01*
G01X3984Y77312D01*
G01X3939Y77276D01*
G01X3895Y77238D01*
G01X3854Y77197D01*
G01X3815Y77153D01*
G01X3779Y77107D01*
G01X3744Y77058D01*
G01X3711Y77006D01*
G01X3681Y76952D01*
G01X3652Y76895D01*
G01X3626Y76835D01*
G01X3601Y76772D01*
G01X3578Y76705D01*
G01X3558Y76636D01*
G01X3543Y76581D01*
G01X3529Y76516D01*
G01X3514Y76445D01*
G01X3499Y76368D01*
G01X3485Y76287D01*
G01X3461Y76125D01*
G01X3450Y76046D01*
G01X3442Y75972D01*
G01X3436Y75904D01*
G01X3432Y75845D01*
G01X3430Y75796D01*
G01X3430Y75763D01*
G01X3428Y75728D01*
G01X3425Y75689D01*
G01X3420Y75647D01*
G01X3414Y75603D01*
G01X3408Y75556D01*
G01X3400Y75507D01*
G01X3391Y75455D01*
G01X3381Y75401D01*
G01X3370Y75345D01*
G01X3358Y75287D01*
G01X3345Y75227D01*
G01X3332Y75165D01*
G01X3317Y75102D01*
G01X3302Y75038D01*
G01X3285Y74972D01*
G01X3268Y74905D01*
G01X3250Y74837D01*
G01X3232Y74768D01*
G01X3213Y74698D01*
G01X3193Y74628D01*
G01X3173Y74557D01*
G01X3152Y74486D01*
G01X3109Y74343D01*
G01X3064Y74200D01*
G01X3017Y74057D01*
G01X2969Y73917D01*
G01X2944Y73848D01*
G01X2920Y73780D01*
G01X2895Y73713D01*
G01X2870Y73647D01*
G01X2845Y73583D01*
G01X2818Y73513D01*
G01X2794Y73448D01*
G01X2773Y73387D01*
G01X2754Y73334D01*
G01X2740Y73290D01*
G01X2731Y73255D01*
G01X2726Y73232D01*
G01X2726Y73222D01*
G01X2735Y73218D01*
G01X2754Y73214D01*
G01X2782Y73211D01*
G01X2819Y73208D01*
G01X2864Y73205D01*
G01X2915Y73203D01*
G01X2971Y73201D01*
G01X3033Y73199D01*
G01X3100Y73197D01*
G01X3170Y73196D01*
G01X3242Y73195D01*
G01X3538Y73195D01*
G01X3610Y73196D01*
G01X3680Y73198D01*
G01X3746Y73200D01*
G01X3808Y73202D01*
G01X3864Y73205D01*
G01X4188Y73223D01*
G01X4414Y73627D01*
G01X4355Y73685D01*
G01X4321Y73729D01*
G01X4322Y73760D01*
G01X4356Y73779D01*
G01X4424Y73785D01*
G01X4457Y73790D01*
G01X4488Y73805D01*
G01X4517Y73832D01*
G01X4547Y73870D01*
G01X4570Y73904D01*
G01X4614Y73959D01*
G01X4628Y73972D01*
G01X4637Y73980D01*
G01X4641Y73986D01*
G01X4639Y73990D01*
G01X4633Y73992D01*
G01X4627Y73995D01*
G01X4626Y74003D01*
G01X4632Y74016D01*
G01X4654Y74049D01*
G01X4657Y74063D01*
G01X4647Y74074D01*
G01X4622Y74082D01*
G01X4579Y74088D01*
G01X4514Y74093D01*
G01X4425Y74098D01*
G01X4308Y74102D01*
G01X4218Y74107D01*
G01X4140Y74112D01*
G01X4075Y74119D01*
G01X4022Y74129D01*
G01X3980Y74141D01*
G01X3947Y74157D01*
G01X3924Y74177D01*
G01X3909Y74201D01*
G01X3902Y74229D01*
G01X3901Y74264D01*
G01X3906Y74304D01*
G01X3917Y74351D01*
G01X3933Y74412D01*
G01X4274Y74395D01*
G01X4383Y74389D01*
G01X4468Y74386D01*
G01X4533Y74386D01*
G01X4584Y74388D01*
G01X4624Y74395D01*
G01X4660Y74405D01*
G01X4695Y74420D01*
G01X4734Y74440D01*
G01X4783Y74467D01*
G01X4823Y74493D01*
G01X4858Y74521D01*
G01X4891Y74555D01*
G01X4925Y74598D01*
G01X4962Y74656D01*
G01X5007Y74730D01*
G01X5061Y74825D01*
G01X5113Y74911D01*
G01X5159Y74980D01*
G01X5193Y75024D01*
G01X5212Y75037D01*
G01X5230Y75015D01*
G01X5263Y74964D01*
G01X5308Y74892D01*
G01X5358Y74807D01*
G01X5399Y74738D01*
G01X5438Y74678D01*
G01X5477Y74623D01*
G01X5515Y74575D01*
G01X5554Y74534D01*
G01X5594Y74498D01*
G01X5635Y74468D01*
G01X5680Y74443D01*
G01X5727Y74423D01*
G01X5778Y74407D01*
G01X5833Y74396D01*
G01X5894Y74388D01*
G01X5960Y74384D01*
G01X6033Y74384D01*
G01X6113Y74386D01*
G01X6201Y74391D01*
G01X6463Y74409D01*
G01X6493Y74339D01*
G01X6508Y74300D01*
G01X6510Y74271D01*
G01X6497Y74243D01*
G01X6469Y74208D01*
G01X6451Y74189D01*
G01X6431Y74174D01*
G01X6407Y74163D01*
G01X6374Y74156D01*
G01X6328Y74151D01*
G01X6265Y74148D01*
G01X6181Y74147D01*
G01X6072Y74147D01*
G01X5940Y74146D01*
G01X5831Y74143D01*
G01X5757Y74139D01*
G01X5730Y74133D01*
G01X5734Y74120D01*
G01X5744Y74095D01*
G01X5759Y74062D01*
G01X5778Y74023D01*
G01X5833Y73926D01*
G01X5889Y73860D01*
G01X5949Y73823D01*
G01X6016Y73811D01*
G01X6073Y73808D01*
G01X6097Y73795D01*
G01X6088Y73767D01*
G01X6050Y73719D01*
G01X6000Y73663D01*
G01X6053Y73563D01*
G01X6080Y73513D01*
G01X6113Y73452D01*
G01X6148Y73386D01*
G01X6182Y73324D01*
G01X6258Y73185D01*
G01X6985Y73198D01*
G01X7083Y73200D01*
G01X7178Y73202D01*
G01X7268Y73205D01*
G01X7353Y73207D01*
G01X7431Y73209D01*
G01X7502Y73212D01*
G01X7565Y73214D01*
G01X7619Y73217D01*
G01X7662Y73219D01*
G01X7695Y73221D01*
G01X7716Y73223D01*
G01X7724Y73225D01*
G01X7720Y73252D01*
G01X7699Y73317D01*
G01X7665Y73409D01*
G01X7621Y73518D01*
G01X7571Y73642D01*
G01X7546Y73706D01*
G01X7522Y73770D01*
G01X7497Y73835D01*
G01X7473Y73901D01*
G01X7426Y74035D01*
G01X7402Y74103D01*
G01X7379Y74171D01*
G01X7357Y74239D01*
G01X7335Y74308D01*
G01X7313Y74376D01*
G01X7292Y74444D01*
G01X7271Y74513D01*
G01X7231Y74649D01*
G01X7193Y74783D01*
G01X7175Y74849D01*
G01X7141Y74979D01*
G01X7125Y75043D01*
G01X7110Y75106D01*
G01X7095Y75167D01*
G01X7081Y75228D01*
G01X7068Y75287D01*
G01X7056Y75345D01*
G01X7045Y75401D01*
G01X7034Y75456D01*
G01X7025Y75510D01*
G01X7016Y75561D01*
G01X7008Y75611D01*
G01X7002Y75658D01*
G01X6996Y75704D01*
G01X6992Y75747D01*
G01X6982Y75854D01*
G01X6970Y75954D01*
G01X6959Y76050D01*
G01X6948Y76140D01*
G01X6936Y76226D01*
G01X6923Y76307D01*
G01X6910Y76384D01*
G01X6896Y76457D01*
G01X6882Y76525D01*
G01X6866Y76590D01*
G01X6850Y76652D01*
G01X6833Y76710D01*
G01X6815Y76765D01*
G01X6796Y76818D01*
G01X6775Y76867D01*
G01X6754Y76914D01*
G01X6731Y76959D01*
G01X6707Y77002D01*
G01X6681Y77043D01*
G01X6654Y77083D01*
G01X6626Y77121D01*
G01X6596Y77158D01*
G01X6564Y77194D01*
G01X6531Y77229D01*
G01X6491Y77266D01*
G01X6449Y77302D01*
G01X6403Y77335D01*
G01X6355Y77367D01*
G01X6304Y77397D01*
G01X6250Y77425D01*
G01X6192Y77452D01*
G01X6133Y77476D01*
G01X6070Y77498D01*
G01X6005Y77519D01*
G01X5938Y77537D01*
G01X5868Y77553D01*
G01X5795Y77567D01*
G01X5720Y77579D01*
G01X5643Y77589D01*
G01X5563Y77597D01*
G01X5486Y77605D01*
G01X5417Y77615D01*
G01X5364Y77625D01*
G01X5335Y77635D01*
G01X5314Y77645D01*
G01X5289Y77651D01*
G37*

%LPC*%
G36*
G01X6338Y75565D02*
G01X6284Y75565D01*
G01X6227Y75561D01*
G01X6166Y75555D01*
G01X6103Y75546D01*
G01X6036Y75533D01*
G01X5966Y75517D01*
G01X5893Y75498D01*
G01X5839Y75483D01*
G01X5781Y75465D01*
G01X5721Y75445D01*
G01X5660Y75425D01*
G01X5601Y75403D01*
G01X5545Y75383D01*
G01X5494Y75362D01*
G01X5450Y75344D01*
G01X5370Y75310D01*
G01X5297Y75283D01*
G01X5239Y75264D01*
G01X5203Y75257D01*
G01X5164Y75264D01*
G01X5101Y75283D01*
G01X5022Y75311D01*
G01X4934Y75345D01*
G01X4880Y75366D01*
G01X4823Y75388D01*
G01X4762Y75409D01*
G01X4700Y75429D01*
G01X4636Y75449D01*
G01X4571Y75468D01*
G01X4507Y75486D01*
G01X4443Y75503D01*
G01X4379Y75518D01*
G01X4318Y75532D01*
G01X4260Y75544D01*
G01X4204Y75554D01*
G01X4155Y75557D01*
G01X4097Y75555D01*
G01X4035Y75546D01*
G01X3971Y75531D01*
G01X3907Y75512D01*
G01X3847Y75489D01*
G01X3793Y75463D01*
G01X3748Y75435D01*
G01X3723Y75413D01*
G01X3700Y75386D01*
G01X3679Y75348D01*
G01X3658Y75297D01*
G01X3635Y75227D01*
G01X3609Y75135D01*
G01X3578Y75018D01*
G01X3541Y74870D01*
G01X3527Y74811D01*
G01X3511Y74749D01*
G01X3494Y74685D01*
G01X3477Y74620D01*
G01X3459Y74554D01*
G01X3440Y74486D01*
G01X3420Y74418D01*
G01X3401Y74350D01*
G01X3381Y74283D01*
G01X3361Y74217D01*
G01X3341Y74152D01*
G01X3322Y74088D01*
G01X3303Y74027D01*
G01X3283Y73968D01*
G01X3265Y73911D01*
G01X3248Y73859D01*
G01X3230Y73810D01*
G01X3215Y73765D01*
G01X3200Y73725D01*
G01X3186Y73689D01*
G01X3112Y73502D01*
G01X4082Y73502D01*
G01X4022Y73571D01*
G01X3971Y73630D01*
G01X3924Y73682D01*
G01X3882Y73727D01*
G01X3845Y73766D01*
G01X3813Y73796D01*
G01X3788Y73819D01*
G01X3769Y73833D01*
G01X3758Y73837D01*
G01X3738Y73829D01*
G01X3700Y73807D01*
G01X3651Y73774D01*
G01X3594Y73734D01*
G01X3506Y73673D01*
G01X3448Y73640D01*
G01X3415Y73633D01*
G01X3405Y73650D01*
G01X3408Y73663D01*
G01X3415Y73693D01*
G01X3427Y73736D01*
G01X3442Y73793D01*
G01X3461Y73860D01*
G01X3482Y73936D01*
G01X3506Y74020D01*
G01X3531Y74109D01*
G01X3561Y74213D01*
G01X3587Y74306D01*
G01X3610Y74387D01*
G01X3630Y74459D01*
G01X3647Y74522D01*
G01X3661Y74578D01*
G01X3673Y74628D01*
G01X3684Y74673D01*
G01X3692Y74715D01*
G01X3698Y74755D01*
G01X3704Y74793D01*
G01X3709Y74832D01*
G01X3713Y74873D01*
G01X3716Y74917D01*
G01X3719Y74965D01*
G01X3723Y75018D01*
G01X3733Y75164D01*
G01X3747Y75252D01*
G01X3769Y75305D01*
G01X3807Y75348D01*
G01X3842Y75379D01*
G01X3877Y75404D01*
G01X3914Y75425D01*
G01X3954Y75442D01*
G01X3998Y75454D01*
G01X4047Y75462D01*
G01X4102Y75466D01*
G01X4165Y75468D01*
G01X4210Y75468D01*
G01X4254Y75466D01*
G01X4298Y75462D01*
G01X4344Y75456D01*
G01X4390Y75448D01*
G01X4438Y75438D01*
G01X4489Y75424D01*
G01X4544Y75409D01*
G01X4603Y75390D01*
G01X4667Y75369D01*
G01X4737Y75344D01*
G01X4813Y75316D01*
G01X4947Y75266D01*
G01X5048Y75229D01*
G01X5121Y75204D01*
G01X5175Y75189D01*
G01X5214Y75184D01*
G01X5246Y75186D01*
G01X5278Y75194D01*
G01X5316Y75206D01*
G01X5358Y75221D01*
G01X5398Y75236D01*
G01X5428Y75249D01*
G01X5446Y75259D01*
G01X5474Y75272D01*
G01X5532Y75296D01*
G01X5612Y75327D01*
G01X5705Y75361D01*
G01X5780Y75385D01*
G01X5857Y75407D01*
G01X5935Y75425D01*
G01X6012Y75440D01*
G01X6087Y75451D01*
G01X6161Y75459D01*
G01X6231Y75463D01*
G01X6296Y75464D01*
G01X6356Y75461D01*
G01X6410Y75454D01*
G01X6455Y75443D01*
G01X6492Y75428D01*
G01X6552Y75390D01*
G01X6603Y75345D01*
G01X6644Y75294D01*
G01X6675Y75238D01*
G01X6696Y75177D01*
G01X6707Y75113D01*
G01X6708Y75044D01*
G01X6698Y74972D01*
G01X6694Y74949D01*
G01X6691Y74924D01*
G01X6690Y74897D01*
G01X6692Y74865D01*
G01X6698Y74828D01*
G01X6706Y74784D01*
G01X6717Y74731D01*
G01X6752Y74591D01*
G01X6776Y74501D01*
G01X6804Y74397D01*
G01X6838Y74274D01*
G01X6870Y74155D01*
G01X6900Y74044D01*
G01X6926Y73942D01*
G01X6949Y73852D01*
G01X6966Y73777D01*
G01X6979Y73720D01*
G01X6985Y73682D01*
G01X6985Y73667D01*
G01X6965Y73670D01*
G01X6924Y73690D01*
G01X6867Y73725D01*
G01X6801Y73770D01*
G01X6633Y73891D01*
G01X6293Y73515D01*
G01X6794Y73508D01*
G01X6895Y73507D01*
G01X6990Y73506D01*
G01X7076Y73505D01*
G01X7151Y73505D01*
G01X7214Y73506D01*
G01X7261Y73507D01*
G01X7292Y73508D01*
G01X7304Y73510D01*
G01X7301Y73529D01*
G01X7285Y73577D01*
G01X7260Y73645D01*
G01X7228Y73728D01*
G01X7211Y73769D01*
G01X7195Y73812D01*
G01X7178Y73856D01*
G01X7162Y73900D01*
G01X7146Y73946D01*
G01X7129Y73993D01*
G01X7113Y74042D01*
G01X7096Y74092D01*
G01X7079Y74144D01*
G01X7062Y74197D01*
G01X7045Y74253D01*
G01X7027Y74312D01*
G01X7009Y74372D01*
G01X6991Y74435D01*
G01X6972Y74500D01*
G01X6953Y74569D01*
G01X6933Y74640D01*
G01X6913Y74714D01*
G01X6893Y74791D01*
G01X6871Y74872D01*
G01X6849Y74956D01*
G01X6826Y75044D01*
G01X6803Y75135D01*
G01X6778Y75231D01*
G01X6762Y75288D01*
G01X6745Y75337D01*
G01X6726Y75378D01*
G01X6703Y75413D01*
G01X6676Y75443D01*
G01X6644Y75470D01*
G01X6605Y75494D01*
G01X6559Y75518D01*
G01X6521Y75534D01*
G01X6481Y75546D01*
G01X6436Y75555D01*
G01X6389Y75562D01*
G01X6338Y75565D01*
G37*
G36*
G01X4203Y75125D02*
G01X4106Y75125D01*
G01X4052Y75119D01*
G01X4029Y75104D01*
G01X4024Y75077D01*
G01X4039Y74996D01*
G01X4074Y74888D01*
G01X4117Y74790D01*
G01X4153Y74737D01*
G01X4182Y74729D01*
G01X4237Y74722D01*
G01X4312Y74717D01*
G01X4397Y74715D01*
G01X4473Y74717D01*
G01X4535Y74721D01*
G01X4584Y74729D01*
G01X4624Y74744D01*
G01X4656Y74766D01*
G01X4685Y74796D01*
G01X4711Y74837D01*
G01X4738Y74887D01*
G01X4760Y74941D01*
G01X4759Y74977D01*
G01X4731Y75004D01*
G01X4673Y75029D01*
G01X4602Y75053D01*
G01X4538Y75074D01*
G01X4481Y75091D01*
G01X4426Y75103D01*
G01X4374Y75112D01*
G01X4321Y75118D01*
G01X4264Y75123D01*
G01X4203Y75125D01*
G37*
G36*
G01X6284Y75128D02*
G01X6215Y75128D01*
G01X6122Y75125D01*
G01X6032Y75113D01*
G01X5943Y75093D01*
G01X5850Y75064D01*
G01X5779Y75039D01*
G01X5720Y75018D01*
G01X5679Y75004D01*
G01X5662Y74999D01*
G01X5653Y74984D01*
G01X5659Y74950D01*
G01X5679Y74908D01*
G01X5705Y74870D01*
G01X5723Y74850D01*
G01X5735Y74833D01*
G01X5740Y74822D01*
G01X5736Y74817D01*
G01X5734Y74813D01*
G01X5741Y74802D01*
G01X5755Y74786D01*
G01X5777Y74766D01*
G01X5815Y74740D01*
G01X5865Y74725D01*
G01X5940Y74717D01*
G01X6052Y74715D01*
G01X6132Y74716D01*
G01X6193Y74718D01*
G01X6239Y74725D01*
G01X6273Y74740D01*
G01X6298Y74762D01*
G01X6318Y74796D01*
G01X6337Y74844D01*
G01X6358Y74907D01*
G01X6380Y74979D01*
G01X6394Y75033D01*
G01X6398Y75072D01*
G01X6391Y75099D01*
G01X6370Y75115D01*
G01X6335Y75124D01*
G01X6284Y75128D01*
G37*
G36*
G01X5038Y76344D02*
G01X5038Y77329D01*
G01X4846Y77312D01*
G01X4760Y77301D01*
G01X4668Y77287D01*
G01X4580Y77271D01*
G01X4508Y77255D01*
G01X4453Y77238D01*
G01X4400Y77221D01*
G01X4350Y77201D01*
G01X4301Y77180D01*
G01X4256Y77157D01*
G01X4212Y77132D01*
G01X4171Y77105D01*
G01X4132Y77076D01*
G01X4095Y77045D01*
G01X4061Y77011D01*
G01X4028Y76976D01*
G01X3997Y76937D01*
G01X3968Y76896D01*
G01X3940Y76853D01*
G01X3915Y76807D01*
G01X3891Y76759D01*
G01X3869Y76708D01*
G01X3848Y76653D01*
G01X3829Y76596D01*
G01X3812Y76536D01*
G01X3795Y76473D01*
G01X3781Y76406D01*
G01X3767Y76337D01*
G01X3755Y76264D01*
G01X3743Y76177D01*
G01X3733Y76085D01*
G01X3725Y75995D01*
G01X3720Y75909D01*
G01X3717Y75835D01*
G01X3717Y75775D01*
G01X3720Y75736D01*
G01X3727Y75721D01*
G01X3742Y75725D01*
G01X3768Y75734D01*
G01X3802Y75747D01*
G01X3842Y75764D01*
G01X3898Y75783D01*
G01X3966Y75794D01*
G01X4054Y75797D01*
G01X4172Y75792D01*
G01X4232Y75789D01*
G01X4289Y75784D01*
G01X4341Y75778D01*
G01X4392Y75772D01*
G01X4441Y75764D01*
G01X4490Y75754D01*
G01X4540Y75743D01*
G01X4591Y75730D01*
G01X4645Y75715D01*
G01X4702Y75697D01*
G01X4764Y75677D01*
G01X4832Y75654D01*
G01X4901Y75630D01*
G01X4961Y75611D01*
G01X5003Y75598D01*
G01X5023Y75592D01*
G01X5025Y75601D01*
G01X5027Y75624D01*
G01X5029Y75661D01*
G01X5030Y75712D01*
G01X5032Y75774D01*
G01X5033Y75848D01*
G01X5035Y75931D01*
G01X5036Y76024D01*
G01X5037Y76124D01*
G01X5037Y76231D01*
G01X5038Y76344D01*
G37*
G36*
G01X5502Y77318D02*
G01X5384Y77322D01*
G01X5384Y75599D01*
G01X5650Y75687D01*
G01X5733Y75714D01*
G01X5814Y75737D01*
G01X5891Y75758D01*
G01X5966Y75775D01*
G01X6038Y75789D01*
G01X6107Y75800D01*
G01X6173Y75808D01*
G01X6238Y75812D01*
G01X6300Y75814D01*
G01X6360Y75812D01*
G01X6419Y75808D01*
G01X6475Y75801D01*
G01X6543Y75790D01*
G01X6602Y75781D01*
G01X6647Y75775D01*
G01X6672Y75773D01*
G01X6681Y75780D01*
G01X6688Y75801D01*
G01X6692Y75833D01*
G01X6693Y75875D01*
G01X6692Y75927D01*
G01X6688Y75985D01*
G01X6682Y76050D01*
G01X6674Y76118D01*
G01X6664Y76190D01*
G01X6651Y76262D01*
G01X6637Y76335D01*
G01X6621Y76406D01*
G01X6602Y76484D01*
G01X6581Y76557D01*
G01X6560Y76624D01*
G01X6539Y76687D01*
G01X6515Y76746D01*
G01X6491Y76800D01*
G01X6465Y76850D01*
G01X6438Y76897D01*
G01X6409Y76940D01*
G01X6378Y76979D01*
G01X6346Y77015D01*
G01X6310Y77049D01*
G01X6273Y77079D01*
G01X6234Y77108D01*
G01X6192Y77134D01*
G01X6147Y77158D01*
G01X6093Y77184D01*
G01X6041Y77207D01*
G01X5989Y77228D01*
G01X5939Y77247D01*
G01X5889Y77263D01*
G01X5839Y77276D01*
G01X5787Y77288D01*
G01X5735Y77297D01*
G01X5681Y77305D01*
G01X5624Y77311D01*
G01X5564Y77316D01*
G01X5502Y77318D01*
G37*

%LPD*%
G36*
G01X3894Y76481D02*
G01X3878Y76493D01*
G01X3855Y76465D01*
G01X3828Y76399D01*
G01X3813Y76338D01*
G01X3800Y76261D01*
G01X3791Y76176D01*
G01X3784Y76089D01*
G01X3781Y76008D01*
G01X3782Y75939D01*
G01X3787Y75890D01*
G01X3797Y75866D01*
G01X3817Y75864D01*
G01X3859Y75866D01*
G01X3915Y75871D01*
G01X3978Y75878D01*
G01X4041Y75888D01*
G01X4098Y75897D01*
G01X4142Y75907D01*
G01X4166Y75916D01*
G01X4160Y75926D01*
G01X4139Y75952D01*
G01X4107Y75989D01*
G01X4066Y76034D01*
G01X4029Y76079D01*
G01X3996Y76125D01*
G01X3968Y76174D01*
G01X3944Y76224D01*
G01X3925Y76275D01*
G01X3911Y76327D01*
G01X3903Y76378D01*
G01X3900Y76428D01*
G01X3894Y76481D01*
G37*

%LPD*%
G36*
G01X5541Y77239D02*
G01X5526Y77242D01*
G01X5504Y77231D01*
G01X5491Y77189D01*
G01X5486Y77112D01*
G01X5488Y76997D01*
G01X5496Y76819D01*
G01X5554Y76924D01*
G01X5584Y76971D01*
G01X5624Y77019D01*
G01X5668Y77063D01*
G01X5712Y77098D01*
G01X5770Y77141D01*
G01X5783Y77169D01*
G01X5743Y77190D01*
G01X5644Y77216D01*
G01X5604Y77225D01*
G01X5541Y77239D01*
G37*

%LPD*%
G54D35*
G01X54151Y58859D02*
G01X55469Y58859D01*
G01X55469Y56789D01*
G01X54151Y56789D01*
G01X53018Y58859D02*
G01X51697Y58859D01*
G01X51697Y56789D01*
G01X53018Y56789D01*
G01X53038Y67965D02*
G01X51720Y67965D01*
G01X51720Y70035D01*
G01X53038Y70035D01*
G01X54171Y67965D02*
G01X55492Y67965D01*
G01X55492Y70035D01*
G01X54171Y70035D01*
G01X54148Y72829D02*
G01X55469Y72829D01*
G01X55469Y70759D01*
G01X54148Y70759D01*
G01X53018Y72829D02*
G01X51697Y72829D01*
G01X51697Y70759D01*
G01X53018Y70759D01*
G01X62025Y58859D02*
G01X63343Y58859D01*
G01X63343Y56789D01*
G01X62025Y56789D01*
G01X60892Y58859D02*
G01X59571Y58859D01*
G01X59571Y56789D01*
G01X60892Y56789D01*
G01X60912Y67965D02*
G01X59594Y67965D01*
G01X59594Y70035D01*
G01X60912Y70035D01*
G01X62045Y67965D02*
G01X63366Y67965D01*
G01X63366Y70035D01*
G01X62045Y70035D01*
G01X62022Y72829D02*
G01X63343Y72829D01*
G01X63343Y70759D01*
G01X62022Y70759D01*
G01X60892Y72829D02*
G01X59571Y72829D01*
G01X59571Y70759D01*
G01X60892Y70759D01*
G01X69645Y58859D02*
G01X70963Y58859D01*
G01X70963Y56789D01*
G01X69645Y56789D01*
G01X68512Y58859D02*
G01X67191Y58859D01*
G01X67191Y56789D01*
G01X68512Y56789D01*
G01X68532Y67965D02*
G01X67214Y67965D01*
G01X67214Y70035D01*
G01X68532Y70035D01*
G01X69665Y67965D02*
G01X70986Y67965D01*
G01X70986Y70035D01*
G01X69665Y70035D01*
G01X69642Y72829D02*
G01X70963Y72829D01*
G01X70963Y70759D01*
G01X69642Y70759D01*
G01X68512Y72829D02*
G01X67191Y72829D01*
G01X67191Y70759D01*
G01X68512Y70759D01*
G01X77265Y58859D02*
G01X78583Y58859D01*
G01X78583Y56789D01*
G01X77265Y56789D01*
G01X76132Y58859D02*
G01X74811Y58859D01*
G01X74811Y56789D01*
G01X76132Y56789D01*
G01X76152Y67965D02*
G01X74834Y67965D01*
G01X74834Y70035D01*
G01X76152Y70035D01*
G01X77285Y67965D02*
G01X78606Y67965D01*
G01X78606Y70035D01*
G01X77285Y70035D01*
G01X77262Y72829D02*
G01X78583Y72829D01*
G01X78583Y70759D01*
G01X77262Y70759D01*
G01X76132Y72829D02*
G01X74811Y72829D01*
G01X74811Y70759D01*
G01X76132Y70759D01*
G54D10*
G01X79376Y9817D02*
G01X79376Y4737D01*
G01X79376Y4737D02*
G01X83186Y4737D01*
G01X83186Y4737D02*
G01X83186Y9817D01*
G01X79376Y9817D02*
G01X80392Y9817D01*
G01X83186Y9817D02*
G01X82170Y9817D01*
G54D35*
G01X86343Y5801D02*
G01X86343Y7119D01*
G01X88413Y7119D01*
G01X88413Y5801D01*
G01X86343Y4668D02*
G01X86343Y3347D01*
G01X88413Y3347D01*
G01X88413Y4668D01*
G01X86340Y10878D02*
G01X86340Y12199D01*
G01X88410Y12199D01*
G01X88410Y10878D01*
G01X86340Y9748D02*
G01X86340Y8427D01*
G01X88410Y8427D01*
G01X88410Y9748D01*
G01X74148Y10370D02*
G01X74148Y11691D01*
G01X76218Y11691D01*
G01X76218Y10370D01*
G01X74148Y9240D02*
G01X74148Y7919D01*
G01X76218Y7919D01*
G01X76218Y9240D01*
G01X76221Y3675D02*
G01X76221Y2354D01*
G01X74151Y2354D01*
G01X74151Y3675D01*
G01X76221Y4805D02*
G01X76221Y6126D01*
G01X74151Y6126D01*
G01X74151Y4805D01*
G01X87140Y15356D02*
G01X87140Y14038D01*
G01X85070Y14038D01*
G01X85070Y15356D01*
G01X87140Y16489D02*
G01X87140Y17810D01*
G01X85070Y17810D01*
G01X85070Y16489D01*
G01X69109Y45841D02*
G01X69109Y44518D01*
G01X67039Y44518D01*
G01X67039Y45839D01*
G01X69109Y46969D02*
G01X69109Y48290D01*
G01X67039Y48290D01*
G01X67039Y46969D01*
G54D10*
G01X70437Y46898D02*
G01X70437Y50152D01*
G01X80389Y50152D01*
G01X80389Y46469D01*
G01X70437Y46469D01*
G01X70437Y46898D01*
G01X69454Y40513D02*
G01X69454Y39852D01*
G01X69454Y40513D01*
G01X69454Y39852D01*
G01X70270Y39852D01*
G01X70270Y42773D02*
G01X69454Y42773D01*
G01X69454Y42113D01*
G54D21*
G01X71004Y41612D02*
G01X71004Y41013D01*
G54D35*
G01X66061Y45836D02*
G01X66061Y44518D01*
G01X63991Y44518D01*
G01X63991Y45836D01*
G01X66061Y46969D02*
G01X66061Y48290D01*
G01X63991Y48290D01*
G01X63991Y46969D01*
G01X64468Y41038D02*
G01X63150Y41038D01*
G01X63150Y43108D01*
G01X64468Y43108D01*
G01X65601Y41038D02*
G01X66922Y41038D01*
G01X66922Y43108D01*
G01X65601Y43108D01*
G01X90404Y71076D02*
G01X90404Y72397D01*
G01X92474Y72397D01*
G01X92474Y71076D01*
G01X90404Y69946D02*
G01X90404Y68625D01*
G01X92474Y68625D01*
G01X92474Y69946D01*
G01X90404Y65996D02*
G01X90404Y67317D01*
G01X92474Y67317D01*
G01X92474Y65996D01*
G01X90404Y64866D02*
G01X90404Y63545D01*
G01X92474Y63545D01*
G01X92474Y64866D01*
G01X80498Y71076D02*
G01X80498Y72397D01*
G01X82568Y72397D01*
G01X82568Y71076D01*
G01X80498Y69946D02*
G01X80498Y68625D01*
G01X82568Y68625D01*
G01X82568Y69946D01*
G01X80498Y65996D02*
G01X80498Y67317D01*
G01X82568Y67317D01*
G01X82568Y65996D01*
G01X80498Y64866D02*
G01X80498Y63545D01*
G01X82568Y63545D01*
G01X82568Y64866D01*
G01X83800Y71076D02*
G01X83800Y72397D01*
G01X85870Y72397D01*
G01X85870Y71076D01*
G01X83800Y69946D02*
G01X83800Y68625D01*
G01X85870Y68625D01*
G01X85870Y69946D01*
G01X83800Y65996D02*
G01X83800Y67317D01*
G01X85870Y67317D01*
G01X85870Y65996D01*
G01X83800Y64866D02*
G01X83800Y63545D01*
G01X85870Y63545D01*
G01X85870Y64866D01*
G01X87102Y71076D02*
G01X87102Y72397D01*
G01X89172Y72397D01*
G01X89172Y71076D01*
G01X87102Y69946D02*
G01X87102Y68625D01*
G01X89172Y68625D01*
G01X89172Y69946D01*
G01X87102Y65996D02*
G01X87102Y67317D01*
G01X89172Y67317D01*
G01X89172Y65996D01*
G01X87102Y64866D02*
G01X87102Y63545D01*
G01X89172Y63545D01*
G01X89172Y64866D01*
G01X85070Y30439D02*
G01X85070Y31757D01*
G01X87140Y31757D01*
G01X87140Y30439D01*
G01X85070Y29306D02*
G01X85070Y27985D01*
G01X87140Y27985D01*
G01X87140Y29306D01*
G54D21*
G01X84148Y20723D02*
G01X84148Y21247D01*
G01X74349Y21247D01*
G01X74349Y18224D01*
G01X84148Y18224D01*
G01X84148Y20723D01*
G54D10*
G01X22099Y70523D02*
G01X22099Y63665D01*
G01X41149Y63665D01*
G01X41149Y70523D01*
G01X22099Y70523D01*
G54D35*
G01X43452Y74287D02*
G01X43452Y72966D01*
G01X41382Y72966D01*
G01X41382Y74287D01*
G01X43452Y75417D02*
G01X43452Y76738D01*
G01X41382Y76738D01*
G01X41382Y75417D01*
G54D10*
G01X25909Y46139D02*
G01X19051Y46139D01*
G01X19051Y27089D01*
G01X25909Y27089D01*
G01X25909Y46139D01*
G54D35*
G01X31768Y32885D02*
G01X31768Y31564D01*
G01X29698Y31564D01*
G01X29698Y32885D01*
G01X31768Y34015D02*
G01X31768Y35336D01*
G01X29698Y35336D01*
G01X29698Y34015D01*
G54D21*
G01X84148Y32661D02*
G01X84148Y33185D01*
G01X74349Y33185D01*
G01X74349Y30162D01*
G01X84148Y30162D01*
G01X84148Y32661D01*
G54D35*
G01X106726Y41587D02*
G01X108047Y41587D01*
G01X108047Y39517D01*
G01X106726Y39517D01*
G01X105596Y41587D02*
G01X104275Y41587D01*
G01X104275Y39517D01*
G01X105596Y39517D01*
G01X106726Y44127D02*
G01X108047Y44127D01*
G01X108047Y42057D01*
G01X106726Y42057D01*
G01X105596Y44127D02*
G01X104275Y44127D01*
G01X104275Y42057D01*
G01X105596Y42057D01*
G01X106726Y46667D02*
G01X108047Y46667D01*
G01X108047Y44597D01*
G01X106726Y44597D01*
G01X105596Y46667D02*
G01X104275Y46667D01*
G01X104275Y44597D01*
G01X105596Y44597D01*
G01X106726Y49207D02*
G01X108047Y49207D01*
G01X108047Y47137D01*
G01X106726Y47137D01*
G01X105596Y49207D02*
G01X104275Y49207D01*
G01X104275Y47137D01*
G01X105596Y47137D01*
G01X106729Y28122D02*
G01X108047Y28122D01*
G01X108047Y26052D01*
G01X106729Y26052D01*
G01X105596Y28122D02*
G01X104275Y28122D01*
G01X104275Y26052D01*
G01X105596Y26052D01*
G01X106729Y30662D02*
G01X108047Y30662D01*
G01X108047Y28592D01*
G01X106729Y28592D01*
G01X105596Y30662D02*
G01X104275Y30662D01*
G01X104275Y28592D01*
G01X105596Y28592D01*
G01X106729Y33202D02*
G01X108047Y33202D01*
G01X108047Y31132D01*
G01X106729Y31132D01*
G01X105596Y33202D02*
G01X104275Y33202D01*
G01X104275Y31132D01*
G01X105596Y31132D01*
G01X106729Y35742D02*
G01X108047Y35742D01*
G01X108047Y33672D01*
G01X106729Y33672D01*
G01X105596Y35742D02*
G01X104275Y35742D01*
G01X104275Y33672D01*
G01X105596Y33672D01*
G01X140191Y12656D02*
G01X140191Y13977D01*
G01X142261Y13977D01*
G01X142261Y12656D01*
G01X140191Y11526D02*
G01X140191Y10205D01*
G01X142261Y10205D01*
G01X142261Y11526D01*
G01X122665Y10624D02*
G01X122665Y11945D01*
G01X124735Y11945D01*
G01X124735Y10624D01*
G01X122665Y9494D02*
G01X122665Y8173D01*
G01X124735Y8173D01*
G01X124735Y9494D01*
G01X134603Y12656D02*
G01X134603Y13977D01*
G01X136673Y13977D01*
G01X136673Y12656D01*
G01X134603Y11526D02*
G01X134603Y10205D01*
G01X136673Y10205D01*
G01X136673Y11526D01*
G01X134067Y6240D02*
G01X132746Y6240D01*
G01X132746Y8310D01*
G01X134067Y8310D01*
G01X135197Y6240D02*
G01X136518Y6240D01*
G01X136518Y8310D01*
G01X135197Y8310D01*
G01X124001Y4246D02*
G01X125319Y4246D01*
G01X125319Y2176D01*
G01X124001Y2176D01*
G01X122868Y4246D02*
G01X121547Y4246D01*
G01X121547Y2176D01*
G01X122868Y2176D01*
G54D10*
G01X120938Y14721D02*
G01X120938Y22324D01*
G01X124936Y22324D01*
G01X124936Y14523D01*
G01X120938Y14523D01*
G01X120938Y14721D01*
G01X120938Y14122D02*
G01X124936Y14122D01*
G54D35*
G01X137397Y12656D02*
G01X137397Y13977D01*
G01X139467Y13977D01*
G01X139467Y12656D01*
G01X137397Y11526D02*
G01X137397Y10205D01*
G01X139467Y10205D01*
G01X139467Y11526D01*
G54D10*
G01X119050Y22288D02*
G01X108535Y22288D01*
G01X119050Y12077D02*
G01X108535Y12077D01*
G54D35*
G01X111715Y9034D02*
G01X110394Y9034D01*
G01X110394Y11104D01*
G01X111715Y11104D01*
G01X112845Y9034D02*
G01X114166Y9034D01*
G01X114166Y11104D01*
G01X112845Y11104D01*
G01X111715Y6240D02*
G01X110394Y6240D01*
G01X110394Y8310D01*
G01X111715Y8310D01*
G01X112845Y6240D02*
G01X114166Y6240D01*
G01X114166Y8310D01*
G01X112845Y8310D01*
G01X111715Y3446D02*
G01X110394Y3446D01*
G01X110394Y5516D01*
G01X111715Y5516D01*
G01X112845Y3446D02*
G01X114166Y3446D01*
G01X114166Y5516D01*
G01X112845Y5516D01*
G01X128827Y8818D02*
G01X130145Y8818D01*
G01X130145Y6748D01*
G01X128827Y6748D01*
G01X127694Y8818D02*
G01X126373Y8818D01*
G01X126373Y6748D01*
G01X127694Y6748D01*
G01X128827Y5770D02*
G01X130145Y5770D01*
G01X130145Y3700D01*
G01X128827Y3700D01*
G01X127694Y5770D02*
G01X126373Y5770D01*
G01X126373Y3700D01*
G01X127694Y3700D01*
G54D40*
G01X114278Y26388D02*
G01X114278Y36578D01*
G01X118575Y36578D01*
G01X118575Y26388D01*
G01X114278Y26388D01*
G01X114278Y39850D02*
G01X114278Y50040D01*
G01X118575Y50040D01*
G01X118575Y39850D01*
G01X114278Y39850D01*
G54D35*
G01X125525Y42854D02*
G01X126843Y42854D01*
G01X126843Y40784D01*
G01X125525Y40784D01*
G01X124392Y42854D02*
G01X123071Y42854D01*
G01X123071Y40784D01*
G01X124392Y40784D01*
G01X125525Y29392D02*
G01X126843Y29392D01*
G01X126843Y27322D01*
G01X125525Y27322D01*
G01X124392Y29392D02*
G01X123071Y29392D01*
G01X123071Y27322D01*
G01X124392Y27322D01*
G01X125525Y31932D02*
G01X126843Y31932D01*
G01X126843Y29862D01*
G01X125525Y29862D01*
G01X124392Y31932D02*
G01X123071Y31932D01*
G01X123071Y29862D01*
G01X124392Y29862D01*
G01X125525Y34472D02*
G01X126843Y34472D01*
G01X126843Y32402D01*
G01X125525Y32402D01*
G01X124392Y34472D02*
G01X123071Y34472D01*
G01X123071Y32402D01*
G01X124392Y32402D01*
G01X125525Y37012D02*
G01X126843Y37012D01*
G01X126843Y34942D01*
G01X125525Y34942D01*
G01X124392Y37012D02*
G01X123071Y37012D01*
G01X123071Y34942D01*
G01X124392Y34942D01*
G01X125525Y47934D02*
G01X126843Y47934D01*
G01X126843Y45864D01*
G01X125525Y45864D01*
G01X124392Y47934D02*
G01X123071Y47934D01*
G01X123071Y45864D01*
G01X124392Y45864D01*
G01X125525Y50474D02*
G01X126843Y50474D01*
G01X126843Y48404D01*
G01X125525Y48404D01*
G01X124392Y50474D02*
G01X123071Y50474D01*
G01X123071Y48404D01*
G01X124392Y48404D01*
G01X125525Y45394D02*
G01X126843Y45394D01*
G01X126843Y43324D01*
G01X125525Y43324D01*
G01X124392Y45394D02*
G01X123071Y45394D01*
G01X123071Y43324D01*
G01X124392Y43324D01*
G01X129589Y18216D02*
G01X130907Y18216D01*
G01X130907Y16146D01*
G01X129589Y16146D01*
G01X128456Y18216D02*
G01X127135Y18216D01*
G01X127135Y16146D01*
G01X128456Y16146D01*
G54D41*
G01X134090Y51140D02*
G01X134090Y41137D01*
G54D10*
G01X130590Y51140D02*
G01X130590Y41137D01*
G01X130590Y41137D02*
G01X134588Y41137D01*
G01X134588Y41137D02*
G01X134588Y51140D01*
G01X134588Y51140D02*
G01X130590Y51140D01*
G54D41*
G01X134090Y37678D02*
G01X134090Y27675D01*
G54D10*
G01X130590Y37678D02*
G01X130590Y27675D01*
G01X130590Y27675D02*
G01X134588Y27675D01*
G01X134588Y27675D02*
G01X134588Y37678D01*
G01X134588Y37678D02*
G01X130590Y37678D01*
G01X131794Y9857D02*
G01X127796Y9857D01*
G01X131794Y14856D02*
G01X127796Y14856D01*
G54D38*
G01X55304Y56045D02*
G01X55304Y54955D01*
G01X55304Y56045D02*
G01X54837Y56045D01*
G01X54682Y55994D01*
G01X54628Y55943D01*
G01X54578Y55839D01*
G01X54578Y55735D01*
G01X54628Y55631D01*
G01X54682Y55577D01*
G01X54837Y55526D01*
G01X55304Y55526D01*
G01X54941Y55526D02*
G01X54578Y54955D01*
G01X53714Y56045D02*
G01X54235Y55318D01*
G01X53455Y55318D01*
G01X53714Y56045D02*
G01X53714Y54955D01*
G01X53112Y54592D02*
G01X52177Y54592D01*
G01X51314Y56045D02*
G01X51834Y55318D01*
G01X51055Y55318D01*
G01X51314Y56045D02*
G01X51314Y54955D01*
G01X55761Y75095D02*
G01X55761Y74005D01*
G01X55761Y75095D02*
G01X55294Y75095D01*
G01X55139Y75044D01*
G01X55086Y74993D01*
G01X55035Y74889D01*
G01X55035Y74785D01*
G01X55086Y74681D01*
G01X55139Y74627D01*
G01X55294Y74576D01*
G01X55761Y74576D01*
G01X55398Y74576D02*
G01X55035Y74005D01*
G01X54171Y75095D02*
G01X54692Y74368D01*
G01X53912Y74368D01*
G01X54171Y75095D02*
G01X54171Y74005D01*
G01X53569Y73642D02*
G01X52634Y73642D01*
G01X52238Y74836D02*
G01X52238Y74889D01*
G01X52187Y74993D01*
G01X52134Y75044D01*
G01X52030Y75095D01*
G01X51824Y75095D01*
G01X51720Y75044D01*
G01X51667Y74993D01*
G01X51616Y74889D01*
G01X51616Y74785D01*
G01X51667Y74681D01*
G01X51771Y74523D01*
G01X52292Y74005D01*
G01X51563Y74005D01*
G01X55761Y76619D02*
G01X55761Y75529D01*
G01X55761Y76619D02*
G01X55294Y76619D01*
G01X55139Y76568D01*
G01X55086Y76517D01*
G01X55035Y76413D01*
G01X55035Y76309D01*
G01X55086Y76205D01*
G01X55139Y76151D01*
G01X55294Y76100D01*
G01X55761Y76100D01*
G01X55398Y76100D02*
G01X55035Y75529D01*
G01X54171Y76619D02*
G01X54692Y75892D01*
G01X53912Y75892D01*
G01X54171Y76619D02*
G01X54171Y75529D01*
G01X53569Y75166D02*
G01X52634Y75166D01*
G01X52187Y76619D02*
G01X51616Y76619D01*
G01X51926Y76205D01*
G01X51771Y76205D01*
G01X51667Y76151D01*
G01X51616Y76100D01*
G01X51563Y75946D01*
G01X51563Y75841D01*
G01X51616Y75684D01*
G01X51720Y75580D01*
G01X51875Y75529D01*
G01X52030Y75529D01*
G01X52187Y75580D01*
G01X52238Y75633D01*
G01X52292Y75737D01*
G01X63381Y56045D02*
G01X63381Y54955D01*
G01X63381Y56045D02*
G01X62914Y56045D01*
G01X62759Y55994D01*
G01X62706Y55943D01*
G01X62655Y55839D01*
G01X62655Y55735D01*
G01X62706Y55631D01*
G01X62759Y55577D01*
G01X62914Y55526D01*
G01X63381Y55526D01*
G01X63018Y55526D02*
G01X62655Y54955D01*
G01X61791Y56045D02*
G01X62312Y55318D01*
G01X61532Y55318D01*
G01X61791Y56045D02*
G01X61791Y54955D01*
G01X61189Y54592D02*
G01X60254Y54592D01*
G01X59183Y56045D02*
G01X59703Y54955D01*
G01X59912Y56045D02*
G01X59183Y56045D01*
G01X63635Y74841D02*
G01X63635Y73751D01*
G01X63635Y74841D02*
G01X63168Y74841D01*
G01X63013Y74790D01*
G01X62960Y74739D01*
G01X62909Y74635D01*
G01X62909Y74531D01*
G01X62960Y74427D01*
G01X63013Y74373D01*
G01X63168Y74322D01*
G01X63635Y74322D01*
G01X63272Y74322D02*
G01X62909Y73751D01*
G01X62045Y74841D02*
G01X62566Y74114D01*
G01X61786Y74114D01*
G01X62045Y74841D02*
G01X62045Y73751D01*
G01X61443Y73388D02*
G01X60508Y73388D01*
G01X59541Y74841D02*
G01X60061Y74841D01*
G01X60112Y74373D01*
G01X60061Y74427D01*
G01X59904Y74477D01*
G01X59749Y74477D01*
G01X59594Y74427D01*
G01X59490Y74322D01*
G01X59437Y74168D01*
G01X59437Y74063D01*
G01X59490Y73906D01*
G01X59594Y73802D01*
G01X59749Y73751D01*
G01X59904Y73751D01*
G01X60061Y73802D01*
G01X60112Y73855D01*
G01X60166Y73959D01*
G01X63582Y76365D02*
G01X63582Y75275D01*
G01X63582Y76365D02*
G01X63115Y76365D01*
G01X62960Y76314D01*
G01X62906Y76263D01*
G01X62855Y76159D01*
G01X62855Y76055D01*
G01X62906Y75951D01*
G01X62960Y75897D01*
G01X63115Y75846D01*
G01X63582Y75846D01*
G01X63219Y75846D02*
G01X62855Y75275D01*
G01X61992Y76365D02*
G01X62513Y75638D01*
G01X61733Y75638D01*
G01X61992Y76365D02*
G01X61992Y75275D01*
G01X61390Y74912D02*
G01X60455Y74912D01*
G01X59487Y76210D02*
G01X59541Y76314D01*
G01X59696Y76365D01*
G01X59800Y76365D01*
G01X59955Y76314D01*
G01X60059Y76159D01*
G01X60112Y75897D01*
G01X60112Y75638D01*
G01X60059Y75430D01*
G01X59955Y75326D01*
G01X59800Y75275D01*
G01X59747Y75275D01*
G01X59592Y75326D01*
G01X59487Y75430D01*
G01X59437Y75587D01*
G01X59437Y75638D01*
G01X59487Y75793D01*
G01X59592Y75897D01*
G01X59747Y75951D01*
G01X59800Y75951D01*
G01X59955Y75897D01*
G01X60059Y75793D01*
G01X60112Y75638D01*
G01X71349Y56553D02*
G01X71349Y55463D01*
G01X71349Y56553D02*
G01X70882Y56553D01*
G01X70727Y56502D01*
G01X70674Y56451D01*
G01X70623Y56347D01*
G01X70623Y56243D01*
G01X70674Y56139D01*
G01X70727Y56085D01*
G01X70882Y56034D01*
G01X71349Y56034D01*
G01X70986Y56034D02*
G01X70623Y55463D01*
G01X69759Y56553D02*
G01X70280Y55826D01*
G01X69500Y55826D01*
G01X69759Y56553D02*
G01X69759Y55463D01*
G01X69157Y55100D02*
G01X68222Y55100D01*
G01X67880Y56347D02*
G01X67775Y56398D01*
G01X67618Y56553D01*
G01X67618Y55463D01*
G01X66965Y56553D02*
G01X67120Y56502D01*
G01X67224Y56347D01*
G01X67275Y56085D01*
G01X67275Y55930D01*
G01X67224Y55671D01*
G01X67120Y55514D01*
G01X66965Y55463D01*
G01X66861Y55463D01*
G01X66704Y55514D01*
G01X66599Y55671D01*
G01X66549Y55930D01*
G01X66549Y56085D01*
G01X66599Y56347D01*
G01X66704Y56502D01*
G01X66861Y56553D01*
G01X66965Y56553D01*
G01X71001Y74841D02*
G01X71001Y73751D01*
G01X71001Y74841D02*
G01X70534Y74841D01*
G01X70379Y74790D01*
G01X70326Y74739D01*
G01X70275Y74635D01*
G01X70275Y74531D01*
G01X70326Y74427D01*
G01X70379Y74373D01*
G01X70534Y74322D01*
G01X71001Y74322D01*
G01X70638Y74322D02*
G01X70275Y73751D01*
G01X69411Y74841D02*
G01X69932Y74114D01*
G01X69152Y74114D01*
G01X69411Y74841D02*
G01X69411Y73751D01*
G01X68809Y73388D02*
G01X67874Y73388D01*
G01X67270Y74841D02*
G01X67427Y74790D01*
G01X67478Y74686D01*
G01X67478Y74582D01*
G01X67427Y74477D01*
G01X67323Y74427D01*
G01X67115Y74373D01*
G01X66960Y74322D01*
G01X66856Y74218D01*
G01X66803Y74114D01*
G01X66803Y73959D01*
G01X66856Y73855D01*
G01X66907Y73802D01*
G01X67064Y73751D01*
G01X67270Y73751D01*
G01X67427Y73802D01*
G01X67478Y73855D01*
G01X67532Y73959D01*
G01X67532Y74114D01*
G01X67478Y74218D01*
G01X67374Y74322D01*
G01X67219Y74373D01*
G01X67011Y74427D01*
G01X66907Y74477D01*
G01X66856Y74582D01*
G01X66856Y74686D01*
G01X66907Y74790D01*
G01X67064Y74841D01*
G01X67270Y74841D01*
G01X70948Y76365D02*
G01X70948Y75275D01*
G01X70948Y76365D02*
G01X70481Y76365D01*
G01X70326Y76314D01*
G01X70272Y76263D01*
G01X70221Y76159D01*
G01X70221Y76055D01*
G01X70272Y75951D01*
G01X70326Y75897D01*
G01X70481Y75846D01*
G01X70948Y75846D01*
G01X70585Y75846D02*
G01X70221Y75275D01*
G01X69358Y76365D02*
G01X69879Y75638D01*
G01X69099Y75638D01*
G01X69358Y76365D02*
G01X69358Y75275D01*
G01X68756Y74912D02*
G01X67821Y74912D01*
G01X66803Y76001D02*
G01X66853Y75846D01*
G01X66958Y75742D01*
G01X67113Y75692D01*
G01X67166Y75692D01*
G01X67321Y75742D01*
G01X67425Y75846D01*
G01X67478Y76001D01*
G01X67478Y76055D01*
G01X67425Y76210D01*
G01X67321Y76314D01*
G01X67166Y76365D01*
G01X67113Y76365D01*
G01X66958Y76314D01*
G01X66853Y76210D01*
G01X66803Y76001D01*
G01X66803Y75742D01*
G01X66853Y75483D01*
G01X66958Y75326D01*
G01X67113Y75275D01*
G01X67217Y75275D01*
G01X67374Y75326D01*
G01X67425Y75430D01*
G01X78969Y56299D02*
G01X78969Y55209D01*
G01X78969Y56299D02*
G01X78502Y56299D01*
G01X78347Y56248D01*
G01X78294Y56197D01*
G01X78243Y56093D01*
G01X78243Y55989D01*
G01X78294Y55885D01*
G01X78347Y55831D01*
G01X78502Y55780D01*
G01X78969Y55780D01*
G01X78606Y55780D02*
G01X78243Y55209D01*
G01X77379Y56299D02*
G01X77900Y55572D01*
G01X77120Y55572D01*
G01X77379Y56299D02*
G01X77379Y55209D01*
G01X76777Y54846D02*
G01X75842Y54846D01*
G01X75500Y56093D02*
G01X75395Y56144D01*
G01X75238Y56299D01*
G01X75238Y55209D01*
G01X74791Y56299D02*
G01X74219Y56299D01*
G01X74532Y55885D01*
G01X74377Y55885D01*
G01X74273Y55831D01*
G01X74219Y55780D01*
G01X74169Y55626D01*
G01X74169Y55521D01*
G01X74219Y55364D01*
G01X74324Y55260D01*
G01X74481Y55209D01*
G01X74636Y55209D01*
G01X74791Y55260D01*
G01X74844Y55313D01*
G01X74895Y55417D01*
G01X78756Y74587D02*
G01X78756Y73497D01*
G01X78756Y74587D02*
G01X78289Y74587D01*
G01X78134Y74536D01*
G01X78080Y74485D01*
G01X78029Y74381D01*
G01X78029Y74277D01*
G01X78080Y74173D01*
G01X78134Y74119D01*
G01X78289Y74068D01*
G01X78756Y74068D01*
G01X78393Y74068D02*
G01X78029Y73497D01*
G01X77166Y74587D02*
G01X77687Y73860D01*
G01X76907Y73860D01*
G01X77166Y74587D02*
G01X77166Y73497D01*
G01X76564Y73134D02*
G01X75629Y73134D01*
G01X75286Y74381D02*
G01X75182Y74432D01*
G01X75025Y74587D01*
G01X75025Y73497D01*
G01X74682Y74381D02*
G01X74578Y74432D01*
G01X74423Y74587D01*
G01X74423Y73497D01*
G01X78715Y76365D02*
G01X78715Y75275D01*
G01X78715Y76365D02*
G01X78248Y76365D01*
G01X78093Y76314D01*
G01X78040Y76263D01*
G01X77989Y76159D01*
G01X77989Y76055D01*
G01X78040Y75951D01*
G01X78093Y75897D01*
G01X78248Y75846D01*
G01X78715Y75846D01*
G01X78352Y75846D02*
G01X77989Y75275D01*
G01X77125Y76365D02*
G01X77646Y75638D01*
G01X76866Y75638D01*
G01X77125Y76365D02*
G01X77125Y75275D01*
G01X76523Y74912D02*
G01X75588Y74912D01*
G01X75246Y76159D02*
G01X75141Y76210D01*
G01X74984Y76365D01*
G01X74984Y75275D01*
G01X74590Y76106D02*
G01X74590Y76159D01*
G01X74537Y76263D01*
G01X74486Y76314D01*
G01X74382Y76365D01*
G01X74174Y76365D01*
G01X74070Y76314D01*
G01X74019Y76263D01*
G01X73965Y76159D01*
G01X73965Y76055D01*
G01X74019Y75951D01*
G01X74123Y75793D01*
G01X74641Y75275D01*
G01X73915Y75275D01*
G01X83394Y11849D02*
G01X83394Y11071D01*
G01X83343Y10914D01*
G01X83239Y10810D01*
G01X83081Y10759D01*
G01X82977Y10759D01*
G01X82822Y10810D01*
G01X82718Y10914D01*
G01X82667Y11071D01*
G01X82667Y11849D01*
G01X82220Y11849D02*
G01X81649Y11849D01*
G01X81959Y11435D01*
G01X81804Y11435D01*
G01X81700Y11381D01*
G01X81649Y11330D01*
G01X81596Y11176D01*
G01X81596Y11071D01*
G01X81649Y10914D01*
G01X81753Y10810D01*
G01X81908Y10759D01*
G01X82063Y10759D01*
G01X82220Y10810D01*
G01X82271Y10863D01*
G01X82325Y10967D01*
G01X81253Y10396D02*
G01X80318Y10396D01*
G01X79871Y11849D02*
G01X79299Y11849D01*
G01X79612Y11435D01*
G01X79457Y11435D01*
G01X79353Y11381D01*
G01X79299Y11330D01*
G01X79249Y11176D01*
G01X79249Y11071D01*
G01X79299Y10914D01*
G01X79404Y10810D01*
G01X79559Y10759D01*
G01X79716Y10759D01*
G01X79871Y10810D01*
G01X79924Y10863D01*
G01X79975Y10967D01*
G01X92579Y6007D02*
G01X92579Y4917D01*
G01X92579Y6007D02*
G01X92111Y6007D01*
G01X91956Y5956D01*
G01X91903Y5905D01*
G01X91852Y5801D01*
G01X91852Y5697D01*
G01X91903Y5593D01*
G01X91956Y5539D01*
G01X92111Y5488D01*
G01X92579Y5488D01*
G01X92215Y5488D02*
G01X91852Y4917D01*
G01X91405Y6007D02*
G01X90834Y6007D01*
G01X91143Y5593D01*
G01X90988Y5593D01*
G01X90884Y5539D01*
G01X90834Y5488D01*
G01X90780Y5334D01*
G01X90780Y5229D01*
G01X90834Y5072D01*
G01X90938Y4968D01*
G01X91093Y4917D01*
G01X91248Y4917D01*
G01X91405Y4968D01*
G01X91456Y5021D01*
G01X91509Y5125D01*
G01X90437Y4554D02*
G01X89503Y4554D01*
G01X89160Y5801D02*
G01X89056Y5852D01*
G01X88901Y6007D01*
G01X88901Y4917D01*
G01X89490Y13881D02*
G01X89490Y12791D01*
G01X89490Y13881D02*
G01X89023Y13881D01*
G01X88868Y13830D01*
G01X88814Y13779D01*
G01X88763Y13675D01*
G01X88763Y13571D01*
G01X88814Y13467D01*
G01X88868Y13413D01*
G01X89023Y13362D01*
G01X89490Y13362D01*
G01X89127Y13362D02*
G01X88763Y12791D01*
G01X88316Y13881D02*
G01X87745Y13881D01*
G01X88055Y13467D01*
G01X87900Y13467D01*
G01X87796Y13413D01*
G01X87745Y13362D01*
G01X87692Y13207D01*
G01X87692Y13103D01*
G01X87745Y12946D01*
G01X87849Y12842D01*
G01X88004Y12791D01*
G01X88159Y12791D01*
G01X88316Y12842D01*
G01X88367Y12895D01*
G01X88421Y12999D01*
G01X87349Y12428D02*
G01X86414Y12428D01*
G01X86020Y13621D02*
G01X86020Y13675D01*
G01X85967Y13779D01*
G01X85916Y13830D01*
G01X85812Y13881D01*
G01X85604Y13881D01*
G01X85500Y13830D01*
G01X85449Y13779D01*
G01X85395Y13675D01*
G01X85395Y13571D01*
G01X85449Y13467D01*
G01X85553Y13309D01*
G01X86071Y12791D01*
G01X85345Y12791D01*
G01X77331Y13487D02*
G01X77331Y12397D01*
G01X77331Y13487D02*
G01X76864Y13487D01*
G01X76709Y13436D01*
G01X76655Y13385D01*
G01X76604Y13281D01*
G01X76604Y13177D01*
G01X76655Y13073D01*
G01X76709Y13020D01*
G01X76864Y12969D01*
G01X77331Y12969D01*
G01X76968Y12969D02*
G01X76604Y12397D01*
G01X76157Y13487D02*
G01X75586Y13487D01*
G01X75896Y13073D01*
G01X75741Y13073D01*
G01X75637Y13020D01*
G01X75586Y12969D01*
G01X75533Y12814D01*
G01X75533Y12710D01*
G01X75586Y12552D01*
G01X75690Y12448D01*
G01X75845Y12397D01*
G01X76000Y12397D01*
G01X76157Y12448D01*
G01X76208Y12501D01*
G01X76262Y12606D01*
G01X75190Y12034D02*
G01X74255Y12034D01*
G01X73808Y13487D02*
G01X73236Y13487D01*
G01X73549Y13073D01*
G01X73394Y13073D01*
G01X73290Y13020D01*
G01X73236Y12969D01*
G01X73186Y12814D01*
G01X73186Y12710D01*
G01X73236Y12552D01*
G01X73341Y12448D01*
G01X73496Y12397D01*
G01X73653Y12397D01*
G01X73808Y12448D01*
G01X73861Y12501D01*
G01X73912Y12606D01*
G01X76843Y7531D02*
G01X76843Y6441D01*
G01X76843Y7531D02*
G01X76376Y7531D01*
G01X76221Y7480D01*
G01X76168Y7429D01*
G01X76117Y7325D01*
G01X76117Y7221D01*
G01X76168Y7117D01*
G01X76221Y7063D01*
G01X76376Y7012D01*
G01X76843Y7012D01*
G01X76480Y7012D02*
G01X76117Y6441D01*
G01X75670Y7531D02*
G01X75098Y7531D01*
G01X75408Y7117D01*
G01X75253Y7117D01*
G01X75149Y7063D01*
G01X75098Y7012D01*
G01X75045Y6858D01*
G01X75045Y6753D01*
G01X75098Y6596D01*
G01X75202Y6492D01*
G01X75357Y6441D01*
G01X75512Y6441D01*
G01X75670Y6492D01*
G01X75721Y6545D01*
G01X75774Y6649D01*
G01X74702Y6078D02*
G01X73767Y6078D01*
G01X72906Y7531D02*
G01X73424Y6804D01*
G01X72645Y6804D01*
G01X72906Y7531D02*
G01X72906Y6441D01*
G01X85858Y21229D02*
G01X85754Y21282D01*
G01X85649Y21386D01*
G01X85599Y21488D01*
G01X85599Y21696D01*
G01X85649Y21800D01*
G01X85754Y21904D01*
G01X85858Y21958D01*
G01X86013Y22009D01*
G01X86272Y22009D01*
G01X86429Y21958D01*
G01X86533Y21904D01*
G01X86637Y21800D01*
G01X86688Y21696D01*
G01X86688Y21488D01*
G01X86637Y21386D01*
G01X86533Y21282D01*
G01X86429Y21229D01*
G01X85599Y20782D02*
G01X85599Y20210D01*
G01X86013Y20523D01*
G01X86013Y20368D01*
G01X86066Y20264D01*
G01X86117Y20210D01*
G01X86272Y20159D01*
G01X86376Y20159D01*
G01X86533Y20210D01*
G01X86637Y20314D01*
G01X86688Y20472D01*
G01X86688Y20627D01*
G01X86637Y20782D01*
G01X86584Y20835D01*
G01X86480Y20886D01*
G01X87051Y19817D02*
G01X87051Y18882D01*
G01X85804Y18539D02*
G01X85754Y18435D01*
G01X85599Y18277D01*
G01X86688Y18277D01*
G01X67824Y52217D02*
G01X67720Y52270D01*
G01X67615Y52374D01*
G01X67565Y52476D01*
G01X67565Y52684D01*
G01X67615Y52788D01*
G01X67720Y52892D01*
G01X67824Y52946D01*
G01X67979Y52997D01*
G01X68238Y52997D01*
G01X68395Y52946D01*
G01X68499Y52892D01*
G01X68603Y52788D01*
G01X68654Y52684D01*
G01X68654Y52476D01*
G01X68603Y52374D01*
G01X68499Y52270D01*
G01X68395Y52217D01*
G01X67565Y51356D02*
G01X68291Y51874D01*
G01X68291Y51094D01*
G01X67565Y51356D02*
G01X68654Y51356D01*
G01X69018Y50751D02*
G01X69018Y49817D01*
G01X67824Y49423D02*
G01X67770Y49423D01*
G01X67666Y49370D01*
G01X67615Y49319D01*
G01X67565Y49215D01*
G01X67565Y49006D01*
G01X67615Y48902D01*
G01X67666Y48851D01*
G01X67770Y48798D01*
G01X67875Y48798D01*
G01X67979Y48851D01*
G01X68136Y48955D01*
G01X68654Y49474D01*
G01X68654Y48747D01*
G01X82586Y46532D02*
G01X81809Y46532D01*
G01X81651Y46583D01*
G01X81547Y46687D01*
G01X81496Y46845D01*
G01X81496Y46949D01*
G01X81547Y47104D01*
G01X81651Y47208D01*
G01X81809Y47259D01*
G01X82586Y47259D01*
G01X82586Y48122D02*
G01X81860Y47602D01*
G01X81860Y48381D01*
G01X82586Y48122D02*
G01X81496Y48122D01*
G01X81133Y48724D02*
G01X81133Y49659D01*
G01X82380Y50002D02*
G01X82431Y50106D01*
G01X82586Y50264D01*
G01X81496Y50264D01*
G01X72525Y39027D02*
G01X72525Y38249D01*
G01X72474Y38092D01*
G01X72370Y37988D01*
G01X72213Y37937D01*
G01X72109Y37937D01*
G01X71954Y37988D01*
G01X71850Y38092D01*
G01X71799Y38249D01*
G01X71799Y39027D01*
G01X70935Y39027D02*
G01X71456Y38300D01*
G01X70676Y38300D01*
G01X70935Y39027D02*
G01X70935Y37937D01*
G01X70333Y37574D02*
G01X69398Y37574D01*
G01X69002Y38767D02*
G01X69002Y38821D01*
G01X68951Y38925D01*
G01X68898Y38976D01*
G01X68794Y39027D01*
G01X68588Y39027D01*
G01X68484Y38976D01*
G01X68431Y38925D01*
G01X68380Y38821D01*
G01X68380Y38717D01*
G01X68431Y38613D01*
G01X68535Y38455D01*
G01X69056Y37937D01*
G01X68327Y37937D01*
G01X64776Y52217D02*
G01X64672Y52270D01*
G01X64567Y52374D01*
G01X64517Y52476D01*
G01X64517Y52684D01*
G01X64567Y52788D01*
G01X64672Y52892D01*
G01X64776Y52946D01*
G01X64931Y52997D01*
G01X65190Y52997D01*
G01X65347Y52946D01*
G01X65451Y52892D01*
G01X65555Y52788D01*
G01X65606Y52684D01*
G01X65606Y52476D01*
G01X65555Y52374D01*
G01X65451Y52270D01*
G01X65347Y52217D01*
G01X64517Y51356D02*
G01X65243Y51874D01*
G01X65243Y51094D01*
G01X64517Y51356D02*
G01X65606Y51356D01*
G01X65969Y50751D02*
G01X65969Y49816D01*
G01X64722Y49474D02*
G01X64672Y49369D01*
G01X64517Y49215D01*
G01X65606Y49215D01*
G01X62406Y42583D02*
G01X62406Y41493D01*
G01X62406Y42583D02*
G01X61939Y42583D01*
G01X61784Y42532D01*
G01X61730Y42481D01*
G01X61679Y42377D01*
G01X61679Y42273D01*
G01X61730Y42169D01*
G01X61784Y42115D01*
G01X61939Y42064D01*
G01X62406Y42064D01*
G01X62043Y42064D02*
G01X61679Y41493D01*
G01X60816Y42583D02*
G01X61337Y41856D01*
G01X60557Y41856D01*
G01X60816Y42583D02*
G01X60816Y41493D01*
G01X60214Y41130D02*
G01X59279Y41130D01*
G01X58936Y42377D02*
G01X58832Y42428D01*
G01X58675Y42583D01*
G01X58675Y41493D01*
G01X90933Y77889D02*
G01X92022Y77889D01*
G01X90933Y77889D02*
G01X90933Y77421D01*
G01X90983Y77266D01*
G01X91034Y77213D01*
G01X91138Y77162D01*
G01X91242Y77162D01*
G01X91347Y77213D01*
G01X91400Y77266D01*
G01X91451Y77421D01*
G01X91451Y77889D01*
G01X91451Y77525D02*
G01X92022Y77162D01*
G01X90933Y76299D02*
G01X91659Y76819D01*
G01X91659Y76039D01*
G01X90933Y76299D02*
G01X92022Y76299D01*
G01X92385Y75697D02*
G01X92385Y74762D01*
G01X91192Y74366D02*
G01X91138Y74366D01*
G01X91034Y74315D01*
G01X90983Y74261D01*
G01X90933Y74157D01*
G01X90933Y73952D01*
G01X90983Y73847D01*
G01X91034Y73794D01*
G01X91138Y73743D01*
G01X91242Y73743D01*
G01X91347Y73794D01*
G01X91504Y73898D01*
G01X92022Y74419D01*
G01X92022Y73690D01*
G01X90933Y73243D02*
G01X90933Y72671D01*
G01X91347Y72984D01*
G01X91347Y72829D01*
G01X91400Y72725D01*
G01X91451Y72671D01*
G01X91606Y72621D01*
G01X91710Y72621D01*
G01X91867Y72671D01*
G01X91971Y72776D01*
G01X92022Y72933D01*
G01X92022Y73088D01*
G01X91971Y73243D01*
G01X91918Y73296D01*
G01X91814Y73347D01*
G01X90933Y62903D02*
G01X92022Y62903D01*
G01X90933Y62903D02*
G01X90933Y62435D01*
G01X90983Y62280D01*
G01X91034Y62227D01*
G01X91138Y62176D01*
G01X91242Y62176D01*
G01X91347Y62227D01*
G01X91400Y62280D01*
G01X91451Y62435D01*
G01X91451Y62903D01*
G01X91451Y62539D02*
G01X92022Y62176D01*
G01X90933Y61313D02*
G01X91659Y61833D01*
G01X91659Y61054D01*
G01X90933Y61313D02*
G01X92022Y61313D01*
G01X92385Y60711D02*
G01X92385Y59776D01*
G01X91192Y59380D02*
G01X91138Y59380D01*
G01X91034Y59329D01*
G01X90983Y59276D01*
G01X90933Y59171D01*
G01X90933Y58966D01*
G01X90983Y58861D01*
G01X91034Y58808D01*
G01X91138Y58757D01*
G01X91242Y58757D01*
G01X91347Y58808D01*
G01X91504Y58912D01*
G01X92022Y59433D01*
G01X92022Y58704D01*
G01X90933Y57843D02*
G01X91659Y58361D01*
G01X91659Y57581D01*
G01X90933Y57843D02*
G01X92022Y57843D01*
G01X81027Y77635D02*
G01X82116Y77635D01*
G01X81027Y77635D02*
G01X81027Y77167D01*
G01X81077Y77012D01*
G01X81128Y76959D01*
G01X81232Y76908D01*
G01X81336Y76908D01*
G01X81441Y76959D01*
G01X81494Y77012D01*
G01X81545Y77167D01*
G01X81545Y77635D01*
G01X81545Y77271D02*
G01X82116Y76908D01*
G01X81027Y76045D02*
G01X81753Y76565D01*
G01X81753Y75785D01*
G01X81027Y76045D02*
G01X82116Y76045D01*
G01X82479Y75443D02*
G01X82479Y74508D01*
G01X81232Y74165D02*
G01X81182Y74061D01*
G01X81027Y73903D01*
G01X82116Y73903D01*
G01X81027Y73042D02*
G01X81753Y73560D01*
G01X81753Y72783D01*
G01X81027Y73042D02*
G01X82116Y73042D01*
G01X81027Y62903D02*
G01X82116Y62903D01*
G01X81027Y62903D02*
G01X81027Y62435D01*
G01X81077Y62280D01*
G01X81128Y62227D01*
G01X81232Y62176D01*
G01X81336Y62176D01*
G01X81441Y62227D01*
G01X81494Y62280D01*
G01X81545Y62435D01*
G01X81545Y62903D01*
G01X81545Y62539D02*
G01X82116Y62176D01*
G01X81027Y61313D02*
G01X81753Y61833D01*
G01X81753Y61053D01*
G01X81027Y61313D02*
G01X82116Y61313D01*
G01X82479Y60711D02*
G01X82479Y59776D01*
G01X81232Y59433D02*
G01X81182Y59329D01*
G01X81027Y59171D01*
G01X82116Y59171D01*
G01X81027Y58206D02*
G01X81027Y58724D01*
G01X81494Y58778D01*
G01X81441Y58724D01*
G01X81390Y58569D01*
G01X81390Y58414D01*
G01X81441Y58257D01*
G01X81545Y58153D01*
G01X81700Y58102D01*
G01X81804Y58102D01*
G01X81961Y58153D01*
G01X82065Y58257D01*
G01X82116Y58414D01*
G01X82116Y58569D01*
G01X82065Y58724D01*
G01X82012Y58778D01*
G01X81908Y58828D01*
G01X84329Y77635D02*
G01X85418Y77635D01*
G01X84329Y77635D02*
G01X84329Y77167D01*
G01X84379Y77012D01*
G01X84430Y76959D01*
G01X84534Y76908D01*
G01X84638Y76908D01*
G01X84743Y76959D01*
G01X84796Y77012D01*
G01X84847Y77167D01*
G01X84847Y77635D01*
G01X84847Y77271D02*
G01X85418Y76908D01*
G01X84329Y76045D02*
G01X85055Y76565D01*
G01X85055Y75785D01*
G01X84329Y76045D02*
G01X85418Y76045D01*
G01X85781Y75443D02*
G01X85781Y74508D01*
G01X84534Y74165D02*
G01X84484Y74061D01*
G01X84329Y73903D01*
G01X85418Y73903D01*
G01X84329Y72834D02*
G01X85418Y73355D01*
G01X84329Y73560D02*
G01X84329Y72834D01*
G01X84329Y62903D02*
G01X85418Y62903D01*
G01X84329Y62903D02*
G01X84329Y62435D01*
G01X84379Y62280D01*
G01X84430Y62227D01*
G01X84534Y62176D01*
G01X84638Y62176D01*
G01X84743Y62227D01*
G01X84796Y62280D01*
G01X84847Y62435D01*
G01X84847Y62903D01*
G01X84847Y62539D02*
G01X85418Y62176D01*
G01X84329Y61313D02*
G01X85055Y61833D01*
G01X85055Y61053D01*
G01X84329Y61313D02*
G01X85418Y61313D01*
G01X85781Y60711D02*
G01X85781Y59776D01*
G01X84534Y59433D02*
G01X84484Y59329D01*
G01X84329Y59171D01*
G01X85418Y59171D01*
G01X84329Y58569D02*
G01X84379Y58724D01*
G01X84484Y58778D01*
G01X84588Y58778D01*
G01X84692Y58724D01*
G01X84743Y58623D01*
G01X84796Y58414D01*
G01X84847Y58257D01*
G01X84951Y58153D01*
G01X85055Y58102D01*
G01X85210Y58102D01*
G01X85314Y58153D01*
G01X85367Y58206D01*
G01X85418Y58361D01*
G01X85418Y58569D01*
G01X85367Y58724D01*
G01X85314Y58778D01*
G01X85210Y58828D01*
G01X85055Y58828D01*
G01X84951Y58778D01*
G01X84847Y58674D01*
G01X84796Y58519D01*
G01X84743Y58310D01*
G01X84692Y58206D01*
G01X84588Y58153D01*
G01X84484Y58153D01*
G01X84379Y58206D01*
G01X84329Y58361D01*
G01X84329Y58569D01*
G01X87631Y77889D02*
G01X88720Y77889D01*
G01X87631Y77889D02*
G01X87631Y77421D01*
G01X87681Y77266D01*
G01X87732Y77213D01*
G01X87836Y77162D01*
G01X87940Y77162D01*
G01X88045Y77213D01*
G01X88098Y77266D01*
G01X88149Y77421D01*
G01X88149Y77889D01*
G01X88149Y77525D02*
G01X88720Y77162D01*
G01X87631Y76299D02*
G01X88357Y76819D01*
G01X88357Y76039D01*
G01X87631Y76299D02*
G01X88720Y76299D01*
G01X89083Y75697D02*
G01X89083Y74762D01*
G01X87890Y74366D02*
G01X87836Y74366D01*
G01X87732Y74315D01*
G01X87681Y74261D01*
G01X87631Y74157D01*
G01X87631Y73952D01*
G01X87681Y73847D01*
G01X87732Y73794D01*
G01X87836Y73743D01*
G01X87940Y73743D01*
G01X88045Y73794D01*
G01X88202Y73898D01*
G01X88720Y74419D01*
G01X88720Y73690D01*
G01X87631Y73037D02*
G01X87681Y73192D01*
G01X87836Y73296D01*
G01X88098Y73347D01*
G01X88253Y73347D01*
G01X88512Y73296D01*
G01X88669Y73192D01*
G01X88720Y73037D01*
G01X88720Y72933D01*
G01X88669Y72776D01*
G01X88512Y72671D01*
G01X88253Y72621D01*
G01X88098Y72621D01*
G01X87836Y72671D01*
G01X87681Y72776D01*
G01X87631Y72933D01*
G01X87631Y73037D01*
G01X87631Y62903D02*
G01X88720Y62903D01*
G01X87631Y62903D02*
G01X87631Y62435D01*
G01X87681Y62280D01*
G01X87732Y62227D01*
G01X87836Y62176D01*
G01X87940Y62176D01*
G01X88045Y62227D01*
G01X88098Y62280D01*
G01X88149Y62435D01*
G01X88149Y62903D01*
G01X88149Y62539D02*
G01X88720Y62176D01*
G01X87631Y61313D02*
G01X88357Y61833D01*
G01X88357Y61053D01*
G01X87631Y61313D02*
G01X88720Y61313D01*
G01X89083Y60711D02*
G01X89083Y59776D01*
G01X87890Y59380D02*
G01X87836Y59380D01*
G01X87732Y59329D01*
G01X87681Y59275D01*
G01X87631Y59171D01*
G01X87631Y58966D01*
G01X87681Y58861D01*
G01X87732Y58808D01*
G01X87836Y58757D01*
G01X87940Y58757D01*
G01X88045Y58808D01*
G01X88202Y58912D01*
G01X88720Y59433D01*
G01X88720Y58704D01*
G01X87836Y58361D02*
G01X87786Y58257D01*
G01X87631Y58102D01*
G01X88720Y58102D01*
G01X85858Y35707D02*
G01X85754Y35760D01*
G01X85649Y35864D01*
G01X85599Y35966D01*
G01X85599Y36174D01*
G01X85649Y36278D01*
G01X85754Y36382D01*
G01X85858Y36436D01*
G01X86013Y36487D01*
G01X86272Y36487D01*
G01X86429Y36436D01*
G01X86533Y36382D01*
G01X86637Y36278D01*
G01X86688Y36174D01*
G01X86688Y35966D01*
G01X86637Y35864D01*
G01X86533Y35760D01*
G01X86429Y35707D01*
G01X85599Y35260D02*
G01X85599Y34688D01*
G01X86013Y35001D01*
G01X86013Y34846D01*
G01X86066Y34742D01*
G01X86117Y34688D01*
G01X86272Y34637D01*
G01X86376Y34637D01*
G01X86533Y34688D01*
G01X86637Y34792D01*
G01X86688Y34950D01*
G01X86688Y35105D01*
G01X86637Y35260D01*
G01X86584Y35313D01*
G01X86480Y35364D01*
G01X87051Y34295D02*
G01X87051Y33360D01*
G01X85858Y32964D02*
G01X85804Y32964D01*
G01X85700Y32913D01*
G01X85649Y32859D01*
G01X85599Y32755D01*
G01X85599Y32550D01*
G01X85649Y32445D01*
G01X85700Y32392D01*
G01X85804Y32341D01*
G01X85908Y32341D01*
G01X86013Y32392D01*
G01X86170Y32496D01*
G01X86688Y33017D01*
G01X86688Y32288D01*
G01X72144Y21640D02*
G01X72921Y21640D01*
G01X73079Y21590D01*
G01X73183Y21485D01*
G01X73234Y21328D01*
G01X73234Y21224D01*
G01X73183Y21069D01*
G01X73079Y20965D01*
G01X72921Y20914D01*
G01X72144Y20914D01*
G01X72144Y20467D02*
G01X72144Y19895D01*
G01X72558Y20205D01*
G01X72558Y20050D01*
G01X72612Y19946D01*
G01X72662Y19895D01*
G01X72817Y19842D01*
G01X72921Y19842D01*
G01X73079Y19895D01*
G01X73183Y19999D01*
G01X73234Y20154D01*
G01X73234Y20309D01*
G01X73183Y20467D01*
G01X73130Y20518D01*
G01X73026Y20571D01*
G01X73597Y19499D02*
G01X73597Y18564D01*
G01X72350Y18221D02*
G01X72299Y18117D01*
G01X72144Y17962D01*
G01X73234Y17962D01*
G01X20321Y69121D02*
G01X21098Y69121D01*
G01X21255Y69070D01*
G01X21359Y68966D01*
G01X21410Y68808D01*
G01X21410Y68704D01*
G01X21359Y68549D01*
G01X21255Y68445D01*
G01X21098Y68394D01*
G01X20321Y68394D01*
G01X20321Y67426D02*
G01X20321Y67947D01*
G01X20788Y67998D01*
G01X20735Y67947D01*
G01X20684Y67790D01*
G01X20684Y67635D01*
G01X20735Y67480D01*
G01X20839Y67376D01*
G01X20994Y67322D01*
G01X21098Y67322D01*
G01X21255Y67376D01*
G01X21359Y67480D01*
G01X21410Y67635D01*
G01X21410Y67790D01*
G01X21359Y67947D01*
G01X21306Y67998D01*
G01X21202Y68051D01*
G01X21773Y66979D02*
G01X21773Y66045D01*
G01X20526Y65702D02*
G01X20476Y65598D01*
G01X20321Y65443D01*
G01X21410Y65443D01*
G01X42170Y71521D02*
G01X42066Y71574D01*
G01X41961Y71678D01*
G01X41911Y71780D01*
G01X41911Y71988D01*
G01X41961Y72092D01*
G01X42066Y72196D01*
G01X42170Y72250D01*
G01X42325Y72301D01*
G01X42584Y72301D01*
G01X42741Y72250D01*
G01X42845Y72196D01*
G01X42949Y72092D01*
G01X43000Y71988D01*
G01X43000Y71780D01*
G01X42949Y71678D01*
G01X42845Y71574D01*
G01X42741Y71521D01*
G01X41911Y70556D02*
G01X41911Y71074D01*
G01X42378Y71127D01*
G01X42325Y71074D01*
G01X42274Y70919D01*
G01X42274Y70764D01*
G01X42325Y70606D01*
G01X42429Y70502D01*
G01X42584Y70452D01*
G01X42688Y70452D01*
G01X42845Y70502D01*
G01X42949Y70606D01*
G01X43000Y70764D01*
G01X43000Y70919D01*
G01X42949Y71074D01*
G01X42896Y71127D01*
G01X42792Y71178D01*
G01X43363Y70109D02*
G01X43363Y69174D01*
G01X42116Y68831D02*
G01X42066Y68727D01*
G01X41911Y68569D01*
G01X43000Y68569D01*
G01X24466Y48171D02*
G01X24466Y47393D01*
G01X24415Y47236D01*
G01X24311Y47132D01*
G01X24153Y47081D01*
G01X24049Y47081D01*
G01X23894Y47132D01*
G01X23790Y47236D01*
G01X23739Y47393D01*
G01X23739Y48171D01*
G01X22772Y48171D02*
G01X23292Y48171D01*
G01X23343Y47703D01*
G01X23292Y47757D01*
G01X23135Y47807D01*
G01X22980Y47807D01*
G01X22825Y47757D01*
G01X22721Y47652D01*
G01X22668Y47498D01*
G01X22668Y47393D01*
G01X22721Y47236D01*
G01X22825Y47132D01*
G01X22980Y47081D01*
G01X23135Y47081D01*
G01X23292Y47132D01*
G01X23343Y47185D01*
G01X23397Y47289D01*
G01X22325Y46718D02*
G01X21390Y46718D01*
G01X20996Y47912D02*
G01X20996Y47965D01*
G01X20943Y48069D01*
G01X20892Y48120D01*
G01X20788Y48171D01*
G01X20580Y48171D01*
G01X20476Y48120D01*
G01X20425Y48069D01*
G01X20371Y47965D01*
G01X20371Y47861D01*
G01X20425Y47757D01*
G01X20529Y47599D01*
G01X21047Y47081D01*
G01X20321Y47081D01*
G01X30486Y30119D02*
G01X30382Y30172D01*
G01X30277Y30276D01*
G01X30227Y30378D01*
G01X30227Y30586D01*
G01X30277Y30690D01*
G01X30382Y30794D01*
G01X30486Y30848D01*
G01X30641Y30899D01*
G01X30900Y30899D01*
G01X31057Y30848D01*
G01X31161Y30794D01*
G01X31265Y30690D01*
G01X31316Y30586D01*
G01X31316Y30378D01*
G01X31265Y30276D01*
G01X31161Y30172D01*
G01X31057Y30119D01*
G01X30227Y29154D02*
G01X30227Y29672D01*
G01X30694Y29725D01*
G01X30641Y29672D01*
G01X30590Y29517D01*
G01X30590Y29362D01*
G01X30641Y29204D01*
G01X30745Y29100D01*
G01X30900Y29049D01*
G01X31004Y29049D01*
G01X31161Y29100D01*
G01X31265Y29204D01*
G01X31316Y29362D01*
G01X31316Y29517D01*
G01X31265Y29672D01*
G01X31212Y29725D01*
G01X31108Y29776D01*
G01X31679Y28707D02*
G01X31679Y27772D01*
G01X30486Y27376D02*
G01X30432Y27376D01*
G01X30328Y27325D01*
G01X30277Y27271D01*
G01X30227Y27167D01*
G01X30227Y26962D01*
G01X30277Y26857D01*
G01X30328Y26804D01*
G01X30432Y26753D01*
G01X30536Y26753D01*
G01X30641Y26804D01*
G01X30798Y26908D01*
G01X31316Y27429D01*
G01X31316Y26700D01*
G01X72358Y34340D02*
G01X73135Y34340D01*
G01X73292Y34290D01*
G01X73396Y34185D01*
G01X73447Y34028D01*
G01X73447Y33924D01*
G01X73396Y33769D01*
G01X73292Y33665D01*
G01X73135Y33614D01*
G01X72358Y33614D01*
G01X72358Y33167D02*
G01X72358Y32595D01*
G01X72772Y32905D01*
G01X72772Y32750D01*
G01X72825Y32646D01*
G01X72876Y32595D01*
G01X73031Y32542D01*
G01X73135Y32542D01*
G01X73292Y32595D01*
G01X73396Y32699D01*
G01X73447Y32854D01*
G01X73447Y33009D01*
G01X73396Y33167D01*
G01X73343Y33218D01*
G01X73239Y33271D01*
G01X73810Y32199D02*
G01X73810Y31264D01*
G01X72617Y30871D02*
G01X72563Y30871D01*
G01X72459Y30817D01*
G01X72408Y30767D01*
G01X72358Y30662D01*
G01X72358Y30454D01*
G01X72408Y30350D01*
G01X72459Y30299D01*
G01X72563Y30246D01*
G01X72667Y30246D01*
G01X72772Y30299D01*
G01X72929Y30403D01*
G01X73447Y30921D01*
G01X73447Y30195D01*
G01X104141Y41427D02*
G01X104141Y40337D01*
G01X104141Y41427D02*
G01X103673Y41427D01*
G01X103518Y41376D01*
G01X103465Y41325D01*
G01X103414Y41221D01*
G01X103414Y41117D01*
G01X103465Y41013D01*
G01X103518Y40960D01*
G01X103673Y40909D01*
G01X104141Y40909D01*
G01X103777Y40909D02*
G01X103414Y40337D01*
G01X102446Y41272D02*
G01X102500Y41376D01*
G01X102655Y41427D01*
G01X102759Y41427D01*
G01X102914Y41376D01*
G01X103018Y41221D01*
G01X103071Y40960D01*
G01X103071Y40700D01*
G01X103018Y40492D01*
G01X102914Y40388D01*
G01X102759Y40337D01*
G01X102706Y40337D01*
G01X102551Y40388D01*
G01X102446Y40492D01*
G01X102396Y40650D01*
G01X102396Y40700D01*
G01X102446Y40855D01*
G01X102551Y40960D01*
G01X102706Y41013D01*
G01X102759Y41013D01*
G01X102914Y40960D01*
G01X103018Y40855D01*
G01X103071Y40700D01*
G01X102053Y39974D02*
G01X101118Y39974D01*
G01X100775Y41221D02*
G01X100671Y41272D01*
G01X100513Y41427D01*
G01X100513Y40337D01*
G01X100120Y41168D02*
G01X100120Y41221D01*
G01X100066Y41325D01*
G01X100016Y41376D01*
G01X99912Y41427D01*
G01X99703Y41427D01*
G01X99599Y41376D01*
G01X99548Y41325D01*
G01X99495Y41221D01*
G01X99495Y41117D01*
G01X99548Y41013D01*
G01X99652Y40855D01*
G01X100171Y40337D01*
G01X99444Y40337D01*
G01X104141Y43713D02*
G01X104141Y42623D01*
G01X104141Y43713D02*
G01X103673Y43713D01*
G01X103518Y43662D01*
G01X103465Y43611D01*
G01X103414Y43507D01*
G01X103414Y43403D01*
G01X103465Y43299D01*
G01X103518Y43246D01*
G01X103673Y43195D01*
G01X104141Y43195D01*
G01X103777Y43195D02*
G01X103414Y42623D01*
G01X102446Y43558D02*
G01X102500Y43662D01*
G01X102655Y43713D01*
G01X102759Y43713D01*
G01X102914Y43662D01*
G01X103018Y43507D01*
G01X103071Y43246D01*
G01X103071Y42986D01*
G01X103018Y42778D01*
G01X102914Y42674D01*
G01X102759Y42623D01*
G01X102706Y42623D01*
G01X102551Y42674D01*
G01X102446Y42778D01*
G01X102396Y42936D01*
G01X102396Y42986D01*
G01X102446Y43141D01*
G01X102551Y43246D01*
G01X102706Y43299D01*
G01X102759Y43299D01*
G01X102914Y43246D01*
G01X103018Y43141D01*
G01X103071Y42986D01*
G01X102053Y42260D02*
G01X101118Y42260D01*
G01X100775Y43507D02*
G01X100671Y43558D01*
G01X100513Y43713D01*
G01X100513Y42623D01*
G01X100171Y43507D02*
G01X100066Y43558D01*
G01X99912Y43713D01*
G01X99912Y42623D01*
G01X104141Y46253D02*
G01X104141Y45163D01*
G01X104141Y46253D02*
G01X103673Y46253D01*
G01X103518Y46202D01*
G01X103465Y46151D01*
G01X103414Y46047D01*
G01X103414Y45943D01*
G01X103465Y45839D01*
G01X103518Y45786D01*
G01X103673Y45735D01*
G01X104141Y45735D01*
G01X103777Y45735D02*
G01X103414Y45163D01*
G01X102446Y46098D02*
G01X102500Y46202D01*
G01X102655Y46253D01*
G01X102759Y46253D01*
G01X102914Y46202D01*
G01X103018Y46047D01*
G01X103071Y45786D01*
G01X103071Y45526D01*
G01X103018Y45318D01*
G01X102914Y45214D01*
G01X102759Y45163D01*
G01X102706Y45163D01*
G01X102551Y45214D01*
G01X102446Y45318D01*
G01X102396Y45476D01*
G01X102396Y45526D01*
G01X102446Y45681D01*
G01X102551Y45786D01*
G01X102706Y45839D01*
G01X102759Y45839D01*
G01X102914Y45786D01*
G01X103018Y45681D01*
G01X103071Y45526D01*
G01X102053Y44800D02*
G01X101118Y44800D01*
G01X100775Y46047D02*
G01X100671Y46098D01*
G01X100513Y46253D01*
G01X100513Y45163D01*
G01X99861Y46253D02*
G01X100016Y46202D01*
G01X100120Y46047D01*
G01X100171Y45786D01*
G01X100171Y45631D01*
G01X100120Y45372D01*
G01X100016Y45214D01*
G01X99861Y45163D01*
G01X99757Y45163D01*
G01X99599Y45214D01*
G01X99495Y45372D01*
G01X99444Y45631D01*
G01X99444Y45786D01*
G01X99495Y46047D01*
G01X99599Y46202D01*
G01X99757Y46253D01*
G01X99861Y46253D01*
G01X104141Y48793D02*
G01X104141Y47703D01*
G01X104141Y48793D02*
G01X103673Y48793D01*
G01X103518Y48742D01*
G01X103465Y48691D01*
G01X103414Y48587D01*
G01X103414Y48483D01*
G01X103465Y48379D01*
G01X103518Y48326D01*
G01X103673Y48275D01*
G01X104141Y48275D01*
G01X103777Y48275D02*
G01X103414Y47703D01*
G01X102446Y48638D02*
G01X102500Y48742D01*
G01X102655Y48793D01*
G01X102759Y48793D01*
G01X102914Y48742D01*
G01X103018Y48587D01*
G01X103071Y48326D01*
G01X103071Y48066D01*
G01X103018Y47858D01*
G01X102914Y47754D01*
G01X102759Y47703D01*
G01X102706Y47703D01*
G01X102551Y47754D01*
G01X102446Y47858D01*
G01X102396Y48016D01*
G01X102396Y48066D01*
G01X102446Y48221D01*
G01X102551Y48326D01*
G01X102706Y48379D01*
G01X102759Y48379D01*
G01X102914Y48326D01*
G01X103018Y48221D01*
G01X103071Y48066D01*
G01X102053Y47340D02*
G01X101118Y47340D01*
G01X100099Y48430D02*
G01X100150Y48275D01*
G01X100254Y48171D01*
G01X100409Y48120D01*
G01X100463Y48120D01*
G01X100618Y48171D01*
G01X100722Y48275D01*
G01X100775Y48430D01*
G01X100775Y48483D01*
G01X100722Y48638D01*
G01X100618Y48742D01*
G01X100463Y48793D01*
G01X100409Y48793D01*
G01X100254Y48742D01*
G01X100150Y48638D01*
G01X100099Y48430D01*
G01X100099Y48171D01*
G01X100150Y47912D01*
G01X100254Y47754D01*
G01X100409Y47703D01*
G01X100513Y47703D01*
G01X100671Y47754D01*
G01X100722Y47858D01*
G01X104141Y27965D02*
G01X104141Y26875D01*
G01X104141Y27965D02*
G01X103673Y27965D01*
G01X103518Y27914D01*
G01X103465Y27863D01*
G01X103414Y27759D01*
G01X103414Y27655D01*
G01X103465Y27551D01*
G01X103518Y27498D01*
G01X103673Y27447D01*
G01X104141Y27447D01*
G01X103777Y27447D02*
G01X103414Y26875D01*
G01X102446Y27810D02*
G01X102500Y27914D01*
G01X102655Y27965D01*
G01X102759Y27965D01*
G01X102914Y27914D01*
G01X103018Y27759D01*
G01X103071Y27498D01*
G01X103071Y27238D01*
G01X103018Y27030D01*
G01X102914Y26926D01*
G01X102759Y26875D01*
G01X102706Y26875D01*
G01X102551Y26926D01*
G01X102446Y27030D01*
G01X102396Y27188D01*
G01X102396Y27238D01*
G01X102446Y27393D01*
G01X102551Y27498D01*
G01X102706Y27551D01*
G01X102759Y27551D01*
G01X102914Y27498D01*
G01X103018Y27393D01*
G01X103071Y27238D01*
G01X102053Y26512D02*
G01X101118Y26512D01*
G01X100254Y27965D02*
G01X100775Y27238D01*
G01X99995Y27238D01*
G01X100254Y27965D02*
G01X100254Y26875D01*
G01X104141Y30505D02*
G01X104141Y29415D01*
G01X104141Y30505D02*
G01X103673Y30505D01*
G01X103518Y30454D01*
G01X103465Y30403D01*
G01X103414Y30299D01*
G01X103414Y30195D01*
G01X103465Y30091D01*
G01X103518Y30038D01*
G01X103673Y29987D01*
G01X104141Y29987D01*
G01X103777Y29987D02*
G01X103414Y29415D01*
G01X102446Y30350D02*
G01X102500Y30454D01*
G01X102655Y30505D01*
G01X102759Y30505D01*
G01X102914Y30454D01*
G01X103018Y30299D01*
G01X103071Y30038D01*
G01X103071Y29778D01*
G01X103018Y29570D01*
G01X102914Y29466D01*
G01X102759Y29415D01*
G01X102706Y29415D01*
G01X102551Y29466D01*
G01X102446Y29570D01*
G01X102396Y29728D01*
G01X102396Y29778D01*
G01X102446Y29933D01*
G01X102551Y30038D01*
G01X102706Y30091D01*
G01X102759Y30091D01*
G01X102914Y30038D01*
G01X103018Y29933D01*
G01X103071Y29778D01*
G01X102053Y29052D02*
G01X101118Y29052D01*
G01X100671Y30505D02*
G01X100099Y30505D01*
G01X100409Y30091D01*
G01X100254Y30091D01*
G01X100150Y30038D01*
G01X100099Y29987D01*
G01X100046Y29832D01*
G01X100046Y29728D01*
G01X100099Y29570D01*
G01X100204Y29466D01*
G01X100359Y29415D01*
G01X100513Y29415D01*
G01X100671Y29466D01*
G01X100722Y29519D01*
G01X100775Y29624D01*
G01X104141Y33045D02*
G01X104141Y31955D01*
G01X104141Y33045D02*
G01X103673Y33045D01*
G01X103518Y32994D01*
G01X103465Y32943D01*
G01X103414Y32839D01*
G01X103414Y32735D01*
G01X103465Y32631D01*
G01X103518Y32578D01*
G01X103673Y32527D01*
G01X104141Y32527D01*
G01X103777Y32527D02*
G01X103414Y31955D01*
G01X102446Y32890D02*
G01X102500Y32994D01*
G01X102655Y33045D01*
G01X102759Y33045D01*
G01X102914Y32994D01*
G01X103018Y32839D01*
G01X103071Y32578D01*
G01X103071Y32318D01*
G01X103018Y32110D01*
G01X102914Y32006D01*
G01X102759Y31955D01*
G01X102706Y31955D01*
G01X102551Y32006D01*
G01X102446Y32110D01*
G01X102396Y32268D01*
G01X102396Y32318D01*
G01X102446Y32473D01*
G01X102551Y32578D01*
G01X102706Y32631D01*
G01X102759Y32631D01*
G01X102914Y32578D01*
G01X103018Y32473D01*
G01X103071Y32318D01*
G01X102053Y31592D02*
G01X101118Y31592D01*
G01X100722Y32786D02*
G01X100722Y32839D01*
G01X100671Y32943D01*
G01X100618Y32994D01*
G01X100513Y33045D01*
G01X100305Y33045D01*
G01X100204Y32994D01*
G01X100150Y32943D01*
G01X100099Y32839D01*
G01X100099Y32735D01*
G01X100150Y32631D01*
G01X100254Y32473D01*
G01X100775Y31955D01*
G01X100046Y31955D01*
G01X104141Y35585D02*
G01X104141Y34495D01*
G01X104141Y35585D02*
G01X103673Y35585D01*
G01X103518Y35534D01*
G01X103465Y35483D01*
G01X103414Y35379D01*
G01X103414Y35275D01*
G01X103465Y35171D01*
G01X103518Y35118D01*
G01X103673Y35067D01*
G01X104141Y35067D01*
G01X103777Y35067D02*
G01X103414Y34495D01*
G01X102446Y35430D02*
G01X102500Y35534D01*
G01X102655Y35585D01*
G01X102759Y35585D01*
G01X102914Y35534D01*
G01X103018Y35379D01*
G01X103071Y35118D01*
G01X103071Y34858D01*
G01X103018Y34650D01*
G01X102914Y34546D01*
G01X102759Y34495D01*
G01X102706Y34495D01*
G01X102551Y34546D01*
G01X102446Y34650D01*
G01X102396Y34808D01*
G01X102396Y34858D01*
G01X102446Y35013D01*
G01X102551Y35118D01*
G01X102706Y35171D01*
G01X102759Y35171D01*
G01X102914Y35118D01*
G01X103018Y35013D01*
G01X103071Y34858D01*
G01X102053Y34132D02*
G01X101118Y34132D01*
G01X100775Y35379D02*
G01X100671Y35430D01*
G01X100513Y35585D01*
G01X100513Y34495D01*
G01X141077Y17051D02*
G01X140973Y17104D01*
G01X140869Y17208D01*
G01X140818Y17310D01*
G01X140818Y17518D01*
G01X140869Y17622D01*
G01X140973Y17726D01*
G01X141077Y17780D01*
G01X141232Y17830D01*
G01X141491Y17830D01*
G01X141649Y17780D01*
G01X141753Y17726D01*
G01X141857Y17622D01*
G01X141908Y17518D01*
G01X141908Y17310D01*
G01X141857Y17208D01*
G01X141753Y17104D01*
G01X141649Y17051D01*
G01X141024Y16708D02*
G01X140973Y16603D01*
G01X140818Y16449D01*
G01X141908Y16449D01*
G01X142271Y16106D02*
G01X142271Y15171D01*
G01X141024Y14828D02*
G01X140973Y14724D01*
G01X140818Y14566D01*
G01X141908Y14566D01*
G01X120910Y11323D02*
G01X120806Y11376D01*
G01X120701Y11480D01*
G01X120651Y11582D01*
G01X120651Y11790D01*
G01X120701Y11894D01*
G01X120806Y11998D01*
G01X120910Y12052D01*
G01X121065Y12103D01*
G01X121324Y12103D01*
G01X121481Y12052D01*
G01X121585Y11998D01*
G01X121689Y11894D01*
G01X121740Y11790D01*
G01X121740Y11582D01*
G01X121689Y11480D01*
G01X121585Y11376D01*
G01X121481Y11323D01*
G01X120856Y10980D02*
G01X120806Y10876D01*
G01X120651Y10721D01*
G01X121740Y10721D01*
G01X122103Y10378D02*
G01X122103Y9443D01*
G01X120651Y8475D02*
G01X120651Y8996D01*
G01X121118Y9047D01*
G01X121065Y8996D01*
G01X121014Y8839D01*
G01X121014Y8684D01*
G01X121065Y8529D01*
G01X121169Y8425D01*
G01X121324Y8371D01*
G01X121428Y8371D01*
G01X121585Y8425D01*
G01X121689Y8529D01*
G01X121740Y8684D01*
G01X121740Y8839D01*
G01X121689Y8996D01*
G01X121636Y9047D01*
G01X121532Y9100D01*
G01X135449Y17304D02*
G01X135345Y17358D01*
G01X135240Y17462D01*
G01X135190Y17564D01*
G01X135190Y17772D01*
G01X135240Y17876D01*
G01X135345Y17980D01*
G01X135449Y18033D01*
G01X135604Y18084D01*
G01X135863Y18084D01*
G01X136020Y18033D01*
G01X136124Y17980D01*
G01X136228Y17876D01*
G01X136279Y17772D01*
G01X136279Y17564D01*
G01X136228Y17462D01*
G01X136124Y17358D01*
G01X136020Y17304D01*
G01X135395Y16962D02*
G01X135345Y16857D01*
G01X135190Y16703D01*
G01X136279Y16703D01*
G01X136642Y16360D02*
G01X136642Y15425D01*
G01X135190Y14978D02*
G01X135190Y14406D01*
G01X135604Y14719D01*
G01X135604Y14561D01*
G01X135657Y14457D01*
G01X135708Y14406D01*
G01X135863Y14353D01*
G01X135967Y14353D01*
G01X136124Y14406D01*
G01X136228Y14510D01*
G01X136279Y14665D01*
G01X136279Y14820D01*
G01X136228Y14978D01*
G01X136175Y15029D01*
G01X136071Y15082D01*
G01X140371Y7785D02*
G01X140371Y6695D01*
G01X140371Y7785D02*
G01X139904Y7785D01*
G01X139749Y7734D01*
G01X139696Y7683D01*
G01X139645Y7579D01*
G01X139645Y7475D01*
G01X139696Y7371D01*
G01X139749Y7317D01*
G01X139904Y7266D01*
G01X140371Y7266D01*
G01X140008Y7266D02*
G01X139645Y6695D01*
G01X139302Y7579D02*
G01X139198Y7630D01*
G01X139040Y7785D01*
G01X139040Y6695D01*
G01X138697Y6332D02*
G01X137763Y6332D01*
G01X137420Y7579D02*
G01X137316Y7630D01*
G01X137161Y7785D01*
G01X137161Y6695D01*
G01X125345Y1689D02*
G01X125345Y599D01*
G01X125345Y1689D02*
G01X124877Y1689D01*
G01X124722Y1638D01*
G01X124669Y1587D01*
G01X124618Y1483D01*
G01X124618Y1379D01*
G01X124669Y1275D01*
G01X124722Y1221D01*
G01X124877Y1170D01*
G01X125345Y1170D01*
G01X124981Y1170D02*
G01X124618Y599D01*
G01X124275Y1483D02*
G01X124171Y1534D01*
G01X124014Y1689D01*
G01X124014Y599D01*
G01X123671Y236D02*
G01X122736Y236D01*
G01X122342Y1429D02*
G01X122342Y1483D01*
G01X122289Y1587D01*
G01X122238Y1638D01*
G01X122134Y1689D01*
G01X121926Y1689D01*
G01X121822Y1638D01*
G01X121771Y1587D01*
G01X121717Y1483D01*
G01X121717Y1379D01*
G01X121771Y1275D01*
G01X121875Y1117D01*
G01X122393Y599D01*
G01X121667Y599D01*
G01X124369Y24041D02*
G01X124369Y22951D01*
G01X124369Y24041D02*
G01X124006Y24041D01*
G01X123848Y23990D01*
G01X123747Y23886D01*
G01X123694Y23782D01*
G01X123643Y23627D01*
G01X123643Y23368D01*
G01X123694Y23210D01*
G01X123747Y23106D01*
G01X123848Y23002D01*
G01X124006Y22951D01*
G01X124369Y22951D01*
G01X123300Y23835D02*
G01X123196Y23886D01*
G01X123038Y24041D01*
G01X123038Y22951D01*
G01X122695Y22588D02*
G01X121761Y22588D01*
G01X121418Y23835D02*
G01X121314Y23886D01*
G01X121159Y24041D01*
G01X121159Y22951D01*
G01X138243Y17304D02*
G01X138139Y17358D01*
G01X138034Y17462D01*
G01X137984Y17564D01*
G01X137984Y17772D01*
G01X138034Y17876D01*
G01X138139Y17980D01*
G01X138243Y18033D01*
G01X138398Y18084D01*
G01X138657Y18084D01*
G01X138814Y18033D01*
G01X138918Y17980D01*
G01X139022Y17876D01*
G01X139073Y17772D01*
G01X139073Y17564D01*
G01X139022Y17462D01*
G01X138918Y17358D01*
G01X138814Y17304D01*
G01X138189Y16962D02*
G01X138139Y16857D01*
G01X137984Y16703D01*
G01X139073Y16703D01*
G01X139436Y16360D02*
G01X139436Y15425D01*
G01X138243Y15029D02*
G01X138189Y15029D01*
G01X138085Y14978D01*
G01X138034Y14925D01*
G01X137984Y14820D01*
G01X137984Y14615D01*
G01X138034Y14510D01*
G01X138085Y14457D01*
G01X138189Y14406D01*
G01X138293Y14406D01*
G01X138398Y14457D01*
G01X138555Y14561D01*
G01X139073Y15082D01*
G01X139073Y14353D01*
G01X114809Y24041D02*
G01X114809Y22951D01*
G01X114809Y22951D02*
G01X114186Y22951D01*
G01X113843Y23835D02*
G01X113739Y23886D01*
G01X113582Y24041D01*
G01X113582Y22951D01*
G01X117453Y10574D02*
G01X117506Y10678D01*
G01X117610Y10782D01*
G01X117712Y10833D01*
G01X117920Y10833D01*
G01X118024Y10782D01*
G01X118128Y10678D01*
G01X118182Y10574D01*
G01X118233Y10419D01*
G01X118233Y10160D01*
G01X118182Y10002D01*
G01X118128Y9898D01*
G01X118024Y9794D01*
G01X117920Y9743D01*
G01X117712Y9743D01*
G01X117610Y9794D01*
G01X117506Y9898D01*
G01X117453Y10002D01*
G01X117110Y10627D02*
G01X117006Y10678D01*
G01X116851Y10833D01*
G01X116851Y9743D01*
G01X116508Y9380D02*
G01X115573Y9380D01*
G01X114605Y10678D02*
G01X114659Y10782D01*
G01X114814Y10833D01*
G01X114918Y10833D01*
G01X115073Y10782D01*
G01X115177Y10627D01*
G01X115230Y10365D01*
G01X115230Y10106D01*
G01X115177Y9898D01*
G01X115073Y9794D01*
G01X114918Y9743D01*
G01X114867Y9743D01*
G01X114710Y9794D01*
G01X114605Y9898D01*
G01X114555Y10055D01*
G01X114555Y10106D01*
G01X114605Y10261D01*
G01X114710Y10365D01*
G01X114867Y10419D01*
G01X114918Y10419D01*
G01X115073Y10365D01*
G01X115177Y10261D01*
G01X115230Y10106D01*
G01X117506Y7780D02*
G01X117559Y7884D01*
G01X117664Y7988D01*
G01X117765Y8039D01*
G01X117973Y8039D01*
G01X118078Y7988D01*
G01X118182Y7884D01*
G01X118235Y7780D01*
G01X118286Y7625D01*
G01X118286Y7366D01*
G01X118235Y7208D01*
G01X118182Y7104D01*
G01X118078Y7000D01*
G01X117973Y6949D01*
G01X117765Y6949D01*
G01X117664Y7000D01*
G01X117559Y7104D01*
G01X117506Y7208D01*
G01X117163Y7833D02*
G01X117059Y7884D01*
G01X116904Y8039D01*
G01X116904Y6949D01*
G01X116561Y6586D02*
G01X115626Y6586D01*
G01X114555Y8039D02*
G01X115075Y6949D01*
G01X115284Y8039D02*
G01X114555Y8039D01*
G01X117506Y4986D02*
G01X117559Y5090D01*
G01X117664Y5194D01*
G01X117765Y5245D01*
G01X117973Y5245D01*
G01X118078Y5194D01*
G01X118182Y5090D01*
G01X118235Y4986D01*
G01X118286Y4831D01*
G01X118286Y4572D01*
G01X118235Y4414D01*
G01X118182Y4310D01*
G01X118078Y4206D01*
G01X117973Y4155D01*
G01X117765Y4155D01*
G01X117664Y4206D01*
G01X117559Y4310D01*
G01X117506Y4414D01*
G01X117163Y5039D02*
G01X117059Y5090D01*
G01X116904Y5245D01*
G01X116904Y4155D01*
G01X116561Y3792D02*
G01X115626Y3792D01*
G01X115022Y5245D02*
G01X115179Y5194D01*
G01X115230Y5090D01*
G01X115230Y4986D01*
G01X115179Y4881D01*
G01X115075Y4831D01*
G01X114867Y4777D01*
G01X114712Y4726D01*
G01X114608Y4622D01*
G01X114555Y4518D01*
G01X114555Y4363D01*
G01X114608Y4259D01*
G01X114659Y4206D01*
G01X114816Y4155D01*
G01X115022Y4155D01*
G01X115179Y4206D01*
G01X115230Y4259D01*
G01X115284Y4363D01*
G01X115284Y4518D01*
G01X115230Y4622D01*
G01X115126Y4726D01*
G01X114971Y4777D01*
G01X114763Y4831D01*
G01X114659Y4881D01*
G01X114608Y4986D01*
G01X114608Y5090D01*
G01X114659Y5194D01*
G01X114816Y5245D01*
G01X115022Y5245D01*
G01X125906Y7785D02*
G01X125906Y6695D01*
G01X125906Y7785D02*
G01X125438Y7785D01*
G01X125284Y7734D01*
G01X125230Y7683D01*
G01X125179Y7579D01*
G01X125179Y7475D01*
G01X125230Y7371D01*
G01X125284Y7317D01*
G01X125438Y7266D01*
G01X125906Y7266D01*
G01X125543Y7266D02*
G01X125179Y6695D01*
G01X124837Y7579D02*
G01X124732Y7630D01*
G01X124575Y7785D01*
G01X124575Y6695D01*
G01X124232Y6332D02*
G01X123297Y6332D01*
G01X122436Y7785D02*
G01X122954Y7058D01*
G01X122175Y7058D01*
G01X122436Y7785D02*
G01X122436Y6695D01*
G01X129917Y2959D02*
G01X129917Y1869D01*
G01X129917Y2959D02*
G01X129449Y2959D01*
G01X129294Y2908D01*
G01X129241Y2857D01*
G01X129190Y2753D01*
G01X129190Y2649D01*
G01X129241Y2545D01*
G01X129294Y2491D01*
G01X129449Y2440D01*
G01X129917Y2440D01*
G01X129553Y2440D02*
G01X129190Y1869D01*
G01X128847Y2753D02*
G01X128743Y2804D01*
G01X128586Y2959D01*
G01X128586Y1869D01*
G01X128243Y1506D02*
G01X127308Y1506D01*
G01X126861Y2959D02*
G01X126289Y2959D01*
G01X126602Y2545D01*
G01X126447Y2545D01*
G01X126343Y2491D01*
G01X126289Y2440D01*
G01X126239Y2286D01*
G01X126239Y2181D01*
G01X126289Y2024D01*
G01X126394Y1920D01*
G01X126551Y1869D01*
G01X126706Y1869D01*
G01X126861Y1920D01*
G01X126914Y1973D01*
G01X126965Y2077D01*
G01X118436Y38519D02*
G01X118436Y37741D01*
G01X118385Y37584D01*
G01X118281Y37480D01*
G01X118123Y37429D01*
G01X118019Y37429D01*
G01X117864Y37480D01*
G01X117760Y37584D01*
G01X117709Y37741D01*
G01X117709Y38519D01*
G01X116742Y38364D02*
G01X116795Y38468D01*
G01X116950Y38519D01*
G01X117054Y38519D01*
G01X117209Y38468D01*
G01X117313Y38313D01*
G01X117366Y38051D01*
G01X117366Y37792D01*
G01X117313Y37584D01*
G01X117209Y37480D01*
G01X117054Y37429D01*
G01X117001Y37429D01*
G01X116846Y37480D01*
G01X116742Y37584D01*
G01X116691Y37741D01*
G01X116691Y37792D01*
G01X116742Y37947D01*
G01X116846Y38051D01*
G01X117001Y38105D01*
G01X117054Y38105D01*
G01X117209Y38051D01*
G01X117313Y37947D01*
G01X117366Y37792D01*
G01X116348Y37066D02*
G01X115413Y37066D01*
G01X115070Y38313D02*
G01X114966Y38364D01*
G01X114809Y38519D01*
G01X114809Y37429D01*
G01X118903Y52235D02*
G01X118903Y51457D01*
G01X118852Y51300D01*
G01X118748Y51196D01*
G01X118591Y51145D01*
G01X118487Y51145D01*
G01X118332Y51196D01*
G01X118227Y51300D01*
G01X118177Y51457D01*
G01X118177Y52235D01*
G01X117209Y52080D02*
G01X117262Y52184D01*
G01X117417Y52235D01*
G01X117521Y52235D01*
G01X117676Y52184D01*
G01X117780Y52029D01*
G01X117834Y51767D01*
G01X117834Y51508D01*
G01X117780Y51300D01*
G01X117676Y51196D01*
G01X117521Y51145D01*
G01X117468Y51145D01*
G01X117313Y51196D01*
G01X117209Y51300D01*
G01X117158Y51457D01*
G01X117158Y51508D01*
G01X117209Y51663D01*
G01X117313Y51767D01*
G01X117468Y51821D01*
G01X117521Y51821D01*
G01X117676Y51767D01*
G01X117780Y51663D01*
G01X117834Y51508D01*
G01X116815Y50782D02*
G01X115881Y50782D01*
G01X115484Y51976D02*
G01X115484Y52029D01*
G01X115433Y52133D01*
G01X115380Y52184D01*
G01X115276Y52235D01*
G01X115068Y52235D01*
G01X114966Y52184D01*
G01X114913Y52133D01*
G01X114862Y52029D01*
G01X114862Y51925D01*
G01X114913Y51821D01*
G01X115017Y51663D01*
G01X115538Y51145D01*
G01X114809Y51145D01*
G01X127379Y40551D02*
G01X127379Y39461D01*
G01X127379Y40551D02*
G01X126912Y40551D01*
G01X126757Y40500D01*
G01X126703Y40449D01*
G01X126653Y40345D01*
G01X126653Y40241D01*
G01X126703Y40137D01*
G01X126757Y40083D01*
G01X126912Y40032D01*
G01X127379Y40032D01*
G01X127016Y40032D02*
G01X126653Y39461D01*
G01X125685Y40396D02*
G01X125738Y40500D01*
G01X125893Y40551D01*
G01X125997Y40551D01*
G01X126152Y40500D01*
G01X126256Y40345D01*
G01X126310Y40083D01*
G01X126310Y39824D01*
G01X126256Y39616D01*
G01X126152Y39512D01*
G01X125997Y39461D01*
G01X125944Y39461D01*
G01X125789Y39512D01*
G01X125685Y39616D01*
G01X125634Y39773D01*
G01X125634Y39824D01*
G01X125685Y39979D01*
G01X125789Y40083D01*
G01X125944Y40137D01*
G01X125997Y40137D01*
G01X126152Y40083D01*
G01X126256Y39979D01*
G01X126310Y39824D01*
G01X125291Y39098D02*
G01X124356Y39098D01*
G01X124014Y40345D02*
G01X123909Y40396D01*
G01X123752Y40551D01*
G01X123752Y39461D01*
G01X123305Y40551D02*
G01X122733Y40551D01*
G01X123046Y40137D01*
G01X122891Y40137D01*
G01X122787Y40083D01*
G01X122733Y40032D01*
G01X122683Y39878D01*
G01X122683Y39773D01*
G01X122733Y39616D01*
G01X122838Y39512D01*
G01X122995Y39461D01*
G01X123150Y39461D01*
G01X123305Y39512D01*
G01X123358Y39565D01*
G01X123409Y39669D01*
G01X126777Y26835D02*
G01X126777Y25745D01*
G01X126777Y26835D02*
G01X126310Y26835D01*
G01X126155Y26784D01*
G01X126101Y26733D01*
G01X126051Y26629D01*
G01X126051Y26525D01*
G01X126101Y26421D01*
G01X126155Y26367D01*
G01X126310Y26316D01*
G01X126777Y26316D01*
G01X126414Y26316D02*
G01X126051Y25745D01*
G01X125083Y26680D02*
G01X125136Y26784D01*
G01X125291Y26835D01*
G01X125395Y26835D01*
G01X125550Y26784D01*
G01X125654Y26629D01*
G01X125708Y26367D01*
G01X125708Y26108D01*
G01X125654Y25900D01*
G01X125550Y25796D01*
G01X125395Y25745D01*
G01X125342Y25745D01*
G01X125187Y25796D01*
G01X125083Y25900D01*
G01X125032Y26057D01*
G01X125032Y26108D01*
G01X125083Y26263D01*
G01X125187Y26367D01*
G01X125342Y26421D01*
G01X125395Y26421D01*
G01X125550Y26367D01*
G01X125654Y26263D01*
G01X125708Y26108D01*
G01X124689Y25382D02*
G01X123755Y25382D01*
G01X122787Y26835D02*
G01X123307Y26835D01*
G01X123358Y26367D01*
G01X123307Y26421D01*
G01X123150Y26471D01*
G01X122995Y26471D01*
G01X122840Y26421D01*
G01X122736Y26316D01*
G01X122683Y26162D01*
G01X122683Y26057D01*
G01X122736Y25900D01*
G01X122840Y25796D01*
G01X122995Y25745D01*
G01X123150Y25745D01*
G01X123307Y25796D01*
G01X123358Y25849D01*
G01X123412Y25953D01*
G01X121276Y32562D02*
G01X122365Y32562D01*
G01X121276Y32562D02*
G01X121276Y32095D01*
G01X121326Y31940D01*
G01X121377Y31887D01*
G01X121481Y31836D01*
G01X121585Y31836D01*
G01X121690Y31887D01*
G01X121743Y31940D01*
G01X121794Y32095D01*
G01X121794Y32562D01*
G01X121794Y32199D02*
G01X122365Y31836D01*
G01X121430Y30868D02*
G01X121326Y30921D01*
G01X121276Y31076D01*
G01X121276Y31181D01*
G01X121326Y31335D01*
G01X121481Y31440D01*
G01X121743Y31493D01*
G01X122002Y31493D01*
G01X122210Y31440D01*
G01X122314Y31335D01*
G01X122365Y31181D01*
G01X122365Y31127D01*
G01X122314Y30972D01*
G01X122210Y30868D01*
G01X122053Y30817D01*
G01X122002Y30817D01*
G01X121847Y30868D01*
G01X121743Y30972D01*
G01X121690Y31127D01*
G01X121690Y31181D01*
G01X121743Y31335D01*
G01X121847Y31440D01*
G01X122002Y31493D01*
G01X122728Y30474D02*
G01X122728Y29540D01*
G01X121430Y28572D02*
G01X121326Y28625D01*
G01X121276Y28780D01*
G01X121276Y28884D01*
G01X121326Y29039D01*
G01X121481Y29143D01*
G01X121743Y29197D01*
G01X122002Y29197D01*
G01X122210Y29143D01*
G01X122314Y29039D01*
G01X122365Y28884D01*
G01X122365Y28831D01*
G01X122314Y28676D01*
G01X122210Y28572D01*
G01X122053Y28521D01*
G01X122002Y28521D01*
G01X121847Y28572D01*
G01X121743Y28676D01*
G01X121690Y28831D01*
G01X121690Y28884D01*
G01X121743Y29039D01*
G01X121847Y29143D01*
G01X122002Y29197D01*
G01X128669Y31546D02*
G01X127580Y31546D01*
G01X128669Y31546D02*
G01X128669Y32014D01*
G01X128619Y32169D01*
G01X128568Y32222D01*
G01X128464Y32273D01*
G01X128360Y32273D01*
G01X128255Y32222D01*
G01X128202Y32169D01*
G01X128151Y32014D01*
G01X128151Y31546D01*
G01X128151Y31910D02*
G01X127580Y32273D01*
G01X128514Y33240D02*
G01X128619Y33187D01*
G01X128669Y33032D01*
G01X128669Y32928D01*
G01X128619Y32773D01*
G01X128464Y32669D01*
G01X128202Y32616D01*
G01X127943Y32616D01*
G01X127735Y32669D01*
G01X127631Y32773D01*
G01X127580Y32928D01*
G01X127580Y32981D01*
G01X127631Y33136D01*
G01X127735Y33240D01*
G01X127892Y33291D01*
G01X127943Y33291D01*
G01X128098Y33240D01*
G01X128202Y33136D01*
G01X128255Y32981D01*
G01X128255Y32928D01*
G01X128202Y32773D01*
G01X128098Y32669D01*
G01X127943Y32616D01*
G01X127217Y33634D02*
G01X127217Y34569D01*
G01X128669Y35641D02*
G01X127580Y35120D01*
G01X128669Y34912D02*
G01X128669Y35641D01*
G01X127031Y38773D02*
G01X127031Y37683D01*
G01X127031Y38773D02*
G01X126564Y38773D01*
G01X126409Y38722D01*
G01X126355Y38671D01*
G01X126305Y38567D01*
G01X126305Y38463D01*
G01X126355Y38359D01*
G01X126409Y38305D01*
G01X126564Y38254D01*
G01X127031Y38254D01*
G01X126668Y38254D02*
G01X126305Y37683D01*
G01X125337Y38618D02*
G01X125390Y38722D01*
G01X125545Y38773D01*
G01X125649Y38773D01*
G01X125804Y38722D01*
G01X125908Y38567D01*
G01X125962Y38305D01*
G01X125962Y38046D01*
G01X125908Y37838D01*
G01X125804Y37734D01*
G01X125649Y37683D01*
G01X125596Y37683D01*
G01X125441Y37734D01*
G01X125337Y37838D01*
G01X125286Y37995D01*
G01X125286Y38046D01*
G01X125337Y38201D01*
G01X125441Y38305D01*
G01X125596Y38359D01*
G01X125649Y38359D01*
G01X125804Y38305D01*
G01X125908Y38201D01*
G01X125962Y38046D01*
G01X124943Y37320D02*
G01X124009Y37320D01*
G01X123404Y38773D02*
G01X123561Y38722D01*
G01X123612Y38618D01*
G01X123612Y38514D01*
G01X123561Y38409D01*
G01X123457Y38359D01*
G01X123249Y38305D01*
G01X123094Y38254D01*
G01X122990Y38150D01*
G01X122937Y38046D01*
G01X122937Y37891D01*
G01X122990Y37787D01*
G01X123041Y37734D01*
G01X123196Y37683D01*
G01X123404Y37683D01*
G01X123561Y37734D01*
G01X123612Y37787D01*
G01X123666Y37891D01*
G01X123666Y38046D01*
G01X123612Y38150D01*
G01X123508Y38254D01*
G01X123353Y38305D01*
G01X123145Y38359D01*
G01X123041Y38409D01*
G01X122990Y38514D01*
G01X122990Y38618D01*
G01X123041Y38722D01*
G01X123196Y38773D01*
G01X123404Y38773D01*
G01X128763Y44500D02*
G01X127674Y44500D01*
G01X128763Y44500D02*
G01X128763Y44968D01*
G01X128712Y45123D01*
G01X128662Y45176D01*
G01X128558Y45227D01*
G01X128453Y45227D01*
G01X128349Y45176D01*
G01X128296Y45123D01*
G01X128245Y44968D01*
G01X128245Y44500D01*
G01X128245Y44863D02*
G01X127674Y45227D01*
G01X128608Y46194D02*
G01X128712Y46141D01*
G01X128763Y45986D01*
G01X128763Y45882D01*
G01X128712Y45727D01*
G01X128558Y45623D01*
G01X128296Y45570D01*
G01X128037Y45570D01*
G01X127829Y45623D01*
G01X127724Y45727D01*
G01X127674Y45882D01*
G01X127674Y45935D01*
G01X127724Y46090D01*
G01X127829Y46194D01*
G01X127986Y46245D01*
G01X128037Y46245D01*
G01X128192Y46194D01*
G01X128296Y46090D01*
G01X128349Y45935D01*
G01X128349Y45882D01*
G01X128296Y45727D01*
G01X128192Y45623D01*
G01X128037Y45570D01*
G01X127310Y46588D02*
G01X127310Y47523D01*
G01X128558Y47866D02*
G01X128608Y47970D01*
G01X128763Y48127D01*
G01X127674Y48127D01*
G01X128763Y49093D02*
G01X128763Y48574D01*
G01X128296Y48521D01*
G01X128349Y48574D01*
G01X128400Y48729D01*
G01X128400Y48884D01*
G01X128349Y49042D01*
G01X128245Y49146D01*
G01X128090Y49197D01*
G01X127986Y49197D01*
G01X127829Y49146D01*
G01X127724Y49042D01*
G01X127674Y48884D01*
G01X127674Y48729D01*
G01X127724Y48574D01*
G01X127778Y48521D01*
G01X127882Y48470D01*
G01X127074Y52235D02*
G01X127074Y51145D01*
G01X127074Y52235D02*
G01X126607Y52235D01*
G01X126452Y52184D01*
G01X126399Y52133D01*
G01X126348Y52029D01*
G01X126348Y51925D01*
G01X126399Y51821D01*
G01X126452Y51767D01*
G01X126607Y51716D01*
G01X127074Y51716D01*
G01X126711Y51716D02*
G01X126348Y51145D01*
G01X125380Y52080D02*
G01X125433Y52184D01*
G01X125588Y52235D01*
G01X125693Y52235D01*
G01X125848Y52184D01*
G01X125952Y52029D01*
G01X126005Y51767D01*
G01X126005Y51508D01*
G01X125952Y51300D01*
G01X125848Y51196D01*
G01X125693Y51145D01*
G01X125639Y51145D01*
G01X125484Y51196D01*
G01X125380Y51300D01*
G01X125329Y51457D01*
G01X125329Y51508D01*
G01X125380Y51663D01*
G01X125484Y51767D01*
G01X125639Y51821D01*
G01X125693Y51821D01*
G01X125848Y51767D01*
G01X125952Y51663D01*
G01X126005Y51508D01*
G01X124986Y50782D02*
G01X124052Y50782D01*
G01X123709Y52029D02*
G01X123605Y52080D01*
G01X123447Y52235D01*
G01X123447Y51145D01*
G01X122482Y52080D02*
G01X122533Y52184D01*
G01X122690Y52235D01*
G01X122794Y52235D01*
G01X122949Y52184D01*
G01X123054Y52029D01*
G01X123104Y51767D01*
G01X123104Y51508D01*
G01X123054Y51300D01*
G01X122949Y51196D01*
G01X122794Y51145D01*
G01X122741Y51145D01*
G01X122586Y51196D01*
G01X122482Y51300D01*
G01X122429Y51457D01*
G01X122429Y51508D01*
G01X122482Y51663D01*
G01X122586Y51767D01*
G01X122741Y51821D01*
G01X122794Y51821D01*
G01X122949Y51767D01*
G01X123054Y51663D01*
G01X123104Y51508D01*
G01X121222Y47040D02*
G01X122312Y47040D01*
G01X121222Y47040D02*
G01X121222Y46573D01*
G01X121273Y46418D01*
G01X121324Y46365D01*
G01X121428Y46314D01*
G01X121532Y46314D01*
G01X121636Y46365D01*
G01X121689Y46418D01*
G01X121740Y46573D01*
G01X121740Y47040D01*
G01X121740Y46677D02*
G01X122312Y46314D01*
G01X121377Y45346D02*
G01X121273Y45400D01*
G01X121222Y45554D01*
G01X121222Y45659D01*
G01X121273Y45814D01*
G01X121428Y45918D01*
G01X121689Y45971D01*
G01X121948Y45971D01*
G01X122157Y45918D01*
G01X122261Y45814D01*
G01X122312Y45659D01*
G01X122312Y45605D01*
G01X122261Y45450D01*
G01X122157Y45346D01*
G01X121999Y45295D01*
G01X121948Y45295D01*
G01X121794Y45346D01*
G01X121689Y45450D01*
G01X121636Y45605D01*
G01X121636Y45659D01*
G01X121689Y45814D01*
G01X121794Y45918D01*
G01X121948Y45971D01*
G01X122675Y44952D02*
G01X122675Y44018D01*
G01X121428Y43675D02*
G01X121377Y43571D01*
G01X121222Y43413D01*
G01X122312Y43413D01*
G01X121222Y42552D02*
G01X121948Y43070D01*
G01X121948Y42291D01*
G01X121222Y42552D02*
G01X122312Y42552D01*
G01X130003Y19972D02*
G01X130056Y20076D01*
G01X130160Y20180D01*
G01X130262Y20231D01*
G01X130470Y20231D01*
G01X130574Y20180D01*
G01X130679Y20076D01*
G01X130732Y19972D01*
G01X130783Y19817D01*
G01X130783Y19558D01*
G01X130732Y19400D01*
G01X130679Y19296D01*
G01X130574Y19192D01*
G01X130470Y19141D01*
G01X130262Y19141D01*
G01X130160Y19192D01*
G01X130056Y19296D01*
G01X130003Y19400D01*
G01X129660Y20025D02*
G01X129556Y20076D01*
G01X129401Y20231D01*
G01X129401Y19141D01*
G01X129058Y18778D02*
G01X128123Y18778D01*
G01X127260Y20231D02*
G01X127780Y19504D01*
G01X127001Y19504D01*
G01X127260Y20231D02*
G01X127260Y19141D01*
G01X134689Y53030D02*
G01X134689Y52252D01*
G01X134638Y52095D01*
G01X134534Y51991D01*
G01X134377Y51940D01*
G01X134273Y51940D01*
G01X134118Y51991D01*
G01X134014Y52095D01*
G01X133963Y52252D01*
G01X133963Y53030D01*
G01X132995Y52875D02*
G01X133048Y52979D01*
G01X133203Y53030D01*
G01X133307Y53030D01*
G01X133462Y52979D01*
G01X133567Y52824D01*
G01X133620Y52562D01*
G01X133620Y52303D01*
G01X133567Y52095D01*
G01X133462Y51991D01*
G01X133307Y51940D01*
G01X133254Y51940D01*
G01X133099Y51991D01*
G01X132995Y52095D01*
G01X132944Y52252D01*
G01X132944Y52303D01*
G01X132995Y52458D01*
G01X133099Y52562D01*
G01X133254Y52616D01*
G01X133307Y52616D01*
G01X133462Y52562D01*
G01X133567Y52458D01*
G01X133620Y52303D01*
G01X132601Y51577D02*
G01X131667Y51577D01*
G01X130803Y53030D02*
G01X131324Y52303D01*
G01X130544Y52303D01*
G01X130803Y53030D02*
G01X130803Y51940D01*
G01X134735Y39649D02*
G01X134735Y38872D01*
G01X134684Y38714D01*
G01X134580Y38610D01*
G01X134423Y38559D01*
G01X134318Y38559D01*
G01X134163Y38610D01*
G01X134059Y38714D01*
G01X134009Y38872D01*
G01X134009Y39649D01*
G01X133041Y39494D02*
G01X133094Y39598D01*
G01X133249Y39649D01*
G01X133353Y39649D01*
G01X133508Y39598D01*
G01X133612Y39443D01*
G01X133666Y39182D01*
G01X133666Y38922D01*
G01X133612Y38714D01*
G01X133508Y38610D01*
G01X133353Y38559D01*
G01X133300Y38559D01*
G01X133145Y38610D01*
G01X133041Y38714D01*
G01X132990Y38872D01*
G01X132990Y38922D01*
G01X133041Y39077D01*
G01X133145Y39182D01*
G01X133300Y39235D01*
G01X133353Y39235D01*
G01X133508Y39182D01*
G01X133612Y39077D01*
G01X133666Y38922D01*
G01X132647Y38196D02*
G01X131712Y38196D01*
G01X131265Y39649D02*
G01X130694Y39649D01*
G01X131004Y39235D01*
G01X130849Y39235D01*
G01X130745Y39182D01*
G01X130694Y39131D01*
G01X130640Y38976D01*
G01X130640Y38872D01*
G01X130694Y38714D01*
G01X130798Y38610D01*
G01X130953Y38559D01*
G01X131108Y38559D01*
G01X131265Y38610D01*
G01X131316Y38663D01*
G01X131369Y38768D01*
G01X129795Y16789D02*
G01X129795Y16012D01*
G01X129744Y15854D01*
G01X129640Y15750D01*
G01X129482Y15699D01*
G01X129378Y15699D01*
G01X129223Y15750D01*
G01X129119Y15854D01*
G01X129068Y16012D01*
G01X129068Y16789D01*
G01X128725Y16583D02*
G01X128621Y16634D01*
G01X128464Y16789D01*
G01X128464Y15699D01*
G54D10*
G75*
G01X80392Y9817D02*
G03X82170Y9817I889J0D01*
G01*
G54D42*
G75*
G01X70105Y50584D02*
G02X70108Y50584I3J200D01*
G01*
G54D43*
G75*
G01X84405Y17793D02*
G02X84403Y17793I-1J-150D01*
G01*
G54D44*
G75*
G01X22495Y72045D02*
G02X22493Y72045I-1J-150D01*
G01*
G54D45*
G75*
G01X23445Y69695D02*
G02X23440Y69695I-2J-300D01*
G01*
G54D44*
G75*
G01X27431Y45743D02*
G02X27431Y45745I-150J1D01*
G01*
G54D45*
G75*
G01X25081Y44793D02*
G02X25081Y44798I-300J2D01*
G01*
G54D43*
G75*
G01X84405Y29731D02*
G02X84403Y29731I-1J-150D01*
G01*
G54D10*
G75*
G01X114936Y26962D02*
G03X114936Y26962I-254J0D01*
G01*
G75*
G01X114936Y40424D02*
G03X114936Y40424I-254J0D01*
G01*
G54D41*
G75*
G01X133808Y50452D02*
G03X133808Y50452I-269J0D01*
G01*
G75*
G01X133808Y36990D02*
G03X133808Y36990I-269J0D01*
G01*
M00*
M02*
