;Layer: Drill PTH
;EasyEDA v5.9.42, Mon, 25 Feb 2019 13:08:34 GMT
;04bc916e9f0e400680881ea13b59f611
;Gerber Generator version 0.2
M48
METRIC,LZ,000.000
;Holesize 1 = 0.305 METRIC
T01C0.305
;Holesize 2 = 0.306 METRIC
T02C0.306
;Holesize 3 = 0.915 METRIC
T03C0.915
;Holesize 4 = 1.001 METRIC
T04C1.001
;Holesize 5 = 1.016 METRIC
T05C1.016
;Holesize 6 = 1.101 METRIC
T06C1.101
;Holesize 7 = 2.800 METRIC
T07C2.800
%
G05
G90
T01
X+136145Y+020993
X+015241Y+021755
X+047245Y+050457
X+054103Y+043599
T02
X+110237Y+035979
X+110237Y+033439
X+110237Y+030899
X+110237Y+028359
X+109983Y+049441
X+109983Y+046901
X+109983Y+044361
X+109983Y+041821
X+073153Y+030645
X+077471Y+041059
X+076201Y+041567
X+072137Y+031407
X+090171Y+002451
X+090425Y+016929
X+090425Y+032169
X+083821Y+037757
X+085091Y+036995
X+059945Y+045377
X+076201Y+037757
X+077471Y+036995
X+133605Y+038773
X+140463Y+038773
T03
X+005774Y+016076
X+005775Y+019577
X+005775Y+023077
X+005775Y+026577
X+005775Y+030077
X+005775Y+033577
X+005775Y+037077
X+005775Y+040577
X+005775Y+044077
X+005775Y+047576
X+145729Y+023442
X+145729Y+026943
X+145729Y+030443
X+145729Y+033943
X+145729Y+037443
X+145729Y+040943
X+145729Y+044443
X+145729Y+047943
X+145729Y+051443
X+145729Y+054942
X+136997Y+059786
X+133497Y+059787
X+129997Y+059787
X+126497Y+059787
X+122997Y+059787
X+119497Y+059787
X+115997Y+059787
X+112497Y+059787
X+108997Y+059787
X+105497Y+059787
X+043525Y+055722
X+040025Y+055723
X+036525Y+055723
X+033025Y+055723
X+029525Y+055723
X+026025Y+055723
X+022525Y+055723
X+019025Y+055723
X+015525Y+055723
X+012025Y+055723
X+011848Y+079480
X+015349Y+079481
X+018849Y+079481
X+022349Y+079481
X+025849Y+079481
X+029349Y+079481
X+032849Y+079481
X+036349Y+079481
X+039849Y+079481
X+043349Y+079481
X+041724Y+047499
X+041725Y+043999
X+041725Y+040499
X+041725Y+036999
X+041725Y+033499
X+041725Y+029999
X+041725Y+026499
X+041725Y+022999
X+041725Y+019499
X+041725Y+015999
T04
X+054611Y+065951
X+054611Y+063411
X+054611Y+060871
X+052071Y+065951
X+052071Y+063411
X+052071Y+060871
X+062485Y+065951
X+062485Y+063411
X+062485Y+060871
X+059945Y+065951
X+059945Y+063411
X+059945Y+060871
X+070105Y+065951
X+070105Y+063411
X+070105Y+060871
X+067565Y+065951
X+067565Y+063411
X+067565Y+060871
X+077725Y+065951
X+077725Y+063411
X+077725Y+060871
X+075185Y+065951
X+075185Y+063411
X+075185Y+060871
X+105157Y+004483
X+105157Y+007023
T05
X+098771Y+008371
X+096231Y+008371
X+098771Y+010911
X+096231Y+010911
X+098771Y+013451
X+096231Y+013451
X+098771Y+015991
X+096231Y+015991
X+098771Y+018531
X+096231Y+018531
X+098771Y+021071
X+096231Y+021071
X+098771Y+023611
X+096231Y+023611
X+098771Y+026151
X+096231Y+026151
X+098771Y+028691
X+096231Y+028691
X+098771Y+031231
X+096231Y+031231
X+098771Y+033771
X+096231Y+033771
X+098771Y+036311
X+096231Y+036311
X+098771Y+038851
X+096231Y+038851
X+098771Y+041391
X+096231Y+041391
X+098771Y+043931
X+096231Y+043931
X+098771Y+046471
X+096231Y+046471
X+098771Y+049011
X+096231Y+049011
X+098771Y+051551
X+096231Y+051551
X+098771Y+054091
X+096231Y+054091
X+098771Y+056631
X+096231Y+056631
T06
X+020281Y+020298
X+023781Y+020299
X+027281Y+020299
X+036537Y+007852
X+040037Y+007853
X+043537Y+007853
X+010121Y+007852
X+013621Y+007853
X+017121Y+007853
X+023329Y+007852
X+026829Y+007853
X+030329Y+007853
X+053250Y+078210
X+056751Y+078211
X+060251Y+078211
X+063751Y+078211
X+067251Y+078211
X+074840Y+078210
X+078341Y+078211
X+081841Y+078211
X+085341Y+078211
X+088841Y+078211
X+144525Y+013117
X+144526Y+009618
X+067887Y+018543
X+067887Y+015043
X+067887Y+011543
X+067887Y+008043
X+067887Y+004543
X+054933Y+018543
X+054933Y+015043
X+054933Y+011543
X+054933Y+008043
X+054933Y+004543
X+065210Y+024966
X+065211Y+028467
X+065211Y+031967
X+065211Y+035467
X+065211Y+038967
X+052510Y+024966
X+052511Y+028467
X+052511Y+031967
X+052511Y+035467
X+052511Y+038967
X+083352Y+013813
X+079853Y+013813
X+076353Y+013813
X+087309Y+041476
X+087309Y+044977
X+087309Y+048477
X+087309Y+051977
X+087309Y+055477
T07
X+003501Y+081500
X+003501Y+003501
X+146500Y+003501
X+146500Y+061501
X+097501Y+061501
X+097501Y+003501
M30
