;Layer: Drill PTH
;EasyEDA v6.2.43, 2019-09-06T10:00:39+02:00
;e5b5f855a0bb4ad7aac7fda025be0de6,91cc4837159741479c5be70faa949f3f,10
;Gerber Generator version 0.2
M48
METRIC,LZ,000.000
;Holesize 1 = 0.305 METRIC
T01C0.305
;Holesize 2 = 0.501 METRIC
T02C0.501
;Holesize 3 = 1.001 METRIC
T03C1.001
;Holesize 4 = 1.016 METRIC
T04C1.016
;Holesize 5 = 1.101 METRIC
T05C1.101
;Holesize 6 = 1.200 METRIC
T06C1.200
;Holesize 7 = 1.550 METRIC
T07C1.550
;Holesize 8 = 2.800 METRIC
T08C2.800
%
G05
G90
T01
X+079042Y+088964
X+081582Y+086424
X+084122Y+083884
X+086662Y+081344
X+079042Y+075060
X+081836Y+072520
X+084122Y+069980
X+086916Y+067440
X+092758Y+090300
X+092758Y+087760
X+092758Y+085220
X+092758Y+082680
X+110538Y+090300
X+110538Y+087760
X+110538Y+085220
X+110538Y+082680
X+092758Y+068710
X+092758Y+071250
X+092758Y+073790
X+092758Y+076330
X+110538Y+076330
X+110538Y+073790
X+110538Y+071250
X+110538Y+068710
X+116380Y+078616
X+117396Y+067186
X+104188Y+095380
X+103172Y+094364
X+102156Y+093348
X+085646Y+076330
X+082852Y+077092
X+080312Y+077092
X+077772Y+077346
X+068374Y+070488
X+057960Y+080140
X+055674Y+077854
X+060500Y+080140
X+063040Y+080140
X+101140Y+015624
X+101140Y+014354
X+101140Y+013084
X+101140Y+011814
X+035608Y+019688
X+027988Y+019688
X+030528Y+019688
X+033068Y+019688
X+044498Y+017148
X+049578Y+017148
X+052118Y+017148
X+047038Y+017148
X+042212Y+009782
X+043482Y+009782
X+044752Y+009782
X+046022Y+009782
X+082598Y+017148
X+080058Y+017148
X+077518Y+017148
X+074978Y+017148
X+057960Y+068710
X+060500Y+068710
X+063040Y+068710
X+049832Y+065662
X+049832Y+064392
X+049832Y+063122
X+062024Y+060328
X+057960Y+062106
X+060500Y+062106
X+063040Y+062106
X+055420Y+059566
X+057960Y+057534
X+056690Y+058296
X+053134Y+053724
X+060500Y+054486
X+061008Y+091570
X+052372Y+090554
X+080820Y+095888
X+085310Y+093348
X+065580Y+090808
X+066596Y+090808
X+067866Y+090808
X+068374Y+088268
X+068374Y+085728
X+068374Y+083188
X+052372Y+081664
X+063040Y+081156
X+049578Y+079124
X+048308Y+079124
X+047038Y+079124
X+060500Y+081156
X+057960Y+081156
X+055420Y+081156
X+045768Y+079124
X+044498Y+079124
X+043228Y+079124
X+041958Y+079124
X+055420Y+068710
X+049832Y+066932
X+056690Y+077092
X+057198Y+076330
X+063040Y+063122
X+060500Y+063122
X+057960Y+063122
X+055420Y+063122
X+040688Y+079124
X+039418Y+079124
X+038148Y+079124
X+036878Y+079124
X+032814Y+088014
X+032814Y+086744
X+057960Y+054486
X+052118Y+054486
X+047800Y+072012
X+047038Y+071504
X+037640Y+077346
X+037640Y+076584
X+032814Y+090554
X+032814Y+089284
X+036878Y+073536
X+041196Y+063122
X+041196Y+051438
X+043228Y+051437
X+043228Y+063122
X+039164Y+055502
X+059484Y+022482
X+058722Y+022990
X+060754Y+021974
X+091234Y+016894
X+089456Y+017910
X+088694Y+019688
X+084884Y+024514
X+082344Y+019688
X+084884Y+021720
X+091234Y+013084
X+051102Y+055756
X+037640Y+059058
X+049832Y+019942
X+033830Y+047628
X+077010Y+010798
X+065580Y+020958
X+036116Y+050168
X+081582Y+027562
X+035100Y+046358
X+035100Y+051438
X+058214Y+048136
X+060754Y+048136
X+050594Y+053978
X+033322Y+057280
X+029512Y+057280
X+050848Y+054740
X+033322Y+058042
X+030020Y+058042
X+037386Y+053470
X+024940Y+053470
X+009954Y+052962
X+035608Y+052454
X+035608Y+052454
X+024940Y+052454
X+011224Y+051946
X+062532Y+054740
X+009700Y+002670
X+029258Y+085728
X+055674Y+040770
X+067104Y+025530
X+036370Y+070742
X+045260Y+055756
X+047546Y+061090
X+090980Y+018418
X+065326Y+032896
X+081836Y+034928
X+061008Y+024768
X+098346Y+026546
X+091996Y+028070
X+082852Y+026800
X+085138Y+011814
X+114602Y+002416
X+109001Y+002426
X+114602Y+004956
X+109014Y+004956
X+109014Y+007496
X+109014Y+013337
X+114602Y+013338
X+114602Y+015878
X+109014Y+018418
X+109014Y+015878
X+109015Y+024006
X+114602Y+024006
X+114602Y+026546
X+109014Y+026546
X+109014Y+029086
X+109014Y+034928
X+114602Y+034928
X+114602Y+037468
X+109014Y+037468
X+109014Y+040008
X+029004Y+093602
X+029004Y+098682
T02
X+080820Y+059820
T03
X+083360Y+059819
X+085900Y+059819
T04
X+072771Y+046370
X+070231Y+046370
X+072771Y+048910
X+070231Y+048910
X+072771Y+051450
X+070231Y+051450
X+072771Y+053990
X+070231Y+053990
X+072771Y+056530
X+070231Y+056530
X+072771Y+059070
X+070231Y+059070
X+072771Y+061610
X+070231Y+061610
X+072771Y+064150
X+070231Y+064150
X+072771Y+066690
X+070231Y+066690
X+072771Y+069230
X+070231Y+069230
X+072771Y+071770
X+070231Y+071770
X+072771Y+074310
X+070231Y+074310
X+072771Y+076850
X+070231Y+076850
X+072771Y+079390
X+070231Y+079390
X+072771Y+081930
X+070231Y+081930
X+072771Y+084470
X+070231Y+084470
X+072771Y+087010
X+070231Y+087010
X+072771Y+089550
X+070231Y+089550
X+072771Y+092090
X+070231Y+092090
X+072771Y+094630
X+070231Y+094630
T05
X+029318Y+003242
X+032818Y+003242
X+036318Y+003242
X+039818Y+003242
X+043318Y+003242
X+046818Y+003242
X+050318Y+003242
X+053818Y+003242
X+057318Y+003242
X+060818Y+003242
X+029318Y+032960
X+032818Y+032960
X+036318Y+032960
X+039818Y+032960
X+043318Y+032960
X+046818Y+032960
X+050318Y+032960
X+053818Y+032960
X+057318Y+032960
X+060818Y+032960
X+069958Y+003242
X+073458Y+003242
X+076958Y+003242
X+080458Y+003242
X+083958Y+003242
X+087458Y+003242
X+090958Y+003242
X+094458Y+003242
X+097958Y+003242
X+101458Y+003242
X+069958Y+032960
X+073458Y+032960
X+076958Y+032960
X+080458Y+032960
X+083958Y+032960
X+087458Y+032960
X+090958Y+032960
X+094458Y+032960
X+097958Y+032960
X+101458Y+032960
X+111494Y+099887
X+107994Y+099887
X+104494Y+099887
X+100994Y+099887
X+097494Y+099887
X+093994Y+099887
X+090494Y+099887
X+086994Y+099887
X+083494Y+099887
X+079994Y+099887
X+120888Y+061403
X+120888Y+064904
X+120888Y+068403
X+120888Y+071904
X+120888Y+075403
X+120888Y+078904
X+120888Y+082403
X+120888Y+085904
X+120888Y+089403
X+120888Y+092904
X+120888Y+002729
X+120888Y+006230
X+120888Y+009729
X+120888Y+013230
X+120888Y+016729
X+120888Y+020230
X+120888Y+023729
X+120888Y+027230
X+120888Y+030729
X+120888Y+034230
X+003160Y+046552
X+003160Y+043051
X+003160Y+039552
X+003160Y+036051
X+003160Y+032552
X+003160Y+029051
X+018400Y+046552
X+018400Y+043051
X+018400Y+039552
X+018400Y+036051
X+018400Y+032552
X+018400Y+029051
X+003160Y+020136
X+003160Y+016635
X+003160Y+013136
X+003160Y+009635
X+003160Y+006136
X+003160Y+002635
X+018400Y+020136
X+018400Y+016635
X+018400Y+013136
X+018400Y+009635
X+018400Y+006136
X+018400Y+002635
X+018400Y+082874
X+018400Y+079373
X+018400Y+075874
X+018400Y+072373
X+003160Y+082874
X+003160Y+079373
X+003160Y+075874
X+003160Y+072373
X+018400Y+065094
X+018400Y+061593
X+018400Y+058094
X+018400Y+054593
X+003160Y+065094
X+003160Y+061593
X+003160Y+058094
X+003160Y+054593
X+003160Y+100400
X+003160Y+096899
X+003160Y+093400
X+003160Y+089899
X+120888Y+049719
X+120888Y+053220
T06
X+063040Y+090299
X+063040Y+092839
X+063040Y+095379
X+063040Y+097919
T07
X+108889Y+061089G85X+108883Y+061089
X+093889Y+061089G85X+093884Y+061089
T08
X+120500Y+041500
X+120500Y+099499
X+071500Y+099499
X+071500Y+041500
X+011224Y+004955
X+012240Y+097919
M30
