G04 Layer: BottomSolderMaskLayer*
G04 EasyEDA v6.1.33, Mon, 29 Apr 2019 14:12:14 GMT*
G04 9590ad248ff846a5af0387b98c7a360c,91cc4837159741479c5be70faa949f3f,10*
G04 Gerber Generator version 0.2*
G04 Scale: 100 percent, Rotated: No, Reflected: No *
G04 Dimensions in millimeters *
G04 leading zeros omitted , absolute positions ,3 integer and 3 decimal *
%FSLAX33Y33*%
%MOMM*%
G90*
G71D02*

%ADD60R,2.133600X2.133600*%
%ADD65R,2.403196X2.403196*%
%ADD66C,2.403196*%
%ADD70C,2.003196*%
%ADD72R,1.363218X1.673098*%
%ADD76C,6.403188*%
%ADD77C,0.803199*%
%ADD78R,0.903199X1.453210*%
%ADD82R,4.053840X4.203700*%
%ADD86R,1.753210X0.803199*%
%ADD87R,2.803195X3.303194*%
%ADD89R,1.112520X1.422400*%

%LPD*%
G54D77*
G01X35956Y99193D02*
G01X34756Y99193D01*
G01X35956Y97923D02*
G01X34756Y97923D01*
G01X35956Y96653D02*
G01X34756Y96653D01*
G01X35956Y95383D02*
G01X34756Y95383D01*
G01X35956Y94113D02*
G01X34756Y94113D01*
G01X35956Y92843D02*
G01X34756Y92843D01*
G01X35956Y91573D02*
G01X34756Y91573D01*
G01X35956Y90303D02*
G01X34756Y90303D01*
G01X30013Y99193D02*
G01X28813Y99193D01*
G01X30013Y97923D02*
G01X28813Y97923D01*
G01X30013Y96653D02*
G01X28813Y96653D01*
G01X30013Y95383D02*
G01X28813Y95383D01*
G01X30013Y94113D02*
G01X28813Y94113D01*
G01X30012Y92843D02*
G01X28812Y92843D01*
G01X30013Y91573D02*
G01X28813Y91573D01*
G01X30013Y90303D02*
G01X28813Y90303D01*
G01X34940Y67088D02*
G01X33740Y67088D01*
G01X34940Y65818D02*
G01X33740Y65818D01*
G01X34940Y64548D02*
G01X33740Y64548D01*
G01X34940Y63278D02*
G01X33740Y63278D01*
G01X34940Y62008D02*
G01X33740Y62008D01*
G01X34940Y60738D02*
G01X33740Y60738D01*
G01X34940Y59468D02*
G01X33740Y59468D01*
G01X28743Y67088D02*
G01X27543Y67088D01*
G01X28743Y65818D02*
G01X27543Y65818D01*
G01X28743Y64548D02*
G01X27543Y64548D01*
G01X28743Y63278D02*
G01X27543Y63278D01*
G01X28743Y62008D02*
G01X27543Y62008D01*
G01X28743Y60738D02*
G01X27543Y60738D01*
G01X28743Y59468D02*
G01X27543Y59468D01*
G01X34940Y51848D02*
G01X33740Y51848D01*
G01X34940Y50578D02*
G01X33740Y50578D01*
G01X34940Y49308D02*
G01X33740Y49308D01*
G01X34940Y48038D02*
G01X33740Y48038D01*
G01X34940Y46768D02*
G01X33740Y46768D01*
G01X34940Y45498D02*
G01X33740Y45498D01*
G01X34940Y44228D02*
G01X33740Y44228D01*
G01X28743Y51848D02*
G01X27543Y51848D01*
G01X28743Y50578D02*
G01X27543Y50578D01*
G01X28743Y49308D02*
G01X27543Y49308D01*
G01X28743Y48038D02*
G01X27543Y48038D01*
G01X28743Y46768D02*
G01X27543Y46768D01*
G01X28743Y45498D02*
G01X27543Y45498D01*
G01X28743Y44228D02*
G01X27543Y44228D01*
G01X32908Y31528D02*
G01X31708Y31528D01*
G01X32908Y30258D02*
G01X31708Y30258D01*
G01X32908Y28988D02*
G01X31708Y28988D01*
G01X32908Y27718D02*
G01X31708Y27718D01*
G01X32908Y26448D02*
G01X31708Y26448D01*
G01X32908Y25178D02*
G01X31708Y25178D01*
G01X32908Y23908D02*
G01X31708Y23908D01*
G01X26711Y31528D02*
G01X25511Y31528D01*
G01X26711Y30258D02*
G01X25511Y30258D01*
G01X26711Y28988D02*
G01X25511Y28988D01*
G01X26711Y27718D02*
G01X25511Y27718D01*
G01X26711Y26448D02*
G01X25511Y26448D01*
G01X26711Y25178D02*
G01X25511Y25178D01*
G01X26711Y23908D02*
G01X25511Y23908D01*
G36*
G01X21008Y83425D02*
G01X21008Y84786D01*
G01X22680Y84786D01*
G01X22680Y83425D01*
G01X21008Y83425D01*
G37*
G36*
G01X21008Y85457D02*
G01X21008Y86818D01*
G01X22680Y86818D01*
G01X22680Y85457D01*
G01X21008Y85457D01*
G37*
G36*
G01X10340Y85457D02*
G01X10340Y86818D01*
G01X12012Y86818D01*
G01X12012Y85457D01*
G01X10340Y85457D01*
G37*
G36*
G01X10340Y83425D02*
G01X10340Y84786D01*
G01X12012Y84786D01*
G01X12012Y83425D01*
G01X10340Y83425D01*
G37*
G36*
G01X7800Y83425D02*
G01X7800Y84786D01*
G01X9472Y84786D01*
G01X9472Y83425D01*
G01X7800Y83425D01*
G37*
G36*
G01X7800Y85457D02*
G01X7800Y86818D01*
G01X9472Y86818D01*
G01X9472Y85457D01*
G01X7800Y85457D01*
G37*
G36*
G01X21008Y89267D02*
G01X21008Y90628D01*
G01X22680Y90628D01*
G01X22680Y89267D01*
G01X21008Y89267D01*
G37*
G36*
G01X21008Y91299D02*
G01X21008Y92660D01*
G01X22680Y92660D01*
G01X22680Y91299D01*
G01X21008Y91299D01*
G37*
G36*
G01X10340Y91299D02*
G01X10340Y92660D01*
G01X12012Y92660D01*
G01X12012Y91299D01*
G01X10340Y91299D01*
G37*
G36*
G01X10340Y89267D02*
G01X10340Y90628D01*
G01X12012Y90628D01*
G01X12012Y89267D01*
G01X10340Y89267D01*
G37*
G36*
G01X7800Y89267D02*
G01X7800Y90628D01*
G01X9472Y90628D01*
G01X9472Y89267D01*
G01X7800Y89267D01*
G37*
G36*
G01X7800Y91299D02*
G01X7800Y92660D01*
G01X9472Y92660D01*
G01X9472Y91299D01*
G01X7800Y91299D01*
G37*
G36*
G01X21008Y95109D02*
G01X21008Y96470D01*
G01X22680Y96470D01*
G01X22680Y95109D01*
G01X21008Y95109D01*
G37*
G36*
G01X21008Y97141D02*
G01X21008Y98502D01*
G01X22680Y98502D01*
G01X22680Y97141D01*
G01X21008Y97141D01*
G37*
G36*
G01X10340Y97141D02*
G01X10340Y98502D01*
G01X12012Y98502D01*
G01X12012Y97141D01*
G01X10340Y97141D01*
G37*
G36*
G01X10340Y95109D02*
G01X10340Y96470D01*
G01X12012Y96470D01*
G01X12012Y95109D01*
G01X10340Y95109D01*
G37*
G36*
G01X7800Y95109D02*
G01X7800Y96470D01*
G01X9472Y96470D01*
G01X9472Y95109D01*
G01X7800Y95109D01*
G37*
G36*
G01X7800Y97141D02*
G01X7800Y98502D01*
G01X9472Y98502D01*
G01X9472Y97141D01*
G01X7800Y97141D01*
G37*
G36*
G01X21008Y100951D02*
G01X21008Y102312D01*
G01X22680Y102312D01*
G01X22680Y100951D01*
G01X21008Y100951D01*
G37*
G36*
G01X21008Y102983D02*
G01X21008Y104344D01*
G01X22680Y104344D01*
G01X22680Y102983D01*
G01X21008Y102983D01*
G37*
G36*
G01X10340Y102983D02*
G01X10340Y104344D01*
G01X12012Y104344D01*
G01X12012Y102983D01*
G01X10340Y102983D01*
G37*
G36*
G01X10340Y100951D02*
G01X10340Y102312D01*
G01X12012Y102312D01*
G01X12012Y100951D01*
G01X10340Y100951D01*
G37*
G36*
G01X7800Y100951D02*
G01X7800Y102312D01*
G01X9472Y102312D01*
G01X9472Y100951D01*
G01X7800Y100951D01*
G37*
G36*
G01X7800Y102983D02*
G01X7800Y104344D01*
G01X9472Y104344D01*
G01X9472Y102983D01*
G01X7800Y102983D01*
G37*
G36*
G01X44785Y35518D02*
G01X44785Y37189D01*
G01X46147Y37189D01*
G01X46147Y35518D01*
G01X44785Y35518D01*
G37*
G36*
G01X42753Y35518D02*
G01X42753Y37189D01*
G01X44115Y37189D01*
G01X44115Y35518D01*
G01X42753Y35518D01*
G37*
G36*
G01X39705Y35518D02*
G01X39705Y37189D01*
G01X41067Y37189D01*
G01X41067Y35518D01*
G01X39705Y35518D01*
G37*
G36*
G01X37673Y35518D02*
G01X37673Y37189D01*
G01X39035Y37189D01*
G01X39035Y35518D01*
G01X37673Y35518D01*
G37*
G36*
G01X40213Y23326D02*
G01X40213Y24997D01*
G01X41575Y24997D01*
G01X41575Y23326D01*
G01X40213Y23326D01*
G37*
G36*
G01X38181Y23326D02*
G01X38181Y24997D01*
G01X39543Y24997D01*
G01X39543Y23326D01*
G01X38181Y23326D01*
G37*
G54D72*
G01X44450Y24162D03*
G01X46482Y24162D03*
G36*
G01X32593Y86572D02*
G01X32593Y88243D01*
G01X33955Y88243D01*
G01X33955Y86572D01*
G01X32593Y86572D01*
G37*
G36*
G01X34625Y86572D02*
G01X34625Y88243D01*
G01X35987Y88243D01*
G01X35987Y86574D01*
G01X34625Y86572D01*
G37*
G54D78*
G01X29717Y85355D03*
G01X28767Y82856D03*
G01X30667Y82856D03*
G36*
G01X32593Y83524D02*
G01X32593Y85195D01*
G01X33955Y85195D01*
G01X33955Y83524D01*
G01X32593Y83524D01*
G37*
G36*
G01X34625Y83524D02*
G01X34625Y85195D01*
G01X35987Y85195D01*
G01X35987Y83526D01*
G01X34625Y83524D01*
G37*
G36*
G01X32685Y80788D02*
G01X32685Y82460D01*
G01X34046Y82460D01*
G01X34046Y80788D01*
G01X32685Y80788D01*
G37*
G36*
G01X34717Y80788D02*
G01X34717Y82460D01*
G01X36078Y82460D01*
G01X36078Y80791D01*
G01X34717Y80788D01*
G37*
G54D72*
G01X13207Y115094D03*
G01X11175Y115094D03*
G01X18033Y115094D03*
G01X16001Y115094D03*
G01X13207Y107474D03*
G01X11175Y107474D03*
G01X18033Y107474D03*
G01X16001Y107474D03*
G01X13207Y110014D03*
G01X11175Y110014D03*
G01X18033Y110014D03*
G01X16001Y110014D03*
G01X13207Y112554D03*
G01X11175Y112554D03*
G01X18033Y112554D03*
G01X16001Y112554D03*
G36*
G01X57315Y12833D02*
G01X57315Y13646D01*
G01X59525Y13646D01*
G01X59525Y12833D01*
G01X57315Y12833D01*
G37*
G36*
G01X57315Y14103D02*
G01X57315Y14916D01*
G01X59525Y14916D01*
G01X59525Y14103D01*
G01X57315Y14103D01*
G37*
G36*
G01X57315Y15373D02*
G01X57315Y16186D01*
G01X59525Y16186D01*
G01X59525Y15373D01*
G01X57315Y15373D01*
G37*
G36*
G01X57315Y16643D02*
G01X57315Y17456D01*
G01X59525Y17456D01*
G01X59525Y16643D01*
G01X57315Y16643D01*
G37*
G36*
G01X57315Y17913D02*
G01X57315Y18726D01*
G01X59525Y18726D01*
G01X59525Y17913D01*
G01X57315Y17913D01*
G37*
G36*
G01X57315Y19183D02*
G01X57315Y19996D01*
G01X59525Y19996D01*
G01X59525Y19183D01*
G01X57315Y19183D01*
G37*
G36*
G01X57315Y20453D02*
G01X57315Y21266D01*
G01X59525Y21266D01*
G01X59525Y20453D01*
G01X57315Y20453D01*
G37*
G36*
G01X57315Y21723D02*
G01X57315Y22536D01*
G01X59525Y22536D01*
G01X59525Y21723D01*
G01X57315Y21723D01*
G37*
G36*
G01X57315Y22993D02*
G01X57315Y23806D01*
G01X59525Y23806D01*
G01X59525Y22993D01*
G01X57315Y22993D01*
G37*
G36*
G01X57315Y24263D02*
G01X57315Y25076D01*
G01X59525Y25076D01*
G01X59525Y24263D01*
G01X57315Y24263D01*
G37*
G36*
G01X57315Y25533D02*
G01X57315Y26346D01*
G01X59525Y26346D01*
G01X59525Y25533D01*
G01X57315Y25533D01*
G37*
G36*
G01X57315Y26803D02*
G01X57315Y27616D01*
G01X59525Y27616D01*
G01X59525Y26803D01*
G01X57315Y26803D01*
G37*
G36*
G01X57315Y28073D02*
G01X57315Y28886D01*
G01X59525Y28886D01*
G01X59525Y28073D01*
G01X57315Y28073D01*
G37*
G36*
G01X57315Y29343D02*
G01X57315Y30156D01*
G01X59525Y30156D01*
G01X59525Y29343D01*
G01X57315Y29343D01*
G37*
G36*
G01X66713Y12833D02*
G01X66713Y13646D01*
G01X68923Y13646D01*
G01X68923Y12833D01*
G01X66713Y12833D01*
G37*
G36*
G01X66713Y14103D02*
G01X66713Y14916D01*
G01X68923Y14916D01*
G01X68923Y14103D01*
G01X66713Y14103D01*
G37*
G36*
G01X66713Y15373D02*
G01X66713Y16186D01*
G01X68923Y16186D01*
G01X68923Y15373D01*
G01X66713Y15373D01*
G37*
G36*
G01X66713Y16643D02*
G01X66713Y17456D01*
G01X68923Y17456D01*
G01X68923Y16643D01*
G01X66713Y16643D01*
G37*
G36*
G01X66713Y17913D02*
G01X66713Y18726D01*
G01X68923Y18726D01*
G01X68923Y17913D01*
G01X66713Y17913D01*
G37*
G36*
G01X66713Y19183D02*
G01X66713Y19996D01*
G01X68923Y19996D01*
G01X68923Y19183D01*
G01X66713Y19183D01*
G37*
G36*
G01X66713Y20453D02*
G01X66713Y21266D01*
G01X68923Y21266D01*
G01X68923Y20453D01*
G01X66713Y20453D01*
G37*
G36*
G01X66713Y21723D02*
G01X66713Y22536D01*
G01X68923Y22536D01*
G01X68923Y21723D01*
G01X66713Y21723D01*
G37*
G36*
G01X66713Y22993D02*
G01X66713Y23806D01*
G01X68923Y23806D01*
G01X68923Y22993D01*
G01X66713Y22993D01*
G37*
G36*
G01X66713Y24263D02*
G01X66713Y25076D01*
G01X68923Y25076D01*
G01X68923Y24263D01*
G01X66713Y24263D01*
G37*
G36*
G01X66713Y25533D02*
G01X66713Y26346D01*
G01X68923Y26346D01*
G01X68923Y25533D01*
G01X66713Y25533D01*
G37*
G36*
G01X66713Y26803D02*
G01X66713Y27616D01*
G01X68923Y27616D01*
G01X68923Y26803D01*
G01X66713Y26803D01*
G37*
G36*
G01X66713Y28073D02*
G01X66713Y28886D01*
G01X68923Y28886D01*
G01X68923Y28073D01*
G01X66713Y28073D01*
G37*
G36*
G01X66713Y29343D02*
G01X66713Y30156D01*
G01X68923Y30156D01*
G01X68923Y29343D01*
G01X66713Y29343D01*
G37*
G01X61468Y32798D03*
G01X63500Y32798D03*
G36*
G01X85705Y12833D02*
G01X85705Y13646D01*
G01X87914Y13646D01*
G01X87914Y12833D01*
G01X85705Y12833D01*
G37*
G36*
G01X85705Y14103D02*
G01X85705Y14916D01*
G01X87914Y14916D01*
G01X87914Y14103D01*
G01X85705Y14103D01*
G37*
G36*
G01X85705Y15373D02*
G01X85705Y16186D01*
G01X87914Y16186D01*
G01X87914Y15373D01*
G01X85705Y15373D01*
G37*
G36*
G01X85705Y16643D02*
G01X85705Y17456D01*
G01X87914Y17456D01*
G01X87914Y16643D01*
G01X85705Y16643D01*
G37*
G36*
G01X85705Y17913D02*
G01X85705Y18726D01*
G01X87914Y18726D01*
G01X87914Y17913D01*
G01X85705Y17913D01*
G37*
G36*
G01X85705Y19183D02*
G01X85705Y19996D01*
G01X87914Y19996D01*
G01X87914Y19183D01*
G01X85705Y19183D01*
G37*
G36*
G01X85705Y20453D02*
G01X85705Y21266D01*
G01X87914Y21266D01*
G01X87914Y20453D01*
G01X85705Y20453D01*
G37*
G36*
G01X85705Y21723D02*
G01X85705Y22536D01*
G01X87914Y22536D01*
G01X87914Y21723D01*
G01X85705Y21723D01*
G37*
G36*
G01X85705Y22993D02*
G01X85705Y23806D01*
G01X87914Y23806D01*
G01X87914Y22993D01*
G01X85705Y22993D01*
G37*
G36*
G01X85705Y24263D02*
G01X85705Y25076D01*
G01X87914Y25076D01*
G01X87914Y24263D01*
G01X85705Y24263D01*
G37*
G36*
G01X85705Y25533D02*
G01X85705Y26346D01*
G01X87914Y26346D01*
G01X87914Y25533D01*
G01X85705Y25533D01*
G37*
G36*
G01X85705Y26803D02*
G01X85705Y27616D01*
G01X87914Y27616D01*
G01X87914Y26803D01*
G01X85705Y26803D01*
G37*
G36*
G01X85705Y28073D02*
G01X85705Y28886D01*
G01X87914Y28886D01*
G01X87914Y28073D01*
G01X85705Y28073D01*
G37*
G36*
G01X85705Y29343D02*
G01X85705Y30156D01*
G01X87914Y30156D01*
G01X87914Y29343D01*
G01X85705Y29343D01*
G37*
G36*
G01X95103Y12833D02*
G01X95103Y13646D01*
G01X97312Y13646D01*
G01X97312Y12833D01*
G01X95103Y12833D01*
G37*
G36*
G01X95103Y14103D02*
G01X95103Y14916D01*
G01X97312Y14916D01*
G01X97312Y14103D01*
G01X95103Y14103D01*
G37*
G36*
G01X95103Y15373D02*
G01X95103Y16186D01*
G01X97312Y16186D01*
G01X97312Y15373D01*
G01X95103Y15373D01*
G37*
G36*
G01X95103Y16643D02*
G01X95103Y17456D01*
G01X97312Y17456D01*
G01X97312Y16643D01*
G01X95103Y16643D01*
G37*
G36*
G01X95103Y17913D02*
G01X95103Y18726D01*
G01X97312Y18726D01*
G01X97312Y17913D01*
G01X95103Y17913D01*
G37*
G36*
G01X95103Y19183D02*
G01X95103Y19996D01*
G01X97312Y19996D01*
G01X97312Y19183D01*
G01X95103Y19183D01*
G37*
G36*
G01X95103Y20453D02*
G01X95103Y21266D01*
G01X97312Y21266D01*
G01X97312Y20453D01*
G01X95103Y20453D01*
G37*
G36*
G01X95103Y21723D02*
G01X95103Y22536D01*
G01X97312Y22536D01*
G01X97312Y21723D01*
G01X95103Y21723D01*
G37*
G36*
G01X95103Y22993D02*
G01X95103Y23806D01*
G01X97312Y23806D01*
G01X97312Y22993D01*
G01X95103Y22993D01*
G37*
G36*
G01X95103Y24263D02*
G01X95103Y25076D01*
G01X97312Y25076D01*
G01X97312Y24263D01*
G01X95103Y24263D01*
G37*
G36*
G01X95103Y25533D02*
G01X95103Y26346D01*
G01X97312Y26346D01*
G01X97312Y25533D01*
G01X95103Y25533D01*
G37*
G36*
G01X95103Y26803D02*
G01X95103Y27616D01*
G01X97312Y27616D01*
G01X97312Y26803D01*
G01X95103Y26803D01*
G37*
G36*
G01X95103Y28073D02*
G01X95103Y28886D01*
G01X97312Y28886D01*
G01X97312Y28073D01*
G01X95103Y28073D01*
G37*
G36*
G01X95103Y29343D02*
G01X95103Y30156D01*
G01X97312Y30156D01*
G01X97312Y29343D01*
G01X95103Y29343D01*
G37*
G36*
G01X89431Y31962D02*
G01X89431Y33633D01*
G01X90792Y33633D01*
G01X90792Y31962D01*
G01X89431Y31962D01*
G37*
G36*
G01X91463Y31962D02*
G01X91463Y33633D01*
G01X92824Y33633D01*
G01X92824Y31962D01*
G01X91463Y31962D01*
G37*
G36*
G01X60475Y79714D02*
G01X60475Y81385D01*
G01X61836Y81385D01*
G01X61836Y79714D01*
G01X60475Y79714D01*
G37*
G36*
G01X62507Y79714D02*
G01X62507Y81385D01*
G01X63868Y81385D01*
G01X63868Y79714D01*
G01X62507Y79714D01*
G37*
G36*
G01X60475Y82254D02*
G01X60475Y83925D01*
G01X61836Y83925D01*
G01X61836Y82254D01*
G01X60475Y82254D01*
G37*
G36*
G01X62507Y82254D02*
G01X62507Y83925D01*
G01X63868Y83925D01*
G01X63868Y82254D01*
G01X62507Y82254D01*
G37*
G36*
G01X60475Y84794D02*
G01X60475Y86465D01*
G01X61836Y86465D01*
G01X61836Y84794D01*
G01X60475Y84794D01*
G37*
G36*
G01X62507Y84794D02*
G01X62507Y86465D01*
G01X63868Y86465D01*
G01X63868Y84794D01*
G01X62507Y84794D01*
G37*
G36*
G01X60475Y87334D02*
G01X60475Y89005D01*
G01X61836Y89005D01*
G01X61836Y87334D01*
G01X60475Y87334D01*
G37*
G36*
G01X62507Y87334D02*
G01X62507Y89005D01*
G01X63868Y89005D01*
G01X63868Y87334D01*
G01X62507Y87334D01*
G37*
G36*
G01X60475Y66252D02*
G01X60475Y67923D01*
G01X61836Y67923D01*
G01X61836Y66252D01*
G01X60475Y66252D01*
G37*
G36*
G01X62507Y66252D02*
G01X62507Y67923D01*
G01X63868Y67923D01*
G01X63868Y66252D01*
G01X62507Y66252D01*
G37*
G36*
G01X60475Y68792D02*
G01X60475Y70463D01*
G01X61836Y70463D01*
G01X61836Y68792D01*
G01X60475Y68792D01*
G37*
G36*
G01X62507Y68792D02*
G01X62507Y70463D01*
G01X63868Y70463D01*
G01X63868Y68792D01*
G01X62507Y68792D01*
G37*
G36*
G01X60475Y71332D02*
G01X60475Y73003D01*
G01X61836Y73003D01*
G01X61836Y71332D01*
G01X60475Y71332D01*
G37*
G36*
G01X62507Y71332D02*
G01X62507Y73003D01*
G01X63868Y73003D01*
G01X63868Y71332D01*
G01X62507Y71332D01*
G37*
G36*
G01X60475Y73872D02*
G01X60475Y75543D01*
G01X61836Y75543D01*
G01X61836Y73872D01*
G01X60475Y73872D01*
G37*
G36*
G01X62507Y73872D02*
G01X62507Y75543D01*
G01X63868Y75543D01*
G01X63868Y73872D01*
G01X62507Y73872D01*
G37*
G36*
G01X97462Y54469D02*
G01X97462Y55830D01*
G01X99134Y55830D01*
G01X99134Y54469D01*
G01X97462Y54469D01*
G37*
G36*
G01X97462Y52437D02*
G01X97462Y53798D01*
G01X99134Y53798D01*
G01X99134Y52437D01*
G01X97462Y52437D01*
G37*
G36*
G01X78862Y48373D02*
G01X78862Y49734D01*
G01X80533Y49734D01*
G01X80533Y48373D01*
G01X78862Y48373D01*
G37*
G36*
G01X78862Y50405D02*
G01X78862Y51766D01*
G01X80533Y51766D01*
G01X80533Y50405D01*
G01X78862Y50405D01*
G37*
G36*
G01X92382Y54469D02*
G01X92382Y55830D01*
G01X94054Y55830D01*
G01X94054Y54469D01*
G01X92382Y54469D01*
G37*
G36*
G01X92382Y52437D02*
G01X92382Y53798D01*
G01X94054Y53798D01*
G01X94054Y52437D01*
G01X92382Y52437D01*
G37*
G01X91636Y47276D03*
G01X89604Y47276D03*
G36*
G01X77747Y42376D02*
G01X77747Y44047D01*
G01X79108Y44047D01*
G01X79108Y42376D01*
G01X77747Y42376D01*
G37*
G36*
G01X79779Y42376D02*
G01X79779Y44047D01*
G01X81140Y44047D01*
G01X81140Y42376D01*
G01X79779Y42376D01*
G37*
G36*
G01X79042Y60410D02*
G01X79042Y62013D01*
G01X80635Y62013D01*
G01X80635Y60410D01*
G01X79042Y60410D01*
G37*
G36*
G01X77231Y60410D02*
G01X77231Y62013D01*
G01X78826Y62013D01*
G01X78826Y60410D01*
G01X77231Y60410D01*
G37*
G36*
G01X77155Y54789D02*
G01X77155Y59854D01*
G01X80716Y59854D01*
G01X80716Y54789D01*
G01X77155Y54789D01*
G37*
G36*
G01X94922Y54469D02*
G01X94922Y55830D01*
G01X96594Y55830D01*
G01X96594Y54469D01*
G01X94922Y54469D01*
G37*
G36*
G01X94922Y52437D02*
G01X94922Y53798D01*
G01X96594Y53798D01*
G01X96594Y52437D01*
G01X94922Y52437D01*
G37*
G54D82*
G01X65956Y57180D03*
G01X73627Y57180D03*
G54D72*
G01X69284Y50070D03*
G01X67252Y50070D03*
G01X69284Y47276D03*
G01X67252Y47276D03*
G01X69284Y44482D03*
G01X67252Y44482D03*
G36*
G01X82573Y46948D02*
G01X82573Y48619D01*
G01X83934Y48619D01*
G01X83934Y46948D01*
G01X82573Y46948D01*
G37*
G36*
G01X84605Y46948D02*
G01X84605Y48619D01*
G01X85966Y48619D01*
G01X85966Y46948D01*
G01X84605Y46948D01*
G37*
G36*
G01X82573Y43900D02*
G01X82573Y45571D01*
G01X83934Y45571D01*
G01X83934Y43900D01*
G01X82573Y43900D01*
G37*
G36*
G01X84605Y43900D02*
G01X84605Y45571D01*
G01X85966Y45571D01*
G01X85966Y43900D01*
G01X84605Y43900D01*
G37*
G36*
G01X67574Y80097D02*
G01X67574Y81002D01*
G01X69977Y81002D01*
G01X69977Y80097D01*
G01X67574Y80097D01*
G37*
G36*
G01X67574Y81367D02*
G01X67574Y82272D01*
G01X69977Y82272D01*
G01X69977Y81367D01*
G01X67574Y81367D01*
G37*
G36*
G01X67574Y82637D02*
G01X67574Y83542D01*
G01X69977Y83542D01*
G01X69977Y82637D01*
G01X67574Y82637D01*
G37*
G36*
G01X67574Y83907D02*
G01X67574Y84812D01*
G01X69977Y84812D01*
G01X69977Y83907D01*
G01X67574Y83907D01*
G37*
G36*
G01X67574Y85177D02*
G01X67574Y86082D01*
G01X69977Y86082D01*
G01X69977Y85177D01*
G01X67574Y85177D01*
G37*
G36*
G01X67574Y86447D02*
G01X67574Y87352D01*
G01X69977Y87352D01*
G01X69977Y86447D01*
G01X67574Y86447D01*
G37*
G36*
G01X67574Y87717D02*
G01X67574Y88622D01*
G01X69977Y88622D01*
G01X69977Y87717D01*
G01X67574Y87717D01*
G37*
G36*
G01X67574Y88987D02*
G01X67574Y89892D01*
G01X69977Y89892D01*
G01X69977Y88987D01*
G01X67574Y88987D01*
G37*
G36*
G01X74973Y88987D02*
G01X74973Y89892D01*
G01X77376Y89892D01*
G01X77376Y88987D01*
G01X74973Y88987D01*
G37*
G36*
G01X74973Y87717D02*
G01X74973Y88622D01*
G01X77376Y88622D01*
G01X77376Y87717D01*
G01X74973Y87717D01*
G37*
G36*
G01X74973Y86447D02*
G01X74973Y87352D01*
G01X77376Y87352D01*
G01X77376Y86447D01*
G01X74973Y86447D01*
G37*
G36*
G01X74973Y85177D02*
G01X74973Y86082D01*
G01X77376Y86082D01*
G01X77376Y85177D01*
G01X74973Y85177D01*
G37*
G36*
G01X74973Y83907D02*
G01X74973Y84812D01*
G01X77376Y84812D01*
G01X77376Y83907D01*
G01X74973Y83907D01*
G37*
G36*
G01X74973Y82637D02*
G01X74973Y83542D01*
G01X77376Y83542D01*
G01X77376Y82637D01*
G01X74973Y82637D01*
G37*
G36*
G01X74973Y81367D02*
G01X74973Y82272D01*
G01X77376Y82272D01*
G01X77376Y81367D01*
G01X74973Y81367D01*
G37*
G36*
G01X74973Y80097D02*
G01X74973Y81002D01*
G01X77376Y81002D01*
G01X77376Y80097D01*
G01X74973Y80097D01*
G37*
G36*
G01X79271Y80984D02*
G01X79271Y82655D01*
G01X80632Y82655D01*
G01X80632Y80984D01*
G01X79271Y80984D01*
G37*
G36*
G01X81303Y80984D02*
G01X81303Y82655D01*
G01X82664Y82655D01*
G01X82664Y80984D01*
G01X81303Y80984D01*
G37*
G36*
G01X79271Y67522D02*
G01X79271Y69193D01*
G01X80632Y69193D01*
G01X80632Y67522D01*
G01X79271Y67522D01*
G37*
G36*
G01X81303Y67522D02*
G01X81303Y69193D01*
G01X82664Y69193D01*
G01X82664Y67522D01*
G01X81303Y67522D01*
G37*
G36*
G01X79271Y70062D02*
G01X79271Y71733D01*
G01X80632Y71733D01*
G01X80632Y70062D01*
G01X79271Y70062D01*
G37*
G36*
G01X81303Y70062D02*
G01X81303Y71733D01*
G01X82664Y71733D01*
G01X82664Y70062D01*
G01X81303Y70062D01*
G37*
G36*
G01X79271Y72602D02*
G01X79271Y74273D01*
G01X80632Y74273D01*
G01X80632Y72602D01*
G01X79271Y72602D01*
G37*
G36*
G01X81303Y72602D02*
G01X81303Y74273D01*
G01X82664Y74273D01*
G01X82664Y72602D01*
G01X81303Y72602D01*
G37*
G36*
G01X79271Y75142D02*
G01X79271Y76813D01*
G01X80632Y76813D01*
G01X80632Y75142D01*
G01X79271Y75142D01*
G37*
G36*
G01X81303Y75142D02*
G01X81303Y76813D01*
G01X82664Y76813D01*
G01X82664Y75142D01*
G01X81303Y75142D01*
G37*
G36*
G01X79271Y86064D02*
G01X79271Y87735D01*
G01X80632Y87735D01*
G01X80632Y86064D01*
G01X79271Y86064D01*
G37*
G36*
G01X81303Y86064D02*
G01X81303Y87735D01*
G01X82664Y87735D01*
G01X82664Y86064D01*
G01X81303Y86064D01*
G37*
G36*
G01X79271Y88604D02*
G01X79271Y90275D01*
G01X80632Y90275D01*
G01X80632Y88604D01*
G01X79271Y88604D01*
G37*
G36*
G01X81303Y88604D02*
G01X81303Y90275D01*
G01X82664Y90275D01*
G01X82664Y88604D01*
G01X81303Y88604D01*
G37*
G36*
G01X79271Y83524D02*
G01X79271Y85195D01*
G01X80632Y85195D01*
G01X80632Y83524D01*
G01X79271Y83524D01*
G37*
G36*
G01X81303Y83524D02*
G01X81303Y85195D01*
G01X82664Y85195D01*
G01X82664Y83524D01*
G01X81303Y83524D01*
G37*
G36*
G01X83335Y56346D02*
G01X83335Y58017D01*
G01X84696Y58017D01*
G01X84696Y56346D01*
G01X83335Y56346D01*
G37*
G36*
G01X85367Y56346D02*
G01X85367Y58017D01*
G01X86728Y58017D01*
G01X86728Y56346D01*
G01X85367Y56346D01*
G37*
G36*
G01X90411Y90156D02*
G01X90411Y91009D01*
G01X92364Y91009D01*
G01X92364Y90156D01*
G01X90411Y90156D01*
G37*
G36*
G01X90411Y88886D02*
G01X90411Y89739D01*
G01X92364Y89739D01*
G01X92364Y88886D01*
G01X90411Y88886D01*
G37*
G36*
G01X90411Y87616D02*
G01X90411Y88469D01*
G01X92364Y88469D01*
G01X92364Y87616D01*
G01X90411Y87616D01*
G37*
G36*
G01X90411Y86346D02*
G01X90411Y87199D01*
G01X92364Y87199D01*
G01X92364Y86346D01*
G01X90411Y86346D01*
G37*
G36*
G01X90411Y85076D02*
G01X90411Y85929D01*
G01X92364Y85929D01*
G01X92364Y85076D01*
G01X90411Y85076D01*
G37*
G36*
G01X90411Y83806D02*
G01X90411Y84659D01*
G01X92364Y84659D01*
G01X92364Y83806D01*
G01X90411Y83806D01*
G37*
G36*
G01X90411Y82536D02*
G01X90411Y83389D01*
G01X92364Y83389D01*
G01X92364Y82536D01*
G01X90411Y82536D01*
G37*
G36*
G01X90411Y81266D02*
G01X90411Y82119D01*
G01X92364Y82119D01*
G01X92364Y81266D01*
G01X90411Y81266D01*
G37*
G36*
G01X84813Y81266D02*
G01X84813Y82119D01*
G01X86766Y82119D01*
G01X86766Y81266D01*
G01X84813Y81266D01*
G37*
G36*
G01X84813Y82536D02*
G01X84813Y83389D01*
G01X86766Y83389D01*
G01X86766Y82536D01*
G01X84813Y82536D01*
G37*
G36*
G01X84813Y83806D02*
G01X84813Y84659D01*
G01X86766Y84659D01*
G01X86766Y83806D01*
G01X84813Y83806D01*
G37*
G36*
G01X84813Y85076D02*
G01X84813Y85929D01*
G01X86766Y85929D01*
G01X86766Y85076D01*
G01X84813Y85076D01*
G37*
G36*
G01X84813Y86346D02*
G01X84813Y87199D01*
G01X86766Y87199D01*
G01X86766Y86346D01*
G01X84813Y86346D01*
G37*
G36*
G01X84813Y87616D02*
G01X84813Y88469D01*
G01X86766Y88469D01*
G01X86766Y87616D01*
G01X84813Y87616D01*
G37*
G36*
G01X84813Y88886D02*
G01X84813Y89739D01*
G01X86766Y89739D01*
G01X86766Y88886D01*
G01X84813Y88886D01*
G37*
G36*
G01X84813Y90156D02*
G01X84813Y91009D01*
G01X86766Y91009D01*
G01X86766Y90156D01*
G01X84813Y90156D01*
G37*
G36*
G01X90411Y76694D02*
G01X90411Y77547D01*
G01X92364Y77547D01*
G01X92364Y76694D01*
G01X90411Y76694D01*
G37*
G36*
G01X90411Y75424D02*
G01X90411Y76277D01*
G01X92364Y76277D01*
G01X92364Y75424D01*
G01X90411Y75424D01*
G37*
G36*
G01X90411Y74154D02*
G01X90411Y75007D01*
G01X92364Y75007D01*
G01X92364Y74154D01*
G01X90411Y74154D01*
G37*
G36*
G01X90411Y72884D02*
G01X90411Y73737D01*
G01X92364Y73737D01*
G01X92364Y72884D01*
G01X90411Y72884D01*
G37*
G36*
G01X90411Y71614D02*
G01X90411Y72467D01*
G01X92364Y72467D01*
G01X92364Y71614D01*
G01X90411Y71614D01*
G37*
G36*
G01X90411Y70344D02*
G01X90411Y71197D01*
G01X92364Y71197D01*
G01X92364Y70344D01*
G01X90411Y70344D01*
G37*
G36*
G01X90411Y69074D02*
G01X90411Y69927D01*
G01X92364Y69927D01*
G01X92364Y69074D01*
G01X90411Y69074D01*
G37*
G36*
G01X90411Y67804D02*
G01X90411Y68657D01*
G01X92364Y68657D01*
G01X92364Y67804D01*
G01X90411Y67804D01*
G37*
G36*
G01X84813Y67804D02*
G01X84813Y68657D01*
G01X86766Y68657D01*
G01X86766Y67804D01*
G01X84813Y67804D01*
G37*
G36*
G01X84813Y69074D02*
G01X84813Y69927D01*
G01X86766Y69927D01*
G01X86766Y69074D01*
G01X84813Y69074D01*
G37*
G36*
G01X84813Y70344D02*
G01X84813Y71197D01*
G01X86766Y71197D01*
G01X86766Y70344D01*
G01X84813Y70344D01*
G37*
G36*
G01X84813Y71614D02*
G01X84813Y72467D01*
G01X86766Y72467D01*
G01X86766Y71614D01*
G01X84813Y71614D01*
G37*
G36*
G01X84813Y72884D02*
G01X84813Y73737D01*
G01X86766Y73737D01*
G01X86766Y72884D01*
G01X84813Y72884D01*
G37*
G36*
G01X84813Y74154D02*
G01X84813Y75007D01*
G01X86766Y75007D01*
G01X86766Y74154D01*
G01X84813Y74154D01*
G37*
G36*
G01X84813Y75424D02*
G01X84813Y76277D01*
G01X86766Y76277D01*
G01X86766Y75424D01*
G01X84813Y75424D01*
G37*
G36*
G01X84813Y76694D02*
G01X84813Y77547D01*
G01X86766Y77547D01*
G01X86766Y76694D01*
G01X84813Y76694D01*
G37*
G36*
G01X40112Y32429D02*
G01X40112Y34182D01*
G01X40914Y34182D01*
G01X40914Y32429D01*
G01X40112Y32429D01*
G37*
G36*
G01X41382Y32429D02*
G01X41382Y34182D01*
G01X42184Y34182D01*
G01X42184Y32429D01*
G01X41382Y32429D01*
G37*
G36*
G01X42652Y32429D02*
G01X42652Y34182D01*
G01X43454Y34182D01*
G01X43454Y32429D01*
G01X42652Y32429D01*
G37*
G36*
G01X43922Y32429D02*
G01X43922Y34182D01*
G01X44724Y34182D01*
G01X44724Y32429D01*
G01X43922Y32429D01*
G37*
G36*
G01X43922Y26308D02*
G01X43922Y28060D01*
G01X44724Y28060D01*
G01X44724Y26308D01*
G01X43922Y26308D01*
G37*
G36*
G01X42652Y26308D02*
G01X42652Y28060D01*
G01X43454Y28060D01*
G01X43454Y26308D01*
G01X42652Y26308D01*
G37*
G36*
G01X41382Y26308D02*
G01X41382Y28060D01*
G01X42184Y28060D01*
G01X42184Y26308D01*
G01X41382Y26308D01*
G37*
G36*
G01X40112Y26308D02*
G01X40112Y28060D01*
G01X40914Y28060D01*
G01X40914Y26308D01*
G01X40112Y26308D01*
G37*
G36*
G01X33513Y53199D02*
G01X33513Y54560D01*
G01X35184Y54560D01*
G01X35184Y53199D01*
G01X33513Y53199D01*
G37*
G36*
G01X33513Y55231D02*
G01X33513Y56592D01*
G01X35184Y56592D01*
G01X35184Y55231D01*
G01X33513Y55231D01*
G37*
G36*
G01X27358Y52945D02*
G01X27358Y54306D01*
G01X29030Y54306D01*
G01X29030Y52945D01*
G01X27358Y52945D01*
G37*
G36*
G01X27358Y54977D02*
G01X27358Y56338D01*
G01X29030Y56338D01*
G01X29030Y54977D01*
G01X27358Y54977D01*
G37*
G36*
G01X33454Y68439D02*
G01X33454Y69800D01*
G01X35126Y69800D01*
G01X35126Y68439D01*
G01X33454Y68439D01*
G37*
G36*
G01X33454Y70471D02*
G01X33454Y71832D01*
G01X35126Y71832D01*
G01X35126Y70471D01*
G01X33454Y70471D01*
G37*
G36*
G01X27358Y68439D02*
G01X27358Y69800D01*
G01X29030Y69800D01*
G01X29030Y68439D01*
G01X27358Y68439D01*
G37*
G36*
G01X27358Y70471D02*
G01X27358Y71832D01*
G01X29030Y71832D01*
G01X29030Y70471D01*
G01X27358Y70471D01*
G37*
G36*
G01X31422Y33133D02*
G01X31422Y34494D01*
G01X33094Y34494D01*
G01X33094Y33133D01*
G01X31422Y33133D01*
G37*
G36*
G01X31422Y35165D02*
G01X31422Y36526D01*
G01X33094Y36526D01*
G01X33094Y35165D01*
G01X31422Y35165D01*
G37*
G36*
G01X25326Y33133D02*
G01X25326Y34494D01*
G01X26998Y34494D01*
G01X26998Y33133D01*
G01X25326Y33133D01*
G37*
G36*
G01X25326Y35165D02*
G01X25326Y36526D01*
G01X26998Y36526D01*
G01X26998Y35165D01*
G01X25326Y35165D01*
G37*
G36*
G01X67691Y66635D02*
G01X67691Y67540D01*
G01X70094Y67540D01*
G01X70094Y66635D01*
G01X67691Y66635D01*
G37*
G36*
G01X67691Y67905D02*
G01X67691Y68810D01*
G01X70094Y68810D01*
G01X70094Y67905D01*
G01X67691Y67905D01*
G37*
G36*
G01X67691Y69175D02*
G01X67691Y70080D01*
G01X70094Y70080D01*
G01X70094Y69175D01*
G01X67691Y69175D01*
G37*
G36*
G01X67691Y70445D02*
G01X67691Y71350D01*
G01X70094Y71350D01*
G01X70094Y70445D01*
G01X67691Y70445D01*
G37*
G36*
G01X67691Y71715D02*
G01X67691Y72620D01*
G01X70094Y72620D01*
G01X70094Y71715D01*
G01X67691Y71715D01*
G37*
G36*
G01X67691Y72985D02*
G01X67691Y73890D01*
G01X70094Y73890D01*
G01X70094Y72985D01*
G01X67691Y72985D01*
G37*
G36*
G01X67691Y74255D02*
G01X67691Y75160D01*
G01X70094Y75160D01*
G01X70094Y74255D01*
G01X67691Y74255D01*
G37*
G36*
G01X67691Y75525D02*
G01X67691Y76430D01*
G01X70094Y76430D01*
G01X70094Y75525D01*
G01X67691Y75525D01*
G37*
G36*
G01X75090Y75525D02*
G01X75090Y76430D01*
G01X77493Y76430D01*
G01X77493Y75525D01*
G01X75090Y75525D01*
G37*
G36*
G01X75090Y74255D02*
G01X75090Y75160D01*
G01X77493Y75160D01*
G01X77493Y74255D01*
G01X75090Y74255D01*
G37*
G36*
G01X75090Y72985D02*
G01X75090Y73890D01*
G01X77493Y73890D01*
G01X77493Y72985D01*
G01X75090Y72985D01*
G37*
G36*
G01X75090Y71715D02*
G01X75090Y72620D01*
G01X77493Y72620D01*
G01X77493Y71715D01*
G01X75090Y71715D01*
G37*
G36*
G01X75090Y70445D02*
G01X75090Y71350D01*
G01X77493Y71350D01*
G01X77493Y70445D01*
G01X75090Y70445D01*
G37*
G36*
G01X75090Y69175D02*
G01X75090Y70080D01*
G01X77493Y70080D01*
G01X77493Y69175D01*
G01X75090Y69175D01*
G37*
G36*
G01X75090Y67905D02*
G01X75090Y68810D01*
G01X77493Y68810D01*
G01X77493Y67905D01*
G01X75090Y67905D01*
G37*
G36*
G01X75090Y66635D02*
G01X75090Y67540D01*
G01X77493Y67540D01*
G01X77493Y66635D01*
G01X75090Y66635D01*
G37*
G54D86*
G01X88552Y54261D03*
G01X88552Y52991D03*
G01X88552Y51721D03*
G01X88552Y50451D03*
G01X83152Y50451D03*
G01X83152Y51721D03*
G01X83152Y52991D03*
G01X83152Y54261D03*
G54D87*
G01X85852Y52356D03*
G36*
G01X46655Y45622D02*
G01X46655Y47225D01*
G01X49357Y47225D01*
G01X49357Y45622D01*
G01X46655Y45622D01*
G37*
G36*
G01X46655Y40720D02*
G01X46655Y42323D01*
G01X49357Y42323D01*
G01X49357Y40720D01*
G01X46655Y40720D01*
G37*
G54D89*
G01X52172Y39148D03*
G01X48920Y39148D03*
G36*
G01X12903Y85071D02*
G01X12903Y87204D01*
G01X15037Y87204D01*
G01X15037Y85071D01*
G01X12903Y85071D01*
G37*
G36*
G01X15443Y85071D02*
G01X15443Y87204D01*
G01X17577Y87204D01*
G01X17577Y85071D01*
G01X15443Y85071D01*
G37*
G36*
G01X17983Y85071D02*
G01X17983Y87204D01*
G01X20117Y87204D01*
G01X20117Y85071D01*
G01X17983Y85071D01*
G37*
G36*
G01X12903Y82531D02*
G01X12903Y84664D01*
G01X15037Y84664D01*
G01X15037Y82531D01*
G01X12903Y82531D01*
G37*
G36*
G01X15443Y82531D02*
G01X15443Y84664D01*
G01X17577Y84664D01*
G01X17577Y82531D01*
G01X15443Y82531D01*
G37*
G36*
G01X17983Y82531D02*
G01X17983Y84664D01*
G01X20117Y84664D01*
G01X20117Y82531D01*
G01X17983Y82531D01*
G37*
G36*
G01X12903Y90913D02*
G01X12903Y93046D01*
G01X15037Y93046D01*
G01X15037Y90913D01*
G01X12903Y90913D01*
G37*
G36*
G01X15443Y90913D02*
G01X15443Y93046D01*
G01X17577Y93046D01*
G01X17577Y90913D01*
G01X15443Y90913D01*
G37*
G36*
G01X17983Y90913D02*
G01X17983Y93046D01*
G01X20117Y93046D01*
G01X20117Y90913D01*
G01X17983Y90913D01*
G37*
G36*
G01X12903Y88373D02*
G01X12903Y90506D01*
G01X15037Y90506D01*
G01X15037Y88373D01*
G01X12903Y88373D01*
G37*
G36*
G01X15443Y88373D02*
G01X15443Y90506D01*
G01X17577Y90506D01*
G01X17577Y88373D01*
G01X15443Y88373D01*
G37*
G36*
G01X17983Y88373D02*
G01X17983Y90506D01*
G01X20117Y90506D01*
G01X20117Y88373D01*
G01X17983Y88373D01*
G37*
G36*
G01X12903Y96755D02*
G01X12903Y98888D01*
G01X15037Y98888D01*
G01X15037Y96755D01*
G01X12903Y96755D01*
G37*
G36*
G01X15443Y96755D02*
G01X15443Y98888D01*
G01X17577Y98888D01*
G01X17577Y96755D01*
G01X15443Y96755D01*
G37*
G36*
G01X17983Y96755D02*
G01X17983Y98888D01*
G01X20117Y98888D01*
G01X20117Y96755D01*
G01X17983Y96755D01*
G37*
G36*
G01X12903Y94215D02*
G01X12903Y96348D01*
G01X15037Y96348D01*
G01X15037Y94215D01*
G01X12903Y94215D01*
G37*
G36*
G01X15443Y94215D02*
G01X15443Y96348D01*
G01X17577Y96348D01*
G01X17577Y94215D01*
G01X15443Y94215D01*
G37*
G36*
G01X17983Y94215D02*
G01X17983Y96348D01*
G01X20117Y96348D01*
G01X20117Y94215D01*
G01X17983Y94215D01*
G37*
G36*
G01X12903Y102597D02*
G01X12903Y104730D01*
G01X15037Y104730D01*
G01X15037Y102597D01*
G01X12903Y102597D01*
G37*
G36*
G01X15443Y102597D02*
G01X15443Y104730D01*
G01X17577Y104730D01*
G01X17577Y102597D01*
G01X15443Y102597D01*
G37*
G36*
G01X17983Y102597D02*
G01X17983Y104730D01*
G01X20117Y104730D01*
G01X20117Y102597D01*
G01X17983Y102597D01*
G37*
G36*
G01X12903Y100057D02*
G01X12903Y102190D01*
G01X15037Y102190D01*
G01X15037Y100057D01*
G01X12903Y100057D01*
G37*
G36*
G01X15443Y100057D02*
G01X15443Y102190D01*
G01X17577Y102190D01*
G01X17577Y100057D01*
G01X15443Y100057D01*
G37*
G36*
G01X17983Y100057D02*
G01X17983Y102190D01*
G01X20117Y102190D01*
G01X20117Y100057D01*
G01X17983Y100057D01*
G37*
G36*
G01X53729Y47329D02*
G01X53729Y49412D01*
G01X55811Y49412D01*
G01X55811Y47329D01*
G01X53729Y47329D01*
G37*
G36*
G01X51189Y47329D02*
G01X51189Y49412D01*
G01X53271Y49412D01*
G01X53271Y47329D01*
G01X51189Y47329D01*
G37*
G36*
G01X53729Y49869D02*
G01X53729Y51952D01*
G01X55811Y51952D01*
G01X55811Y49869D01*
G01X53729Y49869D01*
G37*
G36*
G01X51189Y49869D02*
G01X51189Y51952D01*
G01X53271Y51952D01*
G01X53271Y49869D01*
G01X51189Y49869D01*
G37*
G36*
G01X53729Y52409D02*
G01X53729Y54492D01*
G01X55811Y54492D01*
G01X55811Y52409D01*
G01X53729Y52409D01*
G37*
G36*
G01X51189Y52409D02*
G01X51189Y54492D01*
G01X53271Y54492D01*
G01X53271Y52409D01*
G01X51189Y52409D01*
G37*
G36*
G01X53729Y54949D02*
G01X53729Y57032D01*
G01X55811Y57032D01*
G01X55811Y54949D01*
G01X53729Y54949D01*
G37*
G36*
G01X51189Y54949D02*
G01X51189Y57032D01*
G01X53271Y57032D01*
G01X53271Y54949D01*
G01X51189Y54949D01*
G37*
G36*
G01X53729Y57489D02*
G01X53729Y59572D01*
G01X55811Y59572D01*
G01X55811Y57489D01*
G01X53729Y57489D01*
G37*
G36*
G01X51189Y57489D02*
G01X51189Y59572D01*
G01X53271Y59572D01*
G01X53271Y57489D01*
G01X51189Y57489D01*
G37*
G36*
G01X53729Y60029D02*
G01X53729Y62112D01*
G01X55811Y62112D01*
G01X55811Y60029D01*
G01X53729Y60029D01*
G37*
G36*
G01X51189Y60029D02*
G01X51189Y62112D01*
G01X53271Y62112D01*
G01X53271Y60029D01*
G01X51189Y60029D01*
G37*
G36*
G01X53729Y62569D02*
G01X53729Y64652D01*
G01X55811Y64652D01*
G01X55811Y62569D01*
G01X53729Y62569D01*
G37*
G36*
G01X51189Y62569D02*
G01X51189Y64652D01*
G01X53271Y64652D01*
G01X53271Y62569D01*
G01X51189Y62569D01*
G37*
G36*
G01X53729Y65109D02*
G01X53729Y67192D01*
G01X55811Y67192D01*
G01X55811Y65109D01*
G01X53729Y65109D01*
G37*
G36*
G01X51189Y65109D02*
G01X51189Y67192D01*
G01X53271Y67192D01*
G01X53271Y65109D01*
G01X51189Y65109D01*
G37*
G36*
G01X53729Y67649D02*
G01X53729Y69732D01*
G01X55811Y69732D01*
G01X55811Y67649D01*
G01X53729Y67649D01*
G37*
G36*
G01X51189Y67649D02*
G01X51189Y69732D01*
G01X53271Y69732D01*
G01X53271Y67649D01*
G01X51189Y67649D01*
G37*
G36*
G01X53729Y70189D02*
G01X53729Y72272D01*
G01X55811Y72272D01*
G01X55811Y70189D01*
G01X53729Y70189D01*
G37*
G36*
G01X51189Y70189D02*
G01X51189Y72272D01*
G01X53271Y72272D01*
G01X53271Y70189D01*
G01X51189Y70189D01*
G37*
G36*
G01X53729Y72729D02*
G01X53729Y74812D01*
G01X55811Y74812D01*
G01X55811Y72729D01*
G01X53729Y72729D01*
G37*
G36*
G01X51189Y72729D02*
G01X51189Y74812D01*
G01X53271Y74812D01*
G01X53271Y72729D01*
G01X51189Y72729D01*
G37*
G36*
G01X53729Y75269D02*
G01X53729Y77352D01*
G01X55811Y77352D01*
G01X55811Y75269D01*
G01X53729Y75269D01*
G37*
G36*
G01X51189Y75269D02*
G01X51189Y77352D01*
G01X53271Y77352D01*
G01X53271Y75269D01*
G01X51189Y75269D01*
G37*
G36*
G01X53729Y77809D02*
G01X53729Y79892D01*
G01X55811Y79892D01*
G01X55811Y77809D01*
G01X53729Y77809D01*
G37*
G36*
G01X51189Y77809D02*
G01X51189Y79892D01*
G01X53271Y79892D01*
G01X53271Y77809D01*
G01X51189Y77809D01*
G37*
G36*
G01X53729Y80349D02*
G01X53729Y82432D01*
G01X55811Y82432D01*
G01X55811Y80349D01*
G01X53729Y80349D01*
G37*
G36*
G01X51189Y80349D02*
G01X51189Y82432D01*
G01X53271Y82432D01*
G01X53271Y80349D01*
G01X51189Y80349D01*
G37*
G36*
G01X53729Y82889D02*
G01X53729Y84972D01*
G01X55811Y84972D01*
G01X55811Y82889D01*
G01X53729Y82889D01*
G37*
G36*
G01X51189Y82889D02*
G01X51189Y84972D01*
G01X53271Y84972D01*
G01X53271Y82889D01*
G01X51189Y82889D01*
G37*
G36*
G01X53729Y85429D02*
G01X53729Y87512D01*
G01X55811Y87512D01*
G01X55811Y85429D01*
G01X53729Y85429D01*
G37*
G36*
G01X51189Y85429D02*
G01X51189Y87512D01*
G01X53271Y87512D01*
G01X53271Y85429D01*
G01X51189Y85429D01*
G37*
G36*
G01X53729Y87969D02*
G01X53729Y90052D01*
G01X55811Y90052D01*
G01X55811Y87969D01*
G01X53729Y87969D01*
G37*
G36*
G01X51189Y87969D02*
G01X51189Y90052D01*
G01X53271Y90052D01*
G01X53271Y87969D01*
G01X51189Y87969D01*
G37*
G36*
G01X53729Y90509D02*
G01X53729Y92592D01*
G01X55811Y92592D01*
G01X55811Y90509D01*
G01X53729Y90509D01*
G37*
G36*
G01X51189Y90509D02*
G01X51189Y92592D01*
G01X53271Y92592D01*
G01X53271Y90509D01*
G01X51189Y90509D01*
G37*
G36*
G01X53729Y93049D02*
G01X53729Y95132D01*
G01X55811Y95132D01*
G01X55811Y93049D01*
G01X53729Y93049D01*
G37*
G36*
G01X51189Y93049D02*
G01X51189Y95132D01*
G01X53271Y95132D01*
G01X53271Y93049D01*
G01X51189Y93049D01*
G37*
G36*
G01X53729Y95589D02*
G01X53729Y97672D01*
G01X55811Y97672D01*
G01X55811Y95589D01*
G01X53729Y95589D01*
G37*
G36*
G01X51189Y95589D02*
G01X51189Y97672D01*
G01X53271Y97672D01*
G01X53271Y95589D01*
G01X51189Y95589D01*
G37*
G54D60*
G01X61156Y44482D03*
G01X61156Y47022D03*
G36*
G01X3343Y111741D02*
G01X3343Y114144D01*
G01X5745Y114144D01*
G01X5745Y111741D01*
G01X3343Y111741D01*
G37*
G54D66*
G01X4544Y109442D03*
G01X4544Y105942D03*
G01X4544Y102442D03*
G01X4544Y98942D03*
G01X4544Y95442D03*
G01X4544Y91942D03*
G01X4544Y88442D03*
G01X4544Y84942D03*
G01X4544Y81442D03*
G36*
G01X19182Y47905D02*
G01X19182Y50308D01*
G01X21585Y50308D01*
G01X21585Y47905D01*
G01X19182Y47905D01*
G37*
G01X20384Y45608D03*
G01X20384Y42108D03*
G01X20384Y38608D03*
G01X20384Y35108D03*
G01X20384Y31608D03*
G54D65*
G01X33588Y19653D03*
G54D66*
G01X37087Y19654D03*
G01X40587Y19654D03*
G01X44087Y19654D03*
G54D65*
G01X15046Y19653D03*
G54D66*
G01X18545Y19654D03*
G01X22045Y19654D03*
G01X25545Y19654D03*
G36*
G01X3434Y19711D02*
G01X3434Y22114D01*
G01X5837Y22114D01*
G01X5837Y19711D01*
G01X3434Y19711D01*
G37*
G01X4635Y17414D03*
G01X4635Y13914D03*
G01X4635Y10414D03*
G36*
G01X99642Y34837D02*
G01X99642Y37240D01*
G01X102044Y37240D01*
G01X102044Y34837D01*
G01X99642Y34837D01*
G37*
G01X100844Y32539D03*
G01X100844Y29040D03*
G01X100844Y25539D03*
G01X100844Y22040D03*
G01X100844Y18539D03*
G01X100844Y15040D03*
G01X100844Y11539D03*
G01X100844Y8040D03*
G01X100844Y4539D03*
G36*
G01X100528Y62241D02*
G01X100528Y64644D01*
G01X102931Y64644D01*
G01X102931Y62241D01*
G01X100528Y62241D01*
G37*
G01X101729Y66942D03*
G01X101729Y70442D03*
G01X101729Y73942D03*
G01X101729Y77442D03*
G01X101729Y80942D03*
G01X101729Y84442D03*
G01X101729Y87942D03*
G01X101729Y91442D03*
G01X101729Y94942D03*
G36*
G01X100647Y48675D02*
G01X100647Y51078D01*
G01X103050Y51078D01*
G01X103050Y48675D01*
G01X100647Y48675D01*
G37*
G01X101848Y53376D03*
G36*
G01X91793Y98584D02*
G01X91793Y100986D01*
G01X94196Y100986D01*
G01X94196Y98584D01*
G01X91793Y98584D01*
G37*
G01X89495Y99784D03*
G01X85995Y99784D03*
G01X82495Y99784D03*
G01X78995Y99784D03*
G01X75495Y99784D03*
G01X71995Y99784D03*
G01X68495Y99784D03*
G01X64995Y99784D03*
G01X61495Y99784D03*
G36*
G01X3434Y72797D02*
G01X3434Y75200D01*
G01X5837Y75200D01*
G01X5837Y72797D01*
G01X3434Y72797D01*
G37*
G01X4636Y70500D03*
G01X4636Y67000D03*
G01X4636Y63500D03*
G01X4636Y60000D03*
G01X4636Y56500D03*
G36*
G01X19240Y72797D02*
G01X19240Y75200D01*
G01X21643Y75200D01*
G01X21643Y72797D01*
G01X19240Y72797D01*
G37*
G01X20442Y70500D03*
G01X20442Y67000D03*
G01X20442Y63500D03*
G01X20442Y60000D03*
G01X20442Y56500D03*
G54D65*
G01X33589Y4667D03*
G54D66*
G01X37088Y4668D03*
G01X40588Y4668D03*
G01X44088Y4668D03*
G54D65*
G01X15047Y4667D03*
G54D66*
G01X18546Y4668D03*
G01X22046Y4668D03*
G01X25546Y4668D03*
G36*
G01X3492Y47905D02*
G01X3492Y50308D01*
G01X5895Y50308D01*
G01X5895Y47905D01*
G01X3492Y47905D01*
G37*
G01X4694Y45608D03*
G01X4694Y42108D03*
G01X4694Y38608D03*
G01X4694Y35108D03*
G01X4694Y31608D03*
G36*
G01X71252Y34837D02*
G01X71252Y37240D01*
G01X73655Y37240D01*
G01X73655Y34837D01*
G01X71252Y34837D01*
G37*
G01X72453Y32539D03*
G01X72453Y29040D03*
G01X72453Y25539D03*
G01X72453Y22040D03*
G01X72453Y18539D03*
G01X72453Y15040D03*
G01X72453Y11539D03*
G01X72453Y8040D03*
G01X72453Y4539D03*
G36*
G01X52583Y3463D02*
G01X52583Y5866D01*
G01X54986Y5866D01*
G01X54986Y3463D01*
G01X52583Y3463D01*
G37*
G01X53783Y8164D03*
G01X53783Y11663D03*
G01X53783Y15164D03*
G01X53783Y18663D03*
G01X53783Y22164D03*
G01X53783Y25663D03*
G01X53783Y29164D03*
G01X53783Y32663D03*
G01X53783Y36164D03*
G36*
G01X81031Y3463D02*
G01X81031Y5866D01*
G01X83434Y5866D01*
G01X83434Y3463D01*
G01X81031Y3463D01*
G37*
G01X82231Y8164D03*
G01X82231Y11663D03*
G01X82231Y15164D03*
G01X82231Y18663D03*
G01X82231Y22164D03*
G01X82231Y25663D03*
G01X82231Y29164D03*
G01X82231Y32663D03*
G01X82231Y36164D03*
G36*
G01X91623Y39554D02*
G01X91623Y41756D01*
G01X93828Y41756D01*
G01X93828Y39554D01*
G01X91623Y39554D01*
G37*
G36*
G01X91623Y49554D02*
G01X91623Y51756D01*
G01X93828Y51756D01*
G01X93828Y49554D01*
G01X91623Y49554D01*
G37*
G36*
G01X75623Y39554D02*
G01X75623Y41756D01*
G01X77828Y41756D01*
G01X77828Y39554D01*
G01X75623Y39554D01*
G37*
G36*
G01X75623Y49554D02*
G01X75623Y51756D01*
G01X77828Y51756D01*
G01X77828Y49554D01*
G01X75623Y49554D01*
G37*
G36*
G01X41925Y103425D02*
G01X41925Y105426D01*
G01X43927Y105426D01*
G01X43927Y103425D01*
G01X41925Y103425D01*
G37*
G54D70*
G01X40385Y104426D03*
G01X37845Y104426D03*
G01X35305Y104426D03*
G54D76*
G01X3500Y121499D03*
G01X3500Y3499D03*
G01X102499Y43500D03*
G01X102499Y101499D03*
G01X53499Y101499D03*
G01X53499Y43500D03*
M00*
M02*
