G04 Layer: TopPasteMaskLayer*
G04 EasyEDA v6.1.33, Mon, 29 Apr 2019 14:12:14 GMT*
G04 9590ad248ff846a5af0387b98c7a360c,91cc4837159741479c5be70faa949f3f,10*
G04 Gerber Generator version 0.2*
G04 Scale: 100 percent, Rotated: No, Reflected: No *
G04 Dimensions in millimeters *
G04 leading zeros omitted , absolute positions ,3 integer and 3 decimal *
%FSLAX33Y33*%
%MOMM*%
G90*
G71D02*

%ADD17R,1.300480X1.399540*%
%ADD18C,1.299997*%
%ADD19R,1.160018X1.469898*%
%ADD20R,1.199998X0.280010*%

%LPD*%
G36*
G01X66771Y50252D02*
G01X66771Y51411D01*
G01X68240Y51411D01*
G01X68240Y50252D01*
G01X66771Y50252D01*
G37*
G36*
G01X66771Y52284D02*
G01X66771Y53443D01*
G01X68240Y53443D01*
G01X68240Y52284D01*
G01X66771Y52284D01*
G37*
G36*
G01X62743Y50163D02*
G01X62743Y51464D01*
G01X64143Y51464D01*
G01X64143Y50163D01*
G01X62743Y50163D01*
G37*
G36*
G01X62743Y52264D02*
G01X62743Y53565D01*
G01X64143Y53565D01*
G01X64143Y52264D01*
G01X62743Y52264D01*
G37*
G36*
G01X64168Y67659D02*
G01X62867Y67659D01*
G01X62867Y69059D01*
G01X64168Y69059D01*
G01X64168Y67659D01*
G37*
G36*
G01X62067Y67659D02*
G01X60767Y67659D01*
G01X60767Y69059D01*
G01X62067Y69059D01*
G01X62067Y67659D01*
G37*
G36*
G01X64226Y70199D02*
G01X62926Y70199D01*
G01X62926Y71599D01*
G01X64226Y71599D01*
G01X64226Y70199D01*
G37*
G36*
G01X62126Y70199D02*
G01X60825Y70199D01*
G01X60825Y71599D01*
G01X62126Y71599D01*
G01X62126Y70199D01*
G37*
G36*
G01X64168Y75279D02*
G01X62867Y75279D01*
G01X62867Y76679D01*
G01X64168Y76679D01*
G01X64168Y75279D01*
G37*
G36*
G01X62067Y75279D02*
G01X60767Y75279D01*
G01X60767Y76679D01*
G01X62067Y76679D01*
G01X62067Y75279D01*
G37*
G36*
G01X64168Y72739D02*
G01X62867Y72739D01*
G01X62867Y74139D01*
G01X64168Y74139D01*
G01X64168Y72739D01*
G37*
G36*
G01X62067Y72739D02*
G01X60767Y72739D01*
G01X60767Y74139D01*
G01X62067Y74139D01*
G01X62067Y72739D01*
G37*
G36*
G01X64110Y81121D02*
G01X62809Y81121D01*
G01X62809Y82521D01*
G01X64110Y82521D01*
G01X64110Y81121D01*
G37*
G36*
G01X62009Y81121D02*
G01X60708Y81121D01*
G01X60708Y82521D01*
G01X62009Y82521D01*
G01X62009Y81121D01*
G37*
G36*
G01X64110Y83661D02*
G01X62809Y83661D01*
G01X62809Y85061D01*
G01X64110Y85061D01*
G01X64110Y83661D01*
G37*
G36*
G01X62009Y83661D02*
G01X60708Y83661D01*
G01X60708Y85061D01*
G01X62009Y85061D01*
G01X62009Y83661D01*
G37*
G36*
G01X64110Y88741D02*
G01X62809Y88741D01*
G01X62809Y90141D01*
G01X64110Y90141D01*
G01X64110Y88741D01*
G37*
G36*
G01X62009Y88741D02*
G01X60708Y88741D01*
G01X60708Y90141D01*
G01X62009Y90141D01*
G01X62009Y88741D01*
G37*
G36*
G01X64110Y86201D02*
G01X62809Y86201D01*
G01X62809Y87601D01*
G01X64110Y87601D01*
G01X64110Y86201D01*
G37*
G36*
G01X62009Y86201D02*
G01X60708Y86201D01*
G01X60708Y87601D01*
G01X62009Y87601D01*
G01X62009Y86201D01*
G37*
G54D18*
G01X41147Y107728D03*
G01X39647Y107728D03*
G01X38147Y107728D03*
G01X36647Y107728D03*
G54D19*
G01X42164Y110013D03*
G01X44196Y110013D03*
G36*
G01X43167Y68747D02*
G01X42680Y68747D01*
G01X42680Y69747D01*
G01X42680Y69771D01*
G01X42682Y69796D01*
G01X42685Y69821D01*
G01X42689Y69846D01*
G01X42695Y69870D01*
G01X42702Y69894D01*
G01X42710Y69918D01*
G01X42719Y69941D01*
G01X42729Y69963D01*
G01X42740Y69986D01*
G01X42753Y70007D01*
G01X42766Y70028D01*
G01X42781Y70048D01*
G01X42796Y70068D01*
G01X42813Y70087D01*
G01X42830Y70104D01*
G01X42849Y70121D01*
G01X42868Y70137D01*
G01X42888Y70152D01*
G01X42908Y70167D01*
G01X42930Y70180D01*
G01X42951Y70191D01*
G01X42974Y70202D01*
G01X42997Y70212D01*
G01X43020Y70220D01*
G01X43044Y70228D01*
G01X43068Y70234D01*
G01X43093Y70239D01*
G01X43117Y70243D01*
G01X43142Y70245D01*
G01X43167Y70246D01*
G01X43192Y70246D01*
G01X43217Y70245D01*
G01X43242Y70243D01*
G01X43266Y70239D01*
G01X43291Y70234D01*
G01X43315Y70228D01*
G01X43339Y70220D01*
G01X43362Y70212D01*
G01X43385Y70202D01*
G01X43408Y70191D01*
G01X43430Y70180D01*
G01X43451Y70167D01*
G01X43471Y70152D01*
G01X43491Y70137D01*
G01X43510Y70121D01*
G01X43529Y70104D01*
G01X43546Y70087D01*
G01X43563Y70068D01*
G01X43578Y70048D01*
G01X43593Y70028D01*
G01X43606Y70007D01*
G01X43619Y69986D01*
G01X43630Y69963D01*
G01X43640Y69941D01*
G01X43649Y69918D01*
G01X43657Y69894D01*
G01X43664Y69870D01*
G01X43670Y69846D01*
G01X43674Y69821D01*
G01X43677Y69796D01*
G01X43679Y69771D01*
G01X43679Y69747D01*
G01X43679Y68747D01*
G01X43167Y68747D01*
G37*
G36*
G01X43192Y68477D02*
G01X43679Y68477D01*
G01X43679Y67477D01*
G01X43679Y67452D01*
G01X43677Y67427D01*
G01X43674Y67402D01*
G01X43670Y67377D01*
G01X43664Y67353D01*
G01X43657Y67329D01*
G01X43649Y67305D01*
G01X43640Y67282D01*
G01X43630Y67260D01*
G01X43619Y67237D01*
G01X43606Y67216D01*
G01X43593Y67195D01*
G01X43578Y67175D01*
G01X43563Y67155D01*
G01X43546Y67136D01*
G01X43529Y67119D01*
G01X43510Y67102D01*
G01X43491Y67086D01*
G01X43471Y67071D01*
G01X43451Y67056D01*
G01X43429Y67043D01*
G01X43408Y67032D01*
G01X43385Y67021D01*
G01X43362Y67011D01*
G01X43339Y67003D01*
G01X43315Y66995D01*
G01X43291Y66989D01*
G01X43266Y66984D01*
G01X43242Y66980D01*
G01X43217Y66978D01*
G01X43192Y66977D01*
G01X43167Y66977D01*
G01X43142Y66978D01*
G01X43117Y66980D01*
G01X43093Y66984D01*
G01X43068Y66989D01*
G01X43044Y66995D01*
G01X43020Y67003D01*
G01X42997Y67011D01*
G01X42974Y67021D01*
G01X42951Y67032D01*
G01X42929Y67043D01*
G01X42908Y67056D01*
G01X42888Y67071D01*
G01X42868Y67086D01*
G01X42849Y67102D01*
G01X42830Y67119D01*
G01X42813Y67136D01*
G01X42796Y67155D01*
G01X42781Y67175D01*
G01X42766Y67195D01*
G01X42753Y67216D01*
G01X42740Y67237D01*
G01X42729Y67260D01*
G01X42719Y67282D01*
G01X42710Y67305D01*
G01X42702Y67329D01*
G01X42695Y67353D01*
G01X42689Y67377D01*
G01X42685Y67402D01*
G01X42682Y67427D01*
G01X42680Y67452D01*
G01X42680Y67477D01*
G01X42680Y68477D01*
G01X43192Y68477D01*
G37*
G54D20*
G01X36621Y120222D03*
G01X36621Y119721D03*
G01X36621Y119222D03*
G01X36621Y118721D03*
G01X36621Y118222D03*
G01X36621Y117721D03*
G01X36621Y117222D03*
G01X36621Y116721D03*
G01X36621Y116222D03*
G01X36621Y115721D03*
G01X36621Y115222D03*
G01X36621Y114721D03*
G01X36621Y114222D03*
G36*
G01X37932Y112921D02*
G01X37932Y114121D01*
G01X38212Y114121D01*
G01X38212Y112921D01*
G01X37932Y112921D01*
G37*
G36*
G01X38432Y112921D02*
G01X38432Y114121D01*
G01X38712Y114121D01*
G01X38712Y112921D01*
G01X38432Y112921D01*
G37*
G36*
G01X38932Y112921D02*
G01X38932Y114121D01*
G01X39212Y114121D01*
G01X39212Y112921D01*
G01X38932Y112921D01*
G37*
G36*
G01X39432Y112921D02*
G01X39432Y114121D01*
G01X39712Y114121D01*
G01X39712Y112921D01*
G01X39432Y112921D01*
G37*
G36*
G01X39932Y112921D02*
G01X39932Y114121D01*
G01X40212Y114121D01*
G01X40212Y112921D01*
G01X39932Y112921D01*
G37*
G36*
G01X40431Y112921D02*
G01X40431Y114121D01*
G01X40712Y114121D01*
G01X40712Y112921D01*
G01X40431Y112921D01*
G37*
G36*
G01X40931Y112921D02*
G01X40931Y114121D01*
G01X41212Y114121D01*
G01X41212Y112921D01*
G01X40931Y112921D01*
G37*
G36*
G01X41431Y112921D02*
G01X41431Y114121D01*
G01X41712Y114121D01*
G01X41712Y112921D01*
G01X41431Y112921D01*
G37*
G01X43021Y120222D03*
G01X43021Y119721D03*
G01X43021Y119222D03*
G01X43021Y118721D03*
G01X43021Y118222D03*
G01X43021Y117721D03*
G01X43021Y117222D03*
G01X43021Y116721D03*
G01X43021Y116222D03*
G01X43021Y115721D03*
G01X43021Y115222D03*
G01X43021Y114721D03*
G01X43021Y114222D03*
G36*
G01X40627Y68747D02*
G01X40140Y68747D01*
G01X40140Y69747D01*
G01X40140Y69771D01*
G01X40142Y69796D01*
G01X40145Y69821D01*
G01X40149Y69846D01*
G01X40155Y69870D01*
G01X40162Y69894D01*
G01X40170Y69918D01*
G01X40179Y69941D01*
G01X40189Y69963D01*
G01X40200Y69986D01*
G01X40213Y70007D01*
G01X40226Y70028D01*
G01X40241Y70048D01*
G01X40256Y70068D01*
G01X40273Y70087D01*
G01X40290Y70104D01*
G01X40309Y70121D01*
G01X40328Y70137D01*
G01X40348Y70152D01*
G01X40368Y70167D01*
G01X40390Y70180D01*
G01X40411Y70191D01*
G01X40434Y70202D01*
G01X40457Y70212D01*
G01X40480Y70220D01*
G01X40504Y70228D01*
G01X40528Y70234D01*
G01X40553Y70239D01*
G01X40577Y70243D01*
G01X40602Y70245D01*
G01X40627Y70246D01*
G01X40652Y70246D01*
G01X40677Y70245D01*
G01X40702Y70243D01*
G01X40726Y70239D01*
G01X40751Y70234D01*
G01X40775Y70228D01*
G01X40799Y70220D01*
G01X40822Y70212D01*
G01X40845Y70202D01*
G01X40868Y70191D01*
G01X40890Y70180D01*
G01X40911Y70167D01*
G01X40931Y70152D01*
G01X40951Y70137D01*
G01X40970Y70121D01*
G01X40989Y70104D01*
G01X41006Y70087D01*
G01X41023Y70068D01*
G01X41038Y70048D01*
G01X41053Y70028D01*
G01X41066Y70007D01*
G01X41079Y69986D01*
G01X41090Y69963D01*
G01X41100Y69941D01*
G01X41109Y69918D01*
G01X41117Y69894D01*
G01X41124Y69870D01*
G01X41130Y69846D01*
G01X41134Y69821D01*
G01X41137Y69796D01*
G01X41139Y69771D01*
G01X41139Y69747D01*
G01X41139Y68747D01*
G01X40627Y68747D01*
G37*
G36*
G01X40652Y68477D02*
G01X41139Y68477D01*
G01X41139Y67477D01*
G01X41139Y67452D01*
G01X41137Y67427D01*
G01X41134Y67402D01*
G01X41130Y67377D01*
G01X41124Y67353D01*
G01X41117Y67329D01*
G01X41109Y67305D01*
G01X41100Y67282D01*
G01X41090Y67260D01*
G01X41079Y67237D01*
G01X41066Y67216D01*
G01X41053Y67195D01*
G01X41038Y67175D01*
G01X41023Y67155D01*
G01X41006Y67136D01*
G01X40989Y67119D01*
G01X40970Y67102D01*
G01X40951Y67086D01*
G01X40931Y67071D01*
G01X40911Y67056D01*
G01X40889Y67043D01*
G01X40868Y67032D01*
G01X40845Y67021D01*
G01X40822Y67011D01*
G01X40799Y67003D01*
G01X40775Y66995D01*
G01X40751Y66989D01*
G01X40726Y66984D01*
G01X40702Y66980D01*
G01X40677Y66978D01*
G01X40652Y66977D01*
G01X40627Y66977D01*
G01X40602Y66978D01*
G01X40577Y66980D01*
G01X40553Y66984D01*
G01X40528Y66989D01*
G01X40504Y66995D01*
G01X40480Y67003D01*
G01X40457Y67011D01*
G01X40434Y67021D01*
G01X40411Y67032D01*
G01X40389Y67043D01*
G01X40368Y67056D01*
G01X40348Y67071D01*
G01X40328Y67086D01*
G01X40309Y67102D01*
G01X40290Y67119D01*
G01X40273Y67136D01*
G01X40256Y67155D01*
G01X40241Y67175D01*
G01X40226Y67195D01*
G01X40213Y67216D01*
G01X40200Y67237D01*
G01X40189Y67260D01*
G01X40179Y67282D01*
G01X40170Y67305D01*
G01X40162Y67329D01*
G01X40155Y67353D01*
G01X40149Y67377D01*
G01X40145Y67402D01*
G01X40142Y67427D01*
G01X40140Y67452D01*
G01X40140Y67477D01*
G01X40140Y68477D01*
G01X40652Y68477D01*
G37*
G36*
G01X40627Y53253D02*
G01X40140Y53253D01*
G01X40140Y54253D01*
G01X40140Y54277D01*
G01X40142Y54302D01*
G01X40145Y54327D01*
G01X40149Y54352D01*
G01X40155Y54376D01*
G01X40162Y54400D01*
G01X40170Y54424D01*
G01X40179Y54447D01*
G01X40189Y54469D01*
G01X40200Y54492D01*
G01X40213Y54513D01*
G01X40226Y54534D01*
G01X40241Y54554D01*
G01X40256Y54574D01*
G01X40273Y54593D01*
G01X40290Y54610D01*
G01X40309Y54627D01*
G01X40328Y54643D01*
G01X40348Y54658D01*
G01X40368Y54673D01*
G01X40390Y54686D01*
G01X40411Y54697D01*
G01X40434Y54708D01*
G01X40457Y54718D01*
G01X40480Y54726D01*
G01X40504Y54734D01*
G01X40528Y54740D01*
G01X40553Y54745D01*
G01X40577Y54749D01*
G01X40602Y54751D01*
G01X40627Y54752D01*
G01X40652Y54752D01*
G01X40677Y54751D01*
G01X40702Y54749D01*
G01X40726Y54745D01*
G01X40751Y54740D01*
G01X40775Y54734D01*
G01X40799Y54726D01*
G01X40822Y54718D01*
G01X40845Y54708D01*
G01X40868Y54697D01*
G01X40890Y54686D01*
G01X40911Y54673D01*
G01X40931Y54658D01*
G01X40951Y54643D01*
G01X40970Y54627D01*
G01X40989Y54610D01*
G01X41006Y54593D01*
G01X41023Y54574D01*
G01X41038Y54554D01*
G01X41053Y54534D01*
G01X41066Y54513D01*
G01X41079Y54492D01*
G01X41090Y54469D01*
G01X41100Y54447D01*
G01X41109Y54424D01*
G01X41117Y54400D01*
G01X41124Y54376D01*
G01X41130Y54352D01*
G01X41134Y54327D01*
G01X41137Y54302D01*
G01X41139Y54277D01*
G01X41139Y54253D01*
G01X41139Y53253D01*
G01X40627Y53253D01*
G37*
G36*
G01X40652Y52983D02*
G01X41139Y52983D01*
G01X41139Y51983D01*
G01X41139Y51958D01*
G01X41137Y51933D01*
G01X41134Y51908D01*
G01X41130Y51883D01*
G01X41124Y51859D01*
G01X41117Y51835D01*
G01X41109Y51811D01*
G01X41100Y51788D01*
G01X41090Y51766D01*
G01X41079Y51743D01*
G01X41066Y51722D01*
G01X41053Y51701D01*
G01X41038Y51681D01*
G01X41023Y51661D01*
G01X41006Y51642D01*
G01X40989Y51625D01*
G01X40970Y51608D01*
G01X40951Y51592D01*
G01X40931Y51577D01*
G01X40911Y51562D01*
G01X40889Y51549D01*
G01X40868Y51538D01*
G01X40845Y51527D01*
G01X40822Y51517D01*
G01X40799Y51509D01*
G01X40775Y51501D01*
G01X40751Y51495D01*
G01X40726Y51490D01*
G01X40702Y51486D01*
G01X40677Y51484D01*
G01X40652Y51483D01*
G01X40627Y51483D01*
G01X40602Y51484D01*
G01X40577Y51486D01*
G01X40553Y51490D01*
G01X40528Y51495D01*
G01X40504Y51501D01*
G01X40480Y51509D01*
G01X40457Y51517D01*
G01X40434Y51527D01*
G01X40411Y51538D01*
G01X40389Y51549D01*
G01X40368Y51562D01*
G01X40348Y51577D01*
G01X40328Y51592D01*
G01X40309Y51608D01*
G01X40290Y51625D01*
G01X40273Y51642D01*
G01X40256Y51661D01*
G01X40241Y51681D01*
G01X40226Y51701D01*
G01X40213Y51722D01*
G01X40200Y51743D01*
G01X40189Y51766D01*
G01X40179Y51788D01*
G01X40170Y51811D01*
G01X40162Y51835D01*
G01X40155Y51859D01*
G01X40149Y51883D01*
G01X40145Y51908D01*
G01X40142Y51933D01*
G01X40140Y51958D01*
G01X40140Y51983D01*
G01X40140Y52983D01*
G01X40652Y52983D01*
G37*
G36*
G01X43421Y41569D02*
G01X42934Y41569D01*
G01X42934Y42569D01*
G01X42934Y42593D01*
G01X42936Y42618D01*
G01X42939Y42643D01*
G01X42943Y42668D01*
G01X42949Y42692D01*
G01X42956Y42716D01*
G01X42964Y42740D01*
G01X42973Y42763D01*
G01X42983Y42785D01*
G01X42994Y42808D01*
G01X43007Y42829D01*
G01X43020Y42850D01*
G01X43035Y42870D01*
G01X43050Y42890D01*
G01X43067Y42909D01*
G01X43084Y42926D01*
G01X43103Y42943D01*
G01X43122Y42959D01*
G01X43142Y42974D01*
G01X43162Y42989D01*
G01X43184Y43002D01*
G01X43205Y43013D01*
G01X43228Y43024D01*
G01X43251Y43034D01*
G01X43274Y43042D01*
G01X43298Y43050D01*
G01X43322Y43056D01*
G01X43347Y43061D01*
G01X43371Y43065D01*
G01X43396Y43067D01*
G01X43421Y43068D01*
G01X43446Y43068D01*
G01X43471Y43067D01*
G01X43496Y43065D01*
G01X43520Y43061D01*
G01X43545Y43056D01*
G01X43569Y43050D01*
G01X43593Y43042D01*
G01X43616Y43034D01*
G01X43639Y43024D01*
G01X43662Y43013D01*
G01X43684Y43002D01*
G01X43705Y42989D01*
G01X43725Y42974D01*
G01X43745Y42959D01*
G01X43764Y42943D01*
G01X43783Y42926D01*
G01X43800Y42909D01*
G01X43817Y42890D01*
G01X43832Y42870D01*
G01X43847Y42850D01*
G01X43860Y42829D01*
G01X43873Y42808D01*
G01X43884Y42785D01*
G01X43894Y42763D01*
G01X43903Y42740D01*
G01X43911Y42716D01*
G01X43918Y42692D01*
G01X43924Y42668D01*
G01X43928Y42643D01*
G01X43931Y42618D01*
G01X43933Y42593D01*
G01X43933Y42569D01*
G01X43933Y41569D01*
G01X43421Y41569D01*
G37*
G36*
G01X43446Y41299D02*
G01X43933Y41299D01*
G01X43933Y40299D01*
G01X43933Y40274D01*
G01X43931Y40249D01*
G01X43928Y40224D01*
G01X43924Y40199D01*
G01X43918Y40175D01*
G01X43911Y40151D01*
G01X43903Y40127D01*
G01X43894Y40104D01*
G01X43884Y40082D01*
G01X43873Y40059D01*
G01X43860Y40038D01*
G01X43847Y40017D01*
G01X43832Y39997D01*
G01X43817Y39977D01*
G01X43800Y39958D01*
G01X43783Y39941D01*
G01X43764Y39924D01*
G01X43745Y39908D01*
G01X43725Y39893D01*
G01X43705Y39878D01*
G01X43683Y39865D01*
G01X43662Y39854D01*
G01X43639Y39843D01*
G01X43616Y39833D01*
G01X43593Y39825D01*
G01X43569Y39817D01*
G01X43545Y39811D01*
G01X43520Y39806D01*
G01X43496Y39802D01*
G01X43471Y39800D01*
G01X43446Y39799D01*
G01X43421Y39799D01*
G01X43396Y39800D01*
G01X43371Y39802D01*
G01X43347Y39806D01*
G01X43322Y39811D01*
G01X43298Y39817D01*
G01X43274Y39825D01*
G01X43251Y39833D01*
G01X43228Y39843D01*
G01X43205Y39854D01*
G01X43183Y39865D01*
G01X43162Y39878D01*
G01X43142Y39893D01*
G01X43122Y39908D01*
G01X43103Y39924D01*
G01X43084Y39941D01*
G01X43067Y39958D01*
G01X43050Y39977D01*
G01X43035Y39997D01*
G01X43020Y40017D01*
G01X43007Y40038D01*
G01X42994Y40059D01*
G01X42983Y40082D01*
G01X42973Y40104D01*
G01X42964Y40127D01*
G01X42956Y40151D01*
G01X42949Y40175D01*
G01X42943Y40199D01*
G01X42939Y40224D01*
G01X42936Y40249D01*
G01X42934Y40274D01*
G01X42934Y40299D01*
G01X42934Y41299D01*
G01X43446Y41299D01*
G37*
G36*
G01X35039Y32933D02*
G01X34552Y32933D01*
G01X34552Y33933D01*
G01X34552Y33957D01*
G01X34554Y33982D01*
G01X34557Y34007D01*
G01X34561Y34032D01*
G01X34567Y34056D01*
G01X34574Y34080D01*
G01X34582Y34104D01*
G01X34591Y34127D01*
G01X34601Y34149D01*
G01X34612Y34172D01*
G01X34625Y34193D01*
G01X34638Y34214D01*
G01X34653Y34234D01*
G01X34668Y34254D01*
G01X34685Y34273D01*
G01X34702Y34290D01*
G01X34721Y34307D01*
G01X34740Y34323D01*
G01X34760Y34338D01*
G01X34780Y34353D01*
G01X34802Y34366D01*
G01X34823Y34377D01*
G01X34846Y34388D01*
G01X34869Y34398D01*
G01X34892Y34406D01*
G01X34916Y34414D01*
G01X34940Y34420D01*
G01X34965Y34425D01*
G01X34989Y34429D01*
G01X35014Y34431D01*
G01X35039Y34432D01*
G01X35064Y34432D01*
G01X35089Y34431D01*
G01X35114Y34429D01*
G01X35138Y34425D01*
G01X35163Y34420D01*
G01X35187Y34414D01*
G01X35211Y34406D01*
G01X35234Y34398D01*
G01X35257Y34388D01*
G01X35280Y34377D01*
G01X35302Y34366D01*
G01X35323Y34353D01*
G01X35343Y34338D01*
G01X35363Y34323D01*
G01X35382Y34307D01*
G01X35401Y34290D01*
G01X35418Y34273D01*
G01X35435Y34254D01*
G01X35450Y34234D01*
G01X35465Y34214D01*
G01X35478Y34193D01*
G01X35491Y34172D01*
G01X35502Y34149D01*
G01X35512Y34127D01*
G01X35521Y34104D01*
G01X35529Y34080D01*
G01X35536Y34056D01*
G01X35542Y34032D01*
G01X35546Y34007D01*
G01X35549Y33982D01*
G01X35551Y33957D01*
G01X35551Y33933D01*
G01X35551Y32933D01*
G01X35039Y32933D01*
G37*
G36*
G01X35064Y32663D02*
G01X35551Y32663D01*
G01X35551Y31663D01*
G01X35551Y31638D01*
G01X35549Y31613D01*
G01X35546Y31588D01*
G01X35542Y31563D01*
G01X35536Y31539D01*
G01X35529Y31515D01*
G01X35521Y31491D01*
G01X35512Y31468D01*
G01X35502Y31446D01*
G01X35491Y31423D01*
G01X35478Y31402D01*
G01X35465Y31381D01*
G01X35450Y31361D01*
G01X35435Y31341D01*
G01X35418Y31322D01*
G01X35401Y31305D01*
G01X35382Y31288D01*
G01X35363Y31272D01*
G01X35343Y31257D01*
G01X35323Y31242D01*
G01X35301Y31229D01*
G01X35280Y31218D01*
G01X35257Y31207D01*
G01X35234Y31197D01*
G01X35211Y31189D01*
G01X35187Y31181D01*
G01X35163Y31175D01*
G01X35138Y31170D01*
G01X35114Y31166D01*
G01X35089Y31164D01*
G01X35064Y31163D01*
G01X35039Y31163D01*
G01X35014Y31164D01*
G01X34989Y31166D01*
G01X34965Y31170D01*
G01X34940Y31175D01*
G01X34916Y31181D01*
G01X34892Y31189D01*
G01X34869Y31197D01*
G01X34846Y31207D01*
G01X34823Y31218D01*
G01X34801Y31229D01*
G01X34780Y31242D01*
G01X34760Y31257D01*
G01X34740Y31272D01*
G01X34721Y31288D01*
G01X34702Y31305D01*
G01X34685Y31322D01*
G01X34668Y31341D01*
G01X34653Y31361D01*
G01X34638Y31381D01*
G01X34625Y31402D01*
G01X34612Y31423D01*
G01X34601Y31446D01*
G01X34591Y31468D01*
G01X34582Y31491D01*
G01X34574Y31515D01*
G01X34567Y31539D01*
G01X34561Y31563D01*
G01X34557Y31588D01*
G01X34554Y31613D01*
G01X34552Y31638D01*
G01X34552Y31663D01*
G01X34552Y32663D01*
G01X35064Y32663D01*
G37*
G36*
G01X29959Y32933D02*
G01X29472Y32933D01*
G01X29472Y33933D01*
G01X29472Y33957D01*
G01X29474Y33982D01*
G01X29477Y34007D01*
G01X29481Y34032D01*
G01X29487Y34056D01*
G01X29494Y34080D01*
G01X29502Y34104D01*
G01X29511Y34127D01*
G01X29521Y34149D01*
G01X29532Y34172D01*
G01X29545Y34193D01*
G01X29558Y34214D01*
G01X29573Y34234D01*
G01X29588Y34254D01*
G01X29605Y34273D01*
G01X29622Y34290D01*
G01X29641Y34307D01*
G01X29660Y34323D01*
G01X29680Y34338D01*
G01X29700Y34353D01*
G01X29722Y34366D01*
G01X29743Y34377D01*
G01X29766Y34388D01*
G01X29789Y34398D01*
G01X29812Y34406D01*
G01X29836Y34414D01*
G01X29860Y34420D01*
G01X29885Y34425D01*
G01X29909Y34429D01*
G01X29934Y34431D01*
G01X29959Y34432D01*
G01X29984Y34432D01*
G01X30009Y34431D01*
G01X30034Y34429D01*
G01X30058Y34425D01*
G01X30083Y34420D01*
G01X30107Y34414D01*
G01X30131Y34406D01*
G01X30154Y34398D01*
G01X30177Y34388D01*
G01X30200Y34377D01*
G01X30222Y34366D01*
G01X30243Y34353D01*
G01X30263Y34338D01*
G01X30283Y34323D01*
G01X30302Y34307D01*
G01X30321Y34290D01*
G01X30338Y34273D01*
G01X30355Y34254D01*
G01X30370Y34234D01*
G01X30385Y34214D01*
G01X30398Y34193D01*
G01X30411Y34172D01*
G01X30422Y34149D01*
G01X30432Y34127D01*
G01X30441Y34104D01*
G01X30449Y34080D01*
G01X30456Y34056D01*
G01X30462Y34032D01*
G01X30466Y34007D01*
G01X30469Y33982D01*
G01X30471Y33957D01*
G01X30471Y33933D01*
G01X30471Y32933D01*
G01X29959Y32933D01*
G37*
G36*
G01X29984Y32663D02*
G01X30471Y32663D01*
G01X30471Y31663D01*
G01X30471Y31638D01*
G01X30469Y31613D01*
G01X30466Y31588D01*
G01X30462Y31563D01*
G01X30456Y31539D01*
G01X30449Y31515D01*
G01X30441Y31491D01*
G01X30432Y31468D01*
G01X30422Y31446D01*
G01X30411Y31423D01*
G01X30398Y31402D01*
G01X30385Y31381D01*
G01X30370Y31361D01*
G01X30355Y31341D01*
G01X30338Y31322D01*
G01X30321Y31305D01*
G01X30302Y31288D01*
G01X30283Y31272D01*
G01X30263Y31257D01*
G01X30243Y31242D01*
G01X30221Y31229D01*
G01X30200Y31218D01*
G01X30177Y31207D01*
G01X30154Y31197D01*
G01X30131Y31189D01*
G01X30107Y31181D01*
G01X30083Y31175D01*
G01X30058Y31170D01*
G01X30034Y31166D01*
G01X30009Y31164D01*
G01X29984Y31163D01*
G01X29959Y31163D01*
G01X29934Y31164D01*
G01X29909Y31166D01*
G01X29885Y31170D01*
G01X29860Y31175D01*
G01X29836Y31181D01*
G01X29812Y31189D01*
G01X29789Y31197D01*
G01X29766Y31207D01*
G01X29743Y31218D01*
G01X29721Y31229D01*
G01X29700Y31242D01*
G01X29680Y31257D01*
G01X29660Y31272D01*
G01X29641Y31288D01*
G01X29622Y31305D01*
G01X29605Y31322D01*
G01X29588Y31341D01*
G01X29573Y31361D01*
G01X29558Y31381D01*
G01X29545Y31402D01*
G01X29532Y31423D01*
G01X29521Y31446D01*
G01X29511Y31468D01*
G01X29502Y31491D01*
G01X29494Y31515D01*
G01X29487Y31539D01*
G01X29481Y31563D01*
G01X29477Y31588D01*
G01X29474Y31613D01*
G01X29472Y31638D01*
G01X29472Y31663D01*
G01X29472Y32663D01*
G01X29984Y32663D01*
G37*
G36*
G01X38087Y68747D02*
G01X37600Y68747D01*
G01X37600Y69747D01*
G01X37600Y69771D01*
G01X37602Y69796D01*
G01X37605Y69821D01*
G01X37609Y69846D01*
G01X37615Y69870D01*
G01X37622Y69894D01*
G01X37630Y69918D01*
G01X37639Y69941D01*
G01X37649Y69963D01*
G01X37660Y69986D01*
G01X37673Y70007D01*
G01X37686Y70028D01*
G01X37701Y70048D01*
G01X37716Y70068D01*
G01X37733Y70087D01*
G01X37750Y70104D01*
G01X37769Y70121D01*
G01X37788Y70137D01*
G01X37808Y70152D01*
G01X37828Y70167D01*
G01X37850Y70180D01*
G01X37871Y70191D01*
G01X37894Y70202D01*
G01X37917Y70212D01*
G01X37940Y70220D01*
G01X37964Y70228D01*
G01X37988Y70234D01*
G01X38013Y70239D01*
G01X38037Y70243D01*
G01X38062Y70245D01*
G01X38087Y70246D01*
G01X38112Y70246D01*
G01X38137Y70245D01*
G01X38162Y70243D01*
G01X38186Y70239D01*
G01X38211Y70234D01*
G01X38235Y70228D01*
G01X38259Y70220D01*
G01X38282Y70212D01*
G01X38305Y70202D01*
G01X38328Y70191D01*
G01X38350Y70180D01*
G01X38371Y70167D01*
G01X38391Y70152D01*
G01X38411Y70137D01*
G01X38430Y70121D01*
G01X38449Y70104D01*
G01X38466Y70087D01*
G01X38483Y70068D01*
G01X38498Y70048D01*
G01X38513Y70028D01*
G01X38526Y70007D01*
G01X38539Y69986D01*
G01X38550Y69963D01*
G01X38560Y69941D01*
G01X38569Y69918D01*
G01X38577Y69894D01*
G01X38584Y69870D01*
G01X38590Y69846D01*
G01X38594Y69821D01*
G01X38597Y69796D01*
G01X38599Y69771D01*
G01X38599Y69747D01*
G01X38599Y68747D01*
G01X38087Y68747D01*
G37*
G36*
G01X38112Y68477D02*
G01X38599Y68477D01*
G01X38599Y67477D01*
G01X38599Y67452D01*
G01X38597Y67427D01*
G01X38594Y67402D01*
G01X38590Y67377D01*
G01X38584Y67353D01*
G01X38577Y67329D01*
G01X38569Y67305D01*
G01X38560Y67282D01*
G01X38550Y67260D01*
G01X38539Y67237D01*
G01X38526Y67216D01*
G01X38513Y67195D01*
G01X38498Y67175D01*
G01X38483Y67155D01*
G01X38466Y67136D01*
G01X38449Y67119D01*
G01X38430Y67102D01*
G01X38411Y67086D01*
G01X38391Y67071D01*
G01X38371Y67056D01*
G01X38349Y67043D01*
G01X38328Y67032D01*
G01X38305Y67021D01*
G01X38282Y67011D01*
G01X38259Y67003D01*
G01X38235Y66995D01*
G01X38211Y66989D01*
G01X38186Y66984D01*
G01X38162Y66980D01*
G01X38137Y66978D01*
G01X38112Y66977D01*
G01X38087Y66977D01*
G01X38062Y66978D01*
G01X38037Y66980D01*
G01X38013Y66984D01*
G01X37988Y66989D01*
G01X37964Y66995D01*
G01X37940Y67003D01*
G01X37917Y67011D01*
G01X37894Y67021D01*
G01X37871Y67032D01*
G01X37849Y67043D01*
G01X37828Y67056D01*
G01X37808Y67071D01*
G01X37788Y67086D01*
G01X37769Y67102D01*
G01X37750Y67119D01*
G01X37733Y67136D01*
G01X37716Y67155D01*
G01X37701Y67175D01*
G01X37686Y67195D01*
G01X37673Y67216D01*
G01X37660Y67237D01*
G01X37649Y67260D01*
G01X37639Y67282D01*
G01X37630Y67305D01*
G01X37622Y67329D01*
G01X37615Y67353D01*
G01X37609Y67377D01*
G01X37605Y67402D01*
G01X37602Y67427D01*
G01X37600Y67452D01*
G01X37600Y67477D01*
G01X37600Y68477D01*
G01X38112Y68477D01*
G37*
G36*
G01X38087Y53253D02*
G01X37600Y53253D01*
G01X37600Y54253D01*
G01X37600Y54277D01*
G01X37602Y54302D01*
G01X37605Y54327D01*
G01X37609Y54352D01*
G01X37615Y54376D01*
G01X37622Y54400D01*
G01X37630Y54424D01*
G01X37639Y54447D01*
G01X37649Y54469D01*
G01X37660Y54492D01*
G01X37673Y54513D01*
G01X37686Y54534D01*
G01X37701Y54554D01*
G01X37716Y54574D01*
G01X37733Y54593D01*
G01X37750Y54610D01*
G01X37769Y54627D01*
G01X37788Y54643D01*
G01X37808Y54658D01*
G01X37828Y54673D01*
G01X37850Y54686D01*
G01X37871Y54697D01*
G01X37894Y54708D01*
G01X37917Y54718D01*
G01X37940Y54726D01*
G01X37964Y54734D01*
G01X37988Y54740D01*
G01X38013Y54745D01*
G01X38037Y54749D01*
G01X38062Y54751D01*
G01X38087Y54752D01*
G01X38112Y54752D01*
G01X38137Y54751D01*
G01X38162Y54749D01*
G01X38186Y54745D01*
G01X38211Y54740D01*
G01X38235Y54734D01*
G01X38259Y54726D01*
G01X38282Y54718D01*
G01X38305Y54708D01*
G01X38328Y54697D01*
G01X38350Y54686D01*
G01X38371Y54673D01*
G01X38391Y54658D01*
G01X38411Y54643D01*
G01X38430Y54627D01*
G01X38449Y54610D01*
G01X38466Y54593D01*
G01X38483Y54574D01*
G01X38498Y54554D01*
G01X38513Y54534D01*
G01X38526Y54513D01*
G01X38539Y54492D01*
G01X38550Y54469D01*
G01X38560Y54447D01*
G01X38569Y54424D01*
G01X38577Y54400D01*
G01X38584Y54376D01*
G01X38590Y54352D01*
G01X38594Y54327D01*
G01X38597Y54302D01*
G01X38599Y54277D01*
G01X38599Y54253D01*
G01X38599Y53253D01*
G01X38087Y53253D01*
G37*
G36*
G01X38112Y52983D02*
G01X38599Y52983D01*
G01X38599Y51983D01*
G01X38599Y51958D01*
G01X38597Y51933D01*
G01X38594Y51908D01*
G01X38590Y51883D01*
G01X38584Y51859D01*
G01X38577Y51835D01*
G01X38569Y51811D01*
G01X38560Y51788D01*
G01X38550Y51766D01*
G01X38539Y51743D01*
G01X38526Y51722D01*
G01X38513Y51701D01*
G01X38498Y51681D01*
G01X38483Y51661D01*
G01X38466Y51642D01*
G01X38449Y51625D01*
G01X38430Y51608D01*
G01X38411Y51592D01*
G01X38391Y51577D01*
G01X38371Y51562D01*
G01X38349Y51549D01*
G01X38328Y51538D01*
G01X38305Y51527D01*
G01X38282Y51517D01*
G01X38259Y51509D01*
G01X38235Y51501D01*
G01X38211Y51495D01*
G01X38186Y51490D01*
G01X38162Y51486D01*
G01X38137Y51484D01*
G01X38112Y51483D01*
G01X38087Y51483D01*
G01X38062Y51484D01*
G01X38037Y51486D01*
G01X38013Y51490D01*
G01X37988Y51495D01*
G01X37964Y51501D01*
G01X37940Y51509D01*
G01X37917Y51517D01*
G01X37894Y51527D01*
G01X37871Y51538D01*
G01X37849Y51549D01*
G01X37828Y51562D01*
G01X37808Y51577D01*
G01X37788Y51592D01*
G01X37769Y51608D01*
G01X37750Y51625D01*
G01X37733Y51642D01*
G01X37716Y51661D01*
G01X37701Y51681D01*
G01X37686Y51701D01*
G01X37673Y51722D01*
G01X37660Y51743D01*
G01X37649Y51766D01*
G01X37639Y51788D01*
G01X37630Y51811D01*
G01X37622Y51835D01*
G01X37615Y51859D01*
G01X37609Y51883D01*
G01X37605Y51908D01*
G01X37602Y51933D01*
G01X37600Y51958D01*
G01X37600Y51983D01*
G01X37600Y52983D01*
G01X38112Y52983D01*
G37*
G36*
G01X40373Y41569D02*
G01X39886Y41569D01*
G01X39886Y42569D01*
G01X39886Y42593D01*
G01X39888Y42618D01*
G01X39891Y42643D01*
G01X39895Y42668D01*
G01X39901Y42692D01*
G01X39908Y42716D01*
G01X39916Y42740D01*
G01X39925Y42763D01*
G01X39935Y42785D01*
G01X39946Y42808D01*
G01X39959Y42829D01*
G01X39972Y42850D01*
G01X39987Y42870D01*
G01X40002Y42890D01*
G01X40019Y42909D01*
G01X40036Y42926D01*
G01X40055Y42943D01*
G01X40074Y42959D01*
G01X40094Y42974D01*
G01X40114Y42989D01*
G01X40136Y43002D01*
G01X40157Y43013D01*
G01X40180Y43024D01*
G01X40203Y43034D01*
G01X40226Y43042D01*
G01X40250Y43050D01*
G01X40274Y43056D01*
G01X40299Y43061D01*
G01X40323Y43065D01*
G01X40348Y43067D01*
G01X40373Y43068D01*
G01X40398Y43068D01*
G01X40423Y43067D01*
G01X40448Y43065D01*
G01X40472Y43061D01*
G01X40497Y43056D01*
G01X40521Y43050D01*
G01X40545Y43042D01*
G01X40568Y43034D01*
G01X40591Y43024D01*
G01X40614Y43013D01*
G01X40636Y43002D01*
G01X40657Y42989D01*
G01X40677Y42974D01*
G01X40697Y42959D01*
G01X40716Y42943D01*
G01X40735Y42926D01*
G01X40752Y42909D01*
G01X40769Y42890D01*
G01X40784Y42870D01*
G01X40799Y42850D01*
G01X40812Y42829D01*
G01X40825Y42808D01*
G01X40836Y42785D01*
G01X40846Y42763D01*
G01X40855Y42740D01*
G01X40863Y42716D01*
G01X40870Y42692D01*
G01X40876Y42668D01*
G01X40880Y42643D01*
G01X40883Y42618D01*
G01X40885Y42593D01*
G01X40885Y42569D01*
G01X40885Y41569D01*
G01X40373Y41569D01*
G37*
G36*
G01X40398Y41299D02*
G01X40885Y41299D01*
G01X40885Y40299D01*
G01X40885Y40274D01*
G01X40883Y40249D01*
G01X40880Y40224D01*
G01X40876Y40199D01*
G01X40870Y40175D01*
G01X40863Y40151D01*
G01X40855Y40127D01*
G01X40846Y40104D01*
G01X40836Y40082D01*
G01X40825Y40059D01*
G01X40812Y40038D01*
G01X40799Y40017D01*
G01X40784Y39997D01*
G01X40769Y39977D01*
G01X40752Y39958D01*
G01X40735Y39941D01*
G01X40716Y39924D01*
G01X40697Y39908D01*
G01X40677Y39893D01*
G01X40657Y39878D01*
G01X40635Y39865D01*
G01X40614Y39854D01*
G01X40591Y39843D01*
G01X40568Y39833D01*
G01X40545Y39825D01*
G01X40521Y39817D01*
G01X40497Y39811D01*
G01X40472Y39806D01*
G01X40448Y39802D01*
G01X40423Y39800D01*
G01X40398Y39799D01*
G01X40373Y39799D01*
G01X40348Y39800D01*
G01X40323Y39802D01*
G01X40299Y39806D01*
G01X40274Y39811D01*
G01X40250Y39817D01*
G01X40226Y39825D01*
G01X40203Y39833D01*
G01X40180Y39843D01*
G01X40157Y39854D01*
G01X40135Y39865D01*
G01X40114Y39878D01*
G01X40094Y39893D01*
G01X40074Y39908D01*
G01X40055Y39924D01*
G01X40036Y39941D01*
G01X40019Y39958D01*
G01X40002Y39977D01*
G01X39987Y39997D01*
G01X39972Y40017D01*
G01X39959Y40038D01*
G01X39946Y40059D01*
G01X39935Y40082D01*
G01X39925Y40104D01*
G01X39916Y40127D01*
G01X39908Y40151D01*
G01X39901Y40175D01*
G01X39895Y40199D01*
G01X39891Y40224D01*
G01X39888Y40249D01*
G01X39886Y40274D01*
G01X39886Y40299D01*
G01X39886Y41299D01*
G01X40398Y41299D01*
G37*
G36*
G01X32499Y32933D02*
G01X32012Y32933D01*
G01X32012Y33933D01*
G01X32012Y33957D01*
G01X32014Y33982D01*
G01X32017Y34007D01*
G01X32021Y34032D01*
G01X32027Y34056D01*
G01X32034Y34080D01*
G01X32042Y34104D01*
G01X32051Y34127D01*
G01X32061Y34149D01*
G01X32072Y34172D01*
G01X32085Y34193D01*
G01X32098Y34214D01*
G01X32113Y34234D01*
G01X32128Y34254D01*
G01X32145Y34273D01*
G01X32162Y34290D01*
G01X32181Y34307D01*
G01X32200Y34323D01*
G01X32220Y34338D01*
G01X32240Y34353D01*
G01X32262Y34366D01*
G01X32283Y34377D01*
G01X32306Y34388D01*
G01X32329Y34398D01*
G01X32352Y34406D01*
G01X32376Y34414D01*
G01X32400Y34420D01*
G01X32425Y34425D01*
G01X32449Y34429D01*
G01X32474Y34431D01*
G01X32499Y34432D01*
G01X32524Y34432D01*
G01X32549Y34431D01*
G01X32574Y34429D01*
G01X32598Y34425D01*
G01X32623Y34420D01*
G01X32647Y34414D01*
G01X32671Y34406D01*
G01X32694Y34398D01*
G01X32717Y34388D01*
G01X32740Y34377D01*
G01X32762Y34366D01*
G01X32783Y34353D01*
G01X32803Y34338D01*
G01X32823Y34323D01*
G01X32842Y34307D01*
G01X32861Y34290D01*
G01X32878Y34273D01*
G01X32895Y34254D01*
G01X32910Y34234D01*
G01X32925Y34214D01*
G01X32938Y34193D01*
G01X32951Y34172D01*
G01X32962Y34149D01*
G01X32972Y34127D01*
G01X32981Y34104D01*
G01X32989Y34080D01*
G01X32996Y34056D01*
G01X33002Y34032D01*
G01X33006Y34007D01*
G01X33009Y33982D01*
G01X33011Y33957D01*
G01X33011Y33933D01*
G01X33011Y32933D01*
G01X32499Y32933D01*
G37*
G36*
G01X32524Y32663D02*
G01X33011Y32663D01*
G01X33011Y31663D01*
G01X33011Y31638D01*
G01X33009Y31613D01*
G01X33006Y31588D01*
G01X33002Y31563D01*
G01X32996Y31539D01*
G01X32989Y31515D01*
G01X32981Y31491D01*
G01X32972Y31468D01*
G01X32962Y31446D01*
G01X32951Y31423D01*
G01X32938Y31402D01*
G01X32925Y31381D01*
G01X32910Y31361D01*
G01X32895Y31341D01*
G01X32878Y31322D01*
G01X32861Y31305D01*
G01X32842Y31288D01*
G01X32823Y31272D01*
G01X32803Y31257D01*
G01X32783Y31242D01*
G01X32761Y31229D01*
G01X32740Y31218D01*
G01X32717Y31207D01*
G01X32694Y31197D01*
G01X32671Y31189D01*
G01X32647Y31181D01*
G01X32623Y31175D01*
G01X32598Y31170D01*
G01X32574Y31166D01*
G01X32549Y31164D01*
G01X32524Y31163D01*
G01X32499Y31163D01*
G01X32474Y31164D01*
G01X32449Y31166D01*
G01X32425Y31170D01*
G01X32400Y31175D01*
G01X32376Y31181D01*
G01X32352Y31189D01*
G01X32329Y31197D01*
G01X32306Y31207D01*
G01X32283Y31218D01*
G01X32261Y31229D01*
G01X32240Y31242D01*
G01X32220Y31257D01*
G01X32200Y31272D01*
G01X32181Y31288D01*
G01X32162Y31305D01*
G01X32145Y31322D01*
G01X32128Y31341D01*
G01X32113Y31361D01*
G01X32098Y31381D01*
G01X32085Y31402D01*
G01X32072Y31423D01*
G01X32061Y31446D01*
G01X32051Y31468D01*
G01X32042Y31491D01*
G01X32034Y31515D01*
G01X32027Y31539D01*
G01X32021Y31563D01*
G01X32017Y31588D01*
G01X32014Y31613D01*
G01X32012Y31638D01*
G01X32012Y31663D01*
G01X32012Y32663D01*
G01X32524Y32663D01*
G37*
G36*
G01X27419Y32933D02*
G01X26932Y32933D01*
G01X26932Y33933D01*
G01X26932Y33957D01*
G01X26934Y33982D01*
G01X26937Y34007D01*
G01X26941Y34032D01*
G01X26947Y34056D01*
G01X26954Y34080D01*
G01X26962Y34104D01*
G01X26971Y34127D01*
G01X26981Y34149D01*
G01X26992Y34172D01*
G01X27005Y34193D01*
G01X27018Y34214D01*
G01X27033Y34234D01*
G01X27048Y34254D01*
G01X27065Y34273D01*
G01X27082Y34290D01*
G01X27101Y34307D01*
G01X27120Y34323D01*
G01X27140Y34338D01*
G01X27160Y34353D01*
G01X27182Y34366D01*
G01X27203Y34377D01*
G01X27226Y34388D01*
G01X27249Y34398D01*
G01X27272Y34406D01*
G01X27296Y34414D01*
G01X27320Y34420D01*
G01X27345Y34425D01*
G01X27369Y34429D01*
G01X27394Y34431D01*
G01X27419Y34432D01*
G01X27444Y34432D01*
G01X27469Y34431D01*
G01X27494Y34429D01*
G01X27518Y34425D01*
G01X27543Y34420D01*
G01X27567Y34414D01*
G01X27591Y34406D01*
G01X27614Y34398D01*
G01X27637Y34388D01*
G01X27660Y34377D01*
G01X27682Y34366D01*
G01X27703Y34353D01*
G01X27723Y34338D01*
G01X27743Y34323D01*
G01X27762Y34307D01*
G01X27781Y34290D01*
G01X27798Y34273D01*
G01X27815Y34254D01*
G01X27830Y34234D01*
G01X27845Y34214D01*
G01X27858Y34193D01*
G01X27871Y34172D01*
G01X27882Y34149D01*
G01X27892Y34127D01*
G01X27901Y34104D01*
G01X27909Y34080D01*
G01X27916Y34056D01*
G01X27922Y34032D01*
G01X27926Y34007D01*
G01X27929Y33982D01*
G01X27931Y33957D01*
G01X27931Y33933D01*
G01X27931Y32933D01*
G01X27419Y32933D01*
G37*
G36*
G01X27444Y32663D02*
G01X27931Y32663D01*
G01X27931Y31663D01*
G01X27931Y31638D01*
G01X27929Y31613D01*
G01X27926Y31588D01*
G01X27922Y31563D01*
G01X27916Y31539D01*
G01X27909Y31515D01*
G01X27901Y31491D01*
G01X27892Y31468D01*
G01X27882Y31446D01*
G01X27871Y31423D01*
G01X27858Y31402D01*
G01X27845Y31381D01*
G01X27830Y31361D01*
G01X27815Y31341D01*
G01X27798Y31322D01*
G01X27781Y31305D01*
G01X27762Y31288D01*
G01X27743Y31272D01*
G01X27723Y31257D01*
G01X27703Y31242D01*
G01X27681Y31229D01*
G01X27660Y31218D01*
G01X27637Y31207D01*
G01X27614Y31197D01*
G01X27591Y31189D01*
G01X27567Y31181D01*
G01X27543Y31175D01*
G01X27518Y31170D01*
G01X27494Y31166D01*
G01X27469Y31164D01*
G01X27444Y31163D01*
G01X27419Y31163D01*
G01X27394Y31164D01*
G01X27369Y31166D01*
G01X27345Y31170D01*
G01X27320Y31175D01*
G01X27296Y31181D01*
G01X27272Y31189D01*
G01X27249Y31197D01*
G01X27226Y31207D01*
G01X27203Y31218D01*
G01X27181Y31229D01*
G01X27160Y31242D01*
G01X27140Y31257D01*
G01X27120Y31272D01*
G01X27101Y31288D01*
G01X27082Y31305D01*
G01X27065Y31322D01*
G01X27048Y31341D01*
G01X27033Y31361D01*
G01X27018Y31381D01*
G01X27005Y31402D01*
G01X26992Y31423D01*
G01X26981Y31446D01*
G01X26971Y31468D01*
G01X26962Y31491D01*
G01X26954Y31515D01*
G01X26947Y31539D01*
G01X26941Y31563D01*
G01X26937Y31588D01*
G01X26934Y31613D01*
G01X26932Y31638D01*
G01X26932Y31663D01*
G01X26932Y32663D01*
G01X27444Y32663D01*
G37*
G54D17*
G01X12936Y108234D03*
G01X15036Y108234D03*
G01X12936Y110774D03*
G01X15036Y110774D03*
G36*
G01X15565Y114867D02*
G01X14405Y114867D01*
G01X14405Y116337D01*
G01X15565Y116337D01*
G01X15565Y114867D01*
G37*
G36*
G01X13533Y114867D02*
G01X12373Y114867D01*
G01X12373Y116337D01*
G01X13533Y116337D01*
G01X13533Y114867D01*
G37*
G36*
G01X15565Y119693D02*
G01X14405Y119693D01*
G01X14405Y121163D01*
G01X15565Y121163D01*
G01X15565Y119693D01*
G37*
G36*
G01X13533Y119693D02*
G01X12373Y119693D01*
G01X12373Y121163D01*
G01X13533Y121163D01*
G01X13533Y119693D01*
G37*
G36*
G01X17807Y113244D02*
G01X17807Y114404D01*
G01X19277Y114404D01*
G01X19277Y113244D01*
G01X17807Y113244D01*
G37*
G36*
G01X17807Y115276D02*
G01X17807Y116436D01*
G01X19277Y116436D01*
G01X19277Y115276D01*
G01X17807Y115276D01*
G37*
G36*
G01X17807Y118070D02*
G01X17807Y119230D01*
G01X19277Y119230D01*
G01X19277Y118070D01*
G01X17807Y118070D01*
G37*
G36*
G01X17807Y120102D02*
G01X17807Y121262D01*
G01X19277Y121262D01*
G01X19277Y120102D01*
G01X17807Y120102D01*
G37*
G36*
G01X20645Y107501D02*
G01X19485Y107501D01*
G01X19485Y108971D01*
G01X20645Y108971D01*
G01X20645Y107501D01*
G37*
G36*
G01X18613Y107501D02*
G01X17453Y107501D01*
G01X17453Y108971D01*
G01X18613Y108971D01*
G01X18613Y107501D01*
G37*
G36*
G01X20645Y110041D02*
G01X19485Y110041D01*
G01X19485Y111511D01*
G01X20645Y111511D01*
G01X20645Y110041D01*
G37*
G36*
G01X18613Y110041D02*
G01X17453Y110041D01*
G01X17453Y111511D01*
G01X18613Y111511D01*
G01X18613Y110041D01*
G37*
G36*
G01X25970Y115344D02*
G01X24920Y115344D01*
G01X24920Y115994D01*
G01X25970Y115994D01*
G01X25970Y115344D01*
G37*
G36*
G01X21821Y115335D02*
G01X20771Y115335D01*
G01X20771Y115985D01*
G01X21821Y115985D01*
G01X21821Y115335D01*
G37*
G36*
G01X25970Y113177D02*
G01X24920Y113177D01*
G01X24920Y113827D01*
G01X25970Y113827D01*
G01X25970Y113177D01*
G37*
G36*
G01X21815Y113185D02*
G01X20765Y113185D01*
G01X20765Y113835D01*
G01X21815Y113835D01*
G01X21815Y113185D01*
G37*
G36*
G01X25970Y120170D02*
G01X24920Y120170D01*
G01X24920Y120820D01*
G01X25970Y120820D01*
G01X25970Y120170D01*
G37*
G36*
G01X21821Y120161D02*
G01X20771Y120161D01*
G01X20771Y120811D01*
G01X21821Y120811D01*
G01X21821Y120161D01*
G37*
G36*
G01X25970Y118003D02*
G01X24920Y118003D01*
G01X24920Y118653D01*
G01X25970Y118653D01*
G01X25970Y118003D01*
G37*
G36*
G01X21815Y118011D02*
G01X20765Y118011D01*
G01X20765Y118661D01*
G01X21815Y118661D01*
G01X21815Y118011D01*
G37*
G36*
G01X45707Y53253D02*
G01X45220Y53253D01*
G01X45220Y54253D01*
G01X45220Y54277D01*
G01X45222Y54302D01*
G01X45225Y54327D01*
G01X45229Y54352D01*
G01X45235Y54376D01*
G01X45242Y54400D01*
G01X45250Y54424D01*
G01X45259Y54447D01*
G01X45269Y54469D01*
G01X45280Y54492D01*
G01X45293Y54513D01*
G01X45306Y54534D01*
G01X45321Y54554D01*
G01X45336Y54574D01*
G01X45353Y54593D01*
G01X45370Y54610D01*
G01X45389Y54627D01*
G01X45408Y54643D01*
G01X45428Y54658D01*
G01X45448Y54673D01*
G01X45470Y54686D01*
G01X45491Y54697D01*
G01X45514Y54708D01*
G01X45537Y54718D01*
G01X45560Y54726D01*
G01X45584Y54734D01*
G01X45608Y54740D01*
G01X45633Y54745D01*
G01X45657Y54749D01*
G01X45682Y54751D01*
G01X45707Y54752D01*
G01X45732Y54752D01*
G01X45757Y54751D01*
G01X45782Y54749D01*
G01X45806Y54745D01*
G01X45831Y54740D01*
G01X45855Y54734D01*
G01X45879Y54726D01*
G01X45902Y54718D01*
G01X45925Y54708D01*
G01X45948Y54697D01*
G01X45970Y54686D01*
G01X45991Y54673D01*
G01X46011Y54658D01*
G01X46031Y54643D01*
G01X46050Y54627D01*
G01X46069Y54610D01*
G01X46086Y54593D01*
G01X46103Y54574D01*
G01X46118Y54554D01*
G01X46133Y54534D01*
G01X46146Y54513D01*
G01X46159Y54492D01*
G01X46170Y54469D01*
G01X46180Y54447D01*
G01X46189Y54424D01*
G01X46197Y54400D01*
G01X46204Y54376D01*
G01X46210Y54352D01*
G01X46214Y54327D01*
G01X46217Y54302D01*
G01X46219Y54277D01*
G01X46219Y54253D01*
G01X46219Y53253D01*
G01X45707Y53253D01*
G37*
G36*
G01X45732Y52983D02*
G01X46219Y52983D01*
G01X46219Y51983D01*
G01X46219Y51958D01*
G01X46217Y51933D01*
G01X46214Y51908D01*
G01X46210Y51883D01*
G01X46204Y51859D01*
G01X46197Y51835D01*
G01X46189Y51811D01*
G01X46180Y51788D01*
G01X46170Y51766D01*
G01X46159Y51743D01*
G01X46146Y51722D01*
G01X46133Y51701D01*
G01X46118Y51681D01*
G01X46103Y51661D01*
G01X46086Y51642D01*
G01X46069Y51625D01*
G01X46050Y51608D01*
G01X46031Y51592D01*
G01X46011Y51577D01*
G01X45991Y51562D01*
G01X45969Y51549D01*
G01X45948Y51538D01*
G01X45925Y51527D01*
G01X45902Y51517D01*
G01X45879Y51509D01*
G01X45855Y51501D01*
G01X45831Y51495D01*
G01X45806Y51490D01*
G01X45782Y51486D01*
G01X45757Y51484D01*
G01X45732Y51483D01*
G01X45707Y51483D01*
G01X45682Y51484D01*
G01X45657Y51486D01*
G01X45633Y51490D01*
G01X45608Y51495D01*
G01X45584Y51501D01*
G01X45560Y51509D01*
G01X45537Y51517D01*
G01X45514Y51527D01*
G01X45491Y51538D01*
G01X45469Y51549D01*
G01X45448Y51562D01*
G01X45428Y51577D01*
G01X45408Y51592D01*
G01X45389Y51608D01*
G01X45370Y51625D01*
G01X45353Y51642D01*
G01X45336Y51661D01*
G01X45321Y51681D01*
G01X45306Y51701D01*
G01X45293Y51722D01*
G01X45280Y51743D01*
G01X45269Y51766D01*
G01X45259Y51788D01*
G01X45250Y51811D01*
G01X45242Y51835D01*
G01X45235Y51859D01*
G01X45229Y51883D01*
G01X45225Y51908D01*
G01X45222Y51933D01*
G01X45220Y51958D01*
G01X45220Y51983D01*
G01X45220Y52983D01*
G01X45732Y52983D01*
G37*
G36*
G01X43167Y53253D02*
G01X42680Y53253D01*
G01X42680Y54253D01*
G01X42680Y54277D01*
G01X42682Y54302D01*
G01X42685Y54327D01*
G01X42689Y54352D01*
G01X42695Y54376D01*
G01X42702Y54400D01*
G01X42710Y54424D01*
G01X42719Y54447D01*
G01X42729Y54469D01*
G01X42740Y54492D01*
G01X42753Y54513D01*
G01X42766Y54534D01*
G01X42781Y54554D01*
G01X42796Y54574D01*
G01X42813Y54593D01*
G01X42830Y54610D01*
G01X42849Y54627D01*
G01X42868Y54643D01*
G01X42888Y54658D01*
G01X42908Y54673D01*
G01X42930Y54686D01*
G01X42951Y54697D01*
G01X42974Y54708D01*
G01X42997Y54718D01*
G01X43020Y54726D01*
G01X43044Y54734D01*
G01X43068Y54740D01*
G01X43093Y54745D01*
G01X43117Y54749D01*
G01X43142Y54751D01*
G01X43167Y54752D01*
G01X43192Y54752D01*
G01X43217Y54751D01*
G01X43242Y54749D01*
G01X43266Y54745D01*
G01X43291Y54740D01*
G01X43315Y54734D01*
G01X43339Y54726D01*
G01X43362Y54718D01*
G01X43385Y54708D01*
G01X43408Y54697D01*
G01X43430Y54686D01*
G01X43451Y54673D01*
G01X43471Y54658D01*
G01X43491Y54643D01*
G01X43510Y54627D01*
G01X43529Y54610D01*
G01X43546Y54593D01*
G01X43563Y54574D01*
G01X43578Y54554D01*
G01X43593Y54534D01*
G01X43606Y54513D01*
G01X43619Y54492D01*
G01X43630Y54469D01*
G01X43640Y54447D01*
G01X43649Y54424D01*
G01X43657Y54400D01*
G01X43664Y54376D01*
G01X43670Y54352D01*
G01X43674Y54327D01*
G01X43677Y54302D01*
G01X43679Y54277D01*
G01X43679Y54253D01*
G01X43679Y53253D01*
G01X43167Y53253D01*
G37*
G36*
G01X43192Y52983D02*
G01X43679Y52983D01*
G01X43679Y51983D01*
G01X43679Y51958D01*
G01X43677Y51933D01*
G01X43674Y51908D01*
G01X43670Y51883D01*
G01X43664Y51859D01*
G01X43657Y51835D01*
G01X43649Y51811D01*
G01X43640Y51788D01*
G01X43630Y51766D01*
G01X43619Y51743D01*
G01X43606Y51722D01*
G01X43593Y51701D01*
G01X43578Y51681D01*
G01X43563Y51661D01*
G01X43546Y51642D01*
G01X43529Y51625D01*
G01X43510Y51608D01*
G01X43491Y51592D01*
G01X43471Y51577D01*
G01X43451Y51562D01*
G01X43429Y51549D01*
G01X43408Y51538D01*
G01X43385Y51527D01*
G01X43362Y51517D01*
G01X43339Y51509D01*
G01X43315Y51501D01*
G01X43291Y51495D01*
G01X43266Y51490D01*
G01X43242Y51486D01*
G01X43217Y51484D01*
G01X43192Y51483D01*
G01X43167Y51483D01*
G01X43142Y51484D01*
G01X43117Y51486D01*
G01X43093Y51490D01*
G01X43068Y51495D01*
G01X43044Y51501D01*
G01X43020Y51509D01*
G01X42997Y51517D01*
G01X42974Y51527D01*
G01X42951Y51538D01*
G01X42929Y51549D01*
G01X42908Y51562D01*
G01X42888Y51577D01*
G01X42868Y51592D01*
G01X42849Y51608D01*
G01X42830Y51625D01*
G01X42813Y51642D01*
G01X42796Y51661D01*
G01X42781Y51681D01*
G01X42766Y51701D01*
G01X42753Y51722D01*
G01X42740Y51743D01*
G01X42729Y51766D01*
G01X42719Y51788D01*
G01X42710Y51811D01*
G01X42702Y51835D01*
G01X42695Y51859D01*
G01X42689Y51883D01*
G01X42685Y51908D01*
G01X42682Y51933D01*
G01X42680Y51958D01*
G01X42680Y51983D01*
G01X42680Y52983D01*
G01X43192Y52983D01*
G37*
G36*
G01X45707Y68747D02*
G01X45220Y68747D01*
G01X45220Y69747D01*
G01X45220Y69771D01*
G01X45222Y69796D01*
G01X45225Y69821D01*
G01X45229Y69846D01*
G01X45235Y69870D01*
G01X45242Y69894D01*
G01X45250Y69918D01*
G01X45259Y69941D01*
G01X45269Y69963D01*
G01X45280Y69986D01*
G01X45293Y70007D01*
G01X45306Y70028D01*
G01X45321Y70048D01*
G01X45336Y70068D01*
G01X45353Y70087D01*
G01X45370Y70104D01*
G01X45389Y70121D01*
G01X45408Y70137D01*
G01X45428Y70152D01*
G01X45448Y70167D01*
G01X45470Y70180D01*
G01X45491Y70191D01*
G01X45514Y70202D01*
G01X45537Y70212D01*
G01X45560Y70220D01*
G01X45584Y70228D01*
G01X45608Y70234D01*
G01X45633Y70239D01*
G01X45657Y70243D01*
G01X45682Y70245D01*
G01X45707Y70246D01*
G01X45732Y70246D01*
G01X45757Y70245D01*
G01X45782Y70243D01*
G01X45806Y70239D01*
G01X45831Y70234D01*
G01X45855Y70228D01*
G01X45879Y70220D01*
G01X45902Y70212D01*
G01X45925Y70202D01*
G01X45948Y70191D01*
G01X45970Y70180D01*
G01X45991Y70167D01*
G01X46011Y70152D01*
G01X46031Y70137D01*
G01X46050Y70121D01*
G01X46069Y70104D01*
G01X46086Y70087D01*
G01X46103Y70068D01*
G01X46118Y70048D01*
G01X46133Y70028D01*
G01X46146Y70007D01*
G01X46159Y69986D01*
G01X46170Y69963D01*
G01X46180Y69941D01*
G01X46189Y69918D01*
G01X46197Y69894D01*
G01X46204Y69870D01*
G01X46210Y69846D01*
G01X46214Y69821D01*
G01X46217Y69796D01*
G01X46219Y69771D01*
G01X46219Y69747D01*
G01X46219Y68747D01*
G01X45707Y68747D01*
G37*
G36*
G01X45732Y68477D02*
G01X46219Y68477D01*
G01X46219Y67477D01*
G01X46219Y67452D01*
G01X46217Y67427D01*
G01X46214Y67402D01*
G01X46210Y67377D01*
G01X46204Y67353D01*
G01X46197Y67329D01*
G01X46189Y67305D01*
G01X46180Y67282D01*
G01X46170Y67260D01*
G01X46159Y67237D01*
G01X46146Y67216D01*
G01X46133Y67195D01*
G01X46118Y67175D01*
G01X46103Y67155D01*
G01X46086Y67136D01*
G01X46069Y67119D01*
G01X46050Y67102D01*
G01X46031Y67086D01*
G01X46011Y67071D01*
G01X45991Y67056D01*
G01X45969Y67043D01*
G01X45948Y67032D01*
G01X45925Y67021D01*
G01X45902Y67011D01*
G01X45879Y67003D01*
G01X45855Y66995D01*
G01X45831Y66989D01*
G01X45806Y66984D01*
G01X45782Y66980D01*
G01X45757Y66978D01*
G01X45732Y66977D01*
G01X45707Y66977D01*
G01X45682Y66978D01*
G01X45657Y66980D01*
G01X45633Y66984D01*
G01X45608Y66989D01*
G01X45584Y66995D01*
G01X45560Y67003D01*
G01X45537Y67011D01*
G01X45514Y67021D01*
G01X45491Y67032D01*
G01X45469Y67043D01*
G01X45448Y67056D01*
G01X45428Y67071D01*
G01X45408Y67086D01*
G01X45389Y67102D01*
G01X45370Y67119D01*
G01X45353Y67136D01*
G01X45336Y67155D01*
G01X45321Y67175D01*
G01X45306Y67195D01*
G01X45293Y67216D01*
G01X45280Y67237D01*
G01X45269Y67260D01*
G01X45259Y67282D01*
G01X45250Y67305D01*
G01X45242Y67329D01*
G01X45235Y67353D01*
G01X45229Y67377D01*
G01X45225Y67402D01*
G01X45222Y67427D01*
G01X45220Y67452D01*
G01X45220Y67477D01*
G01X45220Y68477D01*
G01X45732Y68477D01*
G37*
G36*
G01X39865Y81701D02*
G01X39378Y81701D01*
G01X39378Y82701D01*
G01X39378Y82725D01*
G01X39380Y82750D01*
G01X39383Y82775D01*
G01X39387Y82800D01*
G01X39393Y82824D01*
G01X39400Y82848D01*
G01X39408Y82872D01*
G01X39417Y82895D01*
G01X39427Y82917D01*
G01X39438Y82940D01*
G01X39451Y82961D01*
G01X39464Y82982D01*
G01X39479Y83002D01*
G01X39494Y83022D01*
G01X39511Y83041D01*
G01X39528Y83058D01*
G01X39547Y83075D01*
G01X39566Y83091D01*
G01X39586Y83106D01*
G01X39606Y83121D01*
G01X39628Y83134D01*
G01X39649Y83145D01*
G01X39672Y83156D01*
G01X39695Y83166D01*
G01X39718Y83174D01*
G01X39742Y83182D01*
G01X39766Y83188D01*
G01X39791Y83193D01*
G01X39815Y83197D01*
G01X39840Y83199D01*
G01X39865Y83200D01*
G01X39890Y83200D01*
G01X39915Y83199D01*
G01X39940Y83197D01*
G01X39964Y83193D01*
G01X39989Y83188D01*
G01X40013Y83182D01*
G01X40037Y83174D01*
G01X40060Y83166D01*
G01X40083Y83156D01*
G01X40106Y83145D01*
G01X40128Y83134D01*
G01X40149Y83121D01*
G01X40169Y83106D01*
G01X40189Y83091D01*
G01X40208Y83075D01*
G01X40227Y83058D01*
G01X40244Y83041D01*
G01X40261Y83022D01*
G01X40276Y83002D01*
G01X40291Y82982D01*
G01X40304Y82961D01*
G01X40317Y82940D01*
G01X40328Y82917D01*
G01X40338Y82895D01*
G01X40347Y82872D01*
G01X40355Y82848D01*
G01X40362Y82824D01*
G01X40368Y82800D01*
G01X40372Y82775D01*
G01X40375Y82750D01*
G01X40377Y82725D01*
G01X40377Y82701D01*
G01X40377Y81701D01*
G01X39865Y81701D01*
G37*
G36*
G01X39890Y81431D02*
G01X40377Y81431D01*
G01X40377Y80431D01*
G01X40377Y80406D01*
G01X40375Y80381D01*
G01X40372Y80356D01*
G01X40368Y80331D01*
G01X40362Y80307D01*
G01X40355Y80283D01*
G01X40347Y80259D01*
G01X40338Y80236D01*
G01X40328Y80214D01*
G01X40317Y80191D01*
G01X40304Y80170D01*
G01X40291Y80149D01*
G01X40276Y80129D01*
G01X40261Y80109D01*
G01X40244Y80090D01*
G01X40227Y80073D01*
G01X40208Y80056D01*
G01X40189Y80040D01*
G01X40169Y80025D01*
G01X40149Y80010D01*
G01X40127Y79997D01*
G01X40106Y79986D01*
G01X40083Y79975D01*
G01X40060Y79965D01*
G01X40037Y79957D01*
G01X40013Y79949D01*
G01X39989Y79943D01*
G01X39964Y79938D01*
G01X39940Y79934D01*
G01X39915Y79932D01*
G01X39890Y79931D01*
G01X39865Y79931D01*
G01X39840Y79932D01*
G01X39815Y79934D01*
G01X39791Y79938D01*
G01X39766Y79943D01*
G01X39742Y79949D01*
G01X39718Y79957D01*
G01X39695Y79965D01*
G01X39672Y79975D01*
G01X39649Y79986D01*
G01X39627Y79997D01*
G01X39606Y80010D01*
G01X39586Y80025D01*
G01X39566Y80040D01*
G01X39547Y80056D01*
G01X39528Y80073D01*
G01X39511Y80090D01*
G01X39494Y80109D01*
G01X39479Y80129D01*
G01X39464Y80149D01*
G01X39451Y80170D01*
G01X39438Y80191D01*
G01X39427Y80214D01*
G01X39417Y80236D01*
G01X39408Y80259D01*
G01X39400Y80283D01*
G01X39393Y80307D01*
G01X39387Y80331D01*
G01X39383Y80356D01*
G01X39380Y80381D01*
G01X39378Y80406D01*
G01X39378Y80431D01*
G01X39378Y81431D01*
G01X39890Y81431D01*
G37*
G36*
G01X41643Y81701D02*
G01X41156Y81701D01*
G01X41156Y82701D01*
G01X41156Y82725D01*
G01X41158Y82750D01*
G01X41161Y82775D01*
G01X41165Y82800D01*
G01X41171Y82824D01*
G01X41178Y82848D01*
G01X41186Y82872D01*
G01X41195Y82895D01*
G01X41205Y82917D01*
G01X41216Y82940D01*
G01X41229Y82961D01*
G01X41242Y82982D01*
G01X41257Y83002D01*
G01X41272Y83022D01*
G01X41289Y83041D01*
G01X41306Y83058D01*
G01X41325Y83075D01*
G01X41344Y83091D01*
G01X41364Y83106D01*
G01X41384Y83121D01*
G01X41406Y83134D01*
G01X41427Y83145D01*
G01X41450Y83156D01*
G01X41473Y83166D01*
G01X41496Y83174D01*
G01X41520Y83182D01*
G01X41544Y83188D01*
G01X41569Y83193D01*
G01X41593Y83197D01*
G01X41618Y83199D01*
G01X41643Y83200D01*
G01X41668Y83200D01*
G01X41693Y83199D01*
G01X41718Y83197D01*
G01X41742Y83193D01*
G01X41767Y83188D01*
G01X41791Y83182D01*
G01X41815Y83174D01*
G01X41838Y83166D01*
G01X41861Y83156D01*
G01X41884Y83145D01*
G01X41906Y83134D01*
G01X41927Y83121D01*
G01X41947Y83106D01*
G01X41967Y83091D01*
G01X41986Y83075D01*
G01X42005Y83058D01*
G01X42022Y83041D01*
G01X42039Y83022D01*
G01X42054Y83002D01*
G01X42069Y82982D01*
G01X42082Y82961D01*
G01X42095Y82940D01*
G01X42106Y82917D01*
G01X42116Y82895D01*
G01X42125Y82872D01*
G01X42133Y82848D01*
G01X42140Y82824D01*
G01X42146Y82800D01*
G01X42150Y82775D01*
G01X42153Y82750D01*
G01X42155Y82725D01*
G01X42155Y82701D01*
G01X42155Y81701D01*
G01X41643Y81701D01*
G37*
G36*
G01X41668Y81431D02*
G01X42155Y81431D01*
G01X42155Y80431D01*
G01X42155Y80406D01*
G01X42153Y80381D01*
G01X42150Y80356D01*
G01X42146Y80331D01*
G01X42140Y80307D01*
G01X42133Y80283D01*
G01X42125Y80259D01*
G01X42116Y80236D01*
G01X42106Y80214D01*
G01X42095Y80191D01*
G01X42082Y80170D01*
G01X42069Y80149D01*
G01X42054Y80129D01*
G01X42039Y80109D01*
G01X42022Y80090D01*
G01X42005Y80073D01*
G01X41986Y80056D01*
G01X41967Y80040D01*
G01X41947Y80025D01*
G01X41927Y80010D01*
G01X41905Y79997D01*
G01X41884Y79986D01*
G01X41861Y79975D01*
G01X41838Y79965D01*
G01X41815Y79957D01*
G01X41791Y79949D01*
G01X41767Y79943D01*
G01X41742Y79938D01*
G01X41718Y79934D01*
G01X41693Y79932D01*
G01X41668Y79931D01*
G01X41643Y79931D01*
G01X41618Y79932D01*
G01X41593Y79934D01*
G01X41569Y79938D01*
G01X41544Y79943D01*
G01X41520Y79949D01*
G01X41496Y79957D01*
G01X41473Y79965D01*
G01X41450Y79975D01*
G01X41427Y79986D01*
G01X41405Y79997D01*
G01X41384Y80010D01*
G01X41364Y80025D01*
G01X41344Y80040D01*
G01X41325Y80056D01*
G01X41306Y80073D01*
G01X41289Y80090D01*
G01X41272Y80109D01*
G01X41257Y80129D01*
G01X41242Y80149D01*
G01X41229Y80170D01*
G01X41216Y80191D01*
G01X41205Y80214D01*
G01X41195Y80236D01*
G01X41186Y80259D01*
G01X41178Y80283D01*
G01X41171Y80307D01*
G01X41165Y80331D01*
G01X41161Y80356D01*
G01X41158Y80381D01*
G01X41156Y80406D01*
G01X41156Y80431D01*
G01X41156Y81431D01*
G01X41668Y81431D01*
G37*
G36*
G01X38087Y81701D02*
G01X37600Y81701D01*
G01X37600Y82701D01*
G01X37600Y82725D01*
G01X37602Y82750D01*
G01X37605Y82775D01*
G01X37609Y82800D01*
G01X37615Y82824D01*
G01X37622Y82848D01*
G01X37630Y82872D01*
G01X37639Y82895D01*
G01X37649Y82917D01*
G01X37660Y82940D01*
G01X37673Y82961D01*
G01X37686Y82982D01*
G01X37701Y83002D01*
G01X37716Y83022D01*
G01X37733Y83041D01*
G01X37750Y83058D01*
G01X37769Y83075D01*
G01X37788Y83091D01*
G01X37808Y83106D01*
G01X37828Y83121D01*
G01X37850Y83134D01*
G01X37871Y83145D01*
G01X37894Y83156D01*
G01X37917Y83166D01*
G01X37940Y83174D01*
G01X37964Y83182D01*
G01X37988Y83188D01*
G01X38013Y83193D01*
G01X38037Y83197D01*
G01X38062Y83199D01*
G01X38087Y83200D01*
G01X38112Y83200D01*
G01X38137Y83199D01*
G01X38162Y83197D01*
G01X38186Y83193D01*
G01X38211Y83188D01*
G01X38235Y83182D01*
G01X38259Y83174D01*
G01X38282Y83166D01*
G01X38305Y83156D01*
G01X38328Y83145D01*
G01X38350Y83134D01*
G01X38371Y83121D01*
G01X38391Y83106D01*
G01X38411Y83091D01*
G01X38430Y83075D01*
G01X38449Y83058D01*
G01X38466Y83041D01*
G01X38483Y83022D01*
G01X38498Y83002D01*
G01X38513Y82982D01*
G01X38526Y82961D01*
G01X38539Y82940D01*
G01X38550Y82917D01*
G01X38560Y82895D01*
G01X38569Y82872D01*
G01X38577Y82848D01*
G01X38584Y82824D01*
G01X38590Y82800D01*
G01X38594Y82775D01*
G01X38597Y82750D01*
G01X38599Y82725D01*
G01X38599Y82701D01*
G01X38599Y81701D01*
G01X38087Y81701D01*
G37*
G36*
G01X38112Y81431D02*
G01X38599Y81431D01*
G01X38599Y80431D01*
G01X38599Y80406D01*
G01X38597Y80381D01*
G01X38594Y80356D01*
G01X38590Y80331D01*
G01X38584Y80307D01*
G01X38577Y80283D01*
G01X38569Y80259D01*
G01X38560Y80236D01*
G01X38550Y80214D01*
G01X38539Y80191D01*
G01X38526Y80170D01*
G01X38513Y80149D01*
G01X38498Y80129D01*
G01X38483Y80109D01*
G01X38466Y80090D01*
G01X38449Y80073D01*
G01X38430Y80056D01*
G01X38411Y80040D01*
G01X38391Y80025D01*
G01X38371Y80010D01*
G01X38349Y79997D01*
G01X38328Y79986D01*
G01X38305Y79975D01*
G01X38282Y79965D01*
G01X38259Y79957D01*
G01X38235Y79949D01*
G01X38211Y79943D01*
G01X38186Y79938D01*
G01X38162Y79934D01*
G01X38137Y79932D01*
G01X38112Y79931D01*
G01X38087Y79931D01*
G01X38062Y79932D01*
G01X38037Y79934D01*
G01X38013Y79938D01*
G01X37988Y79943D01*
G01X37964Y79949D01*
G01X37940Y79957D01*
G01X37917Y79965D01*
G01X37894Y79975D01*
G01X37871Y79986D01*
G01X37849Y79997D01*
G01X37828Y80010D01*
G01X37808Y80025D01*
G01X37788Y80040D01*
G01X37769Y80056D01*
G01X37750Y80073D01*
G01X37733Y80090D01*
G01X37716Y80109D01*
G01X37701Y80129D01*
G01X37686Y80149D01*
G01X37673Y80170D01*
G01X37660Y80191D01*
G01X37649Y80214D01*
G01X37639Y80236D01*
G01X37630Y80259D01*
G01X37622Y80283D01*
G01X37615Y80307D01*
G01X37609Y80331D01*
G01X37605Y80356D01*
G01X37602Y80381D01*
G01X37600Y80406D01*
G01X37600Y80431D01*
G01X37600Y81431D01*
G01X38112Y81431D01*
G37*
G36*
G01X43421Y81701D02*
G01X42934Y81701D01*
G01X42934Y82701D01*
G01X42934Y82725D01*
G01X42936Y82750D01*
G01X42939Y82775D01*
G01X42943Y82800D01*
G01X42949Y82824D01*
G01X42956Y82848D01*
G01X42964Y82872D01*
G01X42973Y82895D01*
G01X42983Y82917D01*
G01X42994Y82940D01*
G01X43007Y82961D01*
G01X43020Y82982D01*
G01X43035Y83002D01*
G01X43050Y83022D01*
G01X43067Y83041D01*
G01X43084Y83058D01*
G01X43103Y83075D01*
G01X43122Y83091D01*
G01X43142Y83106D01*
G01X43162Y83121D01*
G01X43184Y83134D01*
G01X43205Y83145D01*
G01X43228Y83156D01*
G01X43251Y83166D01*
G01X43274Y83174D01*
G01X43298Y83182D01*
G01X43322Y83188D01*
G01X43347Y83193D01*
G01X43371Y83197D01*
G01X43396Y83199D01*
G01X43421Y83200D01*
G01X43446Y83200D01*
G01X43471Y83199D01*
G01X43496Y83197D01*
G01X43520Y83193D01*
G01X43545Y83188D01*
G01X43569Y83182D01*
G01X43593Y83174D01*
G01X43616Y83166D01*
G01X43639Y83156D01*
G01X43662Y83145D01*
G01X43684Y83134D01*
G01X43705Y83121D01*
G01X43725Y83106D01*
G01X43745Y83091D01*
G01X43764Y83075D01*
G01X43783Y83058D01*
G01X43800Y83041D01*
G01X43817Y83022D01*
G01X43832Y83002D01*
G01X43847Y82982D01*
G01X43860Y82961D01*
G01X43873Y82940D01*
G01X43884Y82917D01*
G01X43894Y82895D01*
G01X43903Y82872D01*
G01X43911Y82848D01*
G01X43918Y82824D01*
G01X43924Y82800D01*
G01X43928Y82775D01*
G01X43931Y82750D01*
G01X43933Y82725D01*
G01X43933Y82701D01*
G01X43933Y81701D01*
G01X43421Y81701D01*
G37*
G36*
G01X43446Y81431D02*
G01X43933Y81431D01*
G01X43933Y80431D01*
G01X43933Y80406D01*
G01X43931Y80381D01*
G01X43928Y80356D01*
G01X43924Y80331D01*
G01X43918Y80307D01*
G01X43911Y80283D01*
G01X43903Y80259D01*
G01X43894Y80236D01*
G01X43884Y80214D01*
G01X43873Y80191D01*
G01X43860Y80170D01*
G01X43847Y80149D01*
G01X43832Y80129D01*
G01X43817Y80109D01*
G01X43800Y80090D01*
G01X43783Y80073D01*
G01X43764Y80056D01*
G01X43745Y80040D01*
G01X43725Y80025D01*
G01X43705Y80010D01*
G01X43683Y79997D01*
G01X43662Y79986D01*
G01X43639Y79975D01*
G01X43616Y79965D01*
G01X43593Y79957D01*
G01X43569Y79949D01*
G01X43545Y79943D01*
G01X43520Y79938D01*
G01X43496Y79934D01*
G01X43471Y79932D01*
G01X43446Y79931D01*
G01X43421Y79931D01*
G01X43396Y79932D01*
G01X43371Y79934D01*
G01X43347Y79938D01*
G01X43322Y79943D01*
G01X43298Y79949D01*
G01X43274Y79957D01*
G01X43251Y79965D01*
G01X43228Y79975D01*
G01X43205Y79986D01*
G01X43183Y79997D01*
G01X43162Y80010D01*
G01X43142Y80025D01*
G01X43122Y80040D01*
G01X43103Y80056D01*
G01X43084Y80073D01*
G01X43067Y80090D01*
G01X43050Y80109D01*
G01X43035Y80129D01*
G01X43020Y80149D01*
G01X43007Y80170D01*
G01X42994Y80191D01*
G01X42983Y80214D01*
G01X42973Y80236D01*
G01X42964Y80259D01*
G01X42956Y80283D01*
G01X42949Y80307D01*
G01X42943Y80331D01*
G01X42939Y80356D01*
G01X42936Y80381D01*
G01X42934Y80406D01*
G01X42934Y80431D01*
G01X42934Y81431D01*
G01X43446Y81431D01*
G37*
G36*
G01X43421Y94147D02*
G01X42934Y94147D01*
G01X42934Y95147D01*
G01X42934Y95171D01*
G01X42936Y95196D01*
G01X42939Y95221D01*
G01X42943Y95246D01*
G01X42949Y95270D01*
G01X42956Y95294D01*
G01X42964Y95318D01*
G01X42973Y95341D01*
G01X42983Y95363D01*
G01X42994Y95386D01*
G01X43007Y95407D01*
G01X43020Y95428D01*
G01X43035Y95448D01*
G01X43050Y95468D01*
G01X43067Y95487D01*
G01X43084Y95504D01*
G01X43103Y95521D01*
G01X43122Y95537D01*
G01X43142Y95552D01*
G01X43162Y95567D01*
G01X43184Y95580D01*
G01X43205Y95591D01*
G01X43228Y95602D01*
G01X43251Y95612D01*
G01X43274Y95620D01*
G01X43298Y95628D01*
G01X43322Y95634D01*
G01X43347Y95639D01*
G01X43371Y95643D01*
G01X43396Y95645D01*
G01X43421Y95646D01*
G01X43446Y95646D01*
G01X43471Y95645D01*
G01X43496Y95643D01*
G01X43520Y95639D01*
G01X43545Y95634D01*
G01X43569Y95628D01*
G01X43593Y95620D01*
G01X43616Y95612D01*
G01X43639Y95602D01*
G01X43662Y95591D01*
G01X43684Y95580D01*
G01X43705Y95567D01*
G01X43725Y95552D01*
G01X43745Y95537D01*
G01X43764Y95521D01*
G01X43783Y95504D01*
G01X43800Y95487D01*
G01X43817Y95468D01*
G01X43832Y95448D01*
G01X43847Y95428D01*
G01X43860Y95407D01*
G01X43873Y95386D01*
G01X43884Y95363D01*
G01X43894Y95341D01*
G01X43903Y95318D01*
G01X43911Y95294D01*
G01X43918Y95270D01*
G01X43924Y95246D01*
G01X43928Y95221D01*
G01X43931Y95196D01*
G01X43933Y95171D01*
G01X43933Y95147D01*
G01X43933Y94147D01*
G01X43421Y94147D01*
G37*
G36*
G01X43446Y93877D02*
G01X43933Y93877D01*
G01X43933Y92877D01*
G01X43933Y92852D01*
G01X43931Y92827D01*
G01X43928Y92802D01*
G01X43924Y92777D01*
G01X43918Y92753D01*
G01X43911Y92729D01*
G01X43903Y92705D01*
G01X43894Y92682D01*
G01X43884Y92660D01*
G01X43873Y92637D01*
G01X43860Y92616D01*
G01X43847Y92595D01*
G01X43832Y92575D01*
G01X43817Y92555D01*
G01X43800Y92536D01*
G01X43783Y92519D01*
G01X43764Y92502D01*
G01X43745Y92486D01*
G01X43725Y92471D01*
G01X43705Y92456D01*
G01X43683Y92443D01*
G01X43662Y92432D01*
G01X43639Y92421D01*
G01X43616Y92411D01*
G01X43593Y92403D01*
G01X43569Y92395D01*
G01X43545Y92389D01*
G01X43520Y92384D01*
G01X43496Y92380D01*
G01X43471Y92378D01*
G01X43446Y92377D01*
G01X43421Y92377D01*
G01X43396Y92378D01*
G01X43371Y92380D01*
G01X43347Y92384D01*
G01X43322Y92389D01*
G01X43298Y92395D01*
G01X43274Y92403D01*
G01X43251Y92411D01*
G01X43228Y92421D01*
G01X43205Y92432D01*
G01X43183Y92443D01*
G01X43162Y92456D01*
G01X43142Y92471D01*
G01X43122Y92486D01*
G01X43103Y92502D01*
G01X43084Y92519D01*
G01X43067Y92536D01*
G01X43050Y92555D01*
G01X43035Y92575D01*
G01X43020Y92595D01*
G01X43007Y92616D01*
G01X42994Y92637D01*
G01X42983Y92660D01*
G01X42973Y92682D01*
G01X42964Y92705D01*
G01X42956Y92729D01*
G01X42949Y92753D01*
G01X42943Y92777D01*
G01X42939Y92802D01*
G01X42936Y92827D01*
G01X42934Y92852D01*
G01X42934Y92877D01*
G01X42934Y93877D01*
G01X43446Y93877D01*
G37*
G36*
G01X45453Y94147D02*
G01X44966Y94147D01*
G01X44966Y95147D01*
G01X44966Y95171D01*
G01X44968Y95196D01*
G01X44971Y95221D01*
G01X44975Y95246D01*
G01X44981Y95270D01*
G01X44988Y95294D01*
G01X44996Y95318D01*
G01X45005Y95341D01*
G01X45015Y95363D01*
G01X45026Y95386D01*
G01X45039Y95407D01*
G01X45052Y95428D01*
G01X45067Y95448D01*
G01X45082Y95468D01*
G01X45099Y95487D01*
G01X45116Y95504D01*
G01X45135Y95521D01*
G01X45154Y95537D01*
G01X45174Y95552D01*
G01X45194Y95567D01*
G01X45216Y95580D01*
G01X45237Y95591D01*
G01X45260Y95602D01*
G01X45283Y95612D01*
G01X45306Y95620D01*
G01X45330Y95628D01*
G01X45354Y95634D01*
G01X45379Y95639D01*
G01X45403Y95643D01*
G01X45428Y95645D01*
G01X45453Y95646D01*
G01X45478Y95646D01*
G01X45503Y95645D01*
G01X45528Y95643D01*
G01X45552Y95639D01*
G01X45577Y95634D01*
G01X45601Y95628D01*
G01X45625Y95620D01*
G01X45648Y95612D01*
G01X45671Y95602D01*
G01X45694Y95591D01*
G01X45716Y95580D01*
G01X45737Y95567D01*
G01X45757Y95552D01*
G01X45777Y95537D01*
G01X45796Y95521D01*
G01X45815Y95504D01*
G01X45832Y95487D01*
G01X45849Y95468D01*
G01X45864Y95448D01*
G01X45879Y95428D01*
G01X45892Y95407D01*
G01X45905Y95386D01*
G01X45916Y95363D01*
G01X45926Y95341D01*
G01X45935Y95318D01*
G01X45943Y95294D01*
G01X45950Y95270D01*
G01X45956Y95246D01*
G01X45960Y95221D01*
G01X45963Y95196D01*
G01X45965Y95171D01*
G01X45965Y95147D01*
G01X45965Y94147D01*
G01X45453Y94147D01*
G37*
G36*
G01X45478Y93877D02*
G01X45965Y93877D01*
G01X45965Y92877D01*
G01X45965Y92852D01*
G01X45963Y92827D01*
G01X45960Y92802D01*
G01X45956Y92777D01*
G01X45950Y92753D01*
G01X45943Y92729D01*
G01X45935Y92705D01*
G01X45926Y92682D01*
G01X45916Y92660D01*
G01X45905Y92637D01*
G01X45892Y92616D01*
G01X45879Y92595D01*
G01X45864Y92575D01*
G01X45849Y92555D01*
G01X45832Y92536D01*
G01X45815Y92519D01*
G01X45796Y92502D01*
G01X45777Y92486D01*
G01X45757Y92471D01*
G01X45737Y92456D01*
G01X45715Y92443D01*
G01X45694Y92432D01*
G01X45671Y92421D01*
G01X45648Y92411D01*
G01X45625Y92403D01*
G01X45601Y92395D01*
G01X45577Y92389D01*
G01X45552Y92384D01*
G01X45528Y92380D01*
G01X45503Y92378D01*
G01X45478Y92377D01*
G01X45453Y92377D01*
G01X45428Y92378D01*
G01X45403Y92380D01*
G01X45379Y92384D01*
G01X45354Y92389D01*
G01X45330Y92395D01*
G01X45306Y92403D01*
G01X45283Y92411D01*
G01X45260Y92421D01*
G01X45237Y92432D01*
G01X45215Y92443D01*
G01X45194Y92456D01*
G01X45174Y92471D01*
G01X45154Y92486D01*
G01X45135Y92502D01*
G01X45116Y92519D01*
G01X45099Y92536D01*
G01X45082Y92555D01*
G01X45067Y92575D01*
G01X45052Y92595D01*
G01X45039Y92616D01*
G01X45026Y92637D01*
G01X45015Y92660D01*
G01X45005Y92682D01*
G01X44996Y92705D01*
G01X44988Y92729D01*
G01X44981Y92753D01*
G01X44975Y92777D01*
G01X44971Y92802D01*
G01X44968Y92827D01*
G01X44966Y92852D01*
G01X44966Y92877D01*
G01X44966Y93877D01*
G01X45478Y93877D01*
G37*
G36*
G01X41389Y94147D02*
G01X40902Y94147D01*
G01X40902Y95147D01*
G01X40902Y95171D01*
G01X40904Y95196D01*
G01X40907Y95221D01*
G01X40911Y95246D01*
G01X40917Y95270D01*
G01X40924Y95294D01*
G01X40932Y95318D01*
G01X40941Y95341D01*
G01X40951Y95363D01*
G01X40962Y95386D01*
G01X40975Y95407D01*
G01X40988Y95428D01*
G01X41003Y95448D01*
G01X41018Y95468D01*
G01X41035Y95487D01*
G01X41052Y95504D01*
G01X41071Y95521D01*
G01X41090Y95537D01*
G01X41110Y95552D01*
G01X41130Y95567D01*
G01X41152Y95580D01*
G01X41173Y95591D01*
G01X41196Y95602D01*
G01X41219Y95612D01*
G01X41242Y95620D01*
G01X41266Y95628D01*
G01X41290Y95634D01*
G01X41315Y95639D01*
G01X41339Y95643D01*
G01X41364Y95645D01*
G01X41389Y95646D01*
G01X41414Y95646D01*
G01X41439Y95645D01*
G01X41464Y95643D01*
G01X41488Y95639D01*
G01X41513Y95634D01*
G01X41537Y95628D01*
G01X41561Y95620D01*
G01X41584Y95612D01*
G01X41607Y95602D01*
G01X41630Y95591D01*
G01X41652Y95580D01*
G01X41673Y95567D01*
G01X41693Y95552D01*
G01X41713Y95537D01*
G01X41732Y95521D01*
G01X41751Y95504D01*
G01X41768Y95487D01*
G01X41785Y95468D01*
G01X41800Y95448D01*
G01X41815Y95428D01*
G01X41828Y95407D01*
G01X41841Y95386D01*
G01X41852Y95363D01*
G01X41862Y95341D01*
G01X41871Y95318D01*
G01X41879Y95294D01*
G01X41886Y95270D01*
G01X41892Y95246D01*
G01X41896Y95221D01*
G01X41899Y95196D01*
G01X41901Y95171D01*
G01X41901Y95147D01*
G01X41901Y94147D01*
G01X41389Y94147D01*
G37*
G36*
G01X41414Y93877D02*
G01X41901Y93877D01*
G01X41901Y92877D01*
G01X41901Y92852D01*
G01X41899Y92827D01*
G01X41896Y92802D01*
G01X41892Y92777D01*
G01X41886Y92753D01*
G01X41879Y92729D01*
G01X41871Y92705D01*
G01X41862Y92682D01*
G01X41852Y92660D01*
G01X41841Y92637D01*
G01X41828Y92616D01*
G01X41815Y92595D01*
G01X41800Y92575D01*
G01X41785Y92555D01*
G01X41768Y92536D01*
G01X41751Y92519D01*
G01X41732Y92502D01*
G01X41713Y92486D01*
G01X41693Y92471D01*
G01X41673Y92456D01*
G01X41651Y92443D01*
G01X41630Y92432D01*
G01X41607Y92421D01*
G01X41584Y92411D01*
G01X41561Y92403D01*
G01X41537Y92395D01*
G01X41513Y92389D01*
G01X41488Y92384D01*
G01X41464Y92380D01*
G01X41439Y92378D01*
G01X41414Y92377D01*
G01X41389Y92377D01*
G01X41364Y92378D01*
G01X41339Y92380D01*
G01X41315Y92384D01*
G01X41290Y92389D01*
G01X41266Y92395D01*
G01X41242Y92403D01*
G01X41219Y92411D01*
G01X41196Y92421D01*
G01X41173Y92432D01*
G01X41151Y92443D01*
G01X41130Y92456D01*
G01X41110Y92471D01*
G01X41090Y92486D01*
G01X41071Y92502D01*
G01X41052Y92519D01*
G01X41035Y92536D01*
G01X41018Y92555D01*
G01X41003Y92575D01*
G01X40988Y92595D01*
G01X40975Y92616D01*
G01X40962Y92637D01*
G01X40951Y92660D01*
G01X40941Y92682D01*
G01X40932Y92705D01*
G01X40924Y92729D01*
G01X40917Y92753D01*
G01X40911Y92777D01*
G01X40907Y92802D01*
G01X40904Y92827D01*
G01X40902Y92852D01*
G01X40902Y92877D01*
G01X40902Y93877D01*
G01X41414Y93877D01*
G37*
G36*
G01X47485Y94147D02*
G01X46998Y94147D01*
G01X46998Y95147D01*
G01X46998Y95171D01*
G01X47000Y95196D01*
G01X47003Y95221D01*
G01X47007Y95246D01*
G01X47013Y95270D01*
G01X47020Y95294D01*
G01X47028Y95318D01*
G01X47037Y95341D01*
G01X47047Y95363D01*
G01X47058Y95386D01*
G01X47071Y95407D01*
G01X47084Y95428D01*
G01X47099Y95448D01*
G01X47114Y95468D01*
G01X47131Y95487D01*
G01X47148Y95504D01*
G01X47167Y95521D01*
G01X47186Y95537D01*
G01X47206Y95552D01*
G01X47226Y95567D01*
G01X47248Y95580D01*
G01X47269Y95591D01*
G01X47292Y95602D01*
G01X47315Y95612D01*
G01X47338Y95620D01*
G01X47362Y95628D01*
G01X47386Y95634D01*
G01X47411Y95639D01*
G01X47435Y95643D01*
G01X47460Y95645D01*
G01X47485Y95646D01*
G01X47510Y95646D01*
G01X47535Y95645D01*
G01X47560Y95643D01*
G01X47584Y95639D01*
G01X47609Y95634D01*
G01X47633Y95628D01*
G01X47657Y95620D01*
G01X47680Y95612D01*
G01X47703Y95602D01*
G01X47726Y95591D01*
G01X47748Y95580D01*
G01X47769Y95567D01*
G01X47789Y95552D01*
G01X47809Y95537D01*
G01X47828Y95521D01*
G01X47847Y95504D01*
G01X47864Y95487D01*
G01X47881Y95468D01*
G01X47896Y95448D01*
G01X47911Y95428D01*
G01X47924Y95407D01*
G01X47937Y95386D01*
G01X47948Y95363D01*
G01X47958Y95341D01*
G01X47967Y95318D01*
G01X47975Y95294D01*
G01X47982Y95270D01*
G01X47988Y95246D01*
G01X47992Y95221D01*
G01X47995Y95196D01*
G01X47997Y95171D01*
G01X47997Y95147D01*
G01X47997Y94147D01*
G01X47485Y94147D01*
G37*
G36*
G01X47510Y93877D02*
G01X47997Y93877D01*
G01X47997Y92877D01*
G01X47997Y92852D01*
G01X47995Y92827D01*
G01X47992Y92802D01*
G01X47988Y92777D01*
G01X47982Y92753D01*
G01X47975Y92729D01*
G01X47967Y92705D01*
G01X47958Y92682D01*
G01X47948Y92660D01*
G01X47937Y92637D01*
G01X47924Y92616D01*
G01X47911Y92595D01*
G01X47896Y92575D01*
G01X47881Y92555D01*
G01X47864Y92536D01*
G01X47847Y92519D01*
G01X47828Y92502D01*
G01X47809Y92486D01*
G01X47789Y92471D01*
G01X47769Y92456D01*
G01X47747Y92443D01*
G01X47726Y92432D01*
G01X47703Y92421D01*
G01X47680Y92411D01*
G01X47657Y92403D01*
G01X47633Y92395D01*
G01X47609Y92389D01*
G01X47584Y92384D01*
G01X47560Y92380D01*
G01X47535Y92378D01*
G01X47510Y92377D01*
G01X47485Y92377D01*
G01X47460Y92378D01*
G01X47435Y92380D01*
G01X47411Y92384D01*
G01X47386Y92389D01*
G01X47362Y92395D01*
G01X47338Y92403D01*
G01X47315Y92411D01*
G01X47292Y92421D01*
G01X47269Y92432D01*
G01X47247Y92443D01*
G01X47226Y92456D01*
G01X47206Y92471D01*
G01X47186Y92486D01*
G01X47167Y92502D01*
G01X47148Y92519D01*
G01X47131Y92536D01*
G01X47114Y92555D01*
G01X47099Y92575D01*
G01X47084Y92595D01*
G01X47071Y92616D01*
G01X47058Y92637D01*
G01X47047Y92660D01*
G01X47037Y92682D01*
G01X47028Y92705D01*
G01X47020Y92729D01*
G01X47013Y92753D01*
G01X47007Y92777D01*
G01X47003Y92802D01*
G01X47000Y92827D01*
G01X46998Y92852D01*
G01X46998Y92877D01*
G01X46998Y93877D01*
G01X47510Y93877D01*
G37*
M00*
M02*
