;Layer: Drill PTH
;EasyEDA v5.9.42, Thu, 28 Feb 2019 09:02:48 GMT
;e03dab3afe2a44069860df784644e5b2
;Gerber Generator version 0.2
M48
METRIC,LZ,000.000
;Holesize 1 = 0.305 METRIC
T01C0.305
;Holesize 2 = 0.306 METRIC
T02C0.306
;Holesize 3 = 1.000 METRIC
T03C1.000
;Holesize 4 = 1.001 METRIC
T04C1.001
;Holesize 5 = 1.016 METRIC
T05C1.016
;Holesize 6 = 1.101 METRIC
T06C1.101
;Holesize 7 = 2.800 METRIC
T07C2.800
%
G05
G90
T01
X+092144Y+060992
X+048005Y+021368
X+047751Y+002826
X+026923Y+083090
X+027490Y+082328
X+041655Y+079280
X+041655Y+064802
X+041655Y+050070
X+029209Y+050070
X+029209Y+064548
X+029209Y+079280
X+026474Y+075978
X+027431Y+074708
X+069595Y+034576
X+070357Y+033306
X+066040Y+073438
T02
X+066040Y+075978
X+066040Y+070898
X+066040Y+068358
X+066040Y+089440
X+066040Y+086900
X+066040Y+084360
X+066040Y+081820
X+047243Y+039148
X+015944Y+085376
T03
X+092725Y+040656
X+092725Y+050655
X+076725Y+040656
X+076725Y+050655
T04
X+010610Y+105950
X+010610Y+103410
X+010610Y+100870
X+008070Y+105950
X+008070Y+103410
X+008070Y+100870
X+018484Y+105950
X+018484Y+103410
X+018484Y+100870
X+015944Y+105950
X+015944Y+103410
X+015944Y+100870
X+026104Y+105950
X+026104Y+103410
X+026104Y+100870
X+023564Y+105950
X+023564Y+103410
X+023564Y+100870
X+033724Y+105950
X+033724Y+103410
X+033724Y+100870
X+031184Y+105950
X+031184Y+103410
X+031184Y+100870
X+061156Y+044482
X+061156Y+047022
T05
X+054770Y+048370
X+052230Y+048370
X+054770Y+050910
X+052230Y+050910
X+054770Y+053450
X+052230Y+053450
X+054770Y+055990
X+052230Y+055990
X+054770Y+058530
X+052230Y+058530
X+054770Y+061070
X+052230Y+061070
X+054770Y+063610
X+052230Y+063610
X+054770Y+066150
X+052230Y+066150
X+054770Y+068690
X+052230Y+068690
X+054770Y+071230
X+052230Y+071230
X+054770Y+073770
X+052230Y+073770
X+054770Y+076310
X+052230Y+076310
X+054770Y+078850
X+052230Y+078850
X+054770Y+081390
X+052230Y+081390
X+054770Y+083930
X+052230Y+083930
X+054770Y+086470
X+052230Y+086470
X+054770Y+089010
X+052230Y+089010
X+054770Y+091550
X+052230Y+091550
X+054770Y+094090
X+052230Y+094090
X+054770Y+096630
X+052230Y+096630
T06
X+043315Y+120872
X+039815Y+120871
X+036316Y+120871
X+032815Y+120871
X+029316Y+120871
X+025815Y+120871
X+022316Y+120871
X+018815Y+120871
X+015316Y+120871
X+011816Y+120871
X+020383Y+055851
X+020383Y+052351
X+020383Y+048852
X+020383Y+045351
X+020383Y+041852
X+020383Y+038351
X+033588Y+019145
X+037087Y+019146
X+040587Y+019146
X+044087Y+019146
X+015046Y+019145
X+018545Y+019146
X+022045Y+019146
X+025545Y+019146
X+004635Y+024355
X+004635Y+020855
X+004635Y+017356
X+004635Y+013855
X+100843Y+036039
X+100844Y+032539
X+100844Y+029040
X+100844Y+025539
X+100844Y+022040
X+100844Y+018539
X+100844Y+015040
X+100844Y+011539
X+100844Y+008040
X+100844Y+004539
X+101729Y+063443
X+101729Y+066942
X+101729Y+070442
X+101729Y+073942
X+101729Y+077442
X+101729Y+080942
X+101729Y+084442
X+101729Y+087942
X+101729Y+091442
X+101729Y+094942
X+101849Y+049876
X+101848Y+053376
X+092994Y+099785
X+089495Y+099784
X+085995Y+099784
X+082495Y+099784
X+078995Y+099784
X+075495Y+099784
X+071995Y+099784
X+068495Y+099784
X+064995Y+099784
X+061495Y+099784
X+004635Y+082267
X+004635Y+078767
X+004635Y+075268
X+004635Y+071767
X+004635Y+068268
X+004635Y+064767
X+020442Y+082267
X+020442Y+078767
X+020442Y+075268
X+020442Y+071767
X+020442Y+068268
X+020442Y+064767
X+033589Y+004667
X+037088Y+004668
X+040588Y+004668
X+044088Y+004668
X+015047Y+004667
X+018546Y+004668
X+022046Y+004668
X+025546Y+004668
X+004694Y+055851
X+004694Y+052351
X+004694Y+048852
X+004694Y+045351
X+004694Y+041852
X+004694Y+038351
X+072453Y+036039
X+072453Y+032539
X+072453Y+029040
X+072453Y+025539
X+072453Y+022040
X+072453Y+018539
X+072453Y+015040
X+072453Y+011539
X+072453Y+008040
X+072453Y+004539
X+053784Y+004664
X+053783Y+008164
X+053783Y+011663
X+053783Y+015164
X+053783Y+018663
X+053783Y+022164
X+053783Y+025663
X+053783Y+029164
X+053783Y+032663
X+053783Y+036164
X+045021Y+096999
X+045021Y+093499
X+045021Y+090000
X+045021Y+086499
X+045021Y+083000
X+045021Y+079499
X+082232Y+004664
X+082231Y+008164
X+082231Y+011663
X+082231Y+015164
X+082231Y+018663
X+082231Y+022164
X+082231Y+025663
X+082231Y+029164
X+082231Y+032663
X+082231Y+036164
T07
X+003500Y+121499
X+003500Y+003499
X+102499Y+043500
X+102499Y+101499
X+053499Y+101499
X+053499Y+043500
M30
