G04 Layer: BottomSolderMaskLayer*
G04 EasyEDA v6.2.43, 2019-09-06T10:00:39+02:00*
G04 e5b5f855a0bb4ad7aac7fda025be0de6,91cc4837159741479c5be70faa949f3f,10*
G04 Gerber Generator version 0.2*
G04 Scale: 100 percent, Rotated: No, Reflected: No *
G04 Dimensions in millimeters *
G04 leading zeros omitted , absolute positions ,3 integer and 3 decimal *
%FSLAX33Y33*%
%MOMM*%
G90*
G71D02*

%ADD54C,0.803199*%
%ADD55R,2.082800X2.082800*%
%ADD57C,2.403196*%
%ADD60C,2.553208*%
%ADD66C,2.003196*%
%ADD78C,6.403188*%

%LPD*%
G54D54*
G01X92291Y11966D02*
G01X91091Y11966D01*
G01X92291Y13236D02*
G01X91091Y13236D01*
G01X92291Y14506D02*
G01X91091Y14506D01*
G01X92291Y15776D02*
G01X91091Y15776D01*
G01X92291Y17046D02*
G01X91091Y17046D01*
G01X92291Y18316D02*
G01X91091Y18316D01*
G01X92291Y19586D02*
G01X91091Y19586D01*
G01X92291Y20856D02*
G01X91091Y20856D01*
G01X98235Y11966D02*
G01X97035Y11966D01*
G01X98235Y13236D02*
G01X97035Y13236D01*
G01X98235Y14506D02*
G01X97035Y14506D01*
G01X98235Y15776D02*
G01X97035Y15776D01*
G01X98235Y17046D02*
G01X97035Y17046D01*
G01X98235Y18316D02*
G01X97035Y18316D01*
G01X98235Y19586D02*
G01X97035Y19586D01*
G01X98235Y20856D02*
G01X97035Y20856D01*
G01X66977Y22547D02*
G01X66977Y20847D01*
G01X68247Y22547D02*
G01X68247Y20847D01*
G01X69517Y22547D02*
G01X69517Y20847D01*
G01X70787Y22547D02*
G01X70787Y20847D01*
G01X72057Y22547D02*
G01X72057Y20847D01*
G01X73327Y22547D02*
G01X73327Y20847D01*
G01X74597Y22547D02*
G01X74597Y20847D01*
G01X75867Y22547D02*
G01X75867Y20847D01*
G01X77137Y22547D02*
G01X77137Y20847D01*
G01X78407Y22547D02*
G01X78407Y20847D01*
G01X79677Y22547D02*
G01X79677Y20847D01*
G01X80947Y22547D02*
G01X80947Y20847D01*
G01X82217Y22547D02*
G01X82217Y20847D01*
G01X83487Y22547D02*
G01X83487Y20847D01*
G01X66977Y12432D02*
G01X66977Y10732D01*
G01X68247Y12432D02*
G01X68247Y10732D01*
G01X69517Y12432D02*
G01X69517Y10732D01*
G01X70787Y12432D02*
G01X70787Y10732D01*
G01X72057Y12432D02*
G01X72057Y10732D01*
G01X73327Y12432D02*
G01X73327Y10732D01*
G01X74597Y12432D02*
G01X74597Y10732D01*
G01X75867Y12432D02*
G01X75867Y10732D01*
G01X77137Y12432D02*
G01X77137Y10732D01*
G01X78407Y12432D02*
G01X78407Y10732D01*
G01X79677Y12432D02*
G01X79677Y10732D01*
G01X80947Y12432D02*
G01X80947Y10732D01*
G01X82217Y12432D02*
G01X82217Y10732D01*
G01X83487Y12432D02*
G01X83487Y10732D01*
G01X37259Y23055D02*
G01X37259Y21355D01*
G01X38529Y23055D02*
G01X38529Y21355D01*
G01X39799Y23055D02*
G01X39799Y21355D01*
G01X41069Y23055D02*
G01X41069Y21355D01*
G01X42339Y23055D02*
G01X42339Y21355D01*
G01X43609Y23055D02*
G01X43609Y21355D01*
G01X44879Y23055D02*
G01X44879Y21355D01*
G01X46149Y23055D02*
G01X46149Y21355D01*
G01X47419Y23055D02*
G01X47419Y21355D01*
G01X48689Y23055D02*
G01X48689Y21355D01*
G01X49959Y23055D02*
G01X49959Y21355D01*
G01X51229Y23055D02*
G01X51229Y21355D01*
G01X52499Y23055D02*
G01X52499Y21355D01*
G01X53769Y23055D02*
G01X53769Y21355D01*
G01X37259Y12940D02*
G01X37259Y11240D01*
G01X38529Y12940D02*
G01X38529Y11240D01*
G01X39799Y12940D02*
G01X39799Y11240D01*
G01X41069Y12940D02*
G01X41069Y11240D01*
G01X42339Y12940D02*
G01X42339Y11240D01*
G01X43609Y12940D02*
G01X43609Y11240D01*
G01X44879Y12940D02*
G01X44879Y11240D01*
G01X46149Y12940D02*
G01X46149Y11240D01*
G01X47419Y12940D02*
G01X47419Y11240D01*
G01X48689Y12940D02*
G01X48689Y11240D01*
G01X49959Y12940D02*
G01X49959Y11240D01*
G01X51229Y12940D02*
G01X51229Y11240D01*
G01X52499Y12940D02*
G01X52499Y11240D01*
G01X53769Y12940D02*
G01X53769Y11240D01*
G01X45911Y50422D02*
G01X44711Y50422D01*
G01X45911Y49152D02*
G01X44711Y49152D01*
G01X45911Y47882D02*
G01X44711Y47882D01*
G01X45911Y46612D02*
G01X44711Y46612D01*
G01X45911Y45342D02*
G01X44711Y45342D01*
G01X45911Y44072D02*
G01X44711Y44072D01*
G01X45911Y42802D02*
G01X44711Y42802D01*
G01X39713Y50422D02*
G01X38513Y50422D01*
G01X39713Y49152D02*
G01X38513Y49152D01*
G01X39713Y47882D02*
G01X38513Y47882D01*
G01X39713Y46612D02*
G01X38513Y46612D01*
G01X39713Y45342D02*
G01X38513Y45342D01*
G01X39713Y44072D02*
G01X38513Y44072D01*
G01X39713Y42802D02*
G01X38513Y42802D01*
G01X45911Y68202D02*
G01X44711Y68202D01*
G01X45911Y66932D02*
G01X44711Y66932D01*
G01X45911Y65662D02*
G01X44711Y65662D01*
G01X45911Y64392D02*
G01X44711Y64392D01*
G01X45911Y63122D02*
G01X44711Y63122D01*
G01X45911Y61852D02*
G01X44711Y61852D01*
G01X45911Y60582D02*
G01X44711Y60582D01*
G01X39713Y68202D02*
G01X38513Y68202D01*
G01X39713Y66932D02*
G01X38513Y66932D01*
G01X39713Y65662D02*
G01X38513Y65662D01*
G01X39713Y64392D02*
G01X38513Y64392D01*
G01X39713Y63122D02*
G01X38513Y63122D01*
G01X39713Y61852D02*
G01X38513Y61852D01*
G01X39713Y60582D02*
G01X38513Y60582D01*
G36*
G01X95239Y23299D02*
G01X95239Y24971D01*
G01X96601Y24971D01*
G01X96601Y23299D01*
G01X95239Y23299D01*
G37*
G36*
G01X93207Y23299D02*
G01X93207Y24971D01*
G01X94569Y24971D01*
G01X94569Y23299D01*
G01X93207Y23299D01*
G37*
G36*
G01X106146Y38311D02*
G01X106146Y39672D01*
G01X107817Y39672D01*
G01X107817Y38311D01*
G01X106146Y38311D01*
G37*
G36*
G01X106146Y40343D02*
G01X106146Y41704D01*
G01X107817Y41704D01*
G01X107817Y40343D01*
G01X106146Y40343D01*
G37*
G36*
G01X115544Y32215D02*
G01X115544Y33576D01*
G01X117215Y33576D01*
G01X117215Y32215D01*
G01X115544Y32215D01*
G37*
G36*
G01X115544Y34247D02*
G01X115544Y35608D01*
G01X117215Y35608D01*
G01X117215Y34247D01*
G01X115544Y34247D01*
G37*
G36*
G01X105384Y32469D02*
G01X105384Y33830D01*
G01X107055Y33830D01*
G01X107055Y32469D01*
G01X105384Y32469D01*
G37*
G36*
G01X105384Y34501D02*
G01X105384Y35862D01*
G01X107055Y35862D01*
G01X107055Y34501D01*
G01X105384Y34501D01*
G37*
G36*
G01X105384Y27389D02*
G01X105384Y28750D01*
G01X107055Y28750D01*
G01X107055Y27389D01*
G01X105384Y27389D01*
G37*
G36*
G01X105384Y29421D02*
G01X105384Y30782D01*
G01X107055Y30782D01*
G01X107055Y29421D01*
G01X105384Y29421D01*
G37*
G36*
G01X115544Y21801D02*
G01X115544Y23162D01*
G01X117215Y23162D01*
G01X117215Y21801D01*
G01X115544Y21801D01*
G37*
G36*
G01X115544Y23833D02*
G01X115544Y25194D01*
G01X117215Y25194D01*
G01X117215Y23833D01*
G01X115544Y23833D01*
G37*
G36*
G01X105384Y22055D02*
G01X105384Y23416D01*
G01X107055Y23416D01*
G01X107055Y22055D01*
G01X105384Y22055D01*
G37*
G36*
G01X105384Y24087D02*
G01X105384Y25448D01*
G01X107055Y25448D01*
G01X107055Y24087D01*
G01X105384Y24087D01*
G37*
G36*
G01X105384Y16721D02*
G01X105384Y18082D01*
G01X107055Y18082D01*
G01X107055Y16721D01*
G01X105384Y16721D01*
G37*
G36*
G01X105384Y18753D02*
G01X105384Y20114D01*
G01X107055Y20114D01*
G01X107055Y18753D01*
G01X105384Y18753D01*
G37*
G36*
G01X115544Y10879D02*
G01X115544Y12240D01*
G01X117215Y12240D01*
G01X117215Y10879D01*
G01X115544Y10879D01*
G37*
G36*
G01X115544Y12911D02*
G01X115544Y14272D01*
G01X117215Y14272D01*
G01X117215Y12911D01*
G01X115544Y12911D01*
G37*
G36*
G01X105384Y10879D02*
G01X105384Y12240D01*
G01X107055Y12240D01*
G01X107055Y10879D01*
G01X105384Y10879D01*
G37*
G36*
G01X105384Y12911D02*
G01X105384Y14272D01*
G01X107055Y14272D01*
G01X107055Y12911D01*
G01X105384Y12911D01*
G37*
G36*
G01X105384Y6053D02*
G01X105384Y7414D01*
G01X107055Y7414D01*
G01X107055Y6053D01*
G01X105384Y6053D01*
G37*
G36*
G01X105384Y8085D02*
G01X105384Y9446D01*
G01X107055Y9446D01*
G01X107055Y8085D01*
G01X105384Y8085D01*
G37*
G36*
G01X115544Y719D02*
G01X115544Y2080D01*
G01X117215Y2080D01*
G01X117215Y719D01*
G01X115544Y719D01*
G37*
G36*
G01X115544Y2751D02*
G01X115544Y4112D01*
G01X117215Y4112D01*
G01X117215Y2751D01*
G01X115544Y2751D01*
G37*
G36*
G01X105384Y719D02*
G01X105384Y2080D01*
G01X107055Y2080D01*
G01X107055Y719D01*
G01X105384Y719D01*
G37*
G36*
G01X105384Y2751D02*
G01X105384Y4112D01*
G01X107055Y4112D01*
G01X107055Y2751D01*
G01X105384Y2751D01*
G37*
G36*
G01X90020Y22283D02*
G01X90020Y23736D01*
G01X90924Y23736D01*
G01X90924Y22283D01*
G01X90020Y22283D01*
G37*
G36*
G01X90970Y24783D02*
G01X90970Y26236D01*
G01X91874Y26236D01*
G01X91874Y24783D01*
G01X90970Y24783D01*
G37*
G36*
G01X89070Y24783D02*
G01X89070Y26236D01*
G01X89974Y26236D01*
G01X89974Y24783D01*
G01X89070Y24783D01*
G37*
G36*
G01X88620Y27135D02*
G01X88620Y28496D01*
G01X90291Y28496D01*
G01X90291Y27135D01*
G01X88620Y27135D01*
G37*
G36*
G01X88620Y29167D02*
G01X88620Y30528D01*
G01X90291Y30528D01*
G01X90291Y29167D01*
G01X88620Y29167D01*
G37*
G36*
G01X95239Y25839D02*
G01X95239Y27511D01*
G01X96601Y27511D01*
G01X96601Y25839D01*
G01X95239Y25839D01*
G37*
G36*
G01X93207Y25839D02*
G01X93207Y27511D01*
G01X94569Y27511D01*
G01X94569Y25839D01*
G01X93207Y25839D01*
G37*
G36*
G01X88267Y88194D02*
G01X88267Y89865D01*
G01X89631Y89865D01*
G01X89631Y88194D01*
G01X88267Y88194D01*
G37*
G36*
G01X90299Y88194D02*
G01X90299Y89865D01*
G01X91663Y89865D01*
G01X91663Y88194D01*
G01X90299Y88194D01*
G37*
G36*
G01X105793Y81844D02*
G01X105793Y83515D01*
G01X107157Y83515D01*
G01X107157Y81844D01*
G01X105793Y81844D01*
G37*
G36*
G01X107825Y81844D02*
G01X107825Y83515D01*
G01X109189Y83515D01*
G01X109189Y81844D01*
G01X107825Y81844D01*
G37*
G36*
G01X93842Y80957D02*
G01X93842Y81862D01*
G01X96245Y81862D01*
G01X96245Y80957D01*
G01X93842Y80957D01*
G37*
G36*
G01X93842Y82227D02*
G01X93842Y83132D01*
G01X96245Y83132D01*
G01X96245Y82227D01*
G01X93842Y82227D01*
G37*
G36*
G01X93842Y83497D02*
G01X93842Y84402D01*
G01X96245Y84402D01*
G01X96245Y83497D01*
G01X93842Y83497D01*
G37*
G36*
G01X93842Y84767D02*
G01X93842Y85672D01*
G01X96245Y85672D01*
G01X96245Y84767D01*
G01X93842Y84767D01*
G37*
G36*
G01X93842Y86037D02*
G01X93842Y86942D01*
G01X96245Y86942D01*
G01X96245Y86037D01*
G01X93842Y86037D01*
G37*
G36*
G01X93842Y87307D02*
G01X93842Y88212D01*
G01X96245Y88212D01*
G01X96245Y87307D01*
G01X93842Y87307D01*
G37*
G36*
G01X93842Y88577D02*
G01X93842Y89482D01*
G01X96245Y89482D01*
G01X96245Y88577D01*
G01X93842Y88577D01*
G37*
G36*
G01X93842Y89847D02*
G01X93842Y90752D01*
G01X96245Y90752D01*
G01X96245Y89847D01*
G01X93842Y89847D01*
G37*
G36*
G01X101241Y89847D02*
G01X101241Y90752D01*
G01X103644Y90752D01*
G01X103644Y89847D01*
G01X101241Y89847D01*
G37*
G36*
G01X101241Y88577D02*
G01X101241Y89482D01*
G01X103644Y89482D01*
G01X103644Y88577D01*
G01X101241Y88577D01*
G37*
G36*
G01X101241Y87307D02*
G01X101241Y88212D01*
G01X103644Y88212D01*
G01X103644Y87307D01*
G01X101241Y87307D01*
G37*
G36*
G01X101241Y86037D02*
G01X101241Y86942D01*
G01X103644Y86942D01*
G01X103644Y86037D01*
G01X101241Y86037D01*
G37*
G36*
G01X101241Y84767D02*
G01X101241Y85672D01*
G01X103644Y85672D01*
G01X103644Y84767D01*
G01X101241Y84767D01*
G37*
G36*
G01X101241Y83497D02*
G01X101241Y84402D01*
G01X103644Y84402D01*
G01X103644Y83497D01*
G01X101241Y83497D01*
G37*
G36*
G01X101241Y82227D02*
G01X101241Y83132D01*
G01X103644Y83132D01*
G01X103644Y82227D01*
G01X101241Y82227D01*
G37*
G36*
G01X101241Y80957D02*
G01X101241Y81862D01*
G01X103644Y81862D01*
G01X103644Y80957D01*
G01X101241Y80957D01*
G37*
G36*
G01X105793Y84384D02*
G01X105793Y86055D01*
G01X107157Y86055D01*
G01X107157Y84384D01*
G01X105793Y84384D01*
G37*
G36*
G01X107825Y84384D02*
G01X107825Y86055D01*
G01X109189Y86055D01*
G01X109189Y84384D01*
G01X107825Y84384D01*
G37*
G36*
G01X105793Y86924D02*
G01X105793Y88595D01*
G01X107157Y88595D01*
G01X107157Y86924D01*
G01X105793Y86924D01*
G37*
G36*
G01X107825Y86924D02*
G01X107825Y88595D01*
G01X109189Y88595D01*
G01X109189Y86924D01*
G01X107825Y86924D01*
G37*
G36*
G01X105793Y89464D02*
G01X105793Y91135D01*
G01X107157Y91135D01*
G01X107157Y89464D01*
G01X105793Y89464D01*
G37*
G36*
G01X107825Y89464D02*
G01X107825Y91135D01*
G01X109189Y91135D01*
G01X109189Y89464D01*
G01X107825Y89464D01*
G37*
G36*
G01X88267Y85654D02*
G01X88267Y87325D01*
G01X89631Y87325D01*
G01X89631Y85654D01*
G01X88267Y85654D01*
G37*
G36*
G01X90299Y85654D02*
G01X90299Y87325D01*
G01X91663Y87325D01*
G01X91663Y85654D01*
G01X90299Y85654D01*
G37*
G36*
G01X88267Y83114D02*
G01X88267Y84785D01*
G01X89631Y84785D01*
G01X89631Y83114D01*
G01X88267Y83114D01*
G37*
G36*
G01X90299Y83114D02*
G01X90299Y84785D01*
G01X91663Y84785D01*
G01X91663Y83114D01*
G01X90299Y83114D01*
G37*
G36*
G01X88267Y80574D02*
G01X88267Y82245D01*
G01X89631Y82245D01*
G01X89631Y80574D01*
G01X88267Y80574D01*
G37*
G36*
G01X90299Y80574D02*
G01X90299Y82245D01*
G01X91663Y82245D01*
G01X91663Y80574D01*
G01X90299Y80574D01*
G37*
G36*
G01X88267Y74224D02*
G01X88267Y75895D01*
G01X89631Y75895D01*
G01X89631Y74224D01*
G01X88267Y74224D01*
G37*
G36*
G01X90299Y74224D02*
G01X90299Y75895D01*
G01X91663Y75895D01*
G01X91663Y74224D01*
G01X90299Y74224D01*
G37*
G36*
G01X105793Y67874D02*
G01X105793Y69545D01*
G01X107157Y69545D01*
G01X107157Y67874D01*
G01X105793Y67874D01*
G37*
G36*
G01X107825Y67874D02*
G01X107825Y69545D01*
G01X109189Y69545D01*
G01X109189Y67874D01*
G01X107825Y67874D01*
G37*
G36*
G01X93842Y66987D02*
G01X93842Y67892D01*
G01X96245Y67892D01*
G01X96245Y66987D01*
G01X93842Y66987D01*
G37*
G36*
G01X93842Y68257D02*
G01X93842Y69162D01*
G01X96245Y69162D01*
G01X96245Y68257D01*
G01X93842Y68257D01*
G37*
G36*
G01X93842Y69527D02*
G01X93842Y70432D01*
G01X96245Y70432D01*
G01X96245Y69527D01*
G01X93842Y69527D01*
G37*
G36*
G01X93842Y70797D02*
G01X93842Y71702D01*
G01X96245Y71702D01*
G01X96245Y70797D01*
G01X93842Y70797D01*
G37*
G36*
G01X93842Y72067D02*
G01X93842Y72972D01*
G01X96245Y72972D01*
G01X96245Y72067D01*
G01X93842Y72067D01*
G37*
G36*
G01X93842Y73337D02*
G01X93842Y74242D01*
G01X96245Y74242D01*
G01X96245Y73337D01*
G01X93842Y73337D01*
G37*
G36*
G01X93842Y74607D02*
G01X93842Y75512D01*
G01X96245Y75512D01*
G01X96245Y74607D01*
G01X93842Y74607D01*
G37*
G36*
G01X93842Y75877D02*
G01X93842Y76782D01*
G01X96245Y76782D01*
G01X96245Y75877D01*
G01X93842Y75877D01*
G37*
G36*
G01X101241Y75877D02*
G01X101241Y76782D01*
G01X103644Y76782D01*
G01X103644Y75877D01*
G01X101241Y75877D01*
G37*
G36*
G01X101241Y74607D02*
G01X101241Y75512D01*
G01X103644Y75512D01*
G01X103644Y74607D01*
G01X101241Y74607D01*
G37*
G36*
G01X101241Y73337D02*
G01X101241Y74242D01*
G01X103644Y74242D01*
G01X103644Y73337D01*
G01X101241Y73337D01*
G37*
G36*
G01X101241Y72067D02*
G01X101241Y72972D01*
G01X103644Y72972D01*
G01X103644Y72067D01*
G01X101241Y72067D01*
G37*
G36*
G01X101241Y70797D02*
G01X101241Y71702D01*
G01X103644Y71702D01*
G01X103644Y70797D01*
G01X101241Y70797D01*
G37*
G36*
G01X101241Y69527D02*
G01X101241Y70432D01*
G01X103644Y70432D01*
G01X103644Y69527D01*
G01X101241Y69527D01*
G37*
G36*
G01X101241Y68257D02*
G01X101241Y69162D01*
G01X103644Y69162D01*
G01X103644Y68257D01*
G01X101241Y68257D01*
G37*
G36*
G01X101241Y66987D02*
G01X101241Y67892D01*
G01X103644Y67892D01*
G01X103644Y66987D01*
G01X101241Y66987D01*
G37*
G36*
G01X105793Y70414D02*
G01X105793Y72085D01*
G01X107157Y72085D01*
G01X107157Y70414D01*
G01X105793Y70414D01*
G37*
G36*
G01X107825Y70414D02*
G01X107825Y72085D01*
G01X109189Y72085D01*
G01X109189Y70414D01*
G01X107825Y70414D01*
G37*
G36*
G01X105793Y72954D02*
G01X105793Y74625D01*
G01X107157Y74625D01*
G01X107157Y72954D01*
G01X105793Y72954D01*
G37*
G36*
G01X107825Y72954D02*
G01X107825Y74625D01*
G01X109189Y74625D01*
G01X109189Y72954D01*
G01X107825Y72954D01*
G37*
G36*
G01X105793Y75494D02*
G01X105793Y77165D01*
G01X107157Y77165D01*
G01X107157Y75494D01*
G01X105793Y75494D01*
G37*
G36*
G01X107825Y75494D02*
G01X107825Y77165D01*
G01X109189Y77165D01*
G01X109189Y75494D01*
G01X107825Y75494D01*
G37*
G36*
G01X88267Y71684D02*
G01X88267Y73355D01*
G01X89631Y73355D01*
G01X89631Y71684D01*
G01X88267Y71684D01*
G37*
G36*
G01X90299Y71684D02*
G01X90299Y73355D01*
G01X91663Y73355D01*
G01X91663Y71684D01*
G01X90299Y71684D01*
G37*
G36*
G01X88267Y69144D02*
G01X88267Y70815D01*
G01X89631Y70815D01*
G01X89631Y69144D01*
G01X88267Y69144D01*
G37*
G36*
G01X90299Y69144D02*
G01X90299Y70815D01*
G01X91663Y70815D01*
G01X91663Y69144D01*
G01X90299Y69144D01*
G37*
G36*
G01X88267Y66604D02*
G01X88267Y68275D01*
G01X89631Y68275D01*
G01X89631Y66604D01*
G01X88267Y66604D01*
G37*
G36*
G01X90299Y66604D02*
G01X90299Y68275D01*
G01X91663Y68275D01*
G01X91663Y66604D01*
G01X90299Y66604D01*
G37*
G36*
G01X85318Y18245D02*
G01X85318Y19606D01*
G01X86992Y19606D01*
G01X86992Y18245D01*
G01X85318Y18245D01*
G37*
G36*
G01X85318Y16213D02*
G01X85318Y17574D01*
G01X86992Y17574D01*
G01X86992Y16213D01*
G01X85318Y16213D01*
G37*
G36*
G01X55600Y18245D02*
G01X55600Y19606D01*
G01X57274Y19606D01*
G01X57274Y18245D01*
G01X55600Y18245D01*
G37*
G36*
G01X55600Y16213D02*
G01X55600Y17574D01*
G01X57274Y17574D01*
G01X57274Y16213D01*
G01X55600Y16213D01*
G37*
G36*
G01X23446Y65999D02*
G01X23446Y66848D01*
G01X24846Y66848D01*
G01X24846Y65999D01*
G01X23446Y65999D01*
G37*
G36*
G01X23446Y65349D02*
G01X23446Y66048D01*
G01X24846Y66048D01*
G01X24846Y65349D01*
G01X23446Y65349D01*
G37*
G36*
G01X23446Y64699D02*
G01X23446Y65397D01*
G01X24846Y65397D01*
G01X24846Y64699D01*
G01X23446Y64699D01*
G37*
G36*
G01X23446Y63899D02*
G01X23446Y64750D01*
G01X24846Y64750D01*
G01X24846Y63899D01*
G01X23446Y63899D01*
G37*
G36*
G01X27797Y63899D02*
G01X27797Y64750D01*
G01X29197Y64750D01*
G01X29197Y63899D01*
G01X27797Y63899D01*
G37*
G36*
G01X27797Y64699D02*
G01X27797Y65397D01*
G01X29197Y65397D01*
G01X29197Y64699D01*
G01X27797Y64699D01*
G37*
G36*
G01X27797Y65349D02*
G01X27797Y66048D01*
G01X29197Y66048D01*
G01X29197Y65349D01*
G01X27797Y65349D01*
G37*
G36*
G01X27797Y65999D02*
G01X27797Y66848D01*
G01X29197Y66848D01*
G01X29197Y65999D01*
G01X27797Y65999D01*
G37*
G36*
G01X23497Y61016D02*
G01X23497Y62687D01*
G01X24861Y62687D01*
G01X24861Y61016D01*
G01X23497Y61016D01*
G37*
G36*
G01X25529Y61016D02*
G01X25529Y62687D01*
G01X26893Y62687D01*
G01X26893Y61016D01*
G01X25529Y61016D01*
G37*
G36*
G01X23497Y70414D02*
G01X23497Y72085D01*
G01X24861Y72085D01*
G01X24861Y70414D01*
G01X23497Y70414D01*
G37*
G36*
G01X25529Y70414D02*
G01X25529Y72085D01*
G01X26893Y72085D01*
G01X26893Y70414D01*
G01X25529Y70414D01*
G37*
G36*
G01X25529Y67874D02*
G01X25529Y69545D01*
G01X26893Y69545D01*
G01X26893Y67874D01*
G01X25529Y67874D01*
G37*
G36*
G01X23497Y67874D02*
G01X23497Y69545D01*
G01X24861Y69545D01*
G01X24861Y67874D01*
G01X23497Y67874D01*
G37*
G36*
G01X40515Y52634D02*
G01X40515Y54305D01*
G01X41876Y54305D01*
G01X41876Y52634D01*
G01X40515Y52634D01*
G37*
G36*
G01X38483Y52634D02*
G01X38483Y54305D01*
G01X39844Y54305D01*
G01X39844Y52634D01*
G01X38483Y52634D01*
G37*
G36*
G01X42547Y52634D02*
G01X42547Y54305D01*
G01X43911Y54305D01*
G01X43911Y52634D01*
G01X42547Y52634D01*
G37*
G36*
G01X44579Y52634D02*
G01X44579Y54305D01*
G01X45943Y54305D01*
G01X45943Y52634D01*
G01X44579Y52634D01*
G37*
G36*
G01X40515Y70160D02*
G01X40515Y71831D01*
G01X41876Y71831D01*
G01X41876Y70160D01*
G01X40515Y70160D01*
G37*
G36*
G01X38483Y70160D02*
G01X38483Y71831D01*
G01X39844Y71831D01*
G01X39844Y70160D01*
G01X38483Y70160D01*
G37*
G36*
G01X42547Y70160D02*
G01X42547Y71831D01*
G01X43911Y71831D01*
G01X43911Y70160D01*
G01X42547Y70160D01*
G37*
G36*
G01X44579Y70160D02*
G01X44579Y71831D01*
G01X45943Y71831D01*
G01X45943Y70160D01*
G01X44579Y70160D01*
G37*
G36*
G01X63040Y69230D02*
G01X62176Y69662D01*
G01X62176Y70335D01*
G01X63903Y70335D01*
G01X63903Y69662D01*
G01X63040Y69230D01*
G37*
G36*
G01X63040Y68087D02*
G01X62176Y68519D01*
G01X62176Y69637D01*
G01X63040Y69205D01*
G01X63903Y69637D01*
G01X63903Y68519D01*
G01X63040Y68087D01*
G37*
G36*
G01X62176Y67338D02*
G01X62176Y68494D01*
G01X63040Y68062D01*
G01X63903Y68494D01*
G01X63903Y67338D01*
G01X62176Y67338D01*
G37*
G36*
G01X60500Y69230D02*
G01X59636Y69662D01*
G01X59636Y70335D01*
G01X61363Y70335D01*
G01X61363Y69662D01*
G01X60500Y69230D01*
G37*
G36*
G01X60500Y68087D02*
G01X59636Y68519D01*
G01X59636Y69637D01*
G01X60500Y69205D01*
G01X61363Y69637D01*
G01X61363Y68519D01*
G01X60500Y68087D01*
G37*
G36*
G01X59636Y67338D02*
G01X59636Y68494D01*
G01X60500Y68062D01*
G01X61363Y68494D01*
G01X61363Y67338D01*
G01X59636Y67338D01*
G37*
G36*
G01X57960Y69230D02*
G01X57096Y69662D01*
G01X57096Y70335D01*
G01X58823Y70335D01*
G01X58823Y69662D01*
G01X57960Y69230D01*
G37*
G36*
G01X57960Y68087D02*
G01X57096Y68519D01*
G01X57096Y69637D01*
G01X57960Y69205D01*
G01X58823Y69637D01*
G01X58823Y68519D01*
G01X57960Y68087D01*
G37*
G36*
G01X57096Y67338D02*
G01X57096Y68494D01*
G01X57960Y68062D01*
G01X58823Y68494D01*
G01X58823Y67338D01*
G01X57096Y67338D01*
G37*
G36*
G01X55420Y69230D02*
G01X54556Y69662D01*
G01X54556Y70335D01*
G01X56283Y70335D01*
G01X56283Y69662D01*
G01X55420Y69230D01*
G37*
G36*
G01X55420Y68087D02*
G01X54556Y68519D01*
G01X54556Y69637D01*
G01X55420Y69205D01*
G01X56283Y69637D01*
G01X56283Y68519D01*
G01X55420Y68087D01*
G37*
G36*
G01X54556Y67338D02*
G01X54556Y68494D01*
G01X55420Y68062D01*
G01X56283Y68494D01*
G01X56283Y67338D01*
G01X54556Y67338D01*
G37*
G36*
G01X58120Y48738D02*
G01X57256Y49169D01*
G01X57256Y49842D01*
G01X58983Y49842D01*
G01X58983Y49169D01*
G01X58120Y48738D01*
G37*
G36*
G01X58120Y47595D02*
G01X57256Y48026D01*
G01X57256Y49144D01*
G01X58120Y48712D01*
G01X58983Y49144D01*
G01X58983Y48026D01*
G01X58120Y47595D01*
G37*
G36*
G01X57256Y46845D02*
G01X57256Y48001D01*
G01X58120Y47569D01*
G01X58983Y48001D01*
G01X58983Y46845D01*
G01X57256Y46845D01*
G37*
G36*
G01X60660Y48738D02*
G01X59796Y49169D01*
G01X59796Y49842D01*
G01X61523Y49842D01*
G01X61523Y49169D01*
G01X60660Y48738D01*
G37*
G36*
G01X60660Y47595D02*
G01X59796Y48026D01*
G01X59796Y49144D01*
G01X60660Y48712D01*
G01X61523Y49144D01*
G01X61523Y48026D01*
G01X60660Y47595D01*
G37*
G36*
G01X59796Y46845D02*
G01X59796Y48001D01*
G01X60660Y47569D01*
G01X61523Y48001D01*
G01X61523Y46845D01*
G01X59796Y46845D01*
G37*
G36*
G01X57960Y55006D02*
G01X57096Y55438D01*
G01X57096Y56111D01*
G01X58823Y56111D01*
G01X58823Y55438D01*
G01X57960Y55006D01*
G37*
G36*
G01X57960Y53863D02*
G01X57096Y54295D01*
G01X57096Y55413D01*
G01X57960Y54981D01*
G01X58823Y55413D01*
G01X58823Y54295D01*
G01X57960Y53863D01*
G37*
G36*
G01X57096Y53114D02*
G01X57096Y54270D01*
G01X57960Y53838D01*
G01X58823Y54270D01*
G01X58823Y53114D01*
G01X57096Y53114D01*
G37*
G36*
G01X60500Y55006D02*
G01X59636Y55438D01*
G01X59636Y56111D01*
G01X61363Y56111D01*
G01X61363Y55438D01*
G01X60500Y55006D01*
G37*
G36*
G01X60500Y53863D02*
G01X59636Y54295D01*
G01X59636Y55413D01*
G01X60500Y54981D01*
G01X61363Y55413D01*
G01X61363Y54295D01*
G01X60500Y53863D01*
G37*
G36*
G01X59636Y53114D02*
G01X59636Y54270D01*
G01X60500Y53838D01*
G01X61363Y54270D01*
G01X61363Y53114D01*
G01X59636Y53114D01*
G37*
G54D55*
G01X72771Y46370D03*
G01X70231Y46370D03*
G01X72771Y48910D03*
G01X70231Y48910D03*
G01X72771Y51450D03*
G01X70231Y51450D03*
G01X72771Y53990D03*
G01X70231Y53990D03*
G01X72771Y56530D03*
G01X70231Y56530D03*
G01X72771Y59070D03*
G01X70231Y59070D03*
G01X72771Y61610D03*
G01X70231Y61610D03*
G01X72771Y64150D03*
G01X70231Y64150D03*
G01X72771Y66690D03*
G01X70231Y66690D03*
G01X72771Y69230D03*
G01X70231Y69230D03*
G01X72771Y71770D03*
G01X70231Y71770D03*
G01X72771Y74310D03*
G01X70231Y74310D03*
G01X72771Y76850D03*
G01X70231Y76850D03*
G01X72771Y79390D03*
G01X70231Y79390D03*
G01X72771Y81930D03*
G01X70231Y81930D03*
G01X72771Y84470D03*
G01X70231Y84470D03*
G01X72771Y87010D03*
G01X70231Y87010D03*
G01X72771Y89550D03*
G01X70231Y89550D03*
G01X72771Y92090D03*
G01X70231Y92090D03*
G01X72771Y94630D03*
G01X70231Y94630D03*
G36*
G01X28117Y2040D02*
G01X28117Y4442D01*
G01X30520Y4442D01*
G01X30520Y2040D01*
G01X28117Y2040D01*
G37*
G54D57*
G01X32818Y3242D03*
G01X36318Y3242D03*
G01X39818Y3242D03*
G01X43318Y3242D03*
G01X46818Y3242D03*
G01X50318Y3242D03*
G01X53818Y3242D03*
G01X57318Y3242D03*
G01X60818Y3242D03*
G36*
G01X28117Y31758D02*
G01X28117Y34160D01*
G01X30520Y34160D01*
G01X30520Y31758D01*
G01X28117Y31758D01*
G37*
G01X32818Y32959D03*
G01X36318Y32959D03*
G01X39818Y32959D03*
G01X43318Y32959D03*
G01X46818Y32959D03*
G01X50318Y32959D03*
G01X53818Y32959D03*
G01X57318Y32959D03*
G01X60818Y32959D03*
G54D60*
G01X108886Y61089D03*
G01X93886Y61089D03*
G36*
G01X68757Y2040D02*
G01X68757Y4442D01*
G01X71160Y4442D01*
G01X71160Y2040D01*
G01X68757Y2040D01*
G37*
G54D57*
G01X73458Y3242D03*
G01X76958Y3242D03*
G01X80458Y3242D03*
G01X83958Y3242D03*
G01X87458Y3242D03*
G01X90958Y3242D03*
G01X94458Y3242D03*
G01X97958Y3242D03*
G01X101458Y3242D03*
G36*
G01X68757Y31758D02*
G01X68757Y34160D01*
G01X71160Y34160D01*
G01X71160Y31758D01*
G01X68757Y31758D01*
G37*
G01X73458Y32959D03*
G01X76958Y32959D03*
G01X80458Y32959D03*
G01X83958Y32959D03*
G01X87458Y32959D03*
G01X90958Y32959D03*
G01X94458Y32959D03*
G01X97958Y32959D03*
G01X101458Y32959D03*
G36*
G01X110291Y98687D02*
G01X110291Y101089D01*
G01X112697Y101089D01*
G01X112697Y98687D01*
G01X110291Y98687D01*
G37*
G01X107994Y99888D03*
G01X104494Y99888D03*
G01X100994Y99888D03*
G01X97494Y99888D03*
G01X93994Y99888D03*
G01X90494Y99888D03*
G01X86994Y99888D03*
G01X83494Y99888D03*
G01X79994Y99888D03*
G36*
G01X119687Y60203D02*
G01X119687Y62606D01*
G01X122090Y62606D01*
G01X122090Y60203D01*
G01X119687Y60203D01*
G37*
G01X120888Y64904D03*
G01X120888Y68403D03*
G01X120888Y71904D03*
G01X120888Y75403D03*
G01X120888Y78904D03*
G01X120888Y82403D03*
G01X120888Y85904D03*
G01X120888Y89403D03*
G01X120888Y92904D03*
G36*
G01X119687Y1529D02*
G01X119687Y3932D01*
G01X122090Y3932D01*
G01X122090Y1529D01*
G01X119687Y1529D01*
G37*
G01X120888Y6230D03*
G01X120888Y9729D03*
G01X120888Y13230D03*
G01X120888Y16729D03*
G01X120888Y20230D03*
G01X120888Y23729D03*
G01X120888Y27230D03*
G01X120888Y30729D03*
G01X120888Y34230D03*
G36*
G01X1958Y45349D02*
G01X1958Y47752D01*
G01X4361Y47752D01*
G01X4361Y45349D01*
G01X1958Y45349D01*
G37*
G01X3160Y43051D03*
G01X3160Y39552D03*
G01X3160Y36051D03*
G01X3160Y32552D03*
G01X3160Y29052D03*
G36*
G01X17198Y45349D02*
G01X17198Y47752D01*
G01X19601Y47752D01*
G01X19601Y45349D01*
G01X17198Y45349D01*
G37*
G01X18400Y43051D03*
G01X18400Y39552D03*
G01X18400Y36051D03*
G01X18400Y32552D03*
G01X18400Y29052D03*
G36*
G01X1958Y18933D02*
G01X1958Y21336D01*
G01X4361Y21336D01*
G01X4361Y18933D01*
G01X1958Y18933D01*
G37*
G01X3160Y16635D03*
G01X3160Y13136D03*
G01X3160Y9635D03*
G01X3160Y6136D03*
G01X3160Y2636D03*
G36*
G01X17198Y18933D02*
G01X17198Y21336D01*
G01X19601Y21336D01*
G01X19601Y18933D01*
G01X17198Y18933D01*
G37*
G01X18400Y16635D03*
G01X18400Y13136D03*
G01X18400Y9635D03*
G01X18400Y6136D03*
G01X18400Y2636D03*
G36*
G01X17198Y81671D02*
G01X17198Y84074D01*
G01X19601Y84074D01*
G01X19601Y81671D01*
G01X17198Y81671D01*
G37*
G01X18400Y79373D03*
G01X18400Y75874D03*
G01X18400Y72373D03*
G36*
G01X1958Y81671D02*
G01X1958Y84074D01*
G01X4361Y84074D01*
G01X4361Y81671D01*
G01X1958Y81671D01*
G37*
G01X3160Y79373D03*
G01X3160Y75874D03*
G01X3160Y72373D03*
G36*
G01X17198Y63891D02*
G01X17198Y66294D01*
G01X19601Y66294D01*
G01X19601Y63891D01*
G01X17198Y63891D01*
G37*
G01X18400Y61593D03*
G01X18400Y58094D03*
G01X18400Y54593D03*
G36*
G01X1958Y63891D02*
G01X1958Y66294D01*
G01X4361Y66294D01*
G01X4361Y63891D01*
G01X1958Y63891D01*
G37*
G01X3160Y61593D03*
G01X3160Y58094D03*
G01X3160Y54593D03*
G36*
G01X1958Y99197D02*
G01X1958Y101600D01*
G01X4361Y101600D01*
G01X4361Y99197D01*
G01X1958Y99197D01*
G37*
G01X3160Y96899D03*
G01X3160Y93400D03*
G01X3160Y89899D03*
G36*
G01X119687Y48517D02*
G01X119687Y50922D01*
G01X122090Y50922D01*
G01X122090Y48517D01*
G01X119687Y48517D01*
G37*
G01X120888Y53220D03*
G36*
G01X62039Y89299D02*
G01X62039Y91300D01*
G01X64041Y91300D01*
G01X64041Y89299D01*
G01X62039Y89299D01*
G37*
G54D66*
G01X63040Y92840D03*
G01X63040Y95380D03*
G01X63040Y97920D03*
G36*
G01X82293Y58753D02*
G01X82293Y60886D01*
G01X84427Y60886D01*
G01X84427Y58753D01*
G01X82293Y58753D01*
G37*
G36*
G01X84833Y58753D02*
G01X84833Y60886D01*
G01X86967Y60886D01*
G01X86967Y58753D01*
G01X84833Y58753D01*
G37*
G54D78*
G01X120500Y41500D03*
G01X120500Y99499D03*
G01X71500Y99499D03*
G01X71500Y41500D03*
G01X11224Y4956D03*
G01X12240Y97920D03*

%LPD*%
G36*
G01X63802Y70233D02*
G01X62278Y70233D01*
G01X62278Y67693D01*
G01X63802Y67693D01*
G01X63802Y70233D01*
G37*

%LPD*%
G36*
G01X61262Y70233D02*
G01X59738Y70233D01*
G01X59738Y67693D01*
G01X61262Y67693D01*
G01X61262Y70233D01*
G37*

%LPD*%
G36*
G01X58722Y70233D02*
G01X57198Y70233D01*
G01X57198Y67693D01*
G01X58722Y67693D01*
G01X58722Y70233D01*
G37*

%LPD*%
G36*
G01X56182Y70233D02*
G01X54658Y70233D01*
G01X54658Y67693D01*
G01X56182Y67693D01*
G01X56182Y70233D01*
G37*

%LPD*%
G36*
G01X58882Y49741D02*
G01X57358Y49741D01*
G01X57358Y47201D01*
G01X58882Y47201D01*
G01X58882Y49741D01*
G37*

%LPD*%
G36*
G01X61422Y49741D02*
G01X59898Y49741D01*
G01X59898Y47201D01*
G01X61422Y47201D01*
G01X61422Y49741D01*
G37*

%LPD*%
G36*
G01X58722Y56009D02*
G01X57198Y56009D01*
G01X57198Y53469D01*
G01X58722Y53469D01*
G01X58722Y56009D01*
G37*

%LPD*%
G36*
G01X61262Y56009D02*
G01X59738Y56009D01*
G01X59738Y53469D01*
G01X61262Y53469D01*
G01X61262Y56009D01*
G37*
M00*
M02*
