G04 Layer: BottomSolderMaskLayer*
G04 EasyEDA v5.9.42, Thu, 28 Feb 2019 09:02:48 GMT*
G04 e03dab3afe2a44069860df784644e5b2*
G04 Gerber Generator version 0.2*
G04 Scale: 100 percent, Rotated: No, Reflected: No *
G04 Dimensions in millimeters *
G04 leading zeros omitted , absolute positions ,3 integer and 3 decimal *
%FSLAX33Y33*%
%MOMM*%
G90*
G71D02*

%ADD47R,2.133600X2.133600*%
%ADD48R,2.082800X2.082800*%
%ADD49R,1.673098X1.363218*%
%ADD52R,2.403196X2.403196*%
%ADD53C,2.403196*%
%ADD54R,2.404008X2.404008*%
%ADD55R,2.203196X2.203196*%
%ADD56C,6.403188*%
%ADD57C,0.803199*%
%ADD58R,1.363218X1.673098*%
%ADD59R,1.453210X0.903199*%
%ADD60R,2.209800X0.812800*%
%ADD61R,1.593088X1.603248*%
%ADD62R,3.563112X5.063185*%
%ADD63R,4.053840X4.203700*%
%ADD64R,2.402840X0.904240*%
%ADD65R,1.953260X0.853440*%
%ADD66R,0.802640X1.752600*%
%ADD67R,1.753210X0.803199*%
%ADD68R,2.803195X3.303194*%

%LPD*%
G54D57*
G01X35857Y84725D02*
G01X35857Y85925D01*
G01X34587Y84725D02*
G01X34587Y85925D01*
G01X33317Y84725D02*
G01X33317Y85925D01*
G01X32047Y84725D02*
G01X32047Y85925D01*
G01X30777Y84725D02*
G01X30777Y85925D01*
G01X29507Y84725D02*
G01X29507Y85925D01*
G01X28237Y84725D02*
G01X28237Y85925D01*
G01X26967Y84725D02*
G01X26967Y85925D01*
G01X35857Y90668D02*
G01X35857Y91868D01*
G01X34587Y90668D02*
G01X34587Y91868D01*
G01X33317Y90668D02*
G01X33317Y91868D01*
G01X32047Y90668D02*
G01X32047Y91868D01*
G01X30777Y90668D02*
G01X30777Y91868D01*
G01X29507Y90669D02*
G01X29507Y91869D01*
G01X28237Y90668D02*
G01X28237Y91868D01*
G01X26967Y90668D02*
G01X26967Y91868D01*
G01X37550Y77248D02*
G01X38750Y77248D01*
G01X37550Y75978D02*
G01X38750Y75978D01*
G01X37550Y74708D02*
G01X38750Y74708D01*
G01X37550Y73438D02*
G01X38750Y73438D01*
G01X37550Y72168D02*
G01X38750Y72168D01*
G01X37550Y70898D02*
G01X38750Y70898D01*
G01X37550Y69628D02*
G01X38750Y69628D01*
G01X31353Y77248D02*
G01X32553Y77248D01*
G01X31353Y75978D02*
G01X32553Y75978D01*
G01X31353Y74708D02*
G01X32553Y74708D01*
G01X31353Y73438D02*
G01X32553Y73438D01*
G01X31353Y72168D02*
G01X32553Y72168D01*
G01X31353Y70898D02*
G01X32553Y70898D01*
G01X31353Y69628D02*
G01X32553Y69628D01*
G01X37550Y62770D02*
G01X38750Y62770D01*
G01X37550Y61500D02*
G01X38750Y61500D01*
G01X37550Y60230D02*
G01X38750Y60230D01*
G01X37550Y58960D02*
G01X38750Y58960D01*
G01X37550Y57690D02*
G01X38750Y57690D01*
G01X37550Y56420D02*
G01X38750Y56420D01*
G01X37550Y55150D02*
G01X38750Y55150D01*
G01X31353Y62770D02*
G01X32553Y62770D01*
G01X31353Y61500D02*
G01X32553Y61500D01*
G01X31353Y60230D02*
G01X32553Y60230D01*
G01X31353Y58960D02*
G01X32553Y58960D01*
G01X31353Y57690D02*
G01X32553Y57690D01*
G01X31353Y56420D02*
G01X32553Y56420D01*
G01X31353Y55150D02*
G01X32553Y55150D01*
G01X37550Y47784D02*
G01X38750Y47784D01*
G01X37550Y46514D02*
G01X38750Y46514D01*
G01X37550Y45244D02*
G01X38750Y45244D01*
G01X37550Y43974D02*
G01X38750Y43974D01*
G01X37550Y42704D02*
G01X38750Y42704D01*
G01X37550Y41434D02*
G01X38750Y41434D01*
G01X37550Y40164D02*
G01X38750Y40164D01*
G01X31353Y47784D02*
G01X32553Y47784D01*
G01X31353Y46514D02*
G01X32553Y46514D01*
G01X31353Y45244D02*
G01X32553Y45244D01*
G01X31353Y43974D02*
G01X32553Y43974D01*
G01X31353Y42704D02*
G01X32553Y42704D01*
G01X31353Y41434D02*
G01X32553Y41434D01*
G01X31353Y40164D02*
G01X32553Y40164D01*
G54D58*
G01X8578Y97822D03*
G01X10610Y97822D03*
G01X10610Y108998D03*
G01X8578Y108998D03*
G01X8578Y111792D03*
G01X10610Y111792D03*
G01X16452Y97822D03*
G01X18484Y97822D03*
G01X18484Y108998D03*
G01X16452Y108998D03*
G01X16452Y111792D03*
G01X18484Y111792D03*
G01X24072Y97822D03*
G01X26104Y97822D03*
G01X26104Y108998D03*
G01X24072Y108998D03*
G01X24072Y111792D03*
G01X26104Y111792D03*
G01X31692Y97822D03*
G01X33724Y97822D03*
G01X33724Y108998D03*
G01X31692Y108998D03*
G01X31692Y111792D03*
G01X33724Y111792D03*
G01X45466Y36354D03*
G01X43434Y36354D03*
G01X40386Y36354D03*
G01X38354Y36354D03*
G01X40894Y24162D03*
G01X38862Y24162D03*
G01X44450Y24162D03*
G01X46482Y24162D03*
G54D49*
G01X24072Y87408D03*
G01X24072Y85376D03*
G54D59*
G01X24305Y90964D03*
G01X21806Y91913D03*
G01X21806Y90014D03*
G54D49*
G01X21024Y87408D03*
G01X21024Y85376D03*
G54D58*
G01X18484Y89948D03*
G01X16452Y89948D03*
G54D49*
G01X47440Y109506D03*
G01X47440Y111538D03*
G01X47440Y104426D03*
G01X47440Y106458D03*
G01X37534Y109506D03*
G01X37534Y111538D03*
G01X37534Y104426D03*
G01X37534Y106458D03*
G01X40836Y109506D03*
G01X40836Y111538D03*
G01X40836Y104426D03*
G01X40836Y106458D03*
G01X44138Y109506D03*
G01X44138Y111538D03*
G01X44138Y104426D03*
G01X44138Y106458D03*
G54D60*
G01X58420Y13240D03*
G01X58420Y14510D03*
G01X58420Y15780D03*
G01X58420Y17050D03*
G01X58420Y18320D03*
G01X58420Y19590D03*
G01X58420Y20860D03*
G01X58420Y22130D03*
G01X58420Y23400D03*
G01X58420Y24670D03*
G01X58420Y25940D03*
G01X58420Y27210D03*
G01X58420Y28480D03*
G01X58420Y29750D03*
G01X67818Y13240D03*
G01X67818Y14510D03*
G01X67818Y15780D03*
G01X67818Y17050D03*
G01X67818Y18320D03*
G01X67818Y19590D03*
G01X67818Y20860D03*
G01X67818Y22130D03*
G01X67818Y23400D03*
G01X67818Y24670D03*
G01X67818Y25940D03*
G01X67818Y27210D03*
G01X67818Y28480D03*
G01X67818Y29750D03*
G54D58*
G01X61468Y32798D03*
G01X63500Y32798D03*
G54D60*
G01X86810Y13240D03*
G01X86810Y14510D03*
G01X86810Y15780D03*
G01X86810Y17050D03*
G01X86810Y18320D03*
G01X86810Y19590D03*
G01X86810Y20860D03*
G01X86810Y22130D03*
G01X86810Y23400D03*
G01X86810Y24670D03*
G01X86810Y25940D03*
G01X86810Y27210D03*
G01X86810Y28480D03*
G01X86810Y29750D03*
G01X96208Y13240D03*
G01X96208Y14510D03*
G01X96208Y15780D03*
G01X96208Y17050D03*
G01X96208Y18320D03*
G01X96208Y19590D03*
G01X96208Y20860D03*
G01X96208Y22130D03*
G01X96208Y23400D03*
G01X96208Y24670D03*
G01X96208Y25940D03*
G01X96208Y27210D03*
G01X96208Y28480D03*
G01X96208Y29750D03*
G54D58*
G01X90112Y32798D03*
G01X92144Y32798D03*
G01X61156Y80550D03*
G01X63188Y80550D03*
G01X61156Y83090D03*
G01X63188Y83090D03*
G01X61156Y85630D03*
G01X63188Y85630D03*
G01X61156Y88170D03*
G01X63188Y88170D03*
G01X61156Y67088D03*
G01X63188Y67088D03*
G01X61156Y69628D03*
G01X63188Y69628D03*
G01X61156Y72168D03*
G01X63188Y72168D03*
G01X61156Y74708D03*
G01X63188Y74708D03*
G54D49*
G01X98297Y55150D03*
G01X98297Y53118D03*
G01X79698Y49054D03*
G01X79698Y51086D03*
G01X93217Y55150D03*
G01X93217Y53118D03*
G54D58*
G01X91636Y47276D03*
G01X89604Y47276D03*
G01X78428Y43212D03*
G01X80460Y43212D03*
G54D61*
G01X79838Y61211D03*
G01X78029Y61211D03*
G54D62*
G01X78936Y57321D03*
G54D49*
G01X95757Y55150D03*
G01X95757Y53118D03*
G54D63*
G01X65956Y57180D03*
G01X73627Y57180D03*
G54D58*
G01X69284Y50070D03*
G01X67252Y50070D03*
G01X69284Y47276D03*
G01X67252Y47276D03*
G01X69284Y44482D03*
G01X67252Y44482D03*
G01X83254Y47784D03*
G01X85286Y47784D03*
G01X83254Y44736D03*
G01X85286Y44736D03*
G54D64*
G01X68776Y80550D03*
G01X68776Y81820D03*
G01X68776Y83090D03*
G01X68776Y84360D03*
G01X68776Y85630D03*
G01X68776Y86900D03*
G01X68776Y88170D03*
G01X68776Y89440D03*
G01X76175Y89440D03*
G01X76175Y88170D03*
G01X76175Y86900D03*
G01X76175Y85630D03*
G01X76175Y84360D03*
G01X76175Y83090D03*
G01X76175Y81820D03*
G01X76175Y80550D03*
G54D58*
G01X79952Y81820D03*
G01X81984Y81820D03*
G01X79952Y68358D03*
G01X81984Y68358D03*
G01X79952Y70898D03*
G01X81984Y70898D03*
G01X79952Y73438D03*
G01X81984Y73438D03*
G01X79952Y75978D03*
G01X81984Y75978D03*
G01X79952Y86900D03*
G01X81984Y86900D03*
G01X79952Y89440D03*
G01X81984Y89440D03*
G01X79952Y84360D03*
G01X81984Y84360D03*
G01X84016Y57182D03*
G01X86048Y57182D03*
G54D65*
G01X91388Y90583D03*
G01X91388Y89313D03*
G01X91388Y88043D03*
G01X91388Y86773D03*
G01X91388Y85503D03*
G01X91388Y84233D03*
G01X91388Y82963D03*
G01X91388Y81693D03*
G01X85790Y81693D03*
G01X85790Y82963D03*
G01X85790Y84233D03*
G01X85790Y85503D03*
G01X85790Y86773D03*
G01X85790Y88043D03*
G01X85790Y89313D03*
G01X85790Y90583D03*
G01X91388Y77121D03*
G01X91388Y75851D03*
G01X91388Y74581D03*
G01X91388Y73311D03*
G01X91388Y72041D03*
G01X91388Y70771D03*
G01X91388Y69501D03*
G01X91388Y68231D03*
G01X85790Y68231D03*
G01X85790Y69501D03*
G01X85790Y70771D03*
G01X85790Y72041D03*
G01X85790Y73311D03*
G01X85790Y74581D03*
G01X85790Y75851D03*
G01X85790Y77121D03*
G54D66*
G01X40513Y33306D03*
G01X41783Y33306D03*
G01X43053Y33306D03*
G01X44323Y33306D03*
G01X44323Y27184D03*
G01X43053Y27184D03*
G01X41783Y27184D03*
G01X40513Y27184D03*
G54D49*
G01X38158Y64802D03*
G01X38158Y66834D03*
G01X32004Y64548D03*
G01X32004Y66580D03*
G01X38100Y79280D03*
G01X38100Y81312D03*
G01X32004Y79280D03*
G01X32004Y81312D03*
G01X38100Y50070D03*
G01X38100Y52102D03*
G01X32004Y50070D03*
G01X32004Y52102D03*
G54D64*
G01X68892Y67088D03*
G01X68892Y68358D03*
G01X68892Y69628D03*
G01X68892Y70898D03*
G01X68892Y72168D03*
G01X68892Y73438D03*
G01X68892Y74708D03*
G01X68892Y75978D03*
G01X76291Y75978D03*
G01X76291Y74708D03*
G01X76291Y73438D03*
G01X76291Y72168D03*
G01X76291Y70898D03*
G01X76291Y69628D03*
G01X76291Y68358D03*
G01X76291Y67088D03*
G54D67*
G01X88551Y54261D03*
G01X88551Y52991D03*
G01X88551Y51721D03*
G01X88551Y50451D03*
G01X83151Y50451D03*
G01X83151Y51721D03*
G01X83151Y52991D03*
G01X83151Y54261D03*
G54D68*
G01X85851Y52356D03*
G54D47*
G01X10610Y105950D03*
G01X10610Y103410D03*
G01X10610Y100870D03*
G01X8070Y105950D03*
G01X8070Y103410D03*
G01X8070Y100870D03*
G01X18484Y105950D03*
G01X18484Y103410D03*
G01X18484Y100870D03*
G01X15944Y105950D03*
G01X15944Y103410D03*
G01X15944Y100870D03*
G01X26104Y105950D03*
G01X26104Y103410D03*
G01X26104Y100870D03*
G01X23564Y105950D03*
G01X23564Y103410D03*
G01X23564Y100870D03*
G01X33724Y105950D03*
G01X33724Y103410D03*
G01X33724Y100870D03*
G01X31184Y105950D03*
G01X31184Y103410D03*
G01X31184Y100870D03*
G54D48*
G01X54770Y48370D03*
G01X52230Y48370D03*
G01X54770Y50910D03*
G01X52230Y50910D03*
G01X54770Y53450D03*
G01X52230Y53450D03*
G01X54770Y55990D03*
G01X52230Y55990D03*
G01X54770Y58530D03*
G01X52230Y58530D03*
G01X54770Y61070D03*
G01X52230Y61070D03*
G01X54770Y63610D03*
G01X52230Y63610D03*
G01X54770Y66150D03*
G01X52230Y66150D03*
G01X54770Y68690D03*
G01X52230Y68690D03*
G01X54770Y71230D03*
G01X52230Y71230D03*
G01X54770Y73770D03*
G01X52230Y73770D03*
G01X54770Y76310D03*
G01X52230Y76310D03*
G01X54770Y78850D03*
G01X52230Y78850D03*
G01X54770Y81390D03*
G01X52230Y81390D03*
G01X54770Y83930D03*
G01X52230Y83930D03*
G01X54770Y86470D03*
G01X52230Y86470D03*
G01X54770Y89010D03*
G01X52230Y89010D03*
G01X54770Y91550D03*
G01X52230Y91550D03*
G01X54770Y94090D03*
G01X52230Y94090D03*
G01X54770Y96630D03*
G01X52230Y96630D03*
G54D47*
G01X61156Y44482D03*
G01X61156Y47022D03*
G54D52*
G01X43315Y120872D03*
G54D53*
G01X39815Y120871D03*
G01X36316Y120871D03*
G01X32815Y120871D03*
G01X29316Y120871D03*
G01X25815Y120871D03*
G01X22316Y120871D03*
G01X18815Y120871D03*
G01X15316Y120871D03*
G01X11816Y120871D03*
G54D52*
G01X20383Y55851D03*
G54D53*
G01X20383Y52351D03*
G01X20383Y48852D03*
G01X20383Y45351D03*
G01X20383Y41852D03*
G01X20383Y38351D03*
G54D52*
G01X33588Y19145D03*
G54D53*
G01X37087Y19146D03*
G01X40587Y19146D03*
G01X44087Y19146D03*
G54D52*
G01X15046Y19145D03*
G54D53*
G01X18545Y19146D03*
G01X22045Y19146D03*
G01X25545Y19146D03*
G54D52*
G01X4635Y24355D03*
G54D53*
G01X4635Y20855D03*
G01X4635Y17356D03*
G01X4635Y13855D03*
G54D52*
G01X100843Y36039D03*
G54D53*
G01X100844Y32539D03*
G01X100844Y29040D03*
G01X100844Y25539D03*
G01X100844Y22040D03*
G01X100844Y18539D03*
G01X100844Y15040D03*
G01X100844Y11539D03*
G01X100844Y8040D03*
G01X100844Y4539D03*
G54D52*
G01X101729Y63443D03*
G54D53*
G01X101729Y66942D03*
G01X101729Y70442D03*
G01X101729Y73942D03*
G01X101729Y77442D03*
G01X101729Y80942D03*
G01X101729Y84442D03*
G01X101729Y87942D03*
G01X101729Y91442D03*
G01X101729Y94942D03*
G54D54*
G01X101849Y49876D03*
G54D53*
G01X101848Y53376D03*
G54D52*
G01X92994Y99785D03*
G54D53*
G01X89495Y99784D03*
G01X85995Y99784D03*
G01X82495Y99784D03*
G01X78995Y99784D03*
G01X75495Y99784D03*
G01X71995Y99784D03*
G01X68495Y99784D03*
G01X64995Y99784D03*
G01X61495Y99784D03*
G54D52*
G01X4635Y82267D03*
G54D53*
G01X4635Y78767D03*
G01X4635Y75268D03*
G01X4635Y71767D03*
G01X4635Y68268D03*
G01X4635Y64767D03*
G54D52*
G01X20442Y82267D03*
G54D53*
G01X20442Y78767D03*
G01X20442Y75268D03*
G01X20442Y71767D03*
G01X20442Y68268D03*
G01X20442Y64767D03*
G54D52*
G01X33589Y4667D03*
G54D53*
G01X37088Y4668D03*
G01X40588Y4668D03*
G01X44088Y4668D03*
G54D52*
G01X15047Y4667D03*
G54D53*
G01X18546Y4668D03*
G01X22046Y4668D03*
G01X25546Y4668D03*
G54D52*
G01X4694Y55851D03*
G54D53*
G01X4694Y52351D03*
G01X4694Y48852D03*
G01X4694Y45351D03*
G01X4694Y41852D03*
G01X4694Y38351D03*
G54D52*
G01X72453Y36039D03*
G54D53*
G01X72453Y32539D03*
G01X72453Y29040D03*
G01X72453Y25539D03*
G01X72453Y22040D03*
G01X72453Y18539D03*
G01X72453Y15040D03*
G01X72453Y11539D03*
G01X72453Y8040D03*
G01X72453Y4539D03*
G54D52*
G01X53784Y4664D03*
G54D53*
G01X53783Y8164D03*
G01X53783Y11663D03*
G01X53783Y15164D03*
G01X53783Y18663D03*
G01X53783Y22164D03*
G01X53783Y25663D03*
G01X53783Y29164D03*
G01X53783Y32663D03*
G01X53783Y36164D03*
G54D52*
G01X45021Y96999D03*
G54D53*
G01X45021Y93499D03*
G01X45021Y90000D03*
G01X45021Y86499D03*
G01X45021Y83000D03*
G01X45021Y79499D03*
G54D52*
G01X82232Y4664D03*
G54D53*
G01X82231Y8164D03*
G01X82231Y11663D03*
G01X82231Y15164D03*
G01X82231Y18663D03*
G01X82231Y22164D03*
G01X82231Y25663D03*
G01X82231Y29164D03*
G01X82231Y32663D03*
G01X82231Y36164D03*
G54D55*
G01X92725Y40656D03*
G01X92725Y50655D03*
G01X76725Y40656D03*
G01X76725Y50655D03*
G54D56*
G01X3500Y121499D03*
G01X3500Y3499D03*
G01X102499Y43500D03*
G01X102499Y101499D03*
G01X53499Y101499D03*
G01X53499Y43500D03*
M00*
M02*
