G04 Layer: BottomSilkLayer*
G04 EasyEDA v5.9.42, Thu, 28 Feb 2019 09:02:48 GMT*
G04 e03dab3afe2a44069860df784644e5b2*
G04 Gerber Generator version 0.2*
G04 Scale: 100 percent, Rotated: No, Reflected: No *
G04 Dimensions in millimeters *
G04 leading zeros omitted , absolute positions ,3 integer and 3 decimal *
%FSLAX33Y33*%
%MOMM*%
G90*
G71D02*

%ADD10C,0.254000*%
%ADD23C,0.200000*%
%ADD36C,0.199898*%
%ADD37C,0.177800*%
%ADD38C,0.152400*%
%ADD41C,0.228600*%
%ADD42C,0.127000*%
%ADD43C,0.399999*%
%ADD44C,0.299720*%
%ADD45C,0.599440*%
%ADD46C,0.299999*%

%LPD*%

%LPD*%
G36*
G01X4523Y90260D02*
G01X4505Y90282D01*
G01X4500Y90277D01*
G01X4489Y90260D01*
G01X4472Y90232D01*
G01X4450Y90196D01*
G01X4422Y90150D01*
G01X4391Y90097D01*
G01X4316Y89969D01*
G01X4274Y89896D01*
G01X4182Y89736D01*
G01X4134Y89650D01*
G01X4050Y89501D01*
G01X3973Y89366D01*
G01X3903Y89244D01*
G01X3841Y89134D01*
G01X3785Y89036D01*
G01X3734Y88948D01*
G01X3689Y88871D01*
G01X3648Y88803D01*
G01X3613Y88744D01*
G01X3581Y88693D01*
G01X3554Y88651D01*
G01X3530Y88615D01*
G01X3509Y88585D01*
G01X3490Y88561D01*
G01X3474Y88541D01*
G01X3459Y88527D01*
G01X3446Y88515D01*
G01X3434Y88508D01*
G01X3421Y88502D01*
G01X3410Y88498D01*
G01X3355Y88477D01*
G01X3308Y88446D01*
G01X3269Y88408D01*
G01X3239Y88364D01*
G01X3220Y88316D01*
G01X3211Y88267D01*
G01X3215Y88216D01*
G01X3231Y88167D01*
G01X3264Y88112D01*
G01X3301Y88069D01*
G01X3342Y88038D01*
G01X3387Y88021D01*
G01X3436Y88016D01*
G01X3488Y88023D01*
G01X3544Y88043D01*
G01X3603Y88076D01*
G01X3702Y88140D01*
G01X4826Y88140D01*
G01X4949Y88139D01*
G01X5050Y88138D01*
G01X5132Y88135D01*
G01X5196Y88132D01*
G01X5246Y88129D01*
G01X5283Y88124D01*
G01X5310Y88118D01*
G01X5330Y88111D01*
G01X5345Y88101D01*
G01X5358Y88091D01*
G01X5393Y88063D01*
G01X5433Y88044D01*
G01X5476Y88033D01*
G01X5520Y88030D01*
G01X5565Y88035D01*
G01X5607Y88049D01*
G01X5647Y88070D01*
G01X5682Y88100D01*
G01X5716Y88146D01*
G01X5736Y88197D01*
G01X5743Y88251D01*
G01X5738Y88306D01*
G01X5720Y88358D01*
G01X5690Y88408D01*
G01X5649Y88451D01*
G01X5597Y88487D01*
G01X5578Y88501D01*
G01X5555Y88523D01*
G01X5530Y88555D01*
G01X5500Y88595D01*
G01X5467Y88643D01*
G01X5430Y88701D01*
G01X5390Y88767D01*
G01X5347Y88842D01*
G01X5321Y88887D01*
G01X5293Y88936D01*
G01X5264Y88987D01*
G01X5234Y89041D01*
G01X5171Y89149D01*
G01X5140Y89204D01*
G01X5109Y89257D01*
G01X5079Y89308D01*
G01X5051Y89357D01*
G01X5025Y89402D01*
G01X5001Y89444D01*
G01X4977Y89484D01*
G01X4951Y89529D01*
G01X4924Y89576D01*
G01X4896Y89624D01*
G01X4867Y89675D01*
G01X4808Y89776D01*
G01X4780Y89826D01*
G01X4752Y89875D01*
G01X4725Y89921D01*
G01X4700Y89965D01*
G01X4678Y90005D01*
G01X4615Y90113D01*
G01X4562Y90201D01*
G01X4523Y90260D01*
G37*

%LPC*%
G36*
G01X3473Y88311D02*
G01X3432Y88316D01*
G01X3396Y88297D01*
G01X3381Y88256D01*
G01X3393Y88220D01*
G01X3423Y88198D01*
G01X3461Y88193D01*
G01X3495Y88211D01*
G01X3503Y88223D01*
G01X3507Y88241D01*
G01X3506Y88260D01*
G01X3502Y88279D01*
G01X3473Y88311D01*
G37*
G36*
G01X5558Y88310D02*
G01X5542Y88317D01*
G01X5514Y88316D01*
G01X5490Y88309D01*
G01X5472Y88297D01*
G01X5461Y88279D01*
G01X5458Y88256D01*
G01X5461Y88233D01*
G01X5472Y88215D01*
G01X5490Y88203D01*
G01X5514Y88196D01*
G01X5542Y88195D01*
G01X5558Y88203D01*
G01X5567Y88222D01*
G01X5570Y88256D01*
G01X5567Y88290D01*
G01X5558Y88310D01*
G37*
G36*
G01X4127Y88808D02*
G01X4118Y88814D01*
G01X4105Y88802D01*
G01X4085Y88771D01*
G01X4058Y88721D01*
G01X4023Y88651D01*
G01X3999Y88602D01*
G01X3980Y88561D01*
G01X3966Y88530D01*
G01X3962Y88515D01*
G01X3968Y88510D01*
G01X3987Y88505D01*
G01X4015Y88502D01*
G01X4048Y88501D01*
G01X4135Y88501D01*
G01X4135Y88675D01*
G01X4134Y88738D01*
G01X4132Y88782D01*
G01X4127Y88808D01*
G37*
G36*
G01X4871Y88873D02*
G01X4858Y88888D01*
G01X4856Y88873D01*
G01X4854Y88831D01*
G01X4853Y88770D01*
G01X4852Y88695D01*
G01X4852Y88501D01*
G01X4964Y88501D01*
G01X5007Y88503D01*
G01X5042Y88506D01*
G01X5066Y88511D01*
G01X5075Y88517D01*
G01X5066Y88538D01*
G01X5042Y88582D01*
G01X5009Y88642D01*
G01X4970Y88709D01*
G01X4931Y88775D01*
G01X4897Y88832D01*
G01X4871Y88873D01*
G37*
G36*
G01X4406Y88921D02*
G01X4405Y89340D01*
G01X4358Y89250D01*
G01X4344Y89222D01*
G01X4333Y89191D01*
G01X4325Y89157D01*
G01X4319Y89115D01*
G01X4314Y89064D01*
G01X4311Y89001D01*
G01X4310Y88924D01*
G01X4309Y88830D01*
G01X4310Y88647D01*
G01X4315Y88549D01*
G01X4330Y88509D01*
G01X4358Y88501D01*
G01X4373Y88503D01*
G01X4385Y88510D01*
G01X4394Y88528D01*
G01X4400Y88560D01*
G01X4403Y88611D01*
G01X4405Y88685D01*
G01X4406Y88787D01*
G01X4406Y88921D01*
G37*
G36*
G01X4597Y89348D02*
G01X4590Y89353D01*
G01X4588Y89345D01*
G01X4586Y89320D01*
G01X4584Y89280D01*
G01X4583Y89228D01*
G01X4582Y89165D01*
G01X4581Y89093D01*
G01X4580Y89013D01*
G01X4580Y88793D01*
G01X4581Y88691D01*
G01X4583Y88616D01*
G01X4587Y88564D01*
G01X4593Y88530D01*
G01X4601Y88511D01*
G01X4613Y88503D01*
G01X4627Y88501D01*
G01X4653Y88509D01*
G01X4669Y88542D01*
G01X4681Y88617D01*
G01X4692Y88748D01*
G01X4698Y88853D01*
G01X4701Y88945D01*
G01X4701Y89025D01*
G01X4697Y89094D01*
G01X4689Y89153D01*
G01X4678Y89203D01*
G01X4662Y89247D01*
G01X4643Y89284D01*
G01X4625Y89311D01*
G01X4609Y89333D01*
G01X4597Y89348D01*
G37*
G36*
G01X4517Y89827D02*
G01X4488Y89843D01*
G01X4460Y89842D01*
G01X4435Y89823D01*
G01X4417Y89782D01*
G01X4412Y89753D01*
G01X4409Y89720D01*
G01X4409Y89687D01*
G01X4411Y89659D01*
G01X4440Y89611D01*
G01X4493Y89593D01*
G01X4546Y89607D01*
G01X4575Y89652D01*
G01X4575Y89707D01*
G01X4564Y89756D01*
G01X4543Y89797D01*
G01X4517Y89827D01*
G37*

%LPD*%
G36*
G01X4584Y93012D02*
G01X4553Y93015D01*
G01X4510Y93014D01*
G01X4453Y93009D01*
G01X4377Y93000D01*
G01X4280Y92986D01*
G01X4157Y92967D01*
G01X4058Y92951D01*
G01X3971Y92937D01*
G01X3896Y92923D01*
G01X3829Y92910D01*
G01X3769Y92897D01*
G01X3715Y92883D01*
G01X3666Y92869D01*
G01X3619Y92852D01*
G01X3574Y92834D01*
G01X3528Y92815D01*
G01X3481Y92792D01*
G01X3430Y92766D01*
G01X3377Y92737D01*
G01X3327Y92706D01*
G01X3279Y92673D01*
G01X3233Y92637D01*
G01X3190Y92599D01*
G01X3149Y92558D01*
G01X3110Y92514D01*
G01X3073Y92468D01*
G01X3039Y92419D01*
G01X3006Y92367D01*
G01X2976Y92313D01*
G01X2947Y92256D01*
G01X2920Y92195D01*
G01X2896Y92132D01*
G01X2873Y92066D01*
G01X2852Y91997D01*
G01X2838Y91942D01*
G01X2823Y91877D01*
G01X2809Y91806D01*
G01X2794Y91729D01*
G01X2780Y91648D01*
G01X2756Y91486D01*
G01X2746Y91407D01*
G01X2737Y91333D01*
G01X2730Y91265D01*
G01X2726Y91206D01*
G01X2725Y91157D01*
G01X2724Y91124D01*
G01X2722Y91088D01*
G01X2719Y91050D01*
G01X2715Y91008D01*
G01X2709Y90964D01*
G01X2702Y90917D01*
G01X2695Y90867D01*
G01X2686Y90816D01*
G01X2676Y90762D01*
G01X2665Y90705D01*
G01X2653Y90648D01*
G01X2640Y90588D01*
G01X2626Y90526D01*
G01X2612Y90463D01*
G01X2596Y90399D01*
G01X2580Y90333D01*
G01X2563Y90266D01*
G01X2546Y90198D01*
G01X2527Y90129D01*
G01X2508Y90059D01*
G01X2488Y89989D01*
G01X2468Y89918D01*
G01X2447Y89847D01*
G01X2426Y89775D01*
G01X2404Y89704D01*
G01X2381Y89632D01*
G01X2359Y89560D01*
G01X2312Y89418D01*
G01X2264Y89278D01*
G01X2240Y89209D01*
G01X2215Y89141D01*
G01X2190Y89074D01*
G01X2166Y89008D01*
G01X2140Y88944D01*
G01X2114Y88874D01*
G01X2089Y88809D01*
G01X2067Y88748D01*
G01X2049Y88695D01*
G01X2035Y88651D01*
G01X2025Y88616D01*
G01X2020Y88593D01*
G01X2021Y88583D01*
G01X2030Y88578D01*
G01X2049Y88575D01*
G01X2077Y88572D01*
G01X2114Y88569D01*
G01X2158Y88566D01*
G01X2209Y88564D01*
G01X2267Y88562D01*
G01X2329Y88560D01*
G01X2395Y88558D01*
G01X2464Y88557D01*
G01X2536Y88556D01*
G01X2833Y88556D01*
G01X2905Y88557D01*
G01X2975Y88559D01*
G01X3041Y88561D01*
G01X3103Y88563D01*
G01X3160Y88566D01*
G01X3483Y88584D01*
G01X3709Y88988D01*
G01X3649Y89046D01*
G01X3616Y89089D01*
G01X3616Y89120D01*
G01X3651Y89140D01*
G01X3719Y89146D01*
G01X3752Y89151D01*
G01X3783Y89166D01*
G01X3812Y89193D01*
G01X3841Y89231D01*
G01X3865Y89265D01*
G01X3909Y89320D01*
G01X3923Y89333D01*
G01X3932Y89341D01*
G01X3935Y89347D01*
G01X3934Y89351D01*
G01X3928Y89353D01*
G01X3922Y89356D01*
G01X3922Y89364D01*
G01X3927Y89377D01*
G01X3949Y89410D01*
G01X3952Y89424D01*
G01X3943Y89434D01*
G01X3918Y89443D01*
G01X3874Y89449D01*
G01X3809Y89454D01*
G01X3720Y89459D01*
G01X3603Y89463D01*
G01X3512Y89467D01*
G01X3435Y89473D01*
G01X3371Y89480D01*
G01X3317Y89490D01*
G01X3274Y89502D01*
G01X3242Y89518D01*
G01X3219Y89538D01*
G01X3204Y89561D01*
G01X3196Y89590D01*
G01X3196Y89625D01*
G01X3201Y89665D01*
G01X3212Y89712D01*
G01X3227Y89773D01*
G01X3569Y89756D01*
G01X3678Y89750D01*
G01X3763Y89747D01*
G01X3829Y89747D01*
G01X3879Y89749D01*
G01X3920Y89755D01*
G01X3955Y89766D01*
G01X3989Y89781D01*
G01X4028Y89801D01*
G01X4078Y89828D01*
G01X4118Y89854D01*
G01X4153Y89881D01*
G01X4186Y89916D01*
G01X4219Y89959D01*
G01X4257Y90017D01*
G01X4302Y90091D01*
G01X4357Y90186D01*
G01X4408Y90272D01*
G01X4454Y90341D01*
G01X4488Y90385D01*
G01X4507Y90398D01*
G01X4525Y90376D01*
G01X4559Y90325D01*
G01X4603Y90253D01*
G01X4653Y90168D01*
G01X4694Y90099D01*
G01X4733Y90038D01*
G01X4772Y89984D01*
G01X4810Y89936D01*
G01X4849Y89895D01*
G01X4888Y89859D01*
G01X4930Y89829D01*
G01X4974Y89804D01*
G01X5022Y89783D01*
G01X5073Y89768D01*
G01X5128Y89756D01*
G01X5189Y89749D01*
G01X5256Y89745D01*
G01X5328Y89745D01*
G01X5408Y89747D01*
G01X5495Y89752D01*
G01X5758Y89770D01*
G01X5788Y89700D01*
G01X5803Y89661D01*
G01X5804Y89632D01*
G01X5792Y89604D01*
G01X5764Y89569D01*
G01X5745Y89550D01*
G01X5726Y89535D01*
G01X5702Y89524D01*
G01X5669Y89517D01*
G01X5623Y89512D01*
G01X5560Y89509D01*
G01X5476Y89508D01*
G01X5367Y89508D01*
G01X5234Y89507D01*
G01X5126Y89504D01*
G01X5052Y89499D01*
G01X5025Y89494D01*
G01X5029Y89481D01*
G01X5039Y89456D01*
G01X5054Y89423D01*
G01X5073Y89384D01*
G01X5128Y89287D01*
G01X5184Y89221D01*
G01X5244Y89184D01*
G01X5311Y89172D01*
G01X5368Y89169D01*
G01X5391Y89156D01*
G01X5383Y89128D01*
G01X5346Y89080D01*
G01X5295Y89024D01*
G01X5348Y88924D01*
G01X5375Y88874D01*
G01X5408Y88813D01*
G01X5443Y88747D01*
G01X5477Y88685D01*
G01X5552Y88545D01*
G01X6280Y88559D01*
G01X6378Y88561D01*
G01X6473Y88563D01*
G01X6563Y88566D01*
G01X6648Y88568D01*
G01X6726Y88570D01*
G01X6797Y88573D01*
G01X6859Y88575D01*
G01X6913Y88577D01*
G01X6957Y88580D01*
G01X6990Y88582D01*
G01X7011Y88584D01*
G01X7019Y88586D01*
G01X7015Y88613D01*
G01X6994Y88678D01*
G01X6960Y88769D01*
G01X6916Y88879D01*
G01X6890Y88941D01*
G01X6866Y89003D01*
G01X6816Y89131D01*
G01X6792Y89196D01*
G01X6768Y89262D01*
G01X6720Y89396D01*
G01X6697Y89464D01*
G01X6652Y89600D01*
G01X6608Y89737D01*
G01X6587Y89805D01*
G01X6566Y89874D01*
G01X6546Y89942D01*
G01X6526Y90009D01*
G01X6506Y90077D01*
G01X6488Y90144D01*
G01X6470Y90210D01*
G01X6436Y90340D01*
G01X6420Y90404D01*
G01X6404Y90467D01*
G01X6376Y90589D01*
G01X6363Y90648D01*
G01X6351Y90706D01*
G01X6340Y90762D01*
G01X6329Y90817D01*
G01X6320Y90871D01*
G01X6311Y90922D01*
G01X6304Y90972D01*
G01X6297Y91019D01*
G01X6292Y91065D01*
G01X6287Y91108D01*
G01X6276Y91214D01*
G01X6266Y91315D01*
G01X6254Y91411D01*
G01X6243Y91501D01*
G01X6231Y91587D01*
G01X6218Y91668D01*
G01X6205Y91745D01*
G01X6191Y91817D01*
G01X6177Y91886D01*
G01X6161Y91951D01*
G01X6145Y92013D01*
G01X6128Y92071D01*
G01X6110Y92126D01*
G01X6090Y92179D01*
G01X6070Y92228D01*
G01X6049Y92275D01*
G01X6026Y92320D01*
G01X6002Y92363D01*
G01X5976Y92404D01*
G01X5949Y92444D01*
G01X5921Y92482D01*
G01X5891Y92518D01*
G01X5859Y92555D01*
G01X5826Y92590D01*
G01X5786Y92627D01*
G01X5744Y92663D01*
G01X5698Y92696D01*
G01X5650Y92728D01*
G01X5599Y92758D01*
G01X5544Y92786D01*
G01X5487Y92813D01*
G01X5427Y92837D01*
G01X5365Y92859D01*
G01X5300Y92880D01*
G01X5232Y92897D01*
G01X5162Y92914D01*
G01X5090Y92928D01*
G01X5015Y92940D01*
G01X4938Y92950D01*
G01X4858Y92958D01*
G01X4781Y92966D01*
G01X4712Y92976D01*
G01X4659Y92986D01*
G01X4629Y92996D01*
G01X4609Y93006D01*
G01X4584Y93012D01*
G37*

%LPC*%
G36*
G01X5684Y90923D02*
G01X5633Y90926D01*
G01X5579Y90925D01*
G01X5521Y90922D01*
G01X5461Y90916D01*
G01X5397Y90907D01*
G01X5331Y90894D01*
G01X5261Y90878D01*
G01X5188Y90859D01*
G01X5134Y90844D01*
G01X5076Y90826D01*
G01X5015Y90806D01*
G01X4955Y90786D01*
G01X4896Y90764D01*
G01X4840Y90744D01*
G01X4789Y90723D01*
G01X4745Y90704D01*
G01X4665Y90671D01*
G01X4592Y90643D01*
G01X4533Y90625D01*
G01X4497Y90618D01*
G01X4460Y90625D01*
G01X4396Y90644D01*
G01X4316Y90672D01*
G01X4229Y90706D01*
G01X4175Y90727D01*
G01X4117Y90749D01*
G01X4057Y90769D01*
G01X3995Y90790D01*
G01X3931Y90810D01*
G01X3866Y90829D01*
G01X3801Y90847D01*
G01X3737Y90864D01*
G01X3674Y90879D01*
G01X3613Y90893D01*
G01X3554Y90905D01*
G01X3499Y90915D01*
G01X3449Y90918D01*
G01X3392Y90916D01*
G01X3330Y90907D01*
G01X3265Y90892D01*
G01X3202Y90873D01*
G01X3142Y90850D01*
G01X3088Y90824D01*
G01X3043Y90796D01*
G01X3017Y90774D01*
G01X2995Y90747D01*
G01X2974Y90709D01*
G01X2953Y90658D01*
G01X2930Y90588D01*
G01X2904Y90496D01*
G01X2873Y90379D01*
G01X2837Y90231D01*
G01X2822Y90172D01*
G01X2806Y90110D01*
G01X2789Y90046D01*
G01X2772Y89981D01*
G01X2734Y89847D01*
G01X2715Y89779D01*
G01X2695Y89711D01*
G01X2676Y89644D01*
G01X2656Y89578D01*
G01X2636Y89513D01*
G01X2617Y89449D01*
G01X2597Y89388D01*
G01X2579Y89329D01*
G01X2560Y89272D01*
G01X2542Y89220D01*
G01X2526Y89171D01*
G01X2509Y89126D01*
G01X2495Y89085D01*
G01X2481Y89050D01*
G01X2406Y88862D01*
G01X3377Y88862D01*
G01X3317Y88932D01*
G01X3266Y88990D01*
G01X3219Y89043D01*
G01X3176Y89088D01*
G01X3139Y89127D01*
G01X3108Y89157D01*
G01X3083Y89179D01*
G01X3064Y89194D01*
G01X3053Y89198D01*
G01X3033Y89190D01*
G01X2995Y89168D01*
G01X2945Y89135D01*
G01X2889Y89095D01*
G01X2801Y89034D01*
G01X2743Y89001D01*
G01X2710Y88993D01*
G01X2700Y89011D01*
G01X2703Y89024D01*
G01X2710Y89053D01*
G01X2722Y89097D01*
G01X2737Y89154D01*
G01X2756Y89221D01*
G01X2777Y89297D01*
G01X2801Y89381D01*
G01X2826Y89469D01*
G01X2856Y89574D01*
G01X2882Y89667D01*
G01X2905Y89748D01*
G01X2925Y89820D01*
G01X2942Y89883D01*
G01X2956Y89939D01*
G01X2968Y89989D01*
G01X2978Y90034D01*
G01X2986Y90076D01*
G01X2994Y90116D01*
G01X2999Y90154D01*
G01X3004Y90193D01*
G01X3007Y90234D01*
G01X3011Y90278D01*
G01X3014Y90325D01*
G01X3017Y90379D01*
G01X3029Y90525D01*
G01X3042Y90612D01*
G01X3064Y90666D01*
G01X3101Y90708D01*
G01X3136Y90739D01*
G01X3172Y90765D01*
G01X3209Y90786D01*
G01X3249Y90802D01*
G01X3293Y90815D01*
G01X3342Y90823D01*
G01X3397Y90827D01*
G01X3459Y90829D01*
G01X3505Y90829D01*
G01X3549Y90827D01*
G01X3594Y90823D01*
G01X3638Y90817D01*
G01X3684Y90809D01*
G01X3733Y90798D01*
G01X3785Y90785D01*
G01X3839Y90769D01*
G01X3898Y90751D01*
G01X3962Y90730D01*
G01X4031Y90705D01*
G01X4108Y90677D01*
G01X4242Y90627D01*
G01X4343Y90590D01*
G01X4416Y90565D01*
G01X4469Y90550D01*
G01X4509Y90544D01*
G01X4541Y90546D01*
G01X4572Y90555D01*
G01X4611Y90567D01*
G01X4654Y90581D01*
G01X4692Y90597D01*
G01X4723Y90610D01*
G01X4741Y90620D01*
G01X4769Y90633D01*
G01X4827Y90657D01*
G01X4907Y90688D01*
G01X5001Y90722D01*
G01X5075Y90746D01*
G01X5152Y90767D01*
G01X5229Y90786D01*
G01X5306Y90801D01*
G01X5382Y90812D01*
G01X5456Y90820D01*
G01X5526Y90824D01*
G01X5591Y90825D01*
G01X5651Y90822D01*
G01X5704Y90815D01*
G01X5750Y90804D01*
G01X5787Y90789D01*
G01X5847Y90751D01*
G01X5897Y90706D01*
G01X5938Y90655D01*
G01X5970Y90599D01*
G01X5991Y90538D01*
G01X6002Y90474D01*
G01X6003Y90405D01*
G01X5992Y90333D01*
G01X5988Y90310D01*
G01X5986Y90285D01*
G01X5985Y90258D01*
G01X5988Y90226D01*
G01X5992Y90189D01*
G01X6000Y90145D01*
G01X6012Y90092D01*
G01X6027Y90028D01*
G01X6047Y89952D01*
G01X6071Y89862D01*
G01X6099Y89758D01*
G01X6133Y89635D01*
G01X6166Y89516D01*
G01X6195Y89404D01*
G01X6221Y89303D01*
G01X6243Y89213D01*
G01X6261Y89138D01*
G01X6273Y89081D01*
G01X6280Y89043D01*
G01X6280Y89028D01*
G01X6260Y89031D01*
G01X6219Y89051D01*
G01X6162Y89085D01*
G01X6096Y89131D01*
G01X5928Y89252D01*
G01X5758Y89064D01*
G01X5587Y88876D01*
G01X6089Y88869D01*
G01X6190Y88867D01*
G01X6284Y88866D01*
G01X6508Y88866D01*
G01X6556Y88867D01*
G01X6587Y88869D01*
G01X6599Y88871D01*
G01X6596Y88890D01*
G01X6580Y88938D01*
G01X6555Y89006D01*
G01X6523Y89088D01*
G01X6506Y89130D01*
G01X6490Y89173D01*
G01X6473Y89216D01*
G01X6457Y89261D01*
G01X6440Y89307D01*
G01X6424Y89354D01*
G01X6407Y89402D01*
G01X6391Y89453D01*
G01X6374Y89505D01*
G01X6357Y89558D01*
G01X6339Y89614D01*
G01X6322Y89673D01*
G01X6304Y89733D01*
G01X6286Y89796D01*
G01X6267Y89861D01*
G01X6248Y89930D01*
G01X6228Y90001D01*
G01X6208Y90075D01*
G01X6187Y90152D01*
G01X6166Y90233D01*
G01X6144Y90317D01*
G01X6121Y90405D01*
G01X6097Y90496D01*
G01X6073Y90592D01*
G01X6057Y90649D01*
G01X6040Y90698D01*
G01X6020Y90739D01*
G01X5997Y90774D01*
G01X5970Y90804D01*
G01X5938Y90831D01*
G01X5900Y90855D01*
G01X5854Y90879D01*
G01X5817Y90895D01*
G01X5775Y90907D01*
G01X5731Y90916D01*
G01X5684Y90923D01*
G37*
G36*
G01X3498Y90485D02*
G01X3401Y90486D01*
G01X3347Y90480D01*
G01X3324Y90465D01*
G01X3319Y90438D01*
G01X3333Y90357D01*
G01X3369Y90249D01*
G01X3412Y90151D01*
G01X3448Y90098D01*
G01X3477Y90090D01*
G01X3533Y90083D01*
G01X3607Y90078D01*
G01X3692Y90076D01*
G01X3768Y90078D01*
G01X3830Y90082D01*
G01X3879Y90090D01*
G01X3919Y90105D01*
G01X3951Y90127D01*
G01X3980Y90157D01*
G01X4006Y90197D01*
G01X4033Y90248D01*
G01X4055Y90302D01*
G01X4054Y90338D01*
G01X4026Y90365D01*
G01X3968Y90389D01*
G01X3896Y90414D01*
G01X3833Y90435D01*
G01X3775Y90451D01*
G01X3722Y90464D01*
G01X3669Y90473D01*
G01X3615Y90479D01*
G01X3559Y90483D01*
G01X3498Y90485D01*
G37*
G36*
G01X5579Y90489D02*
G01X5510Y90489D01*
G01X5416Y90485D01*
G01X5327Y90474D01*
G01X5238Y90454D01*
G01X5145Y90425D01*
G01X5074Y90400D01*
G01X5015Y90379D01*
G01X4974Y90365D01*
G01X4958Y90360D01*
G01X4947Y90345D01*
G01X4954Y90311D01*
G01X4973Y90269D01*
G01X5001Y90231D01*
G01X5018Y90211D01*
G01X5030Y90194D01*
G01X5035Y90183D01*
G01X5032Y90178D01*
G01X5029Y90174D01*
G01X5036Y90163D01*
G01X5050Y90147D01*
G01X5071Y90127D01*
G01X5109Y90101D01*
G01X5160Y90086D01*
G01X5235Y90078D01*
G01X5347Y90076D01*
G01X5427Y90077D01*
G01X5488Y90079D01*
G01X5534Y90086D01*
G01X5568Y90100D01*
G01X5593Y90123D01*
G01X5613Y90157D01*
G01X5632Y90205D01*
G01X5652Y90268D01*
G01X5675Y90340D01*
G01X5689Y90394D01*
G01X5693Y90433D01*
G01X5686Y90460D01*
G01X5666Y90476D01*
G01X5631Y90485D01*
G01X5579Y90489D01*
G37*
G36*
G01X4333Y91705D02*
G01X4333Y92690D01*
G01X4141Y92672D01*
G01X4055Y92662D01*
G01X3962Y92648D01*
G01X3875Y92632D01*
G01X3803Y92616D01*
G01X3747Y92599D01*
G01X3695Y92581D01*
G01X3644Y92562D01*
G01X3596Y92541D01*
G01X3551Y92518D01*
G01X3507Y92493D01*
G01X3466Y92466D01*
G01X3427Y92437D01*
G01X3390Y92406D01*
G01X3355Y92372D01*
G01X3322Y92337D01*
G01X3291Y92298D01*
G01X3262Y92257D01*
G01X3235Y92214D01*
G01X3209Y92168D01*
G01X3186Y92120D01*
G01X3164Y92068D01*
G01X3143Y92014D01*
G01X3124Y91957D01*
G01X3106Y91897D01*
G01X3091Y91834D01*
G01X3076Y91767D01*
G01X3062Y91698D01*
G01X3050Y91625D01*
G01X3038Y91538D01*
G01X3028Y91446D01*
G01X3020Y91356D01*
G01X3014Y91270D01*
G01X3012Y91196D01*
G01X3012Y91136D01*
G01X3015Y91097D01*
G01X3022Y91082D01*
G01X3037Y91086D01*
G01X3063Y91095D01*
G01X3098Y91108D01*
G01X3136Y91125D01*
G01X3194Y91144D01*
G01X3261Y91155D01*
G01X3349Y91158D01*
G01X3467Y91153D01*
G01X3527Y91149D01*
G01X3583Y91145D01*
G01X3636Y91139D01*
G01X3687Y91133D01*
G01X3736Y91125D01*
G01X3785Y91115D01*
G01X3835Y91104D01*
G01X3886Y91091D01*
G01X3940Y91076D01*
G01X3997Y91058D01*
G01X4059Y91038D01*
G01X4126Y91015D01*
G01X4196Y90991D01*
G01X4255Y90972D01*
G01X4299Y90958D01*
G01X4318Y90953D01*
G01X4320Y90961D01*
G01X4322Y90985D01*
G01X4324Y91022D01*
G01X4326Y91073D01*
G01X4327Y91135D01*
G01X4329Y91209D01*
G01X4330Y91292D01*
G01X4331Y91385D01*
G01X4332Y91485D01*
G01X4332Y91592D01*
G01X4333Y91705D01*
G37*
G36*
G01X4796Y92679D02*
G01X4679Y92683D01*
G01X4679Y90959D01*
G01X4945Y91048D01*
G01X5029Y91075D01*
G01X5109Y91098D01*
G01X5186Y91118D01*
G01X5261Y91136D01*
G01X5332Y91150D01*
G01X5401Y91161D01*
G01X5469Y91169D01*
G01X5533Y91173D01*
G01X5595Y91175D01*
G01X5655Y91173D01*
G01X5713Y91169D01*
G01X5770Y91162D01*
G01X5837Y91151D01*
G01X5897Y91142D01*
G01X5943Y91136D01*
G01X5967Y91134D01*
G01X5977Y91141D01*
G01X5983Y91162D01*
G01X5987Y91194D01*
G01X5988Y91236D01*
G01X5987Y91288D01*
G01X5983Y91346D01*
G01X5977Y91411D01*
G01X5968Y91479D01*
G01X5958Y91551D01*
G01X5946Y91623D01*
G01X5932Y91696D01*
G01X5916Y91767D01*
G01X5896Y91845D01*
G01X5876Y91918D01*
G01X5855Y91985D01*
G01X5833Y92048D01*
G01X5810Y92107D01*
G01X5786Y92161D01*
G01X5760Y92211D01*
G01X5733Y92258D01*
G01X5704Y92301D01*
G01X5673Y92340D01*
G01X5640Y92376D01*
G01X5605Y92410D01*
G01X5568Y92440D01*
G01X5528Y92469D01*
G01X5487Y92495D01*
G01X5442Y92518D01*
G01X5388Y92545D01*
G01X5335Y92568D01*
G01X5284Y92589D01*
G01X5234Y92608D01*
G01X5184Y92624D01*
G01X5133Y92637D01*
G01X5082Y92649D01*
G01X5030Y92658D01*
G01X4975Y92666D01*
G01X4919Y92672D01*
G01X4859Y92676D01*
G01X4796Y92679D01*
G37*

%LPD*%
G36*
G01X3189Y91842D02*
G01X3172Y91854D01*
G01X3150Y91826D01*
G01X3124Y91760D01*
G01X3108Y91699D01*
G01X3096Y91622D01*
G01X3086Y91537D01*
G01X3078Y91450D01*
G01X3075Y91369D01*
G01X3076Y91300D01*
G01X3081Y91251D01*
G01X3092Y91227D01*
G01X3112Y91225D01*
G01X3154Y91227D01*
G01X3209Y91232D01*
G01X3272Y91239D01*
G01X3336Y91248D01*
G01X3393Y91258D01*
G01X3437Y91268D01*
G01X3460Y91276D01*
G01X3455Y91287D01*
G01X3434Y91313D01*
G01X3401Y91350D01*
G01X3361Y91395D01*
G01X3324Y91440D01*
G01X3291Y91486D01*
G01X3263Y91534D01*
G01X3239Y91585D01*
G01X3220Y91636D01*
G01X3206Y91687D01*
G01X3198Y91739D01*
G01X3195Y91789D01*
G01X3189Y91842D01*
G37*

%LPD*%
G36*
G01X4836Y92600D02*
G01X4820Y92603D01*
G01X4799Y92592D01*
G01X4786Y92550D01*
G01X4781Y92473D01*
G01X4783Y92358D01*
G01X4790Y92180D01*
G01X4848Y92285D01*
G01X4879Y92332D01*
G01X4919Y92380D01*
G01X4963Y92424D01*
G01X5007Y92459D01*
G01X5066Y92502D01*
G01X5077Y92530D01*
G01X5037Y92551D01*
G01X4939Y92577D01*
G01X4899Y92586D01*
G01X4836Y92600D01*
G37*

%LPD*%
G54D36*
G01X10150Y98858D02*
G01X11468Y98858D01*
G01X11468Y96788D01*
G01X10150Y96788D01*
G01X9017Y98858D02*
G01X7696Y98858D01*
G01X7696Y96788D01*
G01X9017Y96788D01*
G01X9037Y107964D02*
G01X7719Y107964D01*
G01X7719Y110034D01*
G01X9037Y110034D01*
G01X10170Y107964D02*
G01X11491Y107964D01*
G01X11491Y110034D01*
G01X10170Y110034D01*
G01X10147Y112828D02*
G01X11468Y112828D01*
G01X11468Y110758D01*
G01X10147Y110758D01*
G01X9017Y112828D02*
G01X7696Y112828D01*
G01X7696Y110758D01*
G01X9017Y110758D01*
G01X18024Y98858D02*
G01X19342Y98858D01*
G01X19342Y96788D01*
G01X18024Y96788D01*
G01X16891Y98858D02*
G01X15570Y98858D01*
G01X15570Y96788D01*
G01X16891Y96788D01*
G01X16911Y107964D02*
G01X15593Y107964D01*
G01X15593Y110034D01*
G01X16911Y110034D01*
G01X18044Y107964D02*
G01X19365Y107964D01*
G01X19365Y110034D01*
G01X18044Y110034D01*
G01X18021Y112828D02*
G01X19342Y112828D01*
G01X19342Y110758D01*
G01X18021Y110758D01*
G01X16891Y112828D02*
G01X15570Y112828D01*
G01X15570Y110758D01*
G01X16891Y110758D01*
G01X25644Y98858D02*
G01X26962Y98858D01*
G01X26962Y96788D01*
G01X25644Y96788D01*
G01X24511Y98858D02*
G01X23190Y98858D01*
G01X23190Y96788D01*
G01X24511Y96788D01*
G01X24531Y107964D02*
G01X23213Y107964D01*
G01X23213Y110034D01*
G01X24531Y110034D01*
G01X25664Y107964D02*
G01X26985Y107964D01*
G01X26985Y110034D01*
G01X25664Y110034D01*
G01X25641Y112828D02*
G01X26962Y112828D01*
G01X26962Y110758D01*
G01X25641Y110758D01*
G01X24511Y112828D02*
G01X23190Y112828D01*
G01X23190Y110758D01*
G01X24511Y110758D01*
G01X33264Y98858D02*
G01X34582Y98858D01*
G01X34582Y96788D01*
G01X33264Y96788D01*
G01X32131Y98858D02*
G01X30810Y98858D01*
G01X30810Y96788D01*
G01X32131Y96788D01*
G01X32151Y107964D02*
G01X30833Y107964D01*
G01X30833Y110034D01*
G01X32151Y110034D01*
G01X33284Y107964D02*
G01X34605Y107964D01*
G01X34605Y110034D01*
G01X33284Y110034D01*
G01X33261Y112828D02*
G01X34582Y112828D01*
G01X34582Y110758D01*
G01X33261Y110758D01*
G01X32131Y112828D02*
G01X30810Y112828D01*
G01X30810Y110758D01*
G01X32131Y110758D01*
G01X43893Y35320D02*
G01X42575Y35320D01*
G01X42575Y37390D01*
G01X43893Y37390D01*
G01X45026Y35320D02*
G01X46347Y35320D01*
G01X46347Y37390D01*
G01X45026Y37390D01*
G01X38816Y35317D02*
G01X37495Y35317D01*
G01X37495Y37387D01*
G01X38816Y37387D01*
G01X39946Y35317D02*
G01X41267Y35317D01*
G01X41267Y37387D01*
G01X39946Y37387D01*
G01X39324Y23125D02*
G01X38003Y23125D01*
G01X38003Y25195D01*
G01X39324Y25195D01*
G01X40454Y23125D02*
G01X41775Y23125D01*
G01X41775Y25195D01*
G01X40454Y25195D01*
G01X46019Y25198D02*
G01X47340Y25198D01*
G01X47340Y23128D01*
G01X46019Y23128D01*
G01X44889Y25198D02*
G01X43568Y25198D01*
G01X43568Y23128D01*
G01X44889Y23128D01*
G01X25108Y85840D02*
G01X25108Y84517D01*
G01X23038Y84517D01*
G01X23038Y85838D01*
G01X25108Y86968D02*
G01X25108Y88289D01*
G01X23038Y88289D01*
G01X23038Y86968D01*
G54D10*
G01X26436Y86897D02*
G01X26436Y90151D01*
G01X36388Y90151D01*
G01X36388Y86468D01*
G01X26436Y86468D01*
G01X26436Y86897D01*
G01X23706Y91764D02*
G01X23706Y92424D01*
G01X23706Y91764D01*
G01X23706Y92424D01*
G01X22890Y92424D01*
G01X22890Y89503D02*
G01X23706Y89503D01*
G01X23706Y90163D01*
G54D23*
G01X22156Y90664D02*
G01X22156Y91263D01*
G54D36*
G01X22060Y85835D02*
G01X22060Y84517D01*
G01X19990Y84517D01*
G01X19990Y85835D01*
G01X22060Y86968D02*
G01X22060Y88289D01*
G01X19990Y88289D01*
G01X19990Y86968D01*
G01X16911Y88911D02*
G01X15593Y88911D01*
G01X15593Y90981D01*
G01X16911Y90981D01*
G01X18044Y88911D02*
G01X19365Y88911D01*
G01X19365Y90981D01*
G01X18044Y90981D01*
G01X46403Y111075D02*
G01X46403Y112396D01*
G01X48473Y112396D01*
G01X48473Y111075D01*
G01X46403Y109945D02*
G01X46403Y108624D01*
G01X48473Y108624D01*
G01X48473Y109945D01*
G01X46403Y105995D02*
G01X46403Y107316D01*
G01X48473Y107316D01*
G01X48473Y105995D01*
G01X46403Y104865D02*
G01X46403Y103544D01*
G01X48473Y103544D01*
G01X48473Y104865D01*
G01X36497Y111075D02*
G01X36497Y112396D01*
G01X38567Y112396D01*
G01X38567Y111075D01*
G01X36497Y109945D02*
G01X36497Y108624D01*
G01X38567Y108624D01*
G01X38567Y109945D01*
G01X36497Y105995D02*
G01X36497Y107316D01*
G01X38567Y107316D01*
G01X38567Y105995D01*
G01X36497Y104865D02*
G01X36497Y103544D01*
G01X38567Y103544D01*
G01X38567Y104865D01*
G01X39799Y111075D02*
G01X39799Y112396D01*
G01X41869Y112396D01*
G01X41869Y111075D01*
G01X39799Y109945D02*
G01X39799Y108624D01*
G01X41869Y108624D01*
G01X41869Y109945D01*
G01X39799Y105995D02*
G01X39799Y107316D01*
G01X41869Y107316D01*
G01X41869Y105995D01*
G01X39799Y104865D02*
G01X39799Y103544D01*
G01X41869Y103544D01*
G01X41869Y104865D01*
G01X43101Y111075D02*
G01X43101Y112396D01*
G01X45171Y112396D01*
G01X45171Y111075D01*
G01X43101Y109945D02*
G01X43101Y108624D01*
G01X45171Y108624D01*
G01X45171Y109945D01*
G01X43101Y105995D02*
G01X43101Y107316D01*
G01X45171Y107316D01*
G01X45171Y105995D01*
G01X43101Y104865D02*
G01X43101Y103544D01*
G01X45171Y103544D01*
G01X45171Y104865D01*
G54D10*
G01X59690Y11970D02*
G01X66548Y11970D01*
G01X66548Y31020D01*
G01X59690Y31020D01*
G01X59690Y11970D01*
G54D36*
G01X63037Y33831D02*
G01X64358Y33831D01*
G01X64358Y31761D01*
G01X63037Y31761D01*
G01X61907Y33831D02*
G01X60586Y33831D01*
G01X60586Y31761D01*
G01X61907Y31761D01*
G54D10*
G01X88080Y11970D02*
G01X94938Y11970D01*
G01X94938Y31020D01*
G01X88080Y31020D01*
G01X88080Y11970D01*
G54D36*
G01X91681Y33831D02*
G01X93002Y33831D01*
G01X93002Y31761D01*
G01X91681Y31761D01*
G01X90551Y33831D02*
G01X89230Y33831D01*
G01X89230Y31761D01*
G01X90551Y31761D01*
G01X62725Y81586D02*
G01X64046Y81586D01*
G01X64046Y79516D01*
G01X62725Y79516D01*
G01X61595Y81586D02*
G01X60274Y81586D01*
G01X60274Y79516D01*
G01X61595Y79516D01*
G01X62725Y84126D02*
G01X64046Y84126D01*
G01X64046Y82056D01*
G01X62725Y82056D01*
G01X61595Y84126D02*
G01X60274Y84126D01*
G01X60274Y82056D01*
G01X61595Y82056D01*
G01X62725Y86666D02*
G01X64046Y86666D01*
G01X64046Y84596D01*
G01X62725Y84596D01*
G01X61595Y86666D02*
G01X60274Y86666D01*
G01X60274Y84596D01*
G01X61595Y84596D01*
G01X62725Y89206D02*
G01X64046Y89206D01*
G01X64046Y87136D01*
G01X62725Y87136D01*
G01X61595Y89206D02*
G01X60274Y89206D01*
G01X60274Y87136D01*
G01X61595Y87136D01*
G01X62728Y68121D02*
G01X64046Y68121D01*
G01X64046Y66051D01*
G01X62728Y66051D01*
G01X61595Y68121D02*
G01X60274Y68121D01*
G01X60274Y66051D01*
G01X61595Y66051D01*
G01X62728Y70661D02*
G01X64046Y70661D01*
G01X64046Y68591D01*
G01X62728Y68591D01*
G01X61595Y70661D02*
G01X60274Y70661D01*
G01X60274Y68591D01*
G01X61595Y68591D01*
G01X62728Y73201D02*
G01X64046Y73201D01*
G01X64046Y71131D01*
G01X62728Y71131D01*
G01X61595Y73201D02*
G01X60274Y73201D01*
G01X60274Y71131D01*
G01X61595Y71131D01*
G01X62728Y75741D02*
G01X64046Y75741D01*
G01X64046Y73671D01*
G01X62728Y73671D01*
G01X61595Y75741D02*
G01X60274Y75741D01*
G01X60274Y73671D01*
G01X61595Y73671D01*
G01X99331Y53580D02*
G01X99331Y52259D01*
G01X97261Y52259D01*
G01X97261Y53580D01*
G01X99331Y54710D02*
G01X99331Y56031D01*
G01X97261Y56031D01*
G01X97261Y54710D01*
G01X78664Y50623D02*
G01X78664Y51944D01*
G01X80734Y51944D01*
G01X80734Y50623D01*
G01X78664Y49493D02*
G01X78664Y48172D01*
G01X80734Y48172D01*
G01X80734Y49493D01*
G01X94251Y53580D02*
G01X94251Y52259D01*
G01X92181Y52259D01*
G01X92181Y53580D01*
G01X94251Y54710D02*
G01X94251Y56031D01*
G01X92181Y56031D01*
G01X92181Y54710D01*
G01X90066Y46239D02*
G01X88745Y46239D01*
G01X88745Y48309D01*
G01X90066Y48309D01*
G01X91196Y46239D02*
G01X92517Y46239D01*
G01X92517Y48309D01*
G01X91196Y48309D01*
G01X80000Y44245D02*
G01X81318Y44245D01*
G01X81318Y42175D01*
G01X80000Y42175D01*
G01X78867Y44245D02*
G01X77546Y44245D01*
G01X77546Y42175D01*
G01X78867Y42175D01*
G54D10*
G01X76937Y54720D02*
G01X76937Y62322D01*
G01X80934Y62322D01*
G01X80934Y54522D01*
G01X76937Y54522D01*
G01X76937Y54720D01*
G01X76937Y54121D02*
G01X80934Y54121D01*
G54D36*
G01X96791Y53580D02*
G01X96791Y52259D01*
G01X94721Y52259D01*
G01X94721Y53580D01*
G01X96791Y54710D02*
G01X96791Y56031D01*
G01X94721Y56031D01*
G01X94721Y54710D01*
G54D10*
G01X75049Y62287D02*
G01X64534Y62287D01*
G01X75049Y52076D02*
G01X64534Y52076D01*
G54D36*
G01X67714Y49033D02*
G01X66393Y49033D01*
G01X66393Y51103D01*
G01X67714Y51103D01*
G01X68844Y49033D02*
G01X70165Y49033D01*
G01X70165Y51103D01*
G01X68844Y51103D01*
G01X67714Y46239D02*
G01X66393Y46239D01*
G01X66393Y48309D01*
G01X67714Y48309D01*
G01X68844Y46239D02*
G01X70165Y46239D01*
G01X70165Y48309D01*
G01X68844Y48309D01*
G01X67714Y43445D02*
G01X66393Y43445D01*
G01X66393Y45515D01*
G01X67714Y45515D01*
G01X68844Y43445D02*
G01X70165Y43445D01*
G01X70165Y45515D01*
G01X68844Y45515D01*
G01X84826Y48817D02*
G01X86144Y48817D01*
G01X86144Y46747D01*
G01X84826Y46747D01*
G01X83693Y48817D02*
G01X82372Y48817D01*
G01X82372Y46747D01*
G01X83693Y46747D01*
G01X84826Y45769D02*
G01X86144Y45769D01*
G01X86144Y43699D01*
G01X84826Y43699D01*
G01X83693Y45769D02*
G01X82372Y45769D01*
G01X82372Y43699D01*
G01X83693Y43699D01*
G54D41*
G01X70277Y79848D02*
G01X70277Y90039D01*
G01X74574Y90039D01*
G01X74574Y79848D01*
G01X70277Y79848D01*
G54D36*
G01X81524Y82853D02*
G01X82842Y82853D01*
G01X82842Y80783D01*
G01X81524Y80783D01*
G01X80391Y82853D02*
G01X79070Y82853D01*
G01X79070Y80783D01*
G01X80391Y80783D01*
G01X81524Y69391D02*
G01X82842Y69391D01*
G01X82842Y67321D01*
G01X81524Y67321D01*
G01X80391Y69391D02*
G01X79070Y69391D01*
G01X79070Y67321D01*
G01X80391Y67321D01*
G01X81524Y71931D02*
G01X82842Y71931D01*
G01X82842Y69861D01*
G01X81524Y69861D01*
G01X80391Y71931D02*
G01X79070Y71931D01*
G01X79070Y69861D01*
G01X80391Y69861D01*
G01X81524Y74471D02*
G01X82842Y74471D01*
G01X82842Y72401D01*
G01X81524Y72401D01*
G01X80391Y74471D02*
G01X79070Y74471D01*
G01X79070Y72401D01*
G01X80391Y72401D01*
G01X81524Y77011D02*
G01X82842Y77011D01*
G01X82842Y74941D01*
G01X81524Y74941D01*
G01X80391Y77011D02*
G01X79070Y77011D01*
G01X79070Y74941D01*
G01X80391Y74941D01*
G01X81524Y87933D02*
G01X82842Y87933D01*
G01X82842Y85863D01*
G01X81524Y85863D01*
G01X80391Y87933D02*
G01X79070Y87933D01*
G01X79070Y85863D01*
G01X80391Y85863D01*
G01X81524Y90473D02*
G01X82842Y90473D01*
G01X82842Y88403D01*
G01X81524Y88403D01*
G01X80391Y90473D02*
G01X79070Y90473D01*
G01X79070Y88403D01*
G01X80391Y88403D01*
G01X81524Y85393D02*
G01X82842Y85393D01*
G01X82842Y83323D01*
G01X81524Y83323D01*
G01X80391Y85393D02*
G01X79070Y85393D01*
G01X79070Y83323D01*
G01X80391Y83323D01*
G01X85588Y58215D02*
G01X86906Y58215D01*
G01X86906Y56145D01*
G01X85588Y56145D01*
G01X84455Y58215D02*
G01X83134Y58215D01*
G01X83134Y56145D01*
G01X84455Y56145D01*
G54D42*
G01X90089Y91139D02*
G01X90089Y81136D01*
G54D10*
G01X86589Y91139D02*
G01X86589Y81136D01*
G01X86589Y81136D02*
G01X90586Y81136D01*
G01X90586Y81136D02*
G01X90586Y91139D01*
G01X90586Y91139D02*
G01X86589Y91139D01*
G54D42*
G01X90089Y77677D02*
G01X90089Y67674D01*
G54D10*
G01X86589Y77677D02*
G01X86589Y67674D01*
G01X86589Y67674D02*
G01X90586Y67674D01*
G01X90586Y67674D02*
G01X90586Y77677D01*
G01X90586Y77677D02*
G01X86589Y77677D01*
G01X36931Y77679D02*
G01X36931Y69094D01*
G01X33147Y69094D01*
G01X33147Y77654D01*
G01X36931Y77679D02*
G01X35864Y77679D01*
G01X34213Y77654D02*
G01X33147Y77654D01*
G01X39878Y28353D02*
G01X44958Y28353D01*
G01X44958Y28353D02*
G01X44958Y32163D01*
G01X44958Y32163D02*
G01X39878Y32163D01*
G01X39878Y28353D02*
G01X39878Y29369D01*
G01X39878Y32163D02*
G01X39878Y31147D01*
G54D36*
G01X37122Y66372D02*
G01X37122Y67693D01*
G01X39193Y67693D01*
G01X39193Y66372D01*
G01X37122Y65240D02*
G01X37122Y63920D01*
G01X39193Y63920D01*
G01X39193Y65240D01*
G54D10*
G01X36931Y63201D02*
G01X36931Y54616D01*
G01X33147Y54616D01*
G01X33147Y63176D01*
G01X36931Y63201D02*
G01X35864Y63201D01*
G01X34213Y63176D02*
G01X33147Y63176D01*
G01X36931Y48215D02*
G01X36931Y39630D01*
G01X33147Y39630D01*
G01X33147Y48190D01*
G01X36931Y48215D02*
G01X35864Y48215D01*
G01X34213Y48190D02*
G01X33147Y48190D01*
G54D36*
G01X30968Y66118D02*
G01X30968Y67439D01*
G01X33039Y67439D01*
G01X33039Y66118D01*
G01X30968Y64986D02*
G01X30968Y63666D01*
G01X33039Y63666D01*
G01X33039Y64986D01*
G01X37064Y80850D02*
G01X37064Y82171D01*
G01X39135Y82171D01*
G01X39135Y80850D01*
G01X37064Y79718D02*
G01X37064Y78398D01*
G01X39135Y78398D01*
G01X39135Y79718D01*
G01X30968Y80850D02*
G01X30968Y82171D01*
G01X33039Y82171D01*
G01X33039Y80850D01*
G01X30968Y79718D02*
G01X30968Y78398D01*
G01X33039Y78398D01*
G01X33039Y79718D01*
G01X37066Y51642D02*
G01X37066Y52960D01*
G01X39136Y52960D01*
G01X39136Y51642D01*
G01X37066Y50509D02*
G01X37066Y49188D01*
G01X39136Y49188D01*
G01X39136Y50509D01*
G01X30967Y51642D02*
G01X30967Y52960D01*
G01X33037Y52960D01*
G01X33037Y51642D01*
G01X30967Y50509D02*
G01X30967Y49188D01*
G01X33037Y49188D01*
G01X33037Y50509D01*
G54D41*
G01X70391Y66388D02*
G01X70391Y76577D01*
G01X74691Y76577D01*
G01X74691Y66388D01*
G01X70391Y66388D01*
G54D10*
G01X87851Y49856D02*
G01X83852Y49856D01*
G01X87851Y54855D02*
G01X83852Y54855D01*
G54D37*
G01X11303Y96044D02*
G01X11303Y94954D01*
G01X11303Y96044D02*
G01X10836Y96044D01*
G01X10681Y95993D01*
G01X10627Y95942D01*
G01X10576Y95838D01*
G01X10576Y95734D01*
G01X10627Y95629D01*
G01X10681Y95576D01*
G01X10836Y95525D01*
G01X11303Y95525D01*
G01X10940Y95525D02*
G01X10576Y94954D01*
G01X9713Y96044D02*
G01X10234Y95317D01*
G01X9454Y95317D01*
G01X9713Y96044D02*
G01X9713Y94954D01*
G01X9111Y94591D02*
G01X8176Y94591D01*
G01X7313Y96044D02*
G01X7833Y95317D01*
G01X7054Y95317D01*
G01X7313Y96044D02*
G01X7313Y94954D01*
G01X11760Y115094D02*
G01X11760Y114004D01*
G01X11760Y115094D02*
G01X11293Y115094D01*
G01X11138Y115043D01*
G01X11084Y114992D01*
G01X11034Y114888D01*
G01X11034Y114784D01*
G01X11084Y114679D01*
G01X11138Y114626D01*
G01X11293Y114575D01*
G01X11760Y114575D01*
G01X11397Y114575D02*
G01X11034Y114004D01*
G01X10170Y115094D02*
G01X10691Y114367D01*
G01X9911Y114367D01*
G01X10170Y115094D02*
G01X10170Y114004D01*
G01X9568Y113641D02*
G01X8633Y113641D01*
G01X8237Y114834D02*
G01X8237Y114888D01*
G01X8186Y114992D01*
G01X8133Y115043D01*
G01X8029Y115094D01*
G01X7823Y115094D01*
G01X7719Y115043D01*
G01X7666Y114992D01*
G01X7615Y114888D01*
G01X7615Y114784D01*
G01X7666Y114679D01*
G01X7770Y114522D01*
G01X8290Y114004D01*
G01X7562Y114004D01*
G01X11760Y116618D02*
G01X11760Y115528D01*
G01X11760Y116618D02*
G01X11293Y116618D01*
G01X11138Y116567D01*
G01X11084Y116516D01*
G01X11034Y116412D01*
G01X11034Y116308D01*
G01X11084Y116203D01*
G01X11138Y116150D01*
G01X11293Y116099D01*
G01X11760Y116099D01*
G01X11397Y116099D02*
G01X11034Y115528D01*
G01X10170Y116618D02*
G01X10691Y115891D01*
G01X9911Y115891D01*
G01X10170Y116618D02*
G01X10170Y115528D01*
G01X9568Y115165D02*
G01X8633Y115165D01*
G01X8186Y116618D02*
G01X7615Y116618D01*
G01X7925Y116203D01*
G01X7770Y116203D01*
G01X7666Y116150D01*
G01X7615Y116099D01*
G01X7562Y115944D01*
G01X7562Y115840D01*
G01X7615Y115683D01*
G01X7719Y115579D01*
G01X7874Y115528D01*
G01X8029Y115528D01*
G01X8186Y115579D01*
G01X8237Y115632D01*
G01X8290Y115736D01*
G01X19380Y96044D02*
G01X19380Y94954D01*
G01X19380Y96044D02*
G01X18913Y96044D01*
G01X18758Y95993D01*
G01X18704Y95942D01*
G01X18654Y95838D01*
G01X18654Y95734D01*
G01X18704Y95629D01*
G01X18758Y95576D01*
G01X18913Y95525D01*
G01X19380Y95525D01*
G01X19017Y95525D02*
G01X18654Y94954D01*
G01X17790Y96044D02*
G01X18311Y95317D01*
G01X17531Y95317D01*
G01X17790Y96044D02*
G01X17790Y94954D01*
G01X17188Y94591D02*
G01X16253Y94591D01*
G01X15182Y96044D02*
G01X15702Y94954D01*
G01X15910Y96044D02*
G01X15182Y96044D01*
G01X19634Y114840D02*
G01X19634Y113750D01*
G01X19634Y114840D02*
G01X19167Y114840D01*
G01X19012Y114789D01*
G01X18958Y114738D01*
G01X18908Y114634D01*
G01X18908Y114530D01*
G01X18958Y114425D01*
G01X19012Y114372D01*
G01X19167Y114321D01*
G01X19634Y114321D01*
G01X19271Y114321D02*
G01X18908Y113750D01*
G01X18044Y114840D02*
G01X18565Y114113D01*
G01X17785Y114113D01*
G01X18044Y114840D02*
G01X18044Y113750D01*
G01X17442Y113387D02*
G01X16507Y113387D01*
G01X15540Y114840D02*
G01X16060Y114840D01*
G01X16111Y114372D01*
G01X16060Y114425D01*
G01X15903Y114476D01*
G01X15748Y114476D01*
G01X15593Y114425D01*
G01X15489Y114321D01*
G01X15436Y114166D01*
G01X15436Y114062D01*
G01X15489Y113905D01*
G01X15593Y113801D01*
G01X15748Y113750D01*
G01X15903Y113750D01*
G01X16060Y113801D01*
G01X16111Y113854D01*
G01X16164Y113958D01*
G01X19581Y116364D02*
G01X19581Y115274D01*
G01X19581Y116364D02*
G01X19113Y116364D01*
G01X18959Y116313D01*
G01X18905Y116262D01*
G01X18854Y116158D01*
G01X18854Y116054D01*
G01X18905Y115949D01*
G01X18959Y115896D01*
G01X19113Y115845D01*
G01X19581Y115845D01*
G01X19218Y115845D02*
G01X18854Y115274D01*
G01X17991Y116364D02*
G01X18511Y115637D01*
G01X17732Y115637D01*
G01X17991Y116364D02*
G01X17991Y115274D01*
G01X17389Y114911D02*
G01X16454Y114911D01*
G01X15486Y116209D02*
G01X15540Y116313D01*
G01X15695Y116364D01*
G01X15799Y116364D01*
G01X15954Y116313D01*
G01X16058Y116158D01*
G01X16111Y115896D01*
G01X16111Y115637D01*
G01X16058Y115429D01*
G01X15954Y115325D01*
G01X15799Y115274D01*
G01X15745Y115274D01*
G01X15590Y115325D01*
G01X15486Y115429D01*
G01X15436Y115586D01*
G01X15436Y115637D01*
G01X15486Y115792D01*
G01X15590Y115896D01*
G01X15745Y115949D01*
G01X15799Y115949D01*
G01X15954Y115896D01*
G01X16058Y115792D01*
G01X16111Y115637D01*
G01X27348Y96552D02*
G01X27348Y95462D01*
G01X27348Y96552D02*
G01X26881Y96552D01*
G01X26726Y96501D01*
G01X26672Y96450D01*
G01X26622Y96346D01*
G01X26622Y96242D01*
G01X26672Y96137D01*
G01X26726Y96084D01*
G01X26881Y96033D01*
G01X27348Y96033D01*
G01X26985Y96033D02*
G01X26622Y95462D01*
G01X25758Y96552D02*
G01X26279Y95825D01*
G01X25499Y95825D01*
G01X25758Y96552D02*
G01X25758Y95462D01*
G01X25156Y95099D02*
G01X24221Y95099D01*
G01X23878Y96346D02*
G01X23774Y96397D01*
G01X23617Y96552D01*
G01X23617Y95462D01*
G01X22964Y96552D02*
G01X23119Y96501D01*
G01X23223Y96346D01*
G01X23274Y96084D01*
G01X23274Y95929D01*
G01X23223Y95670D01*
G01X23119Y95513D01*
G01X22964Y95462D01*
G01X22860Y95462D01*
G01X22702Y95513D01*
G01X22598Y95670D01*
G01X22547Y95929D01*
G01X22547Y96084D01*
G01X22598Y96346D01*
G01X22702Y96501D01*
G01X22860Y96552D01*
G01X22964Y96552D01*
G01X27000Y114840D02*
G01X27000Y113750D01*
G01X27000Y114840D02*
G01X26533Y114840D01*
G01X26378Y114789D01*
G01X26324Y114738D01*
G01X26274Y114634D01*
G01X26274Y114530D01*
G01X26324Y114425D01*
G01X26378Y114372D01*
G01X26533Y114321D01*
G01X27000Y114321D01*
G01X26637Y114321D02*
G01X26274Y113750D01*
G01X25410Y114840D02*
G01X25931Y114113D01*
G01X25151Y114113D01*
G01X25410Y114840D02*
G01X25410Y113750D01*
G01X24808Y113387D02*
G01X23873Y113387D01*
G01X23269Y114840D02*
G01X23426Y114789D01*
G01X23477Y114685D01*
G01X23477Y114580D01*
G01X23426Y114476D01*
G01X23322Y114425D01*
G01X23114Y114372D01*
G01X22959Y114321D01*
G01X22855Y114217D01*
G01X22802Y114113D01*
G01X22802Y113958D01*
G01X22855Y113854D01*
G01X22906Y113801D01*
G01X23063Y113750D01*
G01X23269Y113750D01*
G01X23426Y113801D01*
G01X23477Y113854D01*
G01X23530Y113958D01*
G01X23530Y114113D01*
G01X23477Y114217D01*
G01X23373Y114321D01*
G01X23218Y114372D01*
G01X23010Y114425D01*
G01X22906Y114476D01*
G01X22855Y114580D01*
G01X22855Y114685D01*
G01X22906Y114789D01*
G01X23063Y114840D01*
G01X23269Y114840D01*
G01X26947Y116364D02*
G01X26947Y115274D01*
G01X26947Y116364D02*
G01X26479Y116364D01*
G01X26325Y116313D01*
G01X26271Y116262D01*
G01X26220Y116158D01*
G01X26220Y116054D01*
G01X26271Y115949D01*
G01X26325Y115896D01*
G01X26479Y115845D01*
G01X26947Y115845D01*
G01X26584Y115845D02*
G01X26220Y115274D01*
G01X25357Y116364D02*
G01X25877Y115637D01*
G01X25098Y115637D01*
G01X25357Y116364D02*
G01X25357Y115274D01*
G01X24755Y114911D02*
G01X23820Y114911D01*
G01X22802Y116000D02*
G01X22852Y115845D01*
G01X22956Y115741D01*
G01X23111Y115690D01*
G01X23165Y115690D01*
G01X23320Y115741D01*
G01X23424Y115845D01*
G01X23477Y116000D01*
G01X23477Y116054D01*
G01X23424Y116209D01*
G01X23320Y116313D01*
G01X23165Y116364D01*
G01X23111Y116364D01*
G01X22956Y116313D01*
G01X22852Y116209D01*
G01X22802Y116000D01*
G01X22802Y115741D01*
G01X22852Y115482D01*
G01X22956Y115325D01*
G01X23111Y115274D01*
G01X23216Y115274D01*
G01X23373Y115325D01*
G01X23424Y115429D01*
G01X34968Y96298D02*
G01X34968Y95208D01*
G01X34968Y96298D02*
G01X34501Y96298D01*
G01X34346Y96247D01*
G01X34292Y96196D01*
G01X34242Y96092D01*
G01X34242Y95988D01*
G01X34292Y95883D01*
G01X34346Y95830D01*
G01X34501Y95779D01*
G01X34968Y95779D01*
G01X34605Y95779D02*
G01X34242Y95208D01*
G01X33378Y96298D02*
G01X33899Y95571D01*
G01X33119Y95571D01*
G01X33378Y96298D02*
G01X33378Y95208D01*
G01X32776Y94845D02*
G01X31841Y94845D01*
G01X31498Y96092D02*
G01X31394Y96143D01*
G01X31237Y96298D01*
G01X31237Y95208D01*
G01X30790Y96298D02*
G01X30218Y96298D01*
G01X30531Y95883D01*
G01X30376Y95883D01*
G01X30272Y95830D01*
G01X30218Y95779D01*
G01X30167Y95624D01*
G01X30167Y95520D01*
G01X30218Y95363D01*
G01X30322Y95259D01*
G01X30480Y95208D01*
G01X30635Y95208D01*
G01X30790Y95259D01*
G01X30843Y95312D01*
G01X30894Y95416D01*
G01X34755Y114586D02*
G01X34755Y113496D01*
G01X34755Y114586D02*
G01X34287Y114586D01*
G01X34132Y114535D01*
G01X34079Y114484D01*
G01X34028Y114380D01*
G01X34028Y114276D01*
G01X34079Y114171D01*
G01X34132Y114118D01*
G01X34287Y114067D01*
G01X34755Y114067D01*
G01X34392Y114067D02*
G01X34028Y113496D01*
G01X33165Y114586D02*
G01X33685Y113859D01*
G01X32906Y113859D01*
G01X33165Y114586D02*
G01X33165Y113496D01*
G01X32563Y113133D02*
G01X31628Y113133D01*
G01X31285Y114380D02*
G01X31181Y114431D01*
G01X31024Y114586D01*
G01X31024Y113496D01*
G01X30681Y114380D02*
G01X30576Y114431D01*
G01X30422Y114586D01*
G01X30422Y113496D01*
G01X34714Y116364D02*
G01X34714Y115274D01*
G01X34714Y116364D02*
G01X34247Y116364D01*
G01X34092Y116313D01*
G01X34038Y116262D01*
G01X33988Y116158D01*
G01X33988Y116054D01*
G01X34038Y115949D01*
G01X34092Y115896D01*
G01X34247Y115845D01*
G01X34714Y115845D01*
G01X34351Y115845D02*
G01X33988Y115274D01*
G01X33124Y116364D02*
G01X33645Y115637D01*
G01X32865Y115637D01*
G01X33124Y116364D02*
G01X33124Y115274D01*
G01X32522Y114911D02*
G01X31587Y114911D01*
G01X31244Y116158D02*
G01X31140Y116209D01*
G01X30983Y116364D01*
G01X30983Y115274D01*
G01X30589Y116104D02*
G01X30589Y116158D01*
G01X30536Y116262D01*
G01X30485Y116313D01*
G01X30381Y116364D01*
G01X30173Y116364D01*
G01X30068Y116313D01*
G01X30018Y116262D01*
G01X29964Y116158D01*
G01X29964Y116054D01*
G01X30018Y115949D01*
G01X30122Y115792D01*
G01X30640Y115274D01*
G01X29913Y115274D01*
G01X46228Y39401D02*
G01X46228Y38312D01*
G01X46228Y39401D02*
G01X45760Y39401D01*
G01X45605Y39351D01*
G01X45552Y39300D01*
G01X45501Y39196D01*
G01X45501Y39092D01*
G01X45552Y38987D01*
G01X45605Y38934D01*
G01X45760Y38883D01*
G01X46228Y38883D01*
G01X45864Y38883D02*
G01X45501Y38312D01*
G01X45054Y39401D02*
G01X44483Y39401D01*
G01X44792Y38987D01*
G01X44637Y38987D01*
G01X44533Y38934D01*
G01X44483Y38883D01*
G01X44429Y38728D01*
G01X44429Y38624D01*
G01X44483Y38467D01*
G01X44587Y38363D01*
G01X44742Y38312D01*
G01X44897Y38312D01*
G01X45054Y38363D01*
G01X45105Y38416D01*
G01X45158Y38520D01*
G01X44086Y37949D02*
G01X43152Y37949D01*
G01X42809Y39196D02*
G01X42705Y39247D01*
G01X42550Y39401D01*
G01X42550Y38312D01*
G01X41402Y39401D02*
G01X41402Y38312D01*
G01X41402Y39401D02*
G01X40934Y39401D01*
G01X40779Y39351D01*
G01X40726Y39300D01*
G01X40675Y39196D01*
G01X40675Y39092D01*
G01X40726Y38987D01*
G01X40779Y38934D01*
G01X40934Y38883D01*
G01X41402Y38883D01*
G01X41038Y38883D02*
G01X40675Y38312D01*
G01X40228Y39401D02*
G01X39657Y39401D01*
G01X39966Y38987D01*
G01X39811Y38987D01*
G01X39707Y38934D01*
G01X39657Y38883D01*
G01X39603Y38728D01*
G01X39603Y38624D01*
G01X39657Y38467D01*
G01X39761Y38363D01*
G01X39916Y38312D01*
G01X40071Y38312D01*
G01X40228Y38363D01*
G01X40279Y38416D01*
G01X40332Y38520D01*
G01X39260Y37949D02*
G01X38326Y37949D01*
G01X37932Y39142D02*
G01X37932Y39196D01*
G01X37879Y39300D01*
G01X37828Y39351D01*
G01X37724Y39401D01*
G01X37515Y39401D01*
G01X37411Y39351D01*
G01X37360Y39300D01*
G01X37307Y39196D01*
G01X37307Y39092D01*
G01X37360Y38987D01*
G01X37465Y38830D01*
G01X37983Y38312D01*
G01X37256Y38312D01*
G01X41910Y22637D02*
G01X41910Y21548D01*
G01X41910Y22637D02*
G01X41442Y22637D01*
G01X41287Y22587D01*
G01X41234Y22536D01*
G01X41183Y22432D01*
G01X41183Y22328D01*
G01X41234Y22223D01*
G01X41287Y22170D01*
G01X41442Y22119D01*
G01X41910Y22119D01*
G01X41546Y22119D02*
G01X41183Y21548D01*
G01X40736Y22637D02*
G01X40165Y22637D01*
G01X40474Y22223D01*
G01X40319Y22223D01*
G01X40215Y22170D01*
G01X40165Y22119D01*
G01X40111Y21964D01*
G01X40111Y21860D01*
G01X40165Y21703D01*
G01X40269Y21599D01*
G01X40424Y21548D01*
G01X40579Y21548D01*
G01X40736Y21599D01*
G01X40787Y21652D01*
G01X40840Y21756D01*
G01X39768Y21185D02*
G01X38834Y21185D01*
G01X38387Y22637D02*
G01X37815Y22637D01*
G01X38127Y22223D01*
G01X37973Y22223D01*
G01X37868Y22170D01*
G01X37815Y22119D01*
G01X37764Y21964D01*
G01X37764Y21860D01*
G01X37815Y21703D01*
G01X37919Y21599D01*
G01X38074Y21548D01*
G01X38232Y21548D01*
G01X38387Y21599D01*
G01X38440Y21652D01*
G01X38491Y21756D01*
G01X47498Y22638D02*
G01X47498Y21548D01*
G01X47498Y22638D02*
G01X47030Y22638D01*
G01X46875Y22587D01*
G01X46822Y22536D01*
G01X46771Y22432D01*
G01X46771Y22328D01*
G01X46822Y22223D01*
G01X46875Y22170D01*
G01X47030Y22119D01*
G01X47498Y22119D01*
G01X47134Y22119D02*
G01X46771Y21548D01*
G01X46324Y22638D02*
G01X45753Y22638D01*
G01X46062Y22223D01*
G01X45907Y22223D01*
G01X45803Y22170D01*
G01X45753Y22119D01*
G01X45699Y21964D01*
G01X45699Y21860D01*
G01X45753Y21703D01*
G01X45857Y21599D01*
G01X46012Y21548D01*
G01X46167Y21548D01*
G01X46324Y21599D01*
G01X46375Y21652D01*
G01X46428Y21756D01*
G01X45356Y21185D02*
G01X44422Y21185D01*
G01X43561Y22638D02*
G01X44079Y21911D01*
G01X43299Y21911D01*
G01X43561Y22638D02*
G01X43561Y21548D01*
G01X23823Y92216D02*
G01X23718Y92269D01*
G01X23614Y92373D01*
G01X23564Y92475D01*
G01X23564Y92683D01*
G01X23614Y92787D01*
G01X23718Y92891D01*
G01X23823Y92945D01*
G01X23978Y92996D01*
G01X24237Y92996D01*
G01X24394Y92945D01*
G01X24498Y92891D01*
G01X24602Y92787D01*
G01X24653Y92683D01*
G01X24653Y92475D01*
G01X24602Y92373D01*
G01X24498Y92269D01*
G01X24394Y92216D01*
G01X23564Y91355D02*
G01X24290Y91873D01*
G01X24290Y91093D01*
G01X23564Y91355D02*
G01X24653Y91355D01*
G01X25016Y90750D02*
G01X25016Y89815D01*
G01X23823Y89422D02*
G01X23769Y89422D01*
G01X23665Y89368D01*
G01X23614Y89318D01*
G01X23564Y89213D01*
G01X23564Y89005D01*
G01X23614Y88901D01*
G01X23665Y88850D01*
G01X23769Y88797D01*
G01X23873Y88797D01*
G01X23978Y88850D01*
G01X24135Y88954D01*
G01X24653Y89473D01*
G01X24653Y88746D01*
G01X38585Y86531D02*
G01X37808Y86531D01*
G01X37650Y86582D01*
G01X37546Y86686D01*
G01X37495Y86844D01*
G01X37495Y86948D01*
G01X37546Y87103D01*
G01X37650Y87207D01*
G01X37808Y87258D01*
G01X38585Y87258D01*
G01X38585Y88121D02*
G01X37859Y87601D01*
G01X37859Y88380D01*
G01X38585Y88121D02*
G01X37495Y88121D01*
G01X37132Y88723D02*
G01X37132Y89658D01*
G01X38379Y90001D02*
G01X38430Y90105D01*
G01X38585Y90262D01*
G01X37495Y90262D01*
G01X20013Y93872D02*
G01X20790Y93872D01*
G01X20947Y93821D01*
G01X21051Y93717D01*
G01X21102Y93559D01*
G01X21102Y93455D01*
G01X21051Y93300D01*
G01X20947Y93196D01*
G01X20790Y93145D01*
G01X20013Y93145D01*
G01X20013Y92282D02*
G01X20739Y92802D01*
G01X20739Y92023D01*
G01X20013Y92282D02*
G01X21102Y92282D01*
G01X21465Y91680D02*
G01X21465Y90745D01*
G01X20272Y90349D02*
G01X20218Y90349D01*
G01X20114Y90298D01*
G01X20063Y90245D01*
G01X20013Y90141D01*
G01X20013Y89935D01*
G01X20063Y89831D01*
G01X20114Y89777D01*
G01X20218Y89727D01*
G01X20322Y89727D01*
G01X20427Y89777D01*
G01X20584Y89881D01*
G01X21102Y90402D01*
G01X21102Y89673D01*
G01X20775Y92216D02*
G01X20670Y92269D01*
G01X20566Y92373D01*
G01X20515Y92475D01*
G01X20515Y92683D01*
G01X20566Y92787D01*
G01X20670Y92891D01*
G01X20775Y92945D01*
G01X20930Y92995D01*
G01X21189Y92995D01*
G01X21346Y92945D01*
G01X21450Y92891D01*
G01X21554Y92787D01*
G01X21605Y92683D01*
G01X21605Y92475D01*
G01X21554Y92373D01*
G01X21450Y92269D01*
G01X21346Y92216D01*
G01X20515Y91355D02*
G01X21242Y91873D01*
G01X21242Y91093D01*
G01X20515Y91355D02*
G01X21605Y91355D01*
G01X21968Y90750D02*
G01X21968Y89815D01*
G01X20721Y89472D02*
G01X20670Y89368D01*
G01X20515Y89213D01*
G01X21605Y89213D01*
G01X14849Y90455D02*
G01X14849Y89366D01*
G01X14849Y90455D02*
G01X14381Y90455D01*
G01X14226Y90405D01*
G01X14173Y90354D01*
G01X14122Y90250D01*
G01X14122Y90146D01*
G01X14173Y90041D01*
G01X14226Y89988D01*
G01X14381Y89937D01*
G01X14849Y89937D01*
G01X14486Y89937D02*
G01X14122Y89366D01*
G01X13259Y90455D02*
G01X13779Y89729D01*
G01X13000Y89729D01*
G01X13259Y90455D02*
G01X13259Y89366D01*
G01X12657Y89003D02*
G01X11722Y89003D01*
G01X11379Y90250D02*
G01X11275Y90301D01*
G01X11118Y90455D01*
G01X11118Y89366D01*
G01X46932Y117888D02*
G01X48021Y117888D01*
G01X46932Y117888D02*
G01X46932Y117420D01*
G01X46982Y117265D01*
G01X47033Y117212D01*
G01X47137Y117161D01*
G01X47241Y117161D01*
G01X47346Y117212D01*
G01X47399Y117265D01*
G01X47450Y117420D01*
G01X47450Y117888D01*
G01X47450Y117524D02*
G01X48021Y117161D01*
G01X46932Y116297D02*
G01X47658Y116818D01*
G01X47658Y116038D01*
G01X46932Y116297D02*
G01X48021Y116297D01*
G01X48384Y115695D02*
G01X48384Y114761D01*
G01X47191Y114365D02*
G01X47137Y114365D01*
G01X47033Y114314D01*
G01X46982Y114260D01*
G01X46932Y114156D01*
G01X46932Y113951D01*
G01X46982Y113846D01*
G01X47033Y113793D01*
G01X47137Y113742D01*
G01X47241Y113742D01*
G01X47346Y113793D01*
G01X47503Y113897D01*
G01X48021Y114418D01*
G01X48021Y113689D01*
G01X46932Y113242D02*
G01X46932Y112670D01*
G01X47346Y112983D01*
G01X47346Y112828D01*
G01X47399Y112724D01*
G01X47450Y112670D01*
G01X47605Y112620D01*
G01X47709Y112620D01*
G01X47866Y112670D01*
G01X47970Y112774D01*
G01X48021Y112932D01*
G01X48021Y113087D01*
G01X47970Y113242D01*
G01X47917Y113295D01*
G01X47813Y113346D01*
G01X46932Y102902D02*
G01X48021Y102902D01*
G01X46932Y102902D02*
G01X46932Y102434D01*
G01X46982Y102279D01*
G01X47033Y102226D01*
G01X47137Y102175D01*
G01X47241Y102175D01*
G01X47346Y102226D01*
G01X47399Y102279D01*
G01X47450Y102434D01*
G01X47450Y102902D01*
G01X47450Y102538D02*
G01X48021Y102175D01*
G01X46932Y101311D02*
G01X47658Y101832D01*
G01X47658Y101052D01*
G01X46932Y101311D02*
G01X48021Y101311D01*
G01X48384Y100710D02*
G01X48384Y99775D01*
G01X47191Y99379D02*
G01X47137Y99379D01*
G01X47033Y99328D01*
G01X46982Y99274D01*
G01X46932Y99170D01*
G01X46932Y98965D01*
G01X46982Y98860D01*
G01X47033Y98807D01*
G01X47137Y98756D01*
G01X47241Y98756D01*
G01X47346Y98807D01*
G01X47503Y98911D01*
G01X48021Y99432D01*
G01X48021Y98703D01*
G01X46932Y97842D02*
G01X47658Y98360D01*
G01X47658Y97580D01*
G01X46932Y97842D02*
G01X48021Y97842D01*
G01X37026Y117634D02*
G01X38115Y117634D01*
G01X37026Y117634D02*
G01X37026Y117166D01*
G01X37076Y117011D01*
G01X37127Y116958D01*
G01X37231Y116907D01*
G01X37335Y116907D01*
G01X37440Y116958D01*
G01X37493Y117011D01*
G01X37544Y117166D01*
G01X37544Y117634D01*
G01X37544Y117270D02*
G01X38115Y116907D01*
G01X37026Y116043D02*
G01X37752Y116564D01*
G01X37752Y115784D01*
G01X37026Y116043D02*
G01X38115Y116043D01*
G01X38478Y115441D02*
G01X38478Y114507D01*
G01X37231Y114164D02*
G01X37180Y114060D01*
G01X37026Y113902D01*
G01X38115Y113902D01*
G01X37026Y113041D02*
G01X37752Y113559D01*
G01X37752Y112782D01*
G01X37026Y113041D02*
G01X38115Y113041D01*
G01X37025Y102902D02*
G01X38115Y102902D01*
G01X37025Y102902D02*
G01X37025Y102434D01*
G01X37076Y102279D01*
G01X37127Y102226D01*
G01X37231Y102175D01*
G01X37335Y102175D01*
G01X37440Y102226D01*
G01X37493Y102279D01*
G01X37544Y102434D01*
G01X37544Y102902D01*
G01X37544Y102538D02*
G01X38115Y102175D01*
G01X37025Y101311D02*
G01X37752Y101832D01*
G01X37752Y101052D01*
G01X37025Y101311D02*
G01X38115Y101311D01*
G01X38478Y100709D02*
G01X38478Y99775D01*
G01X37231Y99432D02*
G01X37180Y99328D01*
G01X37025Y99170D01*
G01X38115Y99170D01*
G01X37025Y98205D02*
G01X37025Y98723D01*
G01X37493Y98777D01*
G01X37440Y98723D01*
G01X37389Y98568D01*
G01X37389Y98413D01*
G01X37440Y98256D01*
G01X37544Y98152D01*
G01X37699Y98101D01*
G01X37803Y98101D01*
G01X37960Y98152D01*
G01X38064Y98256D01*
G01X38115Y98413D01*
G01X38115Y98568D01*
G01X38064Y98723D01*
G01X38011Y98777D01*
G01X37907Y98827D01*
G01X40328Y117634D02*
G01X41417Y117634D01*
G01X40328Y117634D02*
G01X40328Y117166D01*
G01X40378Y117011D01*
G01X40429Y116958D01*
G01X40533Y116907D01*
G01X40637Y116907D01*
G01X40742Y116958D01*
G01X40795Y117011D01*
G01X40846Y117166D01*
G01X40846Y117634D01*
G01X40846Y117270D02*
G01X41417Y116907D01*
G01X40328Y116043D02*
G01X41054Y116564D01*
G01X41054Y115784D01*
G01X40328Y116043D02*
G01X41417Y116043D01*
G01X41780Y115441D02*
G01X41780Y114507D01*
G01X40533Y114164D02*
G01X40482Y114060D01*
G01X40328Y113902D01*
G01X41417Y113902D01*
G01X40328Y112833D02*
G01X41417Y113354D01*
G01X40328Y113559D02*
G01X40328Y112833D01*
G01X40327Y102902D02*
G01X41417Y102902D01*
G01X40327Y102902D02*
G01X40327Y102434D01*
G01X40378Y102279D01*
G01X40429Y102226D01*
G01X40533Y102175D01*
G01X40637Y102175D01*
G01X40742Y102226D01*
G01X40795Y102279D01*
G01X40846Y102434D01*
G01X40846Y102902D01*
G01X40846Y102538D02*
G01X41417Y102175D01*
G01X40327Y101311D02*
G01X41054Y101832D01*
G01X41054Y101052D01*
G01X40327Y101311D02*
G01X41417Y101311D01*
G01X41780Y100709D02*
G01X41780Y99775D01*
G01X40533Y99432D02*
G01X40482Y99328D01*
G01X40327Y99170D01*
G01X41417Y99170D01*
G01X40327Y98568D02*
G01X40378Y98723D01*
G01X40482Y98777D01*
G01X40587Y98777D01*
G01X40691Y98723D01*
G01X40742Y98622D01*
G01X40795Y98413D01*
G01X40846Y98256D01*
G01X40950Y98152D01*
G01X41054Y98101D01*
G01X41209Y98101D01*
G01X41313Y98152D01*
G01X41366Y98205D01*
G01X41417Y98360D01*
G01X41417Y98568D01*
G01X41366Y98723D01*
G01X41313Y98777D01*
G01X41209Y98827D01*
G01X41054Y98827D01*
G01X40950Y98777D01*
G01X40846Y98672D01*
G01X40795Y98517D01*
G01X40742Y98309D01*
G01X40691Y98205D01*
G01X40587Y98152D01*
G01X40482Y98152D01*
G01X40378Y98205D01*
G01X40327Y98360D01*
G01X40327Y98568D01*
G01X43630Y117888D02*
G01X44719Y117888D01*
G01X43630Y117888D02*
G01X43630Y117420D01*
G01X43680Y117265D01*
G01X43731Y117212D01*
G01X43835Y117161D01*
G01X43939Y117161D01*
G01X44044Y117212D01*
G01X44097Y117265D01*
G01X44148Y117420D01*
G01X44148Y117888D01*
G01X44148Y117524D02*
G01X44719Y117161D01*
G01X43630Y116297D02*
G01X44356Y116818D01*
G01X44356Y116038D01*
G01X43630Y116297D02*
G01X44719Y116297D01*
G01X45082Y115695D02*
G01X45082Y114761D01*
G01X43889Y114365D02*
G01X43835Y114365D01*
G01X43731Y114314D01*
G01X43680Y114260D01*
G01X43630Y114156D01*
G01X43630Y113951D01*
G01X43680Y113846D01*
G01X43731Y113793D01*
G01X43835Y113742D01*
G01X43939Y113742D01*
G01X44044Y113793D01*
G01X44201Y113897D01*
G01X44719Y114418D01*
G01X44719Y113689D01*
G01X43630Y113036D02*
G01X43680Y113191D01*
G01X43835Y113295D01*
G01X44097Y113346D01*
G01X44252Y113346D01*
G01X44511Y113295D01*
G01X44668Y113191D01*
G01X44719Y113036D01*
G01X44719Y112932D01*
G01X44668Y112774D01*
G01X44511Y112670D01*
G01X44252Y112620D01*
G01X44097Y112620D01*
G01X43835Y112670D01*
G01X43680Y112774D01*
G01X43630Y112932D01*
G01X43630Y113036D01*
G01X43630Y102902D02*
G01X44719Y102902D01*
G01X43630Y102902D02*
G01X43630Y102434D01*
G01X43680Y102279D01*
G01X43731Y102226D01*
G01X43835Y102175D01*
G01X43939Y102175D01*
G01X44044Y102226D01*
G01X44097Y102279D01*
G01X44148Y102434D01*
G01X44148Y102902D01*
G01X44148Y102538D02*
G01X44719Y102175D01*
G01X43630Y101311D02*
G01X44356Y101832D01*
G01X44356Y101052D01*
G01X43630Y101311D02*
G01X44719Y101311D01*
G01X45082Y100709D02*
G01X45082Y99775D01*
G01X43889Y99379D02*
G01X43835Y99379D01*
G01X43731Y99328D01*
G01X43680Y99274D01*
G01X43630Y99170D01*
G01X43630Y98965D01*
G01X43680Y98860D01*
G01X43731Y98807D01*
G01X43835Y98756D01*
G01X43939Y98756D01*
G01X44044Y98807D01*
G01X44201Y98911D01*
G01X44719Y99432D01*
G01X44719Y98703D01*
G01X43835Y98360D02*
G01X43784Y98256D01*
G01X43630Y98101D01*
G01X44719Y98101D01*
G01X64891Y11462D02*
G01X64891Y10684D01*
G01X64841Y10527D01*
G01X64736Y10423D01*
G01X64579Y10372D01*
G01X64475Y10372D01*
G01X64320Y10423D01*
G01X64216Y10527D01*
G01X64165Y10684D01*
G01X64165Y11462D01*
G01X63197Y11462D02*
G01X63718Y11462D01*
G01X63769Y10994D01*
G01X63718Y11048D01*
G01X63560Y11098D01*
G01X63406Y11098D01*
G01X63251Y11048D01*
G01X63146Y10943D01*
G01X63093Y10788D01*
G01X63093Y10684D01*
G01X63146Y10527D01*
G01X63251Y10423D01*
G01X63406Y10372D01*
G01X63560Y10372D01*
G01X63718Y10423D01*
G01X63769Y10476D01*
G01X63822Y10580D01*
G01X62750Y10009D02*
G01X61815Y10009D01*
G01X61473Y11256D02*
G01X61368Y11307D01*
G01X61214Y11462D01*
G01X61214Y10372D01*
G01X63911Y35586D02*
G01X63964Y35691D01*
G01X64068Y35795D01*
G01X64170Y35846D01*
G01X64378Y35846D01*
G01X64482Y35795D01*
G01X64587Y35691D01*
G01X64640Y35586D01*
G01X64691Y35432D01*
G01X64691Y35172D01*
G01X64640Y35015D01*
G01X64587Y34911D01*
G01X64482Y34807D01*
G01X64378Y34756D01*
G01X64170Y34756D01*
G01X64068Y34807D01*
G01X63964Y34911D01*
G01X63911Y35015D01*
G01X62946Y35846D02*
G01X63464Y35846D01*
G01X63517Y35378D01*
G01X63464Y35432D01*
G01X63309Y35482D01*
G01X63154Y35482D01*
G01X62997Y35432D01*
G01X62892Y35327D01*
G01X62842Y35172D01*
G01X62842Y35068D01*
G01X62892Y34911D01*
G01X62997Y34807D01*
G01X63154Y34756D01*
G01X63309Y34756D01*
G01X63464Y34807D01*
G01X63517Y34860D01*
G01X63568Y34964D01*
G01X62499Y34393D02*
G01X61564Y34393D01*
G01X61221Y35640D02*
G01X61117Y35691D01*
G01X60960Y35846D01*
G01X60960Y34756D01*
G01X93495Y11208D02*
G01X93495Y10430D01*
G01X93444Y10273D01*
G01X93340Y10169D01*
G01X93182Y10118D01*
G01X93078Y10118D01*
G01X92923Y10169D01*
G01X92819Y10273D01*
G01X92768Y10430D01*
G01X92768Y11208D01*
G01X91801Y11208D02*
G01X92321Y11208D01*
G01X92372Y10740D01*
G01X92321Y10794D01*
G01X92164Y10844D01*
G01X92009Y10844D01*
G01X91854Y10794D01*
G01X91750Y10689D01*
G01X91697Y10534D01*
G01X91697Y10430D01*
G01X91750Y10273D01*
G01X91854Y10169D01*
G01X92009Y10118D01*
G01X92164Y10118D01*
G01X92321Y10169D01*
G01X92372Y10222D01*
G01X92426Y10326D01*
G01X91354Y9755D02*
G01X90419Y9755D01*
G01X90025Y10948D02*
G01X90025Y11002D01*
G01X89972Y11106D01*
G01X89921Y11157D01*
G01X89817Y11208D01*
G01X89609Y11208D01*
G01X89505Y11157D01*
G01X89454Y11106D01*
G01X89400Y11002D01*
G01X89400Y10898D01*
G01X89454Y10794D01*
G01X89558Y10636D01*
G01X90076Y10118D01*
G01X89350Y10118D01*
G01X92514Y35586D02*
G01X92568Y35691D01*
G01X92672Y35795D01*
G01X92773Y35846D01*
G01X92982Y35846D01*
G01X93086Y35795D01*
G01X93190Y35691D01*
G01X93243Y35586D01*
G01X93294Y35432D01*
G01X93294Y35172D01*
G01X93243Y35015D01*
G01X93190Y34911D01*
G01X93086Y34807D01*
G01X92982Y34756D01*
G01X92773Y34756D01*
G01X92672Y34807D01*
G01X92568Y34911D01*
G01X92514Y35015D01*
G01X91549Y35846D02*
G01X92067Y35846D01*
G01X92121Y35378D01*
G01X92067Y35432D01*
G01X91912Y35482D01*
G01X91757Y35482D01*
G01X91600Y35432D01*
G01X91496Y35327D01*
G01X91445Y35172D01*
G01X91445Y35068D01*
G01X91496Y34911D01*
G01X91600Y34807D01*
G01X91757Y34756D01*
G01X91912Y34756D01*
G01X92067Y34807D01*
G01X92121Y34860D01*
G01X92171Y34964D01*
G01X91102Y34393D02*
G01X90167Y34393D01*
G01X89771Y35586D02*
G01X89771Y35640D01*
G01X89720Y35744D01*
G01X89667Y35795D01*
G01X89563Y35846D01*
G01X89357Y35846D01*
G01X89253Y35795D01*
G01X89200Y35744D01*
G01X89149Y35640D01*
G01X89149Y35536D01*
G01X89200Y35432D01*
G01X89304Y35274D01*
G01X89824Y34756D01*
G01X89095Y34756D01*
G01X60140Y81426D02*
G01X60140Y80336D01*
G01X60140Y81426D02*
G01X59672Y81426D01*
G01X59517Y81375D01*
G01X59464Y81324D01*
G01X59413Y81220D01*
G01X59413Y81116D01*
G01X59464Y81012D01*
G01X59517Y80958D01*
G01X59672Y80908D01*
G01X60140Y80908D01*
G01X59776Y80908D02*
G01X59413Y80336D01*
G01X58445Y81271D02*
G01X58499Y81375D01*
G01X58654Y81426D01*
G01X58758Y81426D01*
G01X58913Y81375D01*
G01X59017Y81220D01*
G01X59070Y80958D01*
G01X59070Y80699D01*
G01X59017Y80491D01*
G01X58913Y80387D01*
G01X58758Y80336D01*
G01X58704Y80336D01*
G01X58549Y80387D01*
G01X58445Y80491D01*
G01X58395Y80649D01*
G01X58395Y80699D01*
G01X58445Y80854D01*
G01X58549Y80958D01*
G01X58704Y81012D01*
G01X58758Y81012D01*
G01X58913Y80958D01*
G01X59017Y80854D01*
G01X59070Y80699D01*
G01X58052Y79973D02*
G01X57117Y79973D01*
G01X56774Y81220D02*
G01X56670Y81271D01*
G01X56512Y81426D01*
G01X56512Y80336D01*
G01X56119Y81167D02*
G01X56119Y81220D01*
G01X56065Y81324D01*
G01X56015Y81375D01*
G01X55910Y81426D01*
G01X55702Y81426D01*
G01X55598Y81375D01*
G01X55547Y81324D01*
G01X55494Y81220D01*
G01X55494Y81116D01*
G01X55547Y81012D01*
G01X55651Y80854D01*
G01X56169Y80336D01*
G01X55443Y80336D01*
G01X60140Y83712D02*
G01X60140Y82622D01*
G01X60140Y83712D02*
G01X59672Y83712D01*
G01X59517Y83661D01*
G01X59464Y83610D01*
G01X59413Y83506D01*
G01X59413Y83402D01*
G01X59464Y83298D01*
G01X59517Y83244D01*
G01X59672Y83194D01*
G01X60140Y83194D01*
G01X59776Y83194D02*
G01X59413Y82622D01*
G01X58445Y83557D02*
G01X58499Y83661D01*
G01X58654Y83712D01*
G01X58758Y83712D01*
G01X58913Y83661D01*
G01X59017Y83506D01*
G01X59070Y83244D01*
G01X59070Y82985D01*
G01X59017Y82777D01*
G01X58913Y82673D01*
G01X58758Y82622D01*
G01X58704Y82622D01*
G01X58549Y82673D01*
G01X58445Y82777D01*
G01X58395Y82935D01*
G01X58395Y82985D01*
G01X58445Y83140D01*
G01X58549Y83244D01*
G01X58704Y83298D01*
G01X58758Y83298D01*
G01X58913Y83244D01*
G01X59017Y83140D01*
G01X59070Y82985D01*
G01X58052Y82259D02*
G01X57117Y82259D01*
G01X56774Y83506D02*
G01X56670Y83557D01*
G01X56512Y83712D01*
G01X56512Y82622D01*
G01X56169Y83506D02*
G01X56065Y83557D01*
G01X55910Y83712D01*
G01X55910Y82622D01*
G01X60140Y86252D02*
G01X60140Y85162D01*
G01X60140Y86252D02*
G01X59672Y86252D01*
G01X59517Y86201D01*
G01X59464Y86150D01*
G01X59413Y86046D01*
G01X59413Y85942D01*
G01X59464Y85838D01*
G01X59517Y85784D01*
G01X59672Y85734D01*
G01X60140Y85734D01*
G01X59776Y85734D02*
G01X59413Y85162D01*
G01X58445Y86097D02*
G01X58499Y86201D01*
G01X58654Y86252D01*
G01X58758Y86252D01*
G01X58913Y86201D01*
G01X59017Y86046D01*
G01X59070Y85784D01*
G01X59070Y85525D01*
G01X59017Y85317D01*
G01X58913Y85213D01*
G01X58758Y85162D01*
G01X58704Y85162D01*
G01X58549Y85213D01*
G01X58445Y85317D01*
G01X58395Y85475D01*
G01X58395Y85525D01*
G01X58445Y85680D01*
G01X58549Y85784D01*
G01X58704Y85838D01*
G01X58758Y85838D01*
G01X58913Y85784D01*
G01X59017Y85680D01*
G01X59070Y85525D01*
G01X58052Y84799D02*
G01X57117Y84799D01*
G01X56774Y86046D02*
G01X56670Y86097D01*
G01X56512Y86252D01*
G01X56512Y85162D01*
G01X55860Y86252D02*
G01X56015Y86201D01*
G01X56119Y86046D01*
G01X56169Y85784D01*
G01X56169Y85630D01*
G01X56119Y85370D01*
G01X56015Y85213D01*
G01X55860Y85162D01*
G01X55755Y85162D01*
G01X55598Y85213D01*
G01X55494Y85370D01*
G01X55443Y85630D01*
G01X55443Y85784D01*
G01X55494Y86046D01*
G01X55598Y86201D01*
G01X55755Y86252D01*
G01X55860Y86252D01*
G01X60140Y88792D02*
G01X60140Y87702D01*
G01X60140Y88792D02*
G01X59672Y88792D01*
G01X59517Y88741D01*
G01X59464Y88690D01*
G01X59413Y88586D01*
G01X59413Y88482D01*
G01X59464Y88378D01*
G01X59517Y88324D01*
G01X59672Y88274D01*
G01X60140Y88274D01*
G01X59776Y88274D02*
G01X59413Y87702D01*
G01X58445Y88637D02*
G01X58499Y88741D01*
G01X58654Y88792D01*
G01X58758Y88792D01*
G01X58913Y88741D01*
G01X59017Y88586D01*
G01X59070Y88324D01*
G01X59070Y88065D01*
G01X59017Y87857D01*
G01X58913Y87753D01*
G01X58758Y87702D01*
G01X58704Y87702D01*
G01X58549Y87753D01*
G01X58445Y87857D01*
G01X58395Y88015D01*
G01X58395Y88065D01*
G01X58445Y88220D01*
G01X58549Y88324D01*
G01X58704Y88378D01*
G01X58758Y88378D01*
G01X58913Y88324D01*
G01X59017Y88220D01*
G01X59070Y88065D01*
G01X58052Y87339D02*
G01X57117Y87339D01*
G01X56098Y88429D02*
G01X56149Y88274D01*
G01X56253Y88170D01*
G01X56408Y88119D01*
G01X56462Y88119D01*
G01X56617Y88170D01*
G01X56721Y88274D01*
G01X56774Y88429D01*
G01X56774Y88482D01*
G01X56721Y88637D01*
G01X56617Y88741D01*
G01X56462Y88792D01*
G01X56408Y88792D01*
G01X56253Y88741D01*
G01X56149Y88637D01*
G01X56098Y88429D01*
G01X56098Y88170D01*
G01X56149Y87910D01*
G01X56253Y87753D01*
G01X56408Y87702D01*
G01X56512Y87702D01*
G01X56670Y87753D01*
G01X56721Y87857D01*
G01X60140Y67964D02*
G01X60140Y66874D01*
G01X60140Y67964D02*
G01X59672Y67964D01*
G01X59517Y67913D01*
G01X59464Y67862D01*
G01X59413Y67758D01*
G01X59413Y67654D01*
G01X59464Y67550D01*
G01X59517Y67496D01*
G01X59672Y67446D01*
G01X60140Y67446D01*
G01X59776Y67446D02*
G01X59413Y66874D01*
G01X58445Y67809D02*
G01X58499Y67913D01*
G01X58654Y67964D01*
G01X58758Y67964D01*
G01X58913Y67913D01*
G01X59017Y67758D01*
G01X59070Y67496D01*
G01X59070Y67237D01*
G01X59017Y67029D01*
G01X58913Y66925D01*
G01X58758Y66874D01*
G01X58704Y66874D01*
G01X58549Y66925D01*
G01X58445Y67029D01*
G01X58395Y67187D01*
G01X58395Y67237D01*
G01X58445Y67392D01*
G01X58549Y67496D01*
G01X58704Y67550D01*
G01X58758Y67550D01*
G01X58913Y67496D01*
G01X59017Y67392D01*
G01X59070Y67237D01*
G01X58052Y66511D02*
G01X57117Y66511D01*
G01X56253Y67964D02*
G01X56774Y67237D01*
G01X55994Y67237D01*
G01X56253Y67964D02*
G01X56253Y66874D01*
G01X60140Y70504D02*
G01X60140Y69414D01*
G01X60140Y70504D02*
G01X59672Y70504D01*
G01X59517Y70453D01*
G01X59464Y70402D01*
G01X59413Y70298D01*
G01X59413Y70194D01*
G01X59464Y70090D01*
G01X59517Y70036D01*
G01X59672Y69986D01*
G01X60140Y69986D01*
G01X59776Y69986D02*
G01X59413Y69414D01*
G01X58445Y70349D02*
G01X58499Y70453D01*
G01X58654Y70504D01*
G01X58758Y70504D01*
G01X58913Y70453D01*
G01X59017Y70298D01*
G01X59070Y70036D01*
G01X59070Y69777D01*
G01X59017Y69569D01*
G01X58913Y69465D01*
G01X58758Y69414D01*
G01X58704Y69414D01*
G01X58549Y69465D01*
G01X58445Y69569D01*
G01X58395Y69727D01*
G01X58395Y69777D01*
G01X58445Y69932D01*
G01X58549Y70036D01*
G01X58704Y70090D01*
G01X58758Y70090D01*
G01X58913Y70036D01*
G01X59017Y69932D01*
G01X59070Y69777D01*
G01X58052Y69051D02*
G01X57117Y69051D01*
G01X56670Y70504D02*
G01X56098Y70504D01*
G01X56408Y70090D01*
G01X56253Y70090D01*
G01X56149Y70036D01*
G01X56098Y69986D01*
G01X56045Y69831D01*
G01X56045Y69727D01*
G01X56098Y69569D01*
G01X56203Y69465D01*
G01X56357Y69414D01*
G01X56512Y69414D01*
G01X56670Y69465D01*
G01X56721Y69518D01*
G01X56774Y69622D01*
G01X60140Y73044D02*
G01X60140Y71954D01*
G01X60140Y73044D02*
G01X59672Y73044D01*
G01X59517Y72993D01*
G01X59464Y72942D01*
G01X59413Y72838D01*
G01X59413Y72734D01*
G01X59464Y72630D01*
G01X59517Y72576D01*
G01X59672Y72526D01*
G01X60140Y72526D01*
G01X59776Y72526D02*
G01X59413Y71954D01*
G01X58445Y72889D02*
G01X58499Y72993D01*
G01X58654Y73044D01*
G01X58758Y73044D01*
G01X58913Y72993D01*
G01X59017Y72838D01*
G01X59070Y72576D01*
G01X59070Y72317D01*
G01X59017Y72109D01*
G01X58913Y72005D01*
G01X58758Y71954D01*
G01X58704Y71954D01*
G01X58549Y72005D01*
G01X58445Y72109D01*
G01X58395Y72267D01*
G01X58395Y72317D01*
G01X58445Y72472D01*
G01X58549Y72576D01*
G01X58704Y72630D01*
G01X58758Y72630D01*
G01X58913Y72576D01*
G01X59017Y72472D01*
G01X59070Y72317D01*
G01X58052Y71591D02*
G01X57117Y71591D01*
G01X56721Y72785D02*
G01X56721Y72838D01*
G01X56670Y72942D01*
G01X56617Y72993D01*
G01X56512Y73044D01*
G01X56304Y73044D01*
G01X56203Y72993D01*
G01X56149Y72942D01*
G01X56098Y72838D01*
G01X56098Y72734D01*
G01X56149Y72630D01*
G01X56253Y72472D01*
G01X56774Y71954D01*
G01X56045Y71954D01*
G01X60140Y75584D02*
G01X60140Y74494D01*
G01X60140Y75584D02*
G01X59672Y75584D01*
G01X59517Y75533D01*
G01X59464Y75482D01*
G01X59413Y75378D01*
G01X59413Y75274D01*
G01X59464Y75170D01*
G01X59517Y75116D01*
G01X59672Y75066D01*
G01X60140Y75066D01*
G01X59776Y75066D02*
G01X59413Y74494D01*
G01X58445Y75429D02*
G01X58499Y75533D01*
G01X58654Y75584D01*
G01X58758Y75584D01*
G01X58913Y75533D01*
G01X59017Y75378D01*
G01X59070Y75116D01*
G01X59070Y74857D01*
G01X59017Y74649D01*
G01X58913Y74545D01*
G01X58758Y74494D01*
G01X58704Y74494D01*
G01X58549Y74545D01*
G01X58445Y74649D01*
G01X58395Y74807D01*
G01X58395Y74857D01*
G01X58445Y75012D01*
G01X58549Y75116D01*
G01X58704Y75170D01*
G01X58758Y75170D01*
G01X58913Y75116D01*
G01X59017Y75012D01*
G01X59070Y74857D01*
G01X58052Y74131D02*
G01X57117Y74131D01*
G01X56774Y75378D02*
G01X56670Y75429D01*
G01X56512Y75584D01*
G01X56512Y74494D01*
G01X97718Y47626D02*
G01X97614Y47679D01*
G01X97510Y47784D01*
G01X97459Y47885D01*
G01X97459Y48093D01*
G01X97510Y48198D01*
G01X97614Y48302D01*
G01X97718Y48355D01*
G01X97873Y48406D01*
G01X98132Y48406D01*
G01X98290Y48355D01*
G01X98394Y48302D01*
G01X98498Y48198D01*
G01X98549Y48093D01*
G01X98549Y47885D01*
G01X98498Y47784D01*
G01X98394Y47679D01*
G01X98290Y47626D01*
G01X97665Y47283D02*
G01X97614Y47179D01*
G01X97459Y47024D01*
G01X98549Y47024D01*
G01X98912Y46681D02*
G01X98912Y45746D01*
G01X97665Y45404D02*
G01X97614Y45299D01*
G01X97459Y45142D01*
G01X98549Y45142D01*
G01X76909Y51322D02*
G01X76804Y51375D01*
G01X76700Y51479D01*
G01X76649Y51581D01*
G01X76649Y51789D01*
G01X76700Y51893D01*
G01X76804Y51997D01*
G01X76909Y52051D01*
G01X77064Y52102D01*
G01X77323Y52102D01*
G01X77480Y52051D01*
G01X77584Y51997D01*
G01X77688Y51893D01*
G01X77739Y51789D01*
G01X77739Y51581D01*
G01X77688Y51479D01*
G01X77584Y51375D01*
G01X77480Y51322D01*
G01X76855Y50979D02*
G01X76804Y50875D01*
G01X76649Y50720D01*
G01X77739Y50720D01*
G01X78102Y50377D02*
G01X78102Y49442D01*
G01X76649Y48474D02*
G01X76649Y48995D01*
G01X77117Y49046D01*
G01X77064Y48995D01*
G01X77013Y48838D01*
G01X77013Y48683D01*
G01X77064Y48528D01*
G01X77168Y48424D01*
G01X77323Y48370D01*
G01X77427Y48370D01*
G01X77584Y48424D01*
G01X77688Y48528D01*
G01X77739Y48683D01*
G01X77739Y48838D01*
G01X77688Y48995D01*
G01X77635Y49046D01*
G01X77531Y49099D01*
G01X92679Y47372D02*
G01X92575Y47425D01*
G01X92471Y47529D01*
G01X92420Y47631D01*
G01X92420Y47839D01*
G01X92471Y47943D01*
G01X92575Y48048D01*
G01X92679Y48101D01*
G01X92834Y48152D01*
G01X93093Y48152D01*
G01X93251Y48101D01*
G01X93355Y48048D01*
G01X93459Y47943D01*
G01X93510Y47839D01*
G01X93510Y47631D01*
G01X93459Y47529D01*
G01X93355Y47425D01*
G01X93251Y47372D01*
G01X92626Y47029D02*
G01X92575Y46925D01*
G01X92420Y46770D01*
G01X93510Y46770D01*
G01X93873Y46427D02*
G01X93873Y45492D01*
G01X92420Y45045D02*
G01X92420Y44474D01*
G01X92834Y44786D01*
G01X92834Y44629D01*
G01X92887Y44525D01*
G01X92938Y44474D01*
G01X93093Y44421D01*
G01X93197Y44421D01*
G01X93355Y44474D01*
G01X93459Y44578D01*
G01X93510Y44733D01*
G01X93510Y44888D01*
G01X93459Y45045D01*
G01X93405Y45096D01*
G01X93301Y45149D01*
G01X96370Y47783D02*
G01X96370Y46694D01*
G01X96370Y47783D02*
G01X95903Y47783D01*
G01X95748Y47733D01*
G01X95694Y47682D01*
G01X95644Y47578D01*
G01X95644Y47474D01*
G01X95694Y47369D01*
G01X95748Y47316D01*
G01X95903Y47265D01*
G01X96370Y47265D01*
G01X96007Y47265D02*
G01X95644Y46694D01*
G01X95301Y47578D02*
G01X95197Y47629D01*
G01X95039Y47783D01*
G01X95039Y46694D01*
G01X94696Y46331D02*
G01X93762Y46331D01*
G01X93419Y47578D02*
G01X93314Y47629D01*
G01X93160Y47783D01*
G01X93160Y46694D01*
G01X81343Y41687D02*
G01X81343Y40598D01*
G01X81343Y41687D02*
G01X80876Y41687D01*
G01X80721Y41637D01*
G01X80668Y41586D01*
G01X80617Y41482D01*
G01X80617Y41378D01*
G01X80668Y41273D01*
G01X80721Y41220D01*
G01X80876Y41169D01*
G01X81343Y41169D01*
G01X80980Y41169D02*
G01X80617Y40598D01*
G01X80274Y41482D02*
G01X80170Y41533D01*
G01X80012Y41687D01*
G01X80012Y40598D01*
G01X79670Y40235D02*
G01X78735Y40235D01*
G01X78341Y41428D02*
G01X78341Y41482D01*
G01X78288Y41586D01*
G01X78237Y41637D01*
G01X78133Y41687D01*
G01X77925Y41687D01*
G01X77820Y41637D01*
G01X77770Y41586D01*
G01X77716Y41482D01*
G01X77716Y41378D01*
G01X77770Y41273D01*
G01X77874Y41116D01*
G01X78392Y40598D01*
G01X77666Y40598D01*
G01X80368Y64040D02*
G01X80368Y62950D01*
G01X80368Y64040D02*
G01X80005Y64040D01*
G01X79847Y63989D01*
G01X79746Y63885D01*
G01X79692Y63780D01*
G01X79642Y63625D01*
G01X79642Y63366D01*
G01X79692Y63209D01*
G01X79746Y63105D01*
G01X79847Y63001D01*
G01X80005Y62950D01*
G01X80368Y62950D01*
G01X79299Y63834D02*
G01X79195Y63885D01*
G01X79037Y64040D01*
G01X79037Y62950D01*
G01X78694Y62587D02*
G01X77759Y62587D01*
G01X77417Y63834D02*
G01X77312Y63885D01*
G01X77158Y64040D01*
G01X77158Y62950D01*
G01X95219Y47372D02*
G01X95115Y47425D01*
G01X95011Y47529D01*
G01X94960Y47631D01*
G01X94960Y47839D01*
G01X95011Y47943D01*
G01X95115Y48048D01*
G01X95219Y48101D01*
G01X95374Y48152D01*
G01X95633Y48152D01*
G01X95791Y48101D01*
G01X95895Y48048D01*
G01X95999Y47943D01*
G01X96050Y47839D01*
G01X96050Y47631D01*
G01X95999Y47529D01*
G01X95895Y47425D01*
G01X95791Y47372D01*
G01X95166Y47029D02*
G01X95115Y46925D01*
G01X94960Y46770D01*
G01X96050Y46770D01*
G01X96413Y46427D02*
G01X96413Y45492D01*
G01X95219Y45096D02*
G01X95166Y45096D01*
G01X95062Y45045D01*
G01X95011Y44992D01*
G01X94960Y44888D01*
G01X94960Y44682D01*
G01X95011Y44578D01*
G01X95062Y44525D01*
G01X95166Y44474D01*
G01X95270Y44474D01*
G01X95374Y44525D01*
G01X95531Y44629D01*
G01X96050Y45149D01*
G01X96050Y44421D01*
G01X70808Y64040D02*
G01X70808Y62950D01*
G01X70808Y62950D02*
G01X70185Y62950D01*
G01X69842Y63834D02*
G01X69738Y63885D01*
G01X69581Y64040D01*
G01X69581Y62950D01*
G01X73452Y50572D02*
G01X73505Y50677D01*
G01X73609Y50781D01*
G01X73711Y50832D01*
G01X73919Y50832D01*
G01X74023Y50781D01*
G01X74127Y50677D01*
G01X74181Y50572D01*
G01X74231Y50418D01*
G01X74231Y50158D01*
G01X74181Y50001D01*
G01X74127Y49897D01*
G01X74023Y49793D01*
G01X73919Y49742D01*
G01X73711Y49742D01*
G01X73609Y49793D01*
G01X73505Y49897D01*
G01X73452Y50001D01*
G01X73109Y50626D02*
G01X73005Y50677D01*
G01X72850Y50832D01*
G01X72850Y49742D01*
G01X72507Y49379D02*
G01X71572Y49379D01*
G01X70604Y50677D02*
G01X70658Y50781D01*
G01X70813Y50832D01*
G01X70917Y50832D01*
G01X71072Y50781D01*
G01X71176Y50626D01*
G01X71229Y50364D01*
G01X71229Y50105D01*
G01X71176Y49897D01*
G01X71072Y49793D01*
G01X70917Y49742D01*
G01X70866Y49742D01*
G01X70708Y49793D01*
G01X70604Y49897D01*
G01X70554Y50054D01*
G01X70554Y50105D01*
G01X70604Y50260D01*
G01X70708Y50364D01*
G01X70866Y50418D01*
G01X70917Y50418D01*
G01X71072Y50364D01*
G01X71176Y50260D01*
G01X71229Y50105D01*
G01X73505Y47778D02*
G01X73558Y47883D01*
G01X73662Y47987D01*
G01X73764Y48038D01*
G01X73972Y48038D01*
G01X74076Y47987D01*
G01X74181Y47883D01*
G01X74234Y47778D01*
G01X74285Y47624D01*
G01X74285Y47364D01*
G01X74234Y47207D01*
G01X74181Y47103D01*
G01X74076Y46999D01*
G01X73972Y46948D01*
G01X73764Y46948D01*
G01X73662Y46999D01*
G01X73558Y47103D01*
G01X73505Y47207D01*
G01X73162Y47832D02*
G01X73058Y47883D01*
G01X72903Y48038D01*
G01X72903Y46948D01*
G01X72560Y46585D02*
G01X71625Y46585D01*
G01X70553Y48038D02*
G01X71074Y46948D01*
G01X71282Y48038D02*
G01X70553Y48038D01*
G01X73505Y44984D02*
G01X73558Y45089D01*
G01X73662Y45193D01*
G01X73764Y45244D01*
G01X73972Y45244D01*
G01X74076Y45193D01*
G01X74181Y45089D01*
G01X74234Y44984D01*
G01X74285Y44830D01*
G01X74285Y44570D01*
G01X74234Y44413D01*
G01X74181Y44309D01*
G01X74076Y44205D01*
G01X73972Y44154D01*
G01X73764Y44154D01*
G01X73662Y44205D01*
G01X73558Y44309D01*
G01X73505Y44413D01*
G01X73162Y45038D02*
G01X73058Y45089D01*
G01X72903Y45244D01*
G01X72903Y44154D01*
G01X72560Y43791D02*
G01X71625Y43791D01*
G01X71021Y45244D02*
G01X71178Y45193D01*
G01X71229Y45089D01*
G01X71229Y44984D01*
G01X71178Y44880D01*
G01X71074Y44830D01*
G01X70866Y44776D01*
G01X70711Y44725D01*
G01X70607Y44621D01*
G01X70553Y44517D01*
G01X70553Y44362D01*
G01X70607Y44258D01*
G01X70658Y44205D01*
G01X70815Y44154D01*
G01X71021Y44154D01*
G01X71178Y44205D01*
G01X71229Y44258D01*
G01X71282Y44362D01*
G01X71282Y44517D01*
G01X71229Y44621D01*
G01X71125Y44725D01*
G01X70970Y44776D01*
G01X70762Y44830D01*
G01X70658Y44880D01*
G01X70607Y44984D01*
G01X70607Y45089D01*
G01X70658Y45193D01*
G01X70815Y45244D01*
G01X71021Y45244D01*
G01X81905Y47784D02*
G01X81905Y46694D01*
G01X81905Y47784D02*
G01X81437Y47784D01*
G01X81282Y47733D01*
G01X81229Y47682D01*
G01X81178Y47578D01*
G01X81178Y47474D01*
G01X81229Y47370D01*
G01X81282Y47316D01*
G01X81437Y47265D01*
G01X81905Y47265D01*
G01X81542Y47265D02*
G01X81178Y46694D01*
G01X80835Y47578D02*
G01X80731Y47629D01*
G01X80574Y47784D01*
G01X80574Y46694D01*
G01X80231Y46331D02*
G01X79296Y46331D01*
G01X78435Y47784D02*
G01X78953Y47057D01*
G01X78173Y47057D01*
G01X78435Y47784D02*
G01X78435Y46694D01*
G01X85915Y42958D02*
G01X85915Y41868D01*
G01X85915Y42958D02*
G01X85448Y42958D01*
G01X85293Y42907D01*
G01X85240Y42856D01*
G01X85189Y42752D01*
G01X85189Y42648D01*
G01X85240Y42543D01*
G01X85293Y42490D01*
G01X85448Y42439D01*
G01X85915Y42439D01*
G01X85552Y42439D02*
G01X85189Y41868D01*
G01X84846Y42752D02*
G01X84742Y42803D01*
G01X84584Y42958D01*
G01X84584Y41868D01*
G01X84242Y41505D02*
G01X83307Y41505D01*
G01X82860Y42958D02*
G01X82288Y42958D01*
G01X82601Y42543D01*
G01X82446Y42543D01*
G01X82342Y42490D01*
G01X82288Y42439D01*
G01X82238Y42284D01*
G01X82238Y42180D01*
G01X82288Y42023D01*
G01X82392Y41919D01*
G01X82550Y41868D01*
G01X82705Y41868D01*
G01X82860Y41919D01*
G01X82913Y41972D01*
G01X82964Y42076D01*
G01X74902Y92234D02*
G01X74902Y91456D01*
G01X74851Y91299D01*
G01X74747Y91195D01*
G01X74590Y91144D01*
G01X74485Y91144D01*
G01X74331Y91195D01*
G01X74226Y91299D01*
G01X74176Y91456D01*
G01X74176Y92234D01*
G01X73208Y92079D02*
G01X73261Y92183D01*
G01X73416Y92234D01*
G01X73520Y92234D01*
G01X73675Y92183D01*
G01X73779Y92028D01*
G01X73833Y91766D01*
G01X73833Y91507D01*
G01X73779Y91299D01*
G01X73675Y91195D01*
G01X73520Y91144D01*
G01X73467Y91144D01*
G01X73312Y91195D01*
G01X73208Y91299D01*
G01X73157Y91456D01*
G01X73157Y91507D01*
G01X73208Y91662D01*
G01X73312Y91766D01*
G01X73467Y91820D01*
G01X73520Y91820D01*
G01X73675Y91766D01*
G01X73779Y91662D01*
G01X73833Y91507D01*
G01X72814Y90781D02*
G01X71879Y90781D01*
G01X71483Y91974D02*
G01X71483Y92028D01*
G01X71432Y92132D01*
G01X71379Y92183D01*
G01X71275Y92234D01*
G01X71067Y92234D01*
G01X70965Y92183D01*
G01X70912Y92132D01*
G01X70861Y92028D01*
G01X70861Y91924D01*
G01X70912Y91820D01*
G01X71016Y91662D01*
G01X71537Y91144D01*
G01X70808Y91144D01*
G01X83378Y80550D02*
G01X83378Y79460D01*
G01X83378Y80550D02*
G01X82911Y80550D01*
G01X82756Y80499D01*
G01X82702Y80448D01*
G01X82652Y80344D01*
G01X82652Y80240D01*
G01X82702Y80135D01*
G01X82756Y80082D01*
G01X82911Y80031D01*
G01X83378Y80031D01*
G01X83015Y80031D02*
G01X82652Y79460D01*
G01X81684Y80395D02*
G01X81737Y80499D01*
G01X81892Y80550D01*
G01X81996Y80550D01*
G01X82151Y80499D01*
G01X82255Y80344D01*
G01X82309Y80082D01*
G01X82309Y79823D01*
G01X82255Y79615D01*
G01X82151Y79511D01*
G01X81996Y79460D01*
G01X81943Y79460D01*
G01X81788Y79511D01*
G01X81684Y79615D01*
G01X81633Y79772D01*
G01X81633Y79823D01*
G01X81684Y79978D01*
G01X81788Y80082D01*
G01X81943Y80135D01*
G01X81996Y80135D01*
G01X82151Y80082D01*
G01X82255Y79978D01*
G01X82309Y79823D01*
G01X81290Y79097D02*
G01X80355Y79097D01*
G01X80012Y80344D02*
G01X79908Y80395D01*
G01X79751Y80550D01*
G01X79751Y79460D01*
G01X79304Y80550D02*
G01X78732Y80550D01*
G01X79045Y80135D01*
G01X78890Y80135D01*
G01X78786Y80082D01*
G01X78732Y80031D01*
G01X78681Y79876D01*
G01X78681Y79772D01*
G01X78732Y79615D01*
G01X78836Y79511D01*
G01X78994Y79460D01*
G01X79149Y79460D01*
G01X79304Y79511D01*
G01X79357Y79564D01*
G01X79408Y79668D01*
G01X82776Y66834D02*
G01X82776Y65744D01*
G01X82776Y66834D02*
G01X82309Y66834D01*
G01X82154Y66783D01*
G01X82100Y66732D01*
G01X82050Y66628D01*
G01X82050Y66524D01*
G01X82100Y66419D01*
G01X82154Y66366D01*
G01X82309Y66315D01*
G01X82776Y66315D01*
G01X82413Y66315D02*
G01X82050Y65744D01*
G01X81082Y66679D02*
G01X81135Y66783D01*
G01X81290Y66834D01*
G01X81394Y66834D01*
G01X81549Y66783D01*
G01X81653Y66628D01*
G01X81707Y66366D01*
G01X81707Y66107D01*
G01X81653Y65899D01*
G01X81549Y65795D01*
G01X81394Y65744D01*
G01X81341Y65744D01*
G01X81186Y65795D01*
G01X81082Y65899D01*
G01X81031Y66056D01*
G01X81031Y66107D01*
G01X81082Y66262D01*
G01X81186Y66366D01*
G01X81341Y66419D01*
G01X81394Y66419D01*
G01X81549Y66366D01*
G01X81653Y66262D01*
G01X81707Y66107D01*
G01X80688Y65381D02*
G01X79753Y65381D01*
G01X78786Y66834D02*
G01X79306Y66834D01*
G01X79357Y66366D01*
G01X79306Y66419D01*
G01X79149Y66470D01*
G01X78994Y66470D01*
G01X78839Y66419D01*
G01X78735Y66315D01*
G01X78682Y66160D01*
G01X78682Y66056D01*
G01X78735Y65899D01*
G01X78839Y65795D01*
G01X78994Y65744D01*
G01X79149Y65744D01*
G01X79306Y65795D01*
G01X79357Y65848D01*
G01X79411Y65952D01*
G01X77274Y72561D02*
G01X78364Y72561D01*
G01X77274Y72561D02*
G01X77274Y72094D01*
G01X77325Y71939D01*
G01X77376Y71886D01*
G01X77480Y71835D01*
G01X77584Y71835D01*
G01X77688Y71886D01*
G01X77742Y71939D01*
G01X77793Y72094D01*
G01X77793Y72561D01*
G01X77793Y72198D02*
G01X78364Y71835D01*
G01X77429Y70867D02*
G01X77325Y70920D01*
G01X77274Y71075D01*
G01X77274Y71179D01*
G01X77325Y71334D01*
G01X77480Y71439D01*
G01X77742Y71492D01*
G01X78001Y71492D01*
G01X78209Y71439D01*
G01X78313Y71334D01*
G01X78364Y71179D01*
G01X78364Y71126D01*
G01X78313Y70971D01*
G01X78209Y70867D01*
G01X78052Y70816D01*
G01X78001Y70816D01*
G01X77846Y70867D01*
G01X77742Y70971D01*
G01X77688Y71126D01*
G01X77688Y71179D01*
G01X77742Y71334D01*
G01X77846Y71439D01*
G01X78001Y71492D01*
G01X78727Y70473D02*
G01X78727Y69539D01*
G01X77429Y68571D02*
G01X77325Y68624D01*
G01X77274Y68779D01*
G01X77274Y68883D01*
G01X77325Y69038D01*
G01X77480Y69142D01*
G01X77742Y69196D01*
G01X78001Y69196D01*
G01X78209Y69142D01*
G01X78313Y69038D01*
G01X78364Y68883D01*
G01X78364Y68830D01*
G01X78313Y68675D01*
G01X78209Y68571D01*
G01X78052Y68520D01*
G01X78001Y68520D01*
G01X77846Y68571D01*
G01X77742Y68675D01*
G01X77688Y68830D01*
G01X77688Y68883D01*
G01X77742Y69038D01*
G01X77846Y69142D01*
G01X78001Y69196D01*
G01X84668Y71545D02*
G01X83579Y71545D01*
G01X84668Y71545D02*
G01X84668Y72013D01*
G01X84618Y72168D01*
G01X84567Y72221D01*
G01X84463Y72272D01*
G01X84358Y72272D01*
G01X84254Y72221D01*
G01X84201Y72168D01*
G01X84150Y72013D01*
G01X84150Y71545D01*
G01X84150Y71908D02*
G01X83579Y72272D01*
G01X84513Y73239D02*
G01X84618Y73186D01*
G01X84668Y73031D01*
G01X84668Y72927D01*
G01X84618Y72772D01*
G01X84463Y72668D01*
G01X84201Y72615D01*
G01X83942Y72615D01*
G01X83734Y72668D01*
G01X83629Y72772D01*
G01X83579Y72927D01*
G01X83579Y72980D01*
G01X83629Y73135D01*
G01X83734Y73239D01*
G01X83891Y73290D01*
G01X83942Y73290D01*
G01X84097Y73239D01*
G01X84201Y73135D01*
G01X84254Y72980D01*
G01X84254Y72927D01*
G01X84201Y72772D01*
G01X84097Y72668D01*
G01X83942Y72615D01*
G01X83215Y73633D02*
G01X83215Y74568D01*
G01X84668Y75640D02*
G01X83579Y75119D01*
G01X84668Y74911D02*
G01X84668Y75640D01*
G01X83030Y78772D02*
G01X83030Y77682D01*
G01X83030Y78772D02*
G01X82563Y78772D01*
G01X82408Y78721D01*
G01X82354Y78670D01*
G01X82304Y78566D01*
G01X82304Y78462D01*
G01X82354Y78357D01*
G01X82408Y78304D01*
G01X82563Y78253D01*
G01X83030Y78253D01*
G01X82667Y78253D02*
G01X82304Y77682D01*
G01X81336Y78617D02*
G01X81389Y78721D01*
G01X81544Y78772D01*
G01X81648Y78772D01*
G01X81803Y78721D01*
G01X81907Y78566D01*
G01X81961Y78304D01*
G01X81961Y78045D01*
G01X81907Y77837D01*
G01X81803Y77733D01*
G01X81648Y77682D01*
G01X81595Y77682D01*
G01X81440Y77733D01*
G01X81336Y77837D01*
G01X81285Y77994D01*
G01X81285Y78045D01*
G01X81336Y78200D01*
G01X81440Y78304D01*
G01X81595Y78357D01*
G01X81648Y78357D01*
G01X81803Y78304D01*
G01X81907Y78200D01*
G01X81961Y78045D01*
G01X80942Y77319D02*
G01X80007Y77319D01*
G01X79403Y78772D02*
G01X79560Y78721D01*
G01X79611Y78617D01*
G01X79611Y78512D01*
G01X79560Y78408D01*
G01X79456Y78357D01*
G01X79248Y78304D01*
G01X79093Y78253D01*
G01X78989Y78149D01*
G01X78936Y78045D01*
G01X78936Y77890D01*
G01X78989Y77786D01*
G01X79040Y77733D01*
G01X79195Y77682D01*
G01X79403Y77682D01*
G01X79560Y77733D01*
G01X79611Y77786D01*
G01X79665Y77890D01*
G01X79665Y78045D01*
G01X79611Y78149D01*
G01X79507Y78253D01*
G01X79352Y78304D01*
G01X79144Y78357D01*
G01X79040Y78408D01*
G01X78989Y78512D01*
G01X78989Y78617D01*
G01X79040Y78721D01*
G01X79195Y78772D01*
G01X79403Y78772D01*
G01X84762Y84499D02*
G01X83673Y84499D01*
G01X84762Y84499D02*
G01X84762Y84967D01*
G01X84711Y85121D01*
G01X84661Y85175D01*
G01X84556Y85226D01*
G01X84452Y85226D01*
G01X84348Y85175D01*
G01X84295Y85121D01*
G01X84244Y84967D01*
G01X84244Y84499D01*
G01X84244Y84862D02*
G01X83673Y85226D01*
G01X84607Y86193D02*
G01X84711Y86140D01*
G01X84762Y85985D01*
G01X84762Y85881D01*
G01X84711Y85726D01*
G01X84556Y85622D01*
G01X84295Y85568D01*
G01X84036Y85568D01*
G01X83827Y85622D01*
G01X83723Y85726D01*
G01X83673Y85881D01*
G01X83673Y85934D01*
G01X83723Y86089D01*
G01X83827Y86193D01*
G01X83985Y86244D01*
G01X84036Y86244D01*
G01X84191Y86193D01*
G01X84295Y86089D01*
G01X84348Y85934D01*
G01X84348Y85881D01*
G01X84295Y85726D01*
G01X84191Y85622D01*
G01X84036Y85568D01*
G01X83309Y86587D02*
G01X83309Y87522D01*
G01X84556Y87865D02*
G01X84607Y87969D01*
G01X84762Y88126D01*
G01X83673Y88126D01*
G01X84762Y89091D02*
G01X84762Y88573D01*
G01X84295Y88520D01*
G01X84348Y88573D01*
G01X84399Y88728D01*
G01X84399Y88883D01*
G01X84348Y89041D01*
G01X84244Y89145D01*
G01X84089Y89196D01*
G01X83985Y89196D01*
G01X83827Y89145D01*
G01X83723Y89041D01*
G01X83673Y88883D01*
G01X83673Y88728D01*
G01X83723Y88573D01*
G01X83777Y88520D01*
G01X83881Y88469D01*
G01X83073Y92233D02*
G01X83073Y91144D01*
G01X83073Y92233D02*
G01X82606Y92233D01*
G01X82451Y92183D01*
G01X82398Y92132D01*
G01X82347Y92028D01*
G01X82347Y91924D01*
G01X82398Y91819D01*
G01X82451Y91766D01*
G01X82606Y91715D01*
G01X83073Y91715D01*
G01X82710Y91715D02*
G01X82347Y91144D01*
G01X81379Y92079D02*
G01X81432Y92183D01*
G01X81587Y92233D01*
G01X81691Y92233D01*
G01X81846Y92183D01*
G01X81951Y92028D01*
G01X82004Y91766D01*
G01X82004Y91507D01*
G01X81951Y91299D01*
G01X81846Y91195D01*
G01X81691Y91144D01*
G01X81638Y91144D01*
G01X81483Y91195D01*
G01X81379Y91299D01*
G01X81328Y91456D01*
G01X81328Y91507D01*
G01X81379Y91662D01*
G01X81483Y91766D01*
G01X81638Y91819D01*
G01X81691Y91819D01*
G01X81846Y91766D01*
G01X81951Y91662D01*
G01X82004Y91507D01*
G01X80985Y90781D02*
G01X80051Y90781D01*
G01X79708Y92028D02*
G01X79604Y92079D01*
G01X79446Y92233D01*
G01X79446Y91144D01*
G01X78481Y92079D02*
G01X78532Y92183D01*
G01X78689Y92233D01*
G01X78793Y92233D01*
G01X78948Y92183D01*
G01X79052Y92028D01*
G01X79103Y91766D01*
G01X79103Y91507D01*
G01X79052Y91299D01*
G01X78948Y91195D01*
G01X78793Y91144D01*
G01X78740Y91144D01*
G01X78585Y91195D01*
G01X78481Y91299D01*
G01X78428Y91456D01*
G01X78428Y91507D01*
G01X78481Y91662D01*
G01X78585Y91766D01*
G01X78740Y91819D01*
G01X78793Y91819D01*
G01X78948Y91766D01*
G01X79052Y91662D01*
G01X79103Y91507D01*
G01X77221Y87039D02*
G01X78311Y87039D01*
G01X77221Y87039D02*
G01X77221Y86572D01*
G01X77272Y86417D01*
G01X77323Y86364D01*
G01X77427Y86313D01*
G01X77531Y86313D01*
G01X77635Y86364D01*
G01X77688Y86417D01*
G01X77739Y86572D01*
G01X77739Y87039D01*
G01X77739Y86676D02*
G01X78311Y86313D01*
G01X77376Y85345D02*
G01X77272Y85398D01*
G01X77221Y85553D01*
G01X77221Y85657D01*
G01X77272Y85812D01*
G01X77427Y85917D01*
G01X77688Y85970D01*
G01X77947Y85970D01*
G01X78156Y85917D01*
G01X78260Y85812D01*
G01X78311Y85657D01*
G01X78311Y85604D01*
G01X78260Y85449D01*
G01X78156Y85345D01*
G01X77998Y85294D01*
G01X77947Y85294D01*
G01X77792Y85345D01*
G01X77688Y85449D01*
G01X77635Y85604D01*
G01X77635Y85657D01*
G01X77688Y85812D01*
G01X77792Y85917D01*
G01X77947Y85970D01*
G01X78674Y84951D02*
G01X78674Y84017D01*
G01X77427Y83674D02*
G01X77376Y83570D01*
G01X77221Y83412D01*
G01X78311Y83412D01*
G01X77221Y82551D02*
G01X77947Y83069D01*
G01X77947Y82289D01*
G01X77221Y82551D02*
G01X78311Y82551D01*
G01X86002Y59970D02*
G01X86055Y60075D01*
G01X86159Y60179D01*
G01X86261Y60230D01*
G01X86469Y60230D01*
G01X86573Y60179D01*
G01X86677Y60075D01*
G01X86731Y59970D01*
G01X86782Y59816D01*
G01X86782Y59556D01*
G01X86731Y59399D01*
G01X86677Y59295D01*
G01X86573Y59191D01*
G01X86469Y59140D01*
G01X86261Y59140D01*
G01X86159Y59191D01*
G01X86055Y59295D01*
G01X86002Y59399D01*
G01X85659Y60024D02*
G01X85555Y60075D01*
G01X85400Y60230D01*
G01X85400Y59140D01*
G01X85057Y58777D02*
G01X84122Y58777D01*
G01X83259Y60230D02*
G01X83779Y59503D01*
G01X83000Y59503D01*
G01X83259Y60230D02*
G01X83259Y59140D01*
G01X90688Y93028D02*
G01X90688Y92251D01*
G01X90637Y92094D01*
G01X90533Y91990D01*
G01X90376Y91939D01*
G01X90272Y91939D01*
G01X90117Y91990D01*
G01X90012Y92094D01*
G01X89962Y92251D01*
G01X89962Y93028D01*
G01X88994Y92874D02*
G01X89047Y92978D01*
G01X89202Y93028D01*
G01X89306Y93028D01*
G01X89461Y92978D01*
G01X89565Y92823D01*
G01X89619Y92561D01*
G01X89619Y92302D01*
G01X89565Y92094D01*
G01X89461Y91990D01*
G01X89306Y91939D01*
G01X89253Y91939D01*
G01X89098Y91990D01*
G01X88994Y92094D01*
G01X88943Y92251D01*
G01X88943Y92302D01*
G01X88994Y92457D01*
G01X89098Y92561D01*
G01X89253Y92614D01*
G01X89306Y92614D01*
G01X89461Y92561D01*
G01X89565Y92457D01*
G01X89619Y92302D01*
G01X88600Y91576D02*
G01X87665Y91576D01*
G01X86802Y93028D02*
G01X87323Y92302D01*
G01X86543Y92302D01*
G01X86802Y93028D02*
G01X86802Y91939D01*
G01X90734Y79648D02*
G01X90734Y78871D01*
G01X90683Y78713D01*
G01X90579Y78609D01*
G01X90421Y78558D01*
G01X90317Y78558D01*
G01X90162Y78609D01*
G01X90058Y78713D01*
G01X90007Y78871D01*
G01X90007Y79648D01*
G01X89040Y79493D02*
G01X89093Y79597D01*
G01X89248Y79648D01*
G01X89352Y79648D01*
G01X89507Y79597D01*
G01X89611Y79442D01*
G01X89665Y79180D01*
G01X89665Y78921D01*
G01X89611Y78713D01*
G01X89507Y78609D01*
G01X89352Y78558D01*
G01X89299Y78558D01*
G01X89144Y78609D01*
G01X89040Y78713D01*
G01X88989Y78871D01*
G01X88989Y78921D01*
G01X89040Y79076D01*
G01X89144Y79180D01*
G01X89299Y79234D01*
G01X89352Y79234D01*
G01X89507Y79180D01*
G01X89611Y79076D01*
G01X89665Y78921D01*
G01X88646Y78195D02*
G01X87711Y78195D01*
G01X87264Y79648D02*
G01X86693Y79648D01*
G01X87003Y79234D01*
G01X86848Y79234D01*
G01X86744Y79180D01*
G01X86693Y79130D01*
G01X86639Y78975D01*
G01X86639Y78871D01*
G01X86693Y78713D01*
G01X86797Y78609D01*
G01X86952Y78558D01*
G01X87107Y78558D01*
G01X87264Y78609D01*
G01X87315Y78662D01*
G01X87368Y78766D01*
G01X37419Y68612D02*
G01X37419Y67834D01*
G01X37368Y67677D01*
G01X37264Y67573D01*
G01X37106Y67522D01*
G01X37002Y67522D01*
G01X36847Y67573D01*
G01X36743Y67677D01*
G01X36692Y67834D01*
G01X36692Y68612D01*
G01X36245Y68612D02*
G01X35674Y68612D01*
G01X35984Y68198D01*
G01X35829Y68198D01*
G01X35725Y68144D01*
G01X35674Y68093D01*
G01X35620Y67938D01*
G01X35620Y67834D01*
G01X35674Y67677D01*
G01X35778Y67573D01*
G01X35933Y67522D01*
G01X36088Y67522D01*
G01X36245Y67573D01*
G01X36296Y67626D01*
G01X36349Y67730D01*
G01X35278Y67159D02*
G01X34343Y67159D01*
G01X33896Y68612D02*
G01X33324Y68612D01*
G01X33637Y68198D01*
G01X33482Y68198D01*
G01X33378Y68144D01*
G01X33324Y68093D01*
G01X33274Y67938D01*
G01X33274Y67834D01*
G01X33324Y67677D01*
G01X33428Y67573D01*
G01X33583Y67522D01*
G01X33741Y67522D01*
G01X33896Y67573D01*
G01X33949Y67626D01*
G01X34000Y67730D01*
G54D38*
G01X38354Y33052D02*
G01X38354Y32274D01*
G01X38303Y32117D01*
G01X38199Y32013D01*
G01X38041Y31962D01*
G01X37937Y31962D01*
G01X37782Y32013D01*
G01X37678Y32117D01*
G01X37627Y32274D01*
G01X37627Y33052D01*
G01X37180Y33052D02*
G01X36609Y33052D01*
G01X36918Y32637D01*
G01X36763Y32637D01*
G01X36659Y32584D01*
G01X36609Y32533D01*
G01X36555Y32378D01*
G01X36555Y32274D01*
G01X36609Y32117D01*
G01X36713Y32013D01*
G01X36868Y31962D01*
G01X37023Y31962D01*
G01X37180Y32013D01*
G01X37231Y32066D01*
G01X37284Y32170D01*
G01X36212Y31599D02*
G01X35278Y31599D01*
G01X34417Y33052D02*
G01X34935Y32325D01*
G01X34155Y32325D01*
G01X34417Y33052D02*
G01X34417Y31962D01*
G01X37909Y71776D02*
G01X37804Y71830D01*
G01X37700Y71934D01*
G01X37649Y72035D01*
G01X37649Y72244D01*
G01X37700Y72348D01*
G01X37804Y72452D01*
G01X37909Y72505D01*
G01X38066Y72556D01*
G01X38325Y72556D01*
G01X38480Y72505D01*
G01X38584Y72452D01*
G01X38688Y72348D01*
G01X38742Y72244D01*
G01X38742Y72035D01*
G01X38688Y71934D01*
G01X38584Y71830D01*
G01X38480Y71776D01*
G01X37649Y71329D02*
G01X37649Y70758D01*
G01X38066Y71070D01*
G01X38066Y70915D01*
G01X38117Y70811D01*
G01X38170Y70758D01*
G01X38325Y70707D01*
G01X38429Y70707D01*
G01X38584Y70758D01*
G01X38688Y70862D01*
G01X38742Y71019D01*
G01X38742Y71174D01*
G01X38688Y71329D01*
G01X38638Y71383D01*
G01X38533Y71433D01*
G01X39105Y70364D02*
G01X39105Y69429D01*
G01X37649Y68982D02*
G01X37649Y68411D01*
G01X38066Y68721D01*
G01X38066Y68566D01*
G01X38117Y68462D01*
G01X38170Y68411D01*
G01X38325Y68357D01*
G01X38429Y68357D01*
G01X38584Y68411D01*
G01X38688Y68515D01*
G01X38742Y68670D01*
G01X38742Y68825D01*
G01X38688Y68982D01*
G01X38638Y69033D01*
G01X38533Y69086D01*
G01X37165Y53626D02*
G01X37165Y52846D01*
G01X37114Y52691D01*
G01X37010Y52587D01*
G01X36852Y52533D01*
G01X36748Y52533D01*
G01X36593Y52587D01*
G01X36489Y52691D01*
G01X36438Y52846D01*
G01X36438Y53626D01*
G01X35991Y53626D02*
G01X35420Y53626D01*
G01X35730Y53209D01*
G01X35575Y53209D01*
G01X35471Y53158D01*
G01X35420Y53105D01*
G01X35366Y52950D01*
G01X35366Y52846D01*
G01X35420Y52691D01*
G01X35524Y52587D01*
G01X35679Y52533D01*
G01X35834Y52533D01*
G01X35991Y52587D01*
G01X36042Y52637D01*
G01X36095Y52742D01*
G01X35024Y52170D02*
G01X34089Y52170D01*
G01X33695Y53366D02*
G01X33695Y53417D01*
G01X33642Y53521D01*
G01X33591Y53575D01*
G01X33487Y53626D01*
G01X33279Y53626D01*
G01X33174Y53575D01*
G01X33124Y53521D01*
G01X33070Y53417D01*
G01X33070Y53313D01*
G01X33124Y53209D01*
G01X33228Y53054D01*
G01X33746Y52533D01*
G01X33019Y52533D01*
G01X36951Y39148D02*
G01X36951Y38368D01*
G01X36901Y38213D01*
G01X36796Y38109D01*
G01X36639Y38055D01*
G01X36535Y38055D01*
G01X36380Y38109D01*
G01X36276Y38213D01*
G01X36225Y38368D01*
G01X36225Y39148D01*
G01X35778Y39148D02*
G01X35206Y39148D01*
G01X35516Y38731D01*
G01X35361Y38731D01*
G01X35257Y38680D01*
G01X35206Y38627D01*
G01X35153Y38472D01*
G01X35153Y38368D01*
G01X35206Y38213D01*
G01X35311Y38109D01*
G01X35466Y38055D01*
G01X35620Y38055D01*
G01X35778Y38109D01*
G01X35829Y38159D01*
G01X35882Y38264D01*
G01X34810Y37692D02*
G01X33875Y37692D01*
G01X33533Y38939D02*
G01X33428Y38993D01*
G01X33274Y39148D01*
G01X33274Y38055D01*
G01X31501Y62429D02*
G01X31396Y62482D01*
G01X31292Y62587D01*
G01X31241Y62688D01*
G01X31241Y62897D01*
G01X31292Y63001D01*
G01X31396Y63105D01*
G01X31501Y63158D01*
G01X31658Y63209D01*
G01X31917Y63209D01*
G01X32072Y63158D01*
G01X32176Y63105D01*
G01X32280Y63001D01*
G01X32334Y62897D01*
G01X32334Y62688D01*
G01X32280Y62587D01*
G01X32176Y62482D01*
G01X32072Y62429D01*
G01X31241Y61982D02*
G01X31241Y61411D01*
G01X31658Y61723D01*
G01X31658Y61568D01*
G01X31709Y61464D01*
G01X31762Y61411D01*
G01X31917Y61360D01*
G01X32021Y61360D01*
G01X32176Y61411D01*
G01X32280Y61515D01*
G01X32334Y61672D01*
G01X32334Y61827D01*
G01X32280Y61982D01*
G01X32230Y62035D01*
G01X32125Y62086D01*
G01X32697Y61017D02*
G01X32697Y60082D01*
G01X31241Y59219D02*
G01X31968Y59739D01*
G01X31968Y58960D01*
G01X31241Y59219D02*
G01X32334Y59219D01*
G01X37873Y73031D02*
G01X37769Y73084D01*
G01X37665Y73189D01*
G01X37614Y73290D01*
G01X37614Y73498D01*
G01X37665Y73603D01*
G01X37769Y73707D01*
G01X37873Y73760D01*
G01X38031Y73811D01*
G01X38290Y73811D01*
G01X38445Y73760D01*
G01X38549Y73707D01*
G01X38653Y73603D01*
G01X38707Y73498D01*
G01X38707Y73290D01*
G01X38653Y73189D01*
G01X38549Y73084D01*
G01X38445Y73031D01*
G01X37614Y72584D02*
G01X37614Y72013D01*
G01X38031Y72325D01*
G01X38031Y72170D01*
G01X38082Y72066D01*
G01X38135Y72013D01*
G01X38290Y71962D01*
G01X38394Y71962D01*
G01X38549Y72013D01*
G01X38653Y72117D01*
G01X38707Y72274D01*
G01X38707Y72429D01*
G01X38653Y72584D01*
G01X38602Y72637D01*
G01X38498Y72688D01*
G01X39070Y71619D02*
G01X39070Y70684D01*
G01X37614Y69716D02*
G01X37614Y70237D01*
G01X38082Y70288D01*
G01X38031Y70237D01*
G01X37978Y70080D01*
G01X37978Y69925D01*
G01X38031Y69770D01*
G01X38135Y69666D01*
G01X38290Y69612D01*
G01X38394Y69612D01*
G01X38549Y69666D01*
G01X38653Y69770D01*
G01X38707Y69925D01*
G01X38707Y70080D01*
G01X38653Y70237D01*
G01X38602Y70288D01*
G01X38498Y70341D01*
G01X31501Y77057D02*
G01X31396Y77110D01*
G01X31292Y77214D01*
G01X31241Y77316D01*
G01X31241Y77524D01*
G01X31292Y77628D01*
G01X31396Y77733D01*
G01X31501Y77786D01*
G01X31658Y77837D01*
G01X31917Y77837D01*
G01X32072Y77786D01*
G01X32176Y77733D01*
G01X32280Y77628D01*
G01X32334Y77524D01*
G01X32334Y77316D01*
G01X32280Y77214D01*
G01X32176Y77110D01*
G01X32072Y77057D01*
G01X31241Y76610D02*
G01X31241Y76038D01*
G01X31658Y76351D01*
G01X31658Y76196D01*
G01X31709Y76092D01*
G01X31762Y76038D01*
G01X31917Y75988D01*
G01X32021Y75988D01*
G01X32176Y76038D01*
G01X32280Y76143D01*
G01X32334Y76300D01*
G01X32334Y76455D01*
G01X32280Y76610D01*
G01X32230Y76663D01*
G01X32125Y76714D01*
G01X32697Y75645D02*
G01X32697Y74710D01*
G01X31396Y73742D02*
G01X31292Y73796D01*
G01X31241Y73951D01*
G01X31241Y74055D01*
G01X31292Y74210D01*
G01X31450Y74314D01*
G01X31709Y74367D01*
G01X31968Y74367D01*
G01X32176Y74314D01*
G01X32280Y74210D01*
G01X32334Y74055D01*
G01X32334Y74001D01*
G01X32280Y73846D01*
G01X32176Y73742D01*
G01X32021Y73691D01*
G01X31968Y73691D01*
G01X31813Y73742D01*
G01X31709Y73846D01*
G01X31658Y74001D01*
G01X31658Y74055D01*
G01X31709Y74210D01*
G01X31813Y74314D01*
G01X31968Y74367D01*
G54D37*
G01X37876Y44288D02*
G01X37772Y44342D01*
G01X37668Y44446D01*
G01X37617Y44548D01*
G01X37617Y44756D01*
G01X37668Y44860D01*
G01X37772Y44964D01*
G01X37876Y45017D01*
G01X38031Y45068D01*
G01X38290Y45068D01*
G01X38447Y45017D01*
G01X38552Y44964D01*
G01X38656Y44860D01*
G01X38707Y44756D01*
G01X38707Y44548D01*
G01X38656Y44446D01*
G01X38552Y44342D01*
G01X38447Y44288D01*
G01X37617Y43841D02*
G01X37617Y43270D01*
G01X38031Y43582D01*
G01X38031Y43427D01*
G01X38084Y43323D01*
G01X38135Y43270D01*
G01X38290Y43219D01*
G01X38394Y43219D01*
G01X38552Y43270D01*
G01X38656Y43374D01*
G01X38707Y43532D01*
G01X38707Y43686D01*
G01X38656Y43841D01*
G01X38602Y43895D01*
G01X38498Y43946D01*
G01X39070Y42876D02*
G01X39070Y41941D01*
G01X37823Y41599D02*
G01X37772Y41494D01*
G01X37617Y41337D01*
G01X38707Y41337D01*
G01X31755Y47646D02*
G01X31650Y47700D01*
G01X31546Y47804D01*
G01X31495Y47905D01*
G01X31495Y48114D01*
G01X31546Y48218D01*
G01X31650Y48322D01*
G01X31755Y48375D01*
G01X31909Y48426D01*
G01X32169Y48426D01*
G01X32326Y48375D01*
G01X32430Y48322D01*
G01X32534Y48218D01*
G01X32585Y48114D01*
G01X32585Y47905D01*
G01X32534Y47804D01*
G01X32430Y47700D01*
G01X32326Y47646D01*
G01X31495Y47199D02*
G01X31495Y46628D01*
G01X31909Y46940D01*
G01X31909Y46785D01*
G01X31963Y46681D01*
G01X32014Y46628D01*
G01X32169Y46577D01*
G01X32273Y46577D01*
G01X32430Y46628D01*
G01X32534Y46732D01*
G01X32585Y46889D01*
G01X32585Y47044D01*
G01X32534Y47199D01*
G01X32481Y47253D01*
G01X32377Y47303D01*
G01X32948Y46234D02*
G01X32948Y45299D01*
G01X31755Y44903D02*
G01X31701Y44903D01*
G01X31597Y44852D01*
G01X31546Y44799D01*
G01X31495Y44695D01*
G01X31495Y44489D01*
G01X31546Y44385D01*
G01X31597Y44332D01*
G01X31701Y44281D01*
G01X31805Y44281D01*
G01X31909Y44332D01*
G01X32067Y44436D01*
G01X32585Y44956D01*
G01X32585Y44228D01*
G54D38*
G01X79097Y71406D02*
G01X78320Y71406D01*
G01X78162Y71456D01*
G01X78058Y71560D01*
G01X78008Y71718D01*
G01X78008Y71822D01*
G01X78058Y71977D01*
G01X78162Y72081D01*
G01X78320Y72132D01*
G01X79097Y72132D01*
G01X78942Y73100D02*
G01X79046Y73046D01*
G01X79097Y72891D01*
G01X79097Y72787D01*
G01X79046Y72632D01*
G01X78891Y72528D01*
G01X78630Y72475D01*
G01X78371Y72475D01*
G01X78162Y72528D01*
G01X78058Y72632D01*
G01X78008Y72787D01*
G01X78008Y72841D01*
G01X78058Y72996D01*
G01X78162Y73100D01*
G01X78320Y73150D01*
G01X78371Y73150D01*
G01X78526Y73100D01*
G01X78630Y72996D01*
G01X78683Y72841D01*
G01X78683Y72787D01*
G01X78630Y72632D01*
G01X78526Y72528D01*
G01X78371Y72475D01*
G01X77644Y73493D02*
G01X77644Y74428D01*
G01X78891Y74771D02*
G01X78942Y74875D01*
G01X79097Y75033D01*
G01X78008Y75033D01*
G01X85851Y56564D02*
G01X85851Y55785D01*
G01X85801Y55630D01*
G01X85697Y55525D01*
G01X85539Y55472D01*
G01X85435Y55472D01*
G01X85280Y55525D01*
G01X85176Y55630D01*
G01X85125Y55785D01*
G01X85125Y56564D01*
G01X84782Y56356D02*
G01X84678Y56407D01*
G01X84521Y56564D01*
G01X84521Y55472D01*
G01X84178Y55109D02*
G01X83243Y55109D01*
G01X82900Y56356D02*
G01X82796Y56407D01*
G01X82641Y56564D01*
G01X82641Y55472D01*
G54D43*
G75*
G01X26104Y90583D02*
G02X26107Y90583I3J200D01*
G01*
G54D44*
G75*
G01X58169Y12366D02*
G02X58169Y12364I149J-1D01*
G01*
G54D45*
G75*
G01X60518Y13316D02*
G02X60518Y13311I300J-2D01*
G01*
G54D44*
G75*
G01X86559Y12366D02*
G02X86559Y12364I149J-1D01*
G01*
G54D45*
G75*
G01X88908Y13316D02*
G02X88908Y13311I300J-2D01*
G01*
G54D46*
G75*
G01X36982Y78061D02*
G02X36982Y78058I150J-1D01*
G01*
G54D10*
G75*
G01X34214Y77654D02*
G03X35865Y77680I825J13D01*
G01*
G75*
G01X39878Y29369D02*
G03X39878Y31147I0J889D01*
G01*
G54D46*
G75*
G01X36982Y63583D02*
G02X36982Y63580I150J-1D01*
G01*
G54D10*
G75*
G01X34214Y63176D02*
G03X35865Y63202I825J13D01*
G01*
G54D46*
G75*
G01X36982Y48597D02*
G02X36982Y48594I150J-1D01*
G01*
G54D10*
G75*
G01X34214Y48190D02*
G03X35865Y48216I825J13D01*
G01*
G75*
G01X70935Y80423D02*
G03X70935Y80423I-254J0D01*
G01*
G54D42*
G75*
G01X89807Y90451D02*
G03X89807Y90451I-269J0D01*
G01*
G75*
G01X89807Y76989D02*
G03X89807Y76989I-269J0D01*
G01*
G54D10*
G75*
G01X71051Y66961D02*
G03X71051Y66961I-254J0D01*
G01*
M00*
M02*
