;Layer: Drill PTH
;EasyEDA v6.1.33, Mon, 29 Apr 2019 14:12:14 GMT
;9590ad248ff846a5af0387b98c7a360c,91cc4837159741479c5be70faa949f3f,10
;Gerber Generator version 0.2
M48
METRIC,LZ,000.000
;Holesize 1 = 0.305 METRIC
T01C0.305
;Holesize 2 = 0.306 METRIC
T02C0.306
;Holesize 3 = 1.000 METRIC
T03C1.000
;Holesize 4 = 1.001 METRIC
T04C1.001
;Holesize 5 = 1.016 METRIC
T05C1.016
;Holesize 6 = 1.101 METRIC
T06C1.101
;Holesize 7 = 1.200 METRIC
T07C1.200
;Holesize 8 = 2.800 METRIC
T08C2.800
%
G05
G90
T01
X+048005Y+021368
X+047751Y+002826
X+069595Y+034576
X+070357Y+033306
X+066039Y+073438
X+038099Y+065818
X+038099Y+064548
X+038099Y+063278
X+038099Y+062008
X+038099Y+050578
X+038099Y+049308
X+038099Y+048038
X+038099Y+046768
X+040385Y+038640
X+043433Y+038640
X+035051Y+030258
X+035051Y+028988
X+035051Y+027718
X+035051Y+026448
X+025399Y+062008
X+024637Y+063278
X+024637Y+075470
X+025399Y+075470
X+026161Y+101886
X+026923Y+102902
X+023367Y+056166
X+023621Y+034830
X+034035Y+038640
X+036321Y+053880
X+036067Y+069120
X+061213Y+064040
X+020319Y+106966
X+021843Y+100362
X+023875Y+095790
X+023875Y+089948
X+026161Y+065818
X+023621Y+064548
X+036067Y+074200
X+043021Y+112554
X+034289Y+109760
X+048513Y+121190
X+047751Y+120428
X+046990Y+119666
X+046227Y+118721
X+026669Y+106204
X+044195Y+106458
X+040639Y+060738
X+014985Y+057436
T02
X+066039Y+075978
X+066039Y+070898
X+066039Y+068358
X+066039Y+089440
X+066039Y+086900
X+066039Y+084360
X+066039Y+081820
X+047243Y+039148
T03
X+092725Y+040655
X+092725Y+050655
X+076726Y+040655
X+076726Y+050655
T04
X+013969Y+086138
X+016509Y+086138
X+019049Y+086138
X+013969Y+083598
X+016509Y+083598
X+019049Y+083598
X+013969Y+091980
X+016509Y+091980
X+019049Y+091980
X+013969Y+089440
X+016509Y+089440
X+019049Y+089440
X+013969Y+097822
X+016509Y+097822
X+019049Y+097822
X+013969Y+095282
X+016509Y+095282
X+019049Y+095282
X+013969Y+103664
X+016509Y+103664
X+019049Y+103664
X+013969Y+101124
X+016509Y+101124
X+019049Y+101124
X+061156Y+044482
X+061156Y+047022
T05
X+054770Y+048370
X+052230Y+048370
X+054770Y+050910
X+052230Y+050910
X+054770Y+053450
X+052230Y+053450
X+054770Y+055990
X+052230Y+055990
X+054770Y+058530
X+052230Y+058530
X+054770Y+061070
X+052230Y+061070
X+054770Y+063610
X+052230Y+063610
X+054770Y+066150
X+052230Y+066150
X+054770Y+068690
X+052230Y+068690
X+054770Y+071230
X+052230Y+071230
X+054770Y+073770
X+052230Y+073770
X+054770Y+076310
X+052230Y+076310
X+054770Y+078850
X+052230Y+078850
X+054770Y+081390
X+052230Y+081390
X+054770Y+083930
X+052230Y+083930
X+054770Y+086470
X+052230Y+086470
X+054770Y+089010
X+052230Y+089010
X+054770Y+091550
X+052230Y+091550
X+054770Y+094090
X+052230Y+094090
X+054770Y+096630
X+052230Y+096630
T06
X+004543Y+112941
X+004544Y+109442
X+004544Y+105942
X+004544Y+102442
X+004544Y+098942
X+004544Y+095442
X+004544Y+091942
X+004544Y+088442
X+004544Y+084942
X+004544Y+081442
X+020384Y+049107
X+020384Y+045608
X+020384Y+042108
X+020384Y+038608
X+020384Y+035108
X+020384Y+031608
X+033588Y+019653
X+037087Y+019654
X+040587Y+019654
X+044087Y+019654
X+015046Y+019653
X+018545Y+019654
X+022045Y+019654
X+025545Y+019654
X+004635Y+020913
X+004635Y+017414
X+004635Y+013914
X+004635Y+010414
X+100843Y+036039
X+100844Y+032539
X+100844Y+029040
X+100844Y+025539
X+100844Y+022040
X+100844Y+018539
X+100844Y+015040
X+100844Y+011539
X+100844Y+008040
X+100844Y+004539
X+101729Y+063443
X+101729Y+066942
X+101729Y+070442
X+101729Y+073942
X+101729Y+077442
X+101729Y+080942
X+101729Y+084442
X+101729Y+087942
X+101729Y+091442
X+101729Y+094942
X+101849Y+049876
X+101848Y+053376
X+092994Y+099785
X+089495Y+099784
X+085995Y+099784
X+082495Y+099784
X+078995Y+099784
X+075495Y+099784
X+071995Y+099784
X+068495Y+099784
X+064995Y+099784
X+061495Y+099784
X+004636Y+073999
X+004636Y+070500
X+004636Y+067000
X+004636Y+063500
X+004636Y+060000
X+004636Y+056500
X+020442Y+073999
X+020442Y+070500
X+020442Y+067000
X+020442Y+063500
X+020442Y+060000
X+020442Y+056500
X+033589Y+004667
X+037088Y+004668
X+040588Y+004668
X+044088Y+004668
X+015047Y+004667
X+018546Y+004668
X+022046Y+004668
X+025546Y+004668
X+004695Y+049107
X+004694Y+045608
X+004694Y+042108
X+004694Y+038608
X+004694Y+035108
X+004694Y+031608
X+072453Y+036039
X+072453Y+032539
X+072453Y+029040
X+072453Y+025539
X+072453Y+022040
X+072453Y+018539
X+072453Y+015040
X+072453Y+011539
X+072453Y+008040
X+072453Y+004539
X+053784Y+004664
X+053783Y+008164
X+053783Y+011663
X+053783Y+015164
X+053783Y+018663
X+053783Y+022164
X+053783Y+025663
X+053783Y+029164
X+053783Y+032663
X+053783Y+036164
X+082232Y+004664
X+082231Y+008164
X+082231Y+011663
X+082231Y+015164
X+082231Y+018663
X+082231Y+022164
X+082231Y+025663
X+082231Y+029164
X+082231Y+032663
X+082231Y+036164
T07
X+042925Y+104426
X+040385Y+104426
X+037845Y+104426
X+035305Y+104426
T08
X+003500Y+121499
X+003500Y+003499
X+102499Y+043500
X+102499Y+101499
X+053499Y+101499
X+053499Y+043500
M30
